<?xml version="1.0" encoding="utf-8"?>
<!-- Generator: Adobe Illustrator 24.3.0, SVG Export Plug-In . SVG Version: 6.00 Build 0)  -->
<svg version="1.1" id="Layer_1" xmlns="http://www.w3.org/2000/svg" xmlns:xlink="http://www.w3.org/1999/xlink" x="0px" y="0px"
	 viewBox="0 0 2000 1000" style="enable-background:new 0 0 2000 1000;" xml:space="preserve">
<style type="text/css">
	.st0{clip-path:url(#SVGID_2_);fill:url(#SVGID_3_);}
	.st1{clip-path:url(#SVGID_2_);}
	.st2{fill:url(#SVGID_4_);}
	.st3{fill:#8795BD;}
	.st4{clip-path:url(#SVGID_2_);fill:url(#SVGID_5_);}
	.st5{opacity:0.39;clip-path:url(#SVGID_2_);}
	.st6{fill:#FFFCF0;}
	.st7{fill:#315272;}
	.st8{fill:#2A486B;}
	.st9{fill:#14272B;}
	.st10{clip-path:url(#SVGID_2_);fill:#2A486B;}
	.st11{fill:#595B5D;}
	.st12{fill:#336214;}
	.st13{opacity:0.3;fill:#336214;}
	.st14{fill:url(#SVGID_6_);}
	.st15{opacity:0.3;fill:url(#SVGID_7_);}
	.st16{fill:#549C9B;}
	.st17{fill:url(#SVGID_8_);}
	.st18{opacity:0.4;fill:url(#SVGID_9_);}
	.st19{opacity:0.4;fill:#3C8A86;}
	.st20{opacity:0.4;fill:#7ABFBC;}
	.st21{fill:url(#SVGID_10_);}
	.st22{opacity:0.21;fill:url(#SVGID_11_);}
	.st23{fill:url(#SVGID_12_);}
	.st24{opacity:0.23;fill:url(#SVGID_13_);}
	.st25{fill:#587C12;}
	.st26{fill:#43595A;}
	.st27{fill:#004018;}
	.st28{fill:url(#SVGID_14_);}
	.st29{fill:url(#SVGID_15_);}
	.st30{fill:url(#SVGID_16_);}
	.st31{fill:url(#SVGID_17_);}
	.st32{opacity:0.21;fill:url(#SVGID_18_);}
	.st33{fill:url(#SVGID_19_);}
	.st34{fill:#4F6D0D;}
	.st35{opacity:0.23;fill:url(#SVGID_20_);}
	.st36{fill:#336215;}
	.st37{fill:#404041;}
	.st38{fill:url(#SVGID_21_);}
	.st39{fill:#EEB926;}
	.st40{fill:#D2CEC2;}
	.st41{opacity:0.52;fill:#D2CEC2;}
	.st42{opacity:0.38;fill:url(#SVGID_22_);}
	.st43{fill:#6C9413;}
	.st44{opacity:0.37;fill:#6C9413;}
	.st45{fill:url(#SVGID_23_);}
	.st46{fill:url(#SVGID_24_);}
	.st47{fill:url(#SVGID_25_);}
	.st48{fill:#EB7A00;}
	.st49{fill:url(#SVGID_26_);}
	.st50{fill:url(#SVGID_27_);}
	.st51{fill:url(#SVGID_28_);}
	.st52{fill:url(#SVGID_29_);}
	.st53{opacity:0.4;fill:url(#SVGID_30_);}
	.st54{opacity:0.4;fill:url(#SVGID_31_);}
	.st55{opacity:0.4;fill:#43595A;}
	.st56{fill:url(#SVGID_32_);}
	.st57{fill:url(#SVGID_33_);}
	.st58{opacity:0.3;fill:#FFBC6C;}
	.st59{fill:#596508;}
	.st60{fill:#409427;}
	.st61{fill:#6B6860;}
	.st62{opacity:0.4;fill:#6B6860;}
	.st63{opacity:0.4;fill:#004018;}
	.st64{opacity:0.38;fill:url(#SVGID_34_);}
	.st65{opacity:0.4;fill:#2D8D1D;}
	.st66{fill:url(#SVGID_35_);}
	.st67{opacity:0.5;fill:url(#SVGID_36_);}
	.st68{opacity:0.5;fill:url(#SVGID_37_);}
	.st69{fill:#2D8D1D;}
	.st70{fill:url(#SVGID_38_);}
	.st71{opacity:0.3;fill:url(#SVGID_39_);}
	.st72{opacity:0.4;fill:url(#SVGID_40_);}
	.st73{fill:#AB3A14;}
	.st74{opacity:0.4;fill:#D94A11;}
	.st75{fill:url(#SVGID_41_);}
	.st76{fill:url(#SVGID_42_);}
	.st77{fill:#FFBC6C;}
	.st78{opacity:0.3;fill:url(#SVGID_43_);}
	.st79{fill:#344D10;}
	.st80{opacity:0.3;fill:#344D10;}
	.st81{fill:url(#SVGID_44_);}
</style>
<g>
	<defs>
		<rect id="SVGID_1_" x="-1.5" width="2003" height="1000"/>
	</defs>
	<clipPath id="SVGID_2_">
		<use xlink:href="#SVGID_1_"  style="overflow:visible;"/>
	</clipPath>
	<linearGradient id="SVGID_3_" gradientUnits="userSpaceOnUse" x1="-18098.5293" y1="417.1348" x2="6560.6006" y2="519.7957">
		<stop  offset="0" style="stop-color:#DFFFDB"/>
		<stop  offset="7.735043e-02" style="stop-color:#C8F4E1"/>
		<stop  offset="0.2389" style="stop-color:#8DD7F0"/>
		<stop  offset="0.2574" style="stop-color:#86D4F2"/>
		<stop  offset="0.2647" style="stop-color:#8DD3F0"/>
		<stop  offset="0.2968" style="stop-color:#A9CEE7"/>
		<stop  offset="0.3251" style="stop-color:#B9CBE2"/>
		<stop  offset="0.3466" style="stop-color:#BFCAE0"/>
		<stop  offset="0.3523" style="stop-color:#ACB9D1"/>
		<stop  offset="0.3645" style="stop-color:#899BB6"/>
		<stop  offset="0.3779" style="stop-color:#6C819F"/>
		<stop  offset="0.3927" style="stop-color:#546C8C"/>
		<stop  offset="0.4094" style="stop-color:#415C7D"/>
		<stop  offset="0.429" style="stop-color:#345173"/>
		<stop  offset="0.4543" style="stop-color:#2C4A6D"/>
		<stop  offset="0.506" style="stop-color:#2A486B"/>
		<stop  offset="0.6679" style="stop-color:#2C437B"/>
		<stop  offset="0.7493" style="stop-color:#2D4085"/>
		<stop  offset="0.7624" style="stop-color:#324588"/>
		<stop  offset="0.7777" style="stop-color:#405291"/>
		<stop  offset="0.7941" style="stop-color:#57689F"/>
		<stop  offset="0.8111" style="stop-color:#7887B4"/>
		<stop  offset="0.8286" style="stop-color:#A1AECE"/>
		<stop  offset="0.8395" style="stop-color:#BFCAE0"/>
		<stop  offset="0.9333" style="stop-color:#DFFFDB"/>
	</linearGradient>
	<rect x="-1.5" y="-8" class="st0" width="2003" height="1009.4"/>
	<g class="st1">
		<linearGradient id="SVGID_4_" gradientUnits="userSpaceOnUse" x1="-24580.7246" y1="608.2143" x2="-5059.8311" y2="706.8759">
			<stop  offset="0" style="stop-color:#688468"/>
			<stop  offset="0.3883" style="stop-color:#89A589"/>
			<stop  offset="0.635" style="stop-color:#89A589"/>
			<stop  offset="0.8399" style="stop-color:#C5E4C2"/>
			<stop  offset="0.9972" style="stop-color:#BFCAE0"/>
		</linearGradient>
		<path class="st2" d="M-1.5,664.5v136l110.7,0.6l362.9-50.4C462.8,751.2,165.3,688.3-1.5,664.5z"/>
	</g>
	<g class="st1">
		<g>
			<g>
				<path class="st3" d="M2001.5,624.4c-5,0.7-9.9,2.8-14.1,5.9c-10,7.5-16.8,19.6-23.3,31.4c-0.1-0.1-0.2-0.3-0.3-0.4
					c-1.2-8.4-4.2-16.4-9-22.6c-2.9-3.7-6.6-6.8-10.6-8.1c-1.6-3.6-3-7.3-4.3-11.1c1.3-6.3,1.9-12.6,0.7-18.8
					c-1-4.9-3.7-9.4-7.1-12.2c0-0.2,0-0.4-0.1-0.6c-1.1-0.8-2.1-1.3-3.2-1.4c-2.6-1.1-5.4-1.2-8,0.3c-4.8,2.7-6.7,8.6-7.2,15.3
					c-0.3,0.7-0.5,1.3-0.7,2c-1.4,4.2-2.8,8.3-4.2,12.5c-5.1,1.1-9.8,6.7-11.1,13.3c-1.1,5.6-0.5,11.3,0.9,16.8
					c-1.7,4.9-3.3,9.9-5,14.8c-11.2,6.6-19.1-14-29.1-23c-14.4-13-38.7,8.2-32.8,28.5c-6.7-14.4-23.8-20.2-35.8-12.2
					c-10.3-18.1-22.5-37.7-40.5-41.3c-18-3.7-38.1,22.4-26.6,39.3c-5.7-9.9-19.5-11-26.2-2.1c-6.8,8.9-4.5,25.1,4.3,30.9
					c-6.8-1.7-13.6-3.7-20.4-5.8c-1-1.8-2-3.5-3-5.3c-3-5.3-6.2-10.8-10.8-13.7c-5.4-3.3-12.5-2.3-17.1,2.6c-1.2,1.2-2.2,2.7-3,4.3
					c-2.3-0.9-4.6-1.9-6.9-2.9c-2.1-4.4-4.6-8.4-7.7-11.7c-7.1-3.2-14.9-4.1-22.3-2.4c-4.2,4.6-2.8,13.7,1.4,18.4
					c3.8,4.3,9.1,5.8,14.2,6.7c2.4,4.2,4.7,8.5,7.1,12.7c-5.2,4-8.7,11.2-8.8,18.6c-12.3-2.5-21.6-13.8-30.8-23.8s-20.8-19.5-33-17
					c-12.3,2.5-20.3,24.2-10,32.5c-9.8-7-24-3.3-30.5,7.9c-0.9,1.6-1.6,3.4-2.2,5.3c-5.4-2.2-11.7-2.2-17.6-2
					c-0.2-7.3-0.4-14.7-3.4-21.4c-2.9-6.6-9.2-12.4-16.5-12.3c-2.1,5.7-2.9,11.8-2.1,17.8c-8.5,5.3-15.7,12.7-20.9,21.2
					c-3.8,2.3-8.8-1.7-9.7-6.1c-0.9-4.4,0.7-8.9,1-13.3c0.3-4.5-1.3-9.8-5.6-11c-7.8-3.1-9.6,15.8-17.9,14.5
					c-5.1-0.7-7.6-9.1-12.5-7.7c-3.5,7.1-8.5,13.5-14.7,18.4c-6.2-3.8-5-13.2-1.4-19.5c3.5-6.3,8.8-12.4,8.4-19.6
					c-7.1-0.5-14.3,1.9-19.8,6.5c-2-7.3-4.4-14.5-7.4-21.4c-7.4-1.3-14.2,8-10.8,14.7c-4.6,0.6-9.3,0.3-13.8-0.9
					c-1.4,5-2.7,9.9-4.1,14.9c-3.4-5.8-12.8-6.6-17.2-1.5c-2.3,2.6-3.9,6.8-7.4,6.8c-2.2,0-3.9-1.7-5.5-3.2
					c-6.7-6.4-18.3-10.5-24.8-3.9c-4.6,4.6-4.3,12.4-8.6,17.3c-4.7,5.3-14.5,7.3-14.3,14.4c0,1.8,0.8,3.4,1.7,5
					c3.7,6.6,9.3,12,15.9,15.7c-1.1,2.2-2.2,4.4-3.4,6.6c-9.5-7.8-19.5-15.8-31-16.8c-11.4-1-24.4,8-25,21.6
					c-17.4-15.6-35.8-29.6-54.9-41.8c-5.3-3.4-10.9-6.7-16.9-6.8c-18.8-0.3-27,27.7-29.7,49.9c-5.3-14.3-20.8-19.9-33.7-16.6
					c-12.8,3.4-23.6,13.6-33.6,23.7c-12.9,13.1-26.4,29.2-26.2,49.3c78.7,14.6,157.4,29.2,236,43.8c15,2.8,30.2,5.6,45.3,3.9
					c21.4-2.4,41.3-13.7,62.5-18.2c37-7.8,74.5,5.6,111,16.1c53.7,15.4,108.6,24.6,163.3,33.8c19.5,3.3,39.7,6.5,58.4-0.6
					c11.8-4.4,22.3-12.8,34.2-16.8c23.1-7.8,47.6,1.6,70.7,9.6c58.3,20.4,118.5,32.7,179.1,36.8V624.4z M1529.4,739.5
					c-1-1.6-1.8-3.3-2-4.9c1.1,1.8,2.3,3.4,3.8,4.8C1530.6,739.4,1530,739.5,1529.4,739.5z"/>
			</g>
		</g>
	</g>
	<linearGradient id="SVGID_5_" gradientUnits="userSpaceOnUse" x1="-18184.1113" y1="632.1468" x2="6604.436" y2="980.2598">
		<stop  offset="2.508229e-02" style="stop-color:#5A8E54"/>
		<stop  offset="0.1075" style="stop-color:#FFF0CD"/>
		<stop  offset="0.1956" style="stop-color:#D8BB8D"/>
		<stop  offset="0.2265" style="stop-color:#D1B68C"/>
		<stop  offset="0.2727" style="stop-color:#BCA988"/>
		<stop  offset="0.3287" style="stop-color:#9A9281"/>
		<stop  offset="0.3922" style="stop-color:#6C7378"/>
		<stop  offset="0.4613" style="stop-color:#314C6C"/>
		<stop  offset="0.4686" style="stop-color:#2A486B"/>
		<stop  offset="0.8047" style="stop-color:#2A486B"/>
		<stop  offset="0.8192" style="stop-color:#445D77"/>
		<stop  offset="0.8502" style="stop-color:#889396"/>
		<stop  offset="0.8951" style="stop-color:#F4E8C8"/>
		<stop  offset="0.8994" style="stop-color:#FFF0CD"/>
		<stop  offset="0.9088" style="stop-color:#E4E0B9"/>
		<stop  offset="0.9274" style="stop-color:#B3C395"/>
		<stop  offset="0.9451" style="stop-color:#8CAC79"/>
		<stop  offset="0.9613" style="stop-color:#719B65"/>
		<stop  offset="0.9755" style="stop-color:#609258"/>
		<stop  offset="0.9862" style="stop-color:#5A8E54"/>
	</linearGradient>
	<path class="st4" d="M1957.5,795.3c-13.7,0-27.5,0.1-41.2,0.1c-64.4,0.2-128.7,0.3-193.1,0.5c-4.8,0-9.7,0-14.5,0
		c-31.8,0.1-63.5,0.2-95.3,0.2c-49.9,0.1-99.7,0.2-149.6,0.4c-10.4,0-20.8,0.1-31.2,0.1c-9.1,0-18.3,0-27.4,0.1
		c-65.7,0.2-131.3,0.3-197,0.5c-14,0-27.9,0.1-41.9,0.1c-68.6,0.2-137.2,0.3-205.9,0.5c25.7-4.6,53.6-7.7,85.2-8.4
		c97.4-2.2,165.6-2.8,165.6-2.8c-90.5-15.6-566-23.4-1212.7-27.1v259l86.1,0.2c0,0,2.3-5.2,8.1-13.5h1908.8v-210
		C1986.8,795.2,1972.2,795.3,1957.5,795.3z"/>
	<g class="st5">
		<circle class="st6" cx="44.8" cy="42" r="1.6"/>
	</g>
	<g class="st5">
		<circle class="st6" cx="123.8" cy="18.6" r="3.2"/>
		<circle class="st6" cx="347.5" cy="103.2" r="3.2"/>
		<circle class="st6" cx="873.7" cy="118.4" r="1.6"/>
		<circle class="st6" cx="944.3" cy="16" r="1.6"/>
		<circle class="st6" cx="791.7" cy="88.6" r="1.6"/>
		<circle class="st6" cx="711.5" cy="9.2" r="1.6"/>
		<circle class="st6" cx="563.9" cy="65.5" r="1.6"/>
		<path class="st6" d="M407.7,125.1c0,0.9-0.7,1.6-1.6,1.6c-0.9,0-1.6-0.7-1.6-1.6s0.7-1.6,1.6-1.6
			C407,123.5,407.7,124.2,407.7,125.1z"/>
		<circle class="st6" cx="93.4" cy="106.4" r="1.6"/>
		<circle class="st6" cx="32.9" cy="69.4" r="1.6"/>
		<circle class="st6" cx="903" cy="140.5" r="3.2"/>
	</g>
	<g class="st5">
		<circle class="st6" cx="563.1" cy="244.5" r="3.2"/>
		<circle class="st6" cx="786.7" cy="329" r="3.2"/>
		<circle class="st6" cx="1312.9" cy="344.3" r="1.6"/>
		<circle class="st6" cx="1383.5" cy="241.9" r="1.6"/>
		<circle class="st6" cx="1230.9" cy="314.5" r="1.6"/>
		<circle class="st6" cx="1150.8" cy="235.1" r="1.6"/>
		<circle class="st6" cx="1003.1" cy="291.4" r="1.6"/>
		<path class="st6" d="M846.9,351c0,0.9-0.7,1.6-1.6,1.6c-0.9,0-1.6-0.7-1.6-1.6s0.7-1.6,1.6-1.6C846.2,349.4,846.9,350.1,846.9,351
			z"/>
		<circle class="st6" cx="728.7" cy="223.7" r="1.6"/>
		<circle class="st6" cx="532.6" cy="332.3" r="1.6"/>
		<circle class="st6" cx="416.7" cy="220.5" r="1.6"/>
		<circle class="st6" cx="472.1" cy="295.2" r="1.6"/>
		<circle class="st6" cx="1342.3" cy="366.4" r="3.2"/>
	</g>
	<g class="st5">
		<circle class="st6" cx="1344.3" cy="38.8" r="3.2"/>
		<circle class="st6" cx="1567.9" cy="123.4" r="3.2"/>
		<circle class="st6" cx="1932" cy="29.4" r="1.6"/>
		<circle class="st6" cx="1784.3" cy="85.7" r="1.6"/>
		<path class="st6" d="M1628.2,145.3c0,0.9-0.7,1.6-1.6,1.6c-0.9,0-1.6-0.7-1.6-1.6s0.7-1.6,1.6-1.6
			C1627.4,143.7,1628.2,144.4,1628.2,145.3z"/>
		<circle class="st6" cx="1510" cy="18.1" r="1.6"/>
		<circle class="st6" cx="1313.8" cy="126.6" r="1.6"/>
		<circle class="st6" cx="1197.9" cy="14.9" r="1.6"/>
		<circle class="st6" cx="1253.3" cy="89.6" r="1.6"/>
	</g>
	<g class="st1">
		<g>
			<path class="st7" d="M1710.4,886.1c-3.6-0.4-7.4,0.4-10.5,2.4c-1,0.7-2,1.5-3.2,1.9c-0.8,0.2-1.6,0.3-2.4,0.4
				c-1.7,0.3-3.4,1.1-4.7,2.3c-0.9,0.8-0.4,2.5,0.6,3.1c1,0.7,2.3,0.7,3.6,0.6c6.4-0.2,12.8-0.3,19.2-0.5
				C1714.9,893.2,1709.6,889.7,1710.4,886.1z"/>
		</g>
	</g>
	<g class="st1">
		<g>
			<path class="st7" d="M1878,889.8c12.6,2.7,25.6,3.4,38.5,4c0.4-3.6-0.3-7.3-1.9-10.5c-6.4-1.7-13-3.2-19.6-2.7
				C1888.3,881.2,1881.6,884.2,1878,889.8z"/>
		</g>
	</g>
	<g class="st1">
		<g>
			<path class="st7" d="M1567.3,936c-1.2-2.1-3.9-2.7-6.3-3c-2.2-0.2-4.4-0.2-6.6-0.6c-4-0.8-7.9-2.9-12-2.5
				c-4.5,0.4-8.2,3.6-12.2,5.6c-0.6,1.8,1.5,3.3,3.3,4c3.9,1.6,7.8,3.2,11.9,3.9c4.1,0.7,8.5,0.5,12.2-1.5
				C1561,940,1563.7,936.9,1567.3,936z"/>
		</g>
	</g>
	<g class="st1">
		<g>
			<path class="st7" d="M1159.1,953.2c5.4-1.6,11.7,0.9,16.6-1.8c1.7-2.5-0.3-6.1-3.1-7.2c-2.8-1-6-0.2-8.8,0.7
				c-2.9,0.9-5.8,2.1-8.8,1.6c0.4-0.7-0.3-1.5-0.8-2c-1.5-1.4-3-2.8-4.5-4.2c-4.9,0.1-9.3,2.6-13.5,4.9c0.9,0.7,1.9,1.3,2.9,1.9
				c3.4,2.1,6.8,4.2,10.2,6.3c0.9,0.6,1.8,1.1,2.9,1.3C1154.5,955.3,1156.8,953.9,1159.1,953.2z"/>
		</g>
	</g>
	<g class="st1">
		<g>
			<path class="st7" d="M1183.1,937.9c1.6,0.3,3.4,0.5,4.8-0.4c0.8-0.6,1.3-1.4,1.7-2.3c1.1-2.1,2.3-4.2,3.4-6.3
				c-6-1.7-12.4-2.1-18.6-1.3c1.4,1,2.3,2.7,2.4,4.4c0,0.7,0,1.3,0.1,1.9C1177.3,936.4,1180.5,937.4,1183.1,937.9z"/>
		</g>
	</g>
	<g class="st1">
		<g>
			<path class="st7" d="M852.2,949.6c0.2-0.6,0.7-1.2,0.7-1.9c0.1-1.3-1.4-2.1-2.6-2.4c-7.6-2-16.2,0.7-21.3,6.7
				c-0.3,0.3-0.5,0.6-0.5,1c0,0.4,0.2,0.7,0.4,1c4.2,5.7,12.4,8.2,19.1,5.6c2.7-1,5.4-3.5,4.9-6.3
				C852.7,952.1,851.9,950.8,852.2,949.6z"/>
		</g>
	</g>
	<g class="st1">
		<g>
			<path class="st7" d="M1826.8,944.4c6.4,0.9,12.9,1.7,19.3,2.6c4.8,0.6,9.8,1.3,14.6,0.2c4.8-1.1,9.3-4.4,10.5-9.2
				c-6.4-1.7-13-3.4-19.5-2.4c-5.5,0.8-10.5,3.5-16,4.1C1831.9,940,1826.8,940.7,1826.8,944.4z"/>
		</g>
	</g>
	<g class="st1">
		<g>
			<path class="st7" d="M1881.1,945.8c0.5,1.3,1.7,2.3,3,3c4.3,2.3,9.9,1.8,13.7-1.2c2.4-1.9,4.4-4.9,7.4-5.4c1.5-0.3,3,0.1,4.5-0.1
				c1.5-0.2,3.1-1.3,2.9-2.8c-6.8-0.3-13.7-0.6-20.5-0.9c-2.7-0.1-5.4-0.2-7.8,1C1882,940.4,1880.2,943.3,1881.1,945.8z"/>
		</g>
	</g>
	<g class="st1">
		<g>
			<path class="st7" d="M282.2,947.2c-3.8-1.8-7.5-3.5-11.3-5.3c-2.3-1.1-4.7-2.2-7-3.2c-0.9-0.4-1.8-0.8-2.7-0.7
				c-0.9,0.1-1.7,0.5-2.5,0.9c-5,2.7-9.9,5.5-14.9,8.2c10.5,5.2,22.8,4.5,34.4,3.7C280.3,950.7,283.4,949,282.2,947.2z"/>
		</g>
	</g>
	<g class="st1">
		<g>
			<path class="st7" d="M461.6,875.4c-3.1-1.7-7-1.6-10,0.2c-1.3,1.6,1.6,3.2,3.6,3.2c5.1,0,10.3,0,15.4,0c0-2.6,0-5.3,0-7.9
				c-3.8,0-7.5-0.1-11.3-0.1c-1.4,0-3.3,1.5-2.1,2.2L461.6,875.4z"/>
		</g>
	</g>
	<g class="st1">
		<g>
			<path class="st8" d="M179,961.6c-3.4,2.2-6.4,4.9-8.9,8c13.2,7.1,29.3,8.6,43.5,3.9c2.9-4.1-2.1-9.5-7-10.3
				c-4.9-0.7-10.1,0.8-14.8-0.9c-2.7-0.9-5.1-2.9-7.9-2.7C182.1,959.7,180.5,960.6,179,961.6z"/>
		</g>
	</g>
	<g class="st1">
		<g>
			<path class="st8" d="M900.5,967.6c-1.2,1-2.5,2.5-1.9,3.9c9.5-0.4,18.6,7.7,27.7,4.9c4.4-1.4,8.5-5.2,13-3.9
				c0-1.4-0.1-2.8-0.1-4.2c-5.2-2.1-10.4-4.2-15.5-6.3c-2.3-0.9-4.6-1.8-7-2C910.5,959.5,905.1,963.7,900.5,967.6z"/>
		</g>
	</g>
	<g class="st1">
		<g>
			<path class="st8" d="M725.9,969.4c1.8,0.1,3.8,0.2,5.3-0.7c1.6-0.9,2.3-3.3,1-4.6c-3.6-0.8-7.3-1.6-11-1.2
				c-3.7,0.4-7.4,2.3-9.1,5.6C716.7,968.7,721.3,969,725.9,969.4z"/>
		</g>
	</g>
	<g class="st1">
		<g>
			<path class="st8" d="M1783.7,982.3c14.6,8.5,33.6,8.9,48.7,1.2c0.5-2.5-1.5-4.9-3.8-5.9c-2.3-1-4.9-1-7.4-1.2
				c-6.8-0.5-13.4-2.8-20.3-3C1794.1,973.3,1786.4,976,1783.7,982.3z"/>
		</g>
	</g>
	<g class="st1">
		<g>
			<path class="st8" d="M1389.6,982.9c9.8,2.1,19.8,2.7,29.7,1.8c-2.3-10-14.3-16.4-23.9-12.7c0.3,0.8,0.6,1.7,0.8,2.5
				C1392.6,975.5,1389.7,979.1,1389.6,982.9z"/>
		</g>
	</g>
	<g class="st1">
		<path class="st9" d="M2001.5,725.6c-5.4,18.6-10,36-10,36l10,8.3V725.6z"/>
		<path class="st9" d="M2001.5,728.2c-4.2-14.4-8.7-28.2-10-28.2c-2.9,0-19.1,60.7-19.1,60.7l19.1,15.9l10-8.3V728.2z"/>
	</g>
	<g class="st1">
		<g>
			<path class="st7" d="M873.3,795.4c-30.5-20.3-62.9-37.3-96.6-50.5c-13.1-0.4-26.1-0.9-39.2-1.3c24.1,15.7,47,33.7,69.4,52.3
				C829.1,795.7,851.2,795.6,873.3,795.4z"/>
		</g>
	</g>
	<g class="st1">
		<g>
			<path class="st8" d="M1033.7,798.5c125-0.9,296.4,7.3,421.3,6.4c-135.6-15.4-311.1-40.8-447.2-49.2
				C1019.6,767.5,1023.5,785,1033.7,798.5z"/>
		</g>
	</g>
	<g class="st1">
		<g>
			<path class="st7" d="M1026.8,794.3c-25.3-16.1-51.8-30.2-79.1-42.1c-7.8-0.4-15.5-0.8-23.3-1.2c18.8,12,36,26.8,51.1,43.7
				C992.5,794.6,1009.6,794.4,1026.8,794.3z"/>
		</g>
	</g>
	<g class="st1">
		<g>
			<path class="st7" d="M958.5,794.8c-30.1-18.3-61.7-34-94.3-46.7c-12.4-0.5-24.7-1-37.1-1.5c21.6,14,41.8,30.3,60.4,48.7
				C911.2,795.1,934.8,795,958.5,794.8z"/>
		</g>
	</g>
	<g class="st1">
		<g>
			<path class="st7" d="M542.3,797.8c24.3-0.2,48.7-0.3,73-0.5c-31.3-23.6-64.8-43.7-99.9-59.9c-8.4-0.2-16.8-0.5-25.3-0.7
				C511,753.1,528.8,774,542.3,797.8z"/>
		</g>
	</g>
	<g class="st1">
		<g>
			<path class="st7" d="M232.6,807.9c7.4,0,14.8,0,22.2,0c17.7,0,35.5-0.1,53.2-0.8c-35.7-34.2-78.8-58.6-123.8-79
				c-9-0.2-17.9-0.5-26.9-0.7C186.4,749.4,212,776.7,232.6,807.9z"/>
		</g>
	</g>
	<g class="st1">
		<g>
			<path class="st7" d="M315,806.8c0.6,0,1.2,0,1.8-0.1c19.6-1.1,39.1-3.1,58.6-4.6c2.5-0.2,5.1-0.3,7.6-0.5
				c-29.8-27.5-62.6-51.3-97.5-70.7c-9.9-0.3-19.8-0.6-29.6-0.8C278.5,752.2,297.4,779.2,315,806.8z"/>
		</g>
	</g>
	<g class="st1">
		<g>
			<path class="st7" d="M442.3,798.9c-25.1-23.9-51.8-46-79.8-65.9c-4.9-0.1-9.8-0.3-14.7-0.4c18.6,20.5,34.7,43.9,49.7,68.1
				C412.4,799.9,427.3,799.3,442.3,798.9z"/>
		</g>
	</g>
	<g class="st1">
		<g>
			<path class="st7" d="M142.4,807.9c24.2,0,48.5,0,72.7-0.1c-40.2-32.2-83.6-59.9-129.2-82.5c-1.8,0-3.5-0.1-5.3-0.1v18.5
				C103.3,763,124.3,784.3,142.4,807.9z"/>
		</g>
	</g>
	<g class="st1">
		<g>
			<path class="st7" d="M80.6,789.4V808c8.1,0,16.1,0,24.2,0C96.8,801.7,88.8,795.5,80.6,789.4z"/>
		</g>
	</g>
	<g class="st1">
		<g>
			<path class="st7" d="M717.7,796.5c17.2-0.1,34.3-0.2,51.5-0.4c10.9-0.1,21.9-0.2,32.8-0.2c-33.9-21.8-70-39.8-107.5-53.6
				c-10.9-0.3-21.7-0.6-32.6-0.9c-0.7,0-1.5,0-2.2-0.1C682.1,755.5,702,774.3,717.7,796.5z"/>
		</g>
	</g>
	<g class="st1">
		<g>
			<path class="st7" d="M697.5,796.6c3.1,0,6.3,0,9.4-0.1c-35-26.8-74.9-46.3-116.8-57.2c-14.4-0.4-28.8-0.8-43.2-1.2
				c31.2,12.8,59.7,33.1,82.8,58.9C652.3,797,674.9,796.8,697.5,796.6z"/>
		</g>
	</g>
	<g class="st1">
		<g>
			<path class="st7" d="M460.9,798.5c18.4-0.3,36.7-0.5,55.1-0.6c5,0,10-0.1,15-0.1c-27.2-27.2-61.1-46.7-96.7-62.8
				c-9-0.3-18-0.5-27-0.8C428.5,752.1,446.6,774,460.9,798.5z"/>
		</g>
	</g>
	<g class="st1">
		<g>
			<path class="st8" d="M717.7,796.5c-15.7-22.2-35.6-41.1-58-55.2c-23.2-0.6-46.3-1.3-69.5-1.9c41.9,10.9,81.8,30.3,116.8,57.2
				C710.5,796.6,714.1,796.5,717.7,796.5z"/>
		</g>
	</g>
	<g class="st1">
		<g>
			<path class="st8" d="M542.3,797.8c-13.5-23.7-31.3-44.6-52.2-61.1c-18.6-0.5-37.2-1-55.9-1.6c35.6,16,69.6,35.5,96.7,62.8
				C534.8,797.8,538.6,797.8,542.3,797.8z"/>
		</g>
	</g>
	<g class="st1">
		<g>
			<path class="st8" d="M629.7,797.1c-23.1-25.8-51.6-46.1-82.8-58.9c-10.5-0.3-21-0.6-31.5-0.9c35.1,16.2,68.7,36.3,99.9,59.9
				C620.1,797.2,624.9,797.2,629.7,797.1z"/>
		</g>
	</g>
	<g class="st1">
		<g>
			<path class="st8" d="M806.9,795.9c-22.4-18.6-45.3-36.6-69.4-52.3c-14.4-0.4-28.7-0.8-43.1-1.2c37.4,13.8,73.5,31.8,107.5,53.6
				C803.6,795.9,805.3,795.9,806.9,795.9z"/>
		</g>
	</g>
	<g class="st1">
		<g>
			<path class="st8" d="M1040.6,794.2c-10.3-13.5-21-26.7-32.7-38.5c-20.1-1.2-40.1-2.4-60.2-3.5c27.3,11.8,53.8,25.9,79.1,42.1
				C1031.4,794.3,1036,794.2,1040.6,794.2z"/>
		</g>
	</g>
	<g class="st1">
		<g>
			<path class="st8" d="M975.4,794.7c-15.1-16.9-32.3-31.6-51.1-43.7c-20-1-40.1-2-60.1-2.9c32.6,12.7,64.1,28.3,94.3,46.7
				C964.1,794.8,969.7,794.7,975.4,794.7z"/>
		</g>
	</g>
	<g class="st1">
		<g>
			<path class="st8" d="M232.6,807.9c-20.6-31.1-46.2-58.5-75.3-80.5c-23.8-0.7-47.6-1.3-71.3-2c45.6,22.6,89,50.3,129.2,82.5
				C220.9,807.9,226.7,807.9,232.6,807.9z"/>
		</g>
	</g>
	<g class="st1">
		<g>
			<path class="st8" d="M104.8,808c12.5,0,25,0,37.6,0c-18.1-23.6-39-45-61.7-64.2v45.6"/>
		</g>
	</g>
	<g class="st1">
		<g>
			<path class="st8" d="M887.5,795.3c-18.5-18.4-38.7-34.7-60.4-48.7c-2.5-0.1-5-0.2-7.5-0.3c-14.3-0.5-28.6-1-43-1.4
				c33.7,13.2,66.2,30.2,96.6,50.5C878.1,795.4,882.8,795.3,887.5,795.3z"/>
		</g>
	</g>
	<g class="st1">
		<g>
			<path class="st8" d="M315,806.8c-17.6-27.6-36.5-54.5-59.1-76.7c-23.9-0.7-47.9-1.3-71.8-2c45.1,20.4,88.1,44.8,123.8,79
				C310.3,807,312.6,806.9,315,806.8z"/>
		</g>
	</g>
	<g class="st1">
		<g>
			<path class="st8" d="M460.9,798.5c-14.2-24.5-32.4-46.4-53.6-64.2c-14.9-0.4-29.8-0.8-44.8-1.2c28,19.9,54.7,42,79.8,65.9
				C448.5,798.8,454.7,798.6,460.9,798.5z"/>
		</g>
	</g>
	<g class="st1">
		<g>
			<path class="st8" d="M397.5,800.7c-15-24.2-31-47.6-49.7-68.1c-20.8-0.6-41.5-1.2-62.3-1.7c34.9,19.4,67.7,43.2,97.5,70.7
				C387.8,801.3,392.7,801,397.5,800.7z"/>
		</g>
	</g>
	<path class="st10" d="M192.3,788.2c0,0-80.2-57.3-111.6-63c-31.4-5.7-59.4,5.7-59.4,5.7s-0.8,1.3-22.8,3.1v89.9l21.6,2.4l178.1-2.7
		L192.3,788.2z"/>
	<g class="st1">
		<g>
			<g>
				<g>
					<g>
						<g>
							<polygon class="st11" points="-1.5,715.9 -1.5,762.9 42.6,763.2 							"/>
						</g>
					</g>
				</g>
			</g>
		</g>
	</g>
	<g class="st1">
		<g>
			<polygon class="st12" points="909.5,791.8 912.8,810.3 936.3,809.6 936.3,804.3 963,804.3 963,791.8 			"/>
			<polygon class="st13" points="909.5,791.8 912.8,810.3 936.3,809.6 936.3,804.3 949.3,804.3 934.2,791.8 			"/>
		</g>
		<g>
			<path class="st12" d="M1645.5,662.6l40.4-0.5c0-1.1-0.1-2.2-0.2-3.2c-1.9-14.5-14.6-18.4-25.2-19.2c-7.9-0.6-14.5,0.7-14.5,0.7
				L1645.5,662.6z"/>
			<path class="st13" d="M1645.5,662.6l40.4-0.5c0-1.1-0.1-2.2-0.2-3.2c-12.1-2.9-20.3-11.8-25.2-19.2c-7.9-0.6-14.5,0.7-14.5,0.7
				L1645.5,662.6z"/>
		</g>
		<g>
			
				<linearGradient id="SVGID_6_" gradientUnits="userSpaceOnUse" x1="1706.6748" y1="817.3129" x2="1733.7623" y2="782.9739" gradientTransform="matrix(-1 0 0 1 2219.0879 0)">
				<stop  offset="0" style="stop-color:#608715"/>
				<stop  offset="1" style="stop-color:#808016"/>
			</linearGradient>
			<polygon class="st14" points="490.1,787.5 490.1,816.1 510.3,816.2 510.2,787.4 			"/>
			
				<linearGradient id="SVGID_7_" gradientUnits="userSpaceOnUse" x1="1711.0134" y1="818.8568" x2="1728.3073" y2="796.9333" gradientTransform="matrix(-1 0 0 1 2219.0879 0)">
				<stop  offset="0" style="stop-color:#608715"/>
				<stop  offset="1" style="stop-color:#808016"/>
			</linearGradient>
			<path class="st15" d="M490.1,802.7v13.4h19.2v-15.7C502.8,802.2,495.7,802.7,490.1,802.7z"/>
		</g>
		<path class="st16" d="M718.5,732.7l1.8,0l27.8,0.3c0,0,8.5-15.9,19.8-26.6c1.5-1.4,3-2.7,4.5-3.9c1.2-0.9,2.5-1.8,3.7-2.5
			c11.9-7,31.8-9.5,39.8-10.3c2.2-0.2,3.4-0.3,3.4-0.3s-7.1-48.9-8.4-56.2c-0.1-0.6-0.2-0.9-0.2-0.9h-67.5c0,0-3.4,0-12.6,28.7
			C721.4,689.8,718.5,732.7,718.5,732.7z"/>
		<g>
			
				<linearGradient id="SVGID_8_" gradientUnits="userSpaceOnUse" x1="988.442" y1="794.5549" x2="902.3047" y2="826.2377" gradientTransform="matrix(-1 0 0 1 2219.0879 0)">
				<stop  offset="0" style="stop-color:#696860"/>
				<stop  offset="0.99" style="stop-color:#464B53"/>
			</linearGradient>
			<path class="st17" d="M1249,801.1l0.5,44.4l19.1-10.2l64.3-34.2l-42.4-28.6l-11.1,7.6L1249,801.1z M1288.4,820.8l8.3-33
				l20.9,14.8L1288.4,820.8z M1283.5,819.9l-9.6-5.8l-15.3-9.3l19.1-12.4l10.8-7L1283.5,819.9z M1256,837.3l0.7-27l16.1,9.3l9,5.2
				l-11.7,5.7L1256,837.3z"/>
			
				<linearGradient id="SVGID_9_" gradientUnits="userSpaceOnUse" x1="960.7668" y1="796.142" x2="897.8953" y2="819.2672" gradientTransform="matrix(-1 0 0 1 2219.0879 0)">
				<stop  offset="0" style="stop-color:#696860"/>
				<stop  offset="0.99" style="stop-color:#464B53"/>
			</linearGradient>
			<path class="st18" d="M1268.6,835.3l64.3-34.2l-42.4-28.6l-11.1,7.6c-0.4,3.6-0.9,7.7-1.6,12.3l10.8-7l-5,34.4l-9.6-5.8
				c-0.4,1.8-0.8,3.7-1.2,5.5l9,5.2l-11.7,5.7C1269.6,832.2,1269.1,833.8,1268.6,835.3z M1288.4,820.8l8.3-33l20.9,14.8
				L1288.4,820.8z"/>
		</g>
		<path class="st19" d="M718.5,732.7l1.8,0c2.6-46.5,25.2-95.4,25.2-95.4l21.5,1l1,68.1l0,1.2l4.5-5.1l1.1-1.2l-1-64.7l36,0.7
			c0,0,5.7,40.3,7.4,52.4c2.2-0.2,3.4-0.3,3.4-0.3s-7.1-48.9-8.4-56.2c-0.1-0.6-0.2-0.9-0.2-0.9h-67.5c0,0-3.4,0-12.6,28.7
			C721.4,689.8,718.5,732.7,718.5,732.7z"/>
		<g>
			<polygon class="st16" points="1398.4,645.3 1399.8,650.2 1418,712.7 1438.4,712.4 1439.3,712.4 1460.7,645.3 			"/>
			<polygon class="st16" points="1399.8,650.2 1457.3,649.2 1438.4,712.4 1439.3,712.4 1460.7,645.3 1398.4,645.3 			"/>
			<path class="st20" d="M1452,663.1c-1.3-0.7-48.2-12.2-48.2-12.2l5.9,11.5l38.9,9.6L1452,663.1z"/>
		</g>
		<g>
			
				<linearGradient id="SVGID_10_" gradientUnits="userSpaceOnUse" x1="1425.9481" y1="714.8606" x2="1432.3589" y2="797.7119" gradientTransform="matrix(-1 0 0 1 2219.0879 0)">
				<stop  offset="0" style="stop-color:#004018"/>
				<stop  offset="1" style="stop-color:#004330"/>
			</linearGradient>
			<path class="st21" d="M742,812.5h9.3c0,0,0-0.1,0-0.1c-1.9-7.1-2.9-14.5-2.9-22.1c0-20.4,7.2-39.1,19.1-53.8
				c15.6-19.1,39.3-31.3,65.9-31.3c2.6,0,5.2,0.1,7.8,0.4c0,0,0.1,0,0.1,0l-2.5-7c-25.3,1.6-59.2,7.6-76.9,27.3
				c-0.1,0.1-0.3,0.3-0.4,0.4C731.6,760.2,742,812.5,742,812.5z"/>
			
				<linearGradient id="SVGID_11_" gradientUnits="userSpaceOnUse" x1="1463.6294" y1="740.2138" x2="1468.2567" y2="800.0165" gradientTransform="matrix(-1 0 0 1 2219.0879 0)">
				<stop  offset="0" style="stop-color:#004018"/>
				<stop  offset="1" style="stop-color:#004330"/>
			</linearGradient>
			<path class="st22" d="M742,812.5h9.3c0,0,0-0.1,0-0.1c-1.9-7.1-2.9-14.5-2.9-22.1c0-20.4,7.2-39.1,19.1-53.8l-6-10.1
				C731.6,760.2,742,812.5,742,812.5z"/>
		</g>
		
			<linearGradient id="SVGID_12_" gradientUnits="userSpaceOnUse" x1="1530.0292" y1="841.9579" x2="1660.5935" y2="676.4406" gradientTransform="matrix(-1 0 0 1 2219.0879 0)">
			<stop  offset="0" style="stop-color:#608715"/>
			<stop  offset="1" style="stop-color:#808016"/>
		</linearGradient>
		<path class="st23" d="M509.3,763.1v53H531c0,0,1.7-13.9,7.9-30c11.7-30.8,39.5-69.7,101.6-35.8c17.4,9.5,24.3,30.4,25.9,42.9
			c0,0.1,0,0.2,0,0.3c0.8,6.6,1,12.9,0.8,18.5c0,0.2,0,0.4,0,0.5h42.5c0,0-5.3-41.7,1.2-95.1c0.8-6.2,1.7-12.6,2.7-19.2
			c0.2-0.9,0.3-1.7,0.5-2.6c0.9-5.9,1.8-10.1,2.5-13.1c0.4-2.1,0.9-4.1,1.3-6.1c-3.5,0.5-69.1,4.8-124.9,25.3
			C543.9,719.9,517.6,749.8,509.3,763.1z"/>
		
			<linearGradient id="SVGID_13_" gradientUnits="userSpaceOnUse" x1="1508.1973" y1="764.9808" x2="1565.5221" y2="764.9808" gradientTransform="matrix(-1 0 0 1 2219.0879 0)">
			<stop  offset="0" style="stop-color:#608715"/>
			<stop  offset="1" style="stop-color:#336215"/>
		</linearGradient>
		<path class="st24" d="M653.6,755.9c7.5,11.4,11.2,24.8,12.8,37.3c0,0.1,0,0.2,0,0.3c0.8,6.6,1,12.9,0.8,18.5c0,0.2,0,0.3,0,0.5
			h42.5c0,0-5.3-41.7,1.2-95.1C698.4,732.5,681.7,747.6,653.6,755.9z"/>
		<rect x="669" y="772" class="st25" width="42.6" height="7.2"/>
		<path class="st26" d="M743.3,632.4l3.5-10.7h62.6h2.7h7l10.7,67.3c0,0-8.2-0.1-11.9,0.1l-7.2-56.7H743.3z"/>
		<path class="st27" d="M778.5,621.7c1.5,0,2.4,74.3,2.4,74.3l-9.7,5.8l-1.9-81.2L778.5,621.7z"/>
		
			<linearGradient id="SVGID_14_" gradientUnits="userSpaceOnUse" x1="1487.0231" y1="594.4529" x2="1389.3939" y2="640.309" gradientTransform="matrix(-1 0 0 1 2219.0879 0)">
			<stop  offset="0" style="stop-color:#608715"/>
			<stop  offset="1" style="stop-color:#336215"/>
		</linearGradient>
		<polygon class="st28" points="817,609.8 745.6,609.8 737.8,621.7 819.2,621.7 		"/>
		<path class="st27" d="M717.9,731.5h28.5c-11.1,22.1-15.2,51-9.4,81h-20.2C715,787.8,715,758.8,717.9,731.5z"/>
		
			<linearGradient id="SVGID_15_" gradientUnits="userSpaceOnUse" x1="1496.0979" y1="747.2275" x2="1474.8995" y2="797.017" gradientTransform="matrix(-1 0 0 1 2219.0879 0)">
			<stop  offset="0" style="stop-color:#608715"/>
			<stop  offset="1" style="stop-color:#336215"/>
		</linearGradient>
		<polygon class="st29" points="743.8,755.7 714.1,755.6 714.1,766.8 741.8,766.8 		"/>
		
			<linearGradient id="SVGID_16_" gradientUnits="userSpaceOnUse" x1="1508.5729" y1="752.5618" x2="1487.3794" y2="802.3399" gradientTransform="matrix(-1 0 0 1 2219.0879 0)">
			<stop  offset="0" style="stop-color:#608715"/>
			<stop  offset="1" style="stop-color:#336215"/>
		</linearGradient>
		<path class="st30" d="M740.3,787.6c0-0.2-26.1,0-26.1,0v8.3h26.2L740.3,787.6z"/>
		
			<linearGradient id="SVGID_17_" gradientUnits="userSpaceOnUse" x1="1348.4805" y1="750.7211" x2="1484.7433" y2="750.7211" gradientTransform="matrix(-1 0 0 1 2219.0879 0)">
			<stop  offset="0" style="stop-color:#608715"/>
			<stop  offset="1" style="stop-color:#336215"/>
		</linearGradient>
		<path class="st31" d="M736.9,812.5h5c0,0-9.2-46.2,14.5-79.8c1.6-2.3,3.4-4.6,5.4-6.7c17.7-19.7,51.7-25.7,76.9-27.3
			c18.1-1.2,31.8,0,31.8,0c-3.3-4.4-32.5-14.4-75.4-7c-15.3,2.6-28.6,11.3-38.8,24.1c-3.8,4.7-7.1,10-10,15.8
			C735.3,753.6,731.2,782.5,736.9,812.5z"/>
		
			<linearGradient id="SVGID_18_" gradientUnits="userSpaceOnUse" x1="1566.7822" y1="753.2758" x2="1570.4767" y2="801.0236" gradientTransform="matrix(-1 0 0 1 2219.0879 0)">
			<stop  offset="0" style="stop-color:#004018"/>
			<stop  offset="1" style="stop-color:#004330"/>
		</linearGradient>
		<path class="st32" d="M662,801.4c0,3.8-0.3,7.5-0.9,11.1h6.1c0-0.2,0-0.4,0-0.5c0.1-5.2,10.5-38.9-12.5-69.9
			c-5.5,1.4-13.6,3.3-22.3,4.3C650.3,758.2,662,778.4,662,801.4z"/>
		
			<linearGradient id="SVGID_19_" gradientUnits="userSpaceOnUse" x1="1651.5405" y1="743.9851" x2="1596.3021" y2="834.1367" gradientTransform="matrix(-1 0 0 1 2219.0879 0)">
			<stop  offset="0" style="stop-color:#004018"/>
			<stop  offset="1" style="stop-color:#004330"/>
		</linearGradient>
		<path class="st33" d="M669.2,812.5c0,0,5.5-58.5-19.7-79.4c-25.1-21-76.9-15.4-99.5,5.3c-22.6,20.7-28.5,51.5-29.2,77.7
			L669.2,812.5z"/>
		<polygon class="st34" points="612.5,710.1 606.2,710.1 609.3,731.5 613.8,732.4 		"/>
		
			<linearGradient id="SVGID_20_" gradientUnits="userSpaceOnUse" x1="1684.0197" y1="814.9751" x2="1704.2117" y2="789.3776" gradientTransform="matrix(-1 0 0 1 2219.0879 0)">
			<stop  offset="0" style="stop-color:#608715"/>
			<stop  offset="1" style="stop-color:#336215"/>
		</linearGradient>
		<path class="st35" d="M509.3,799.9v16.2H531c0,0,1.7-13.9,7.9-30C527.4,791.9,516.4,797.3,509.3,799.9z"/>
		<polygon class="st34" points="603.6,710.1 600.1,710.1 601.8,731.5 606.2,731.5 		"/>
		<polygon class="st34" points="597.1,710.8 593,710.8 593,730.8 598.9,730.8 		"/>
		<path class="st36" d="M716.6,682.6c0.4-2.1,0.9-4.1,1.3-6.1c0.2,0,0.4-0.1,0.4-0.1S717.6,678.1,716.6,682.6z"/>
		<path class="st36" d="M717.9,676.5c7.4-25.3,20-54.8,20-54.8h10.5c0,0-17.9,34.6-24.2,72.5c-1.9,11.6-3.6,24.3-5,37.4
			c-2.8,27.2-4.1,56.2-2.4,80.9h-3h-4.1C709.7,812.5,700,737.4,717.9,676.5z"/>
		<g>
			<path class="st37" d="M746.7,788.6c0,7.6,1,15,2.9,22.1c6.4,24,23.1,43.8,45,54.5c11.2,5.4,23.8,8.5,37.1,8.5
				c47,0,85.1-38.1,85.1-85.1c0-31.1-16.7-58.3-41.6-73.1c-10.6-6.3-22.7-10.4-35.7-11.6c-2.6-0.2-5.2-0.4-7.8-0.4
				C784.8,703.5,746.7,741.6,746.7,788.6z"/>
			
				<linearGradient id="SVGID_21_" gradientUnits="userSpaceOnUse" x1="1423.7728" y1="731.1052" x2="1349.8027" y2="847.6079" gradientTransform="matrix(-1 0 0 1 2219.0879 0)">
				<stop  offset="0" style="stop-color:#959289"/>
				<stop  offset="1" style="stop-color:#43595A"/>
			</linearGradient>
			<path class="st38" d="M784.8,788.6c0,11.7,4.3,22.5,11.4,30.7c8.6,10,21.4,16.3,35.6,16.3c26,0,47-21,47-47
				c0-19.8-12.3-36.8-29.6-43.7c-5.3-2.1-11.2-3.3-17.3-3.3C805.9,741.6,784.8,762.6,784.8,788.6z"/>
			<path class="st39" d="M793.6,788.6c0,15.4,9.1,28.7,22.3,34.8c4.8,2.2,10.2,3.5,15.9,3.5c21.1,0,38.3-17.1,38.3-38.3
				c0-16.9-11-31.3-26.2-36.3c-3.8-1.2-7.8-1.9-12-1.9C810.7,750.3,793.6,767.4,793.6,788.6z"/>
			<g>
				<path class="st40" d="M813.7,788.6c0,5.1,2.1,9.7,5.5,13c3.3,3.2,7.7,5.1,12.6,5.1c10,0,18.1-8.1,18.1-18.1
					c0-5.9-2.8-11.1-7.1-14.4c-3.1-2.3-6.9-3.7-11-3.7C821.8,770.5,813.7,778.6,813.7,788.6z"/>
				<g>
					<path class="st26" d="M851.9,770.2c0.2,0.2,0.4,0.3,0.5,0.5c0.8,1.3-0.6,2.7-1.9,1.9c-0.2-0.1-0.3-0.3-0.5-0.5
						C849.1,770.9,850.8,769.3,851.9,770.2z"/>
					<path class="st26" d="M860.1,792c1.9,0,2.3,2.9,0.4,2.9C858.6,794.9,858.2,792,860.1,792z"/>
					<path class="st26" d="M845.8,814.3c0.8,1,0.5,2.4-0.9,2.6c-0.9,0.1-1.4-0.6-1.4-1.3C843,814.3,844.8,813.1,845.8,814.3z"/>
					<path class="st26" d="M815,813.2c1.9,0,2.3,2.9,0.4,2.9C813.5,816.1,813.1,813.2,815,813.2z"/>
					<path class="st26" d="M803.1,792.2c1.9,0,2.3,2.9,0.4,2.9C801.6,795.2,801.2,792.2,803.1,792.2z"/>
					<path class="st26" d="M810.6,772.4c1.9,0,2.3,2.9,0.4,2.9C809.1,775.4,808.7,772.4,810.6,772.4z"/>
					<path class="st26" d="M831,760.2c1.9,0,2.3,2.9,0.4,2.9C829.4,763.1,829,760.2,831,760.2z"/>
				</g>
			</g>
			<path class="st41" d="M819.2,801.5c3.3,3.2,7.7,5.1,12.6,5.1c10,0,18.1-8.1,18.1-18.1c0-5.9-2.8-11.1-7.1-14.4
				C838.3,779.6,826.3,793.4,819.2,801.5z"/>
		</g>
		
			<linearGradient id="SVGID_22_" gradientUnits="userSpaceOnUse" x1="1462.5815" y1="764.1041" x2="1484.7433" y2="764.1041" gradientTransform="matrix(-1 0 0 1 2219.0879 0)">
			<stop  offset="0" style="stop-color:#608715"/>
			<stop  offset="1" style="stop-color:#336215"/>
		</linearGradient>
		<path class="st42" d="M736.9,812.5h5c0,0-9.2-46.2,14.5-79.8c-0.1-5.5-0.1-11.9-0.1-17c-3.8,4.7-7.1,10-10,15.8
			C735.3,753.6,731.2,782.5,736.9,812.5z"/>
		<g>
			<path class="st43" d="M543.6,740c0.1,1.2-2.7,6.8-2.4,8.1c27.4-17.3,80.1-41.4,108.9-9.2c2.7,3,5.1,7,7.1,11.6
				c5.4,12.5,8.1,29.4,9.3,42.7c0,0.1,0,0.2,0,0.3c0.6,7.1,0.9,13.1,0.8,16.9c0,0.6,0,1.1,0,1.6c0,0.2,0,0.3,0,0.5h3.9
				c0,0,5.8-37.5-6-66c-1.6-4-3.6-7.7-6-11.2C641.6,709.8,582.7,708.2,543.6,740z"/>
			<path class="st44" d="M657.1,750.5c5.4,12.5,8.1,29.4,9.3,42.7c0,0.1,0,0.2,0,0.3c0.6,7.1,0.9,13.1,0.8,16.9c0,0.6,0,1.1,0,1.6
				c0,0.2,0,0.3,0,0.5h3.9c0,0,5.8-37.5-6-66L657.1,750.5z"/>
		</g>
		<g>
			<path class="st37" d="M528.6,803.4c0,6.3,0.9,12.4,2.4,18.3c5.3,19.8,19.1,36.2,37.2,45c9.3,4.5,19.7,7,30.7,7
				c38.8,0,70.3-31.5,70.3-70.3c0-25.7-13.8-48.2-34.4-60.4c-8.8-5.2-18.8-8.6-29.5-9.6c-2.1-0.2-4.3-0.3-6.4-0.3
				C560.1,733.1,528.6,764.5,528.6,803.4z"/>
			
				<linearGradient id="SVGID_23_" gradientUnits="userSpaceOnUse" x1="1650.3071" y1="755.8923" x2="1589.2037" y2="852.1303" gradientTransform="matrix(-1 0 0 1 2219.0879 0)">
				<stop  offset="0" style="stop-color:#959289"/>
				<stop  offset="1" style="stop-color:#43595A"/>
			</linearGradient>
			<path class="st45" d="M560.1,803.4c0,9.7,3.6,18.6,9.4,25.4c7.1,8.2,17.6,13.4,29.4,13.4c21.4,0,38.8-17.4,38.8-38.8
				c0-16.4-10.1-30.4-24.5-36.1c-4.4-1.8-9.3-2.7-14.3-2.7C577.5,764.6,560.1,781.9,560.1,803.4z"/>
			<path class="st39" d="M567.3,803.4c0,12.8,7.6,23.7,18.4,28.7c4,1.8,8.5,2.9,13.2,2.9c17.5,0,31.6-14.2,31.6-31.6
				c0-14-9.1-25.8-21.7-30c-3.1-1-6.5-1.6-9.9-1.6C581.5,771.8,567.3,785.9,567.3,803.4z"/>
			<g>
				<path class="st40" d="M584,803.4c0,4.2,1.7,8,4.5,10.7c2.7,2.6,6.4,4.2,10.4,4.2c8.2,0,14.9-6.7,14.9-14.9
					c0-4.8-2.3-9.1-5.8-11.9c-2.5-1.9-5.7-3.1-9.1-3.1C590.7,788.4,584,795.1,584,803.4z"/>
				<g>
					<path class="st26" d="M615.5,788.2c0.1,0.1,0.3,0.2,0.4,0.4c0.7,1.1-0.5,2.2-1.5,1.5c-0.2-0.1-0.3-0.3-0.4-0.4
						C613.2,788.8,614.6,787.4,615.5,788.2z"/>
					<path class="st26" d="M622.3,806.2c1.5,0,1.9,2.4,0.3,2.4C621,808.6,620.7,806.2,622.3,806.2z"/>
					<path class="st26" d="M610.5,824.7c0.6,0.8,0.4,2-0.7,2.1c-0.8,0.1-1.2-0.5-1.2-1.1C608.2,824.6,609.7,823.6,610.5,824.7z"/>
					<path class="st26" d="M585,823.7c1.6,0,1.9,2.4,0.3,2.4C583.8,826.1,583.5,823.7,585,823.7z"/>
					<path class="st26" d="M575.2,806.4c1.5,0,1.9,2.4,0.3,2.4C574,808.8,573.7,806.4,575.2,806.4z"/>
					<path class="st26" d="M581.4,790c1.5,0,1.9,2.4,0.3,2.4C580.1,792.4,579.8,790,581.4,790z"/>
					<path class="st26" d="M598.2,779.9c1.6,0,1.9,2.4,0.3,2.4C597,782.3,596.7,779.9,598.2,779.9z"/>
				</g>
			</g>
			<path class="st41" d="M588.5,814c2.7,2.6,6.4,4.2,10.4,4.2c8.2,0,14.9-6.7,14.9-14.9c0-4.8-2.3-9.1-5.8-11.9
				C604.3,796,594.4,807.4,588.5,814z"/>
		</g>
		
			<linearGradient id="SVGID_24_" gradientUnits="userSpaceOnUse" x1="988.453" y1="668.3726" x2="1278.2817" y2="668.3726" gradientTransform="matrix(-1 0 0 1 2219.0879 0)">
			<stop  offset="1.001950e-02" style="stop-color:#EFA100"/>
			<stop  offset="0.995" style="stop-color:#FFB700"/>
		</linearGradient>
		<polygon class="st46" points="940.8,634.9 946.7,701.8 1222.9,701.8 1230.6,634.9 		"/>
		
			<linearGradient id="SVGID_25_" gradientUnits="userSpaceOnUse" x1="1266.1768" y1="702.2598" x2="1026.0994" y2="798.7858" gradientTransform="matrix(-1 0 0 1 2219.0879 0)">
			<stop  offset="1.003910e-02" style="stop-color:#D47700"/>
			<stop  offset="0.995" style="stop-color:#D96700"/>
		</linearGradient>
		<polygon class="st47" points="952.7,701.8 961.5,812.5 1210,812.5 1217.4,701.8 		"/>
		<polygon class="st48" points="1146.4,812.5 1153.8,812.5 1154.4,701.7 1146,702 		"/>
		<rect x="1029.1" y="701.8" class="st48" width="8.4" height="110.7"/>
		
			<linearGradient id="SVGID_26_" gradientUnits="userSpaceOnUse" x1="1078.7706" y1="610.5801" x2="1221.5651" y2="610.5801" gradientTransform="matrix(-1 0 0 1 2219.0879 0)">
			<stop  offset="1.000000e-02" style="stop-color:#EAAA52"/>
			<stop  offset="1" style="stop-color:#FFBC6C"/>
		</linearGradient>
		<path class="st49" d="M997.5,634.9h142.8c0,0-50.1-45.6-63.2-48.6c-0.2,0-0.4-0.1-0.7-0.1C1062.1,584.7,1001.2,624.7,997.5,634.9z
			"/>
		
			<linearGradient id="SVGID_27_" gradientUnits="userSpaceOnUse" x1="783.6394" y1="601.9197" x2="561.8624" y2="760.3319" gradientTransform="matrix(-1 0 0 1 2219.0879 0)">
			<stop  offset="0" style="stop-color:#3A8E1B"/>
			<stop  offset="0.99" style="stop-color:#008019"/>
		</linearGradient>
		<path class="st50" d="M1438.9,740.4l44.9,19.4l141.4,0.4c23.6-23.8,47.4-30.9,64-32.5c13.2-1.3,21.8,1,21.8,1l-3-68.1l-56.8-0.8
			l-5.4-0.1l0.2-38.6l-9-1.9v-7.4l-149.9,2v9.4l-0.2,0.6l-38.8,94.3L1438.9,740.4z"/>
		
			<linearGradient id="SVGID_28_" gradientUnits="userSpaceOnUse" x1="731.9152" y1="630.5543" x2="831.0355" y2="630.5543" gradientTransform="matrix(-1 0 0 1 2219.0879 0)">
			<stop  offset="0" style="stop-color:#00790E"/>
			<stop  offset="0.99" style="stop-color:#008019"/>
		</linearGradient>
		<polygon class="st51" points="1487.2,623.1 1388.1,624.6 1391.7,638 1482.7,637.9 		"/>
		<path class="st27" d="M1504.9,823.8l5.9-5.9l115.4-33.3l-1.5-24.4h0h0.5c23.6-23.8,47.4-30.9,64-32.5l-12.7,39.9l-46,23.7
			l-6.3,32.5H1504.9z"/>
		
			<linearGradient id="SVGID_29_" gradientUnits="userSpaceOnUse" x1="589.9109" y1="786.589" x2="736.3542" y2="786.589" gradientTransform="matrix(-1 0 0 1 2219.0879 0)">
			<stop  offset="0" style="stop-color:#3A8E1B"/>
			<stop  offset="0.99" style="stop-color:#008019"/>
		</linearGradient>
		<polygon class="st52" points="1482.7,754.8 1508.9,816.3 1509.8,818.4 1629.1,785.4 1629.2,785.4 1624.7,760.2 1624.7,760.2 		"/>
		
			<linearGradient id="SVGID_30_" gradientUnits="userSpaceOnUse" x1="508.0544" y1="709.9865" x2="780.1657" y2="709.9865" gradientTransform="matrix(-1 0 0 1 2219.0879 0)">
			<stop  offset="0" style="stop-color:#3A8E1B"/>
			<stop  offset="0.99" style="stop-color:#008019"/>
		</linearGradient>
		<path class="st53" d="M1438.9,740.4l41.8,16l144.5,3.7c23.6-23.8,47.4-30.9,64-32.5c13.2-1.3,21.8,1,21.8,1l-3-68.1l-56.8-0.8
			c-31.8,23.2-101.6,62-203.1,58.2L1438.9,740.4z"/>
		
			<linearGradient id="SVGID_31_" gradientUnits="userSpaceOnUse" x1="589.9818" y1="787.5945" x2="725.7979" y2="787.5945" gradientTransform="matrix(-1 0 0 1 2219.0879 0)">
			<stop  offset="0" style="stop-color:#3A8E1B"/>
			<stop  offset="0.99" style="stop-color:#008019"/>
		</linearGradient>
		<path class="st54" d="M1493.3,756.8c0,0,12.9,38.3,15.7,59.5l0.9,2.1l119.3-33l-4.4-25.2h-0.1
			C1621.5,760.2,1493.3,756.8,1493.3,756.8z"/>
		<path class="st27" d="M1514.8,823.3c0,0,4.1-22.6-3.9-46.4c-8.9-26.1-40.7-44.5-92.2-43l3.7,13.4c0,0,54-9.3,70.3,22.3
			c16.3,31.6,15.8,54.2,15.8,54.2L1514.8,823.3z"/>
		<polygon class="st27" points="1416,724 1419.1,737.7 1443.8,737.5 1447.6,724.2 		"/>
		<polygon class="st12" points="1333.8,769.6 1336.5,788.9 1337.8,797.7 1426.8,762.2 1417.6,730.7 1397.3,740.2 		"/>
		<polygon class="st26" points="1518.2,630.5 1522.7,659.6 1646.9,659.6 1646.4,626.6 1536.6,630 		"/>
		<path class="st55" d="M1518.2,630.5l4.4,29.1h15.3c-0.1-5.1-0.5-28.3-0.5-29.6l-0.8-0.1L1518.2,630.5z"/>
		<polygon class="st12" points="1391.3,637.5 1396.4,637.4 1418,712.8 1452.2,711.9 1447.3,724.9 1416.2,724.4 1413.2,712.9 
			1413.4,712.9 		"/>
		<path class="st13" d="M1336.5,788.9l1.2,8.7l89-35.5l-9.2-31.4l-20.3,9.4C1386.2,753.4,1362.6,778.6,1336.5,788.9z"/>
		<g>
			<path class="st37" d="M1366.3,811.9c0,6.5,0.9,12.9,2.5,18.9c5.4,20.5,19,38.4,37.9,46.6c60.9,26.5,106.1-28,106.1-68.2
				c0-26.6-17.3-47.3-38.3-60c-8.9-5.4-19.1-8.9-30-9.9c-2.2-0.2-4.4-0.3-6.6-0.3C1398.4,739.1,1366.3,771.7,1366.3,811.9z"/>
			
				<linearGradient id="SVGID_32_" gradientUnits="userSpaceOnUse" x1="812.2775" y1="762.9589" x2="749.2651" y2="862.2035" gradientTransform="matrix(-1 0 0 1 2219.0879 0)">
				<stop  offset="0" style="stop-color:#959289"/>
				<stop  offset="1" style="stop-color:#43595A"/>
			</linearGradient>
			<path class="st56" d="M1398.4,811.9c0,10,3.6,19.2,9.6,26.3c7.3,8.5,18,13.9,29.9,13.9c21.8,0,39.5-18,39.5-40.2
				c0-17-10.3-31.5-24.9-37.4c-4.5-1.8-9.4-2.8-14.6-2.8C1416.1,771.7,1398.4,789.7,1398.4,811.9z"/>
			<path class="st39" d="M1405.7,811.9c0,13.2,7.7,24.6,18.8,29.8c4.1,1.9,8.6,3,13.4,3c17.8,0,32.2-14.7,32.2-32.7
				c0-14.5-9.2-26.8-22.1-31.1c-3.2-1.1-6.6-1.7-10.1-1.7C1420.1,779.2,1405.7,793.8,1405.7,811.9z"/>
			<g>
				<path class="st40" d="M1422.7,811.9c0,4.3,1.8,8.3,4.6,11.1c2.7,2.7,6.5,4.4,10.6,4.4c8.4,0,15.2-6.9,15.2-15.5
					c0-5-2.3-9.5-6-12.3c-2.6-2-5.8-3.2-9.3-3.2C1429.5,796.4,1422.7,803.4,1422.7,811.9z"/>
				<g>
					<path class="st26" d="M1454.8,796.2c0.1,0.1,0.3,0.2,0.4,0.4c0.7,1.1-0.5,2.3-1.6,1.6c-0.2-0.1-0.3-0.3-0.4-0.4
						C1452.5,796.8,1453.9,795.4,1454.8,796.2z"/>
					<path class="st26" d="M1461.7,814.8c1.6,0,1.9,2.5,0.3,2.5C1460.4,817.3,1460.1,814.8,1461.7,814.8z"/>
					<path class="st26" d="M1449.7,834c0.6,0.8,0.4,2.1-0.7,2.2c-0.8,0.1-1.2-0.5-1.2-1.1C1447.4,833.9,1448.9,832.9,1449.7,834z"/>
					<path class="st26" d="M1423.7,833c1.6,0,1.9,2.5,0.3,2.5C1422.5,835.5,1422.1,833,1423.7,833z"/>
					<path class="st26" d="M1413.8,815c1.6,0,1.9,2.5,0.3,2.5C1412.5,817.6,1412.2,815,1413.8,815z"/>
					<path class="st26" d="M1420.1,798.1c1.6,0,1.9,2.5,0.3,2.5C1418.8,800.6,1418.4,798.1,1420.1,798.1z"/>
					<path class="st26" d="M1437.2,787.6c1.6,0,1.9,2.5,0.3,2.5C1435.9,790.1,1435.6,787.6,1437.2,787.6z"/>
				</g>
			</g>
			<path class="st41" d="M1427.3,823c2.7,2.7,6.5,4.4,10.6,4.4c8.4,0,15.2-6.9,15.2-15.5c0-5-2.3-9.5-6-12.3
				C1443.4,804.3,1433.3,816.1,1427.3,823z"/>
		</g>
		<g>
			<path class="st37" d="M1622.2,819.9c0,5.1,0.7,10.1,2,14.8c4.3,16.1,15,30.4,30.1,36.5c53.1,21.3,86.9-16.7,86.5-51
				c-0.3-24.1-15.8-39.3-32.5-49.2c-7.1-4.2-15.2-7-23.9-7.7c-1.7-0.2-3.5-0.3-5.2-0.3C1647.7,762.9,1622.2,788.4,1622.2,819.9z"/>
			
				<linearGradient id="SVGID_33_" gradientUnits="userSpaceOnUse" x1="564.183" y1="780.2305" x2="511.4623" y2="863.2656" gradientTransform="matrix(-1 0 0 1 2219.0879 0)">
				<stop  offset="0" style="stop-color:#959289"/>
				<stop  offset="1" style="stop-color:#43595A"/>
			</linearGradient>
			<path class="st57" d="M1647.7,819.9c0,7.9,2.9,15,7.6,20.5c5.8,6.7,16.9,11.5,26.3,12.4c21.1,2,32-15.3,32-32.7
				c0-13.3-11.3-24.9-22.9-29.5c-3.6-1.4-7.5-2.2-11.6-2.2C1661.8,788.4,1647.7,802.5,1647.7,819.9z"/>
			<path class="st39" d="M1653.6,819.9c0,10.3,6.1,19.2,15,23.3c3.2,1.5,6.9,2.3,10.7,2.3c14.2,0,25.6-11.5,25.6-25.6
				c0-11.3-7.3-20.9-17.5-24.3c-2.5-0.8-5.3-1.3-8.1-1.3C1665,794.3,1653.6,805.7,1653.6,819.9z"/>
			<g>
				<path class="st40" d="M1667.1,819.9c0,3.4,1.4,6.5,3.7,8.7c2.2,2.1,5.1,3.4,8.4,3.4c6.7,0,12.1-5.4,12.1-12.1
					c0-3.9-1.9-7.4-4.7-9.6c-2-1.6-4.6-2.5-7.4-2.5C1672.5,807.8,1667.1,813.2,1667.1,819.9z"/>
				<g>
					<path class="st26" d="M1692.7,807.6c0.1,0.1,0.3,0.2,0.3,0.3c0.6,0.9-0.4,1.8-1.3,1.2c-0.1-0.1-0.2-0.2-0.3-0.3
						C1690.8,808.1,1691.9,807,1692.7,807.6z"/>
					<path class="st26" d="M1698.1,822.2c1.3,0,1.5,2,0.2,2C1697.1,824.1,1696.9,822.2,1698.1,822.2z"/>
					<path class="st26" d="M1688.6,837.1c0.5,0.6,0.3,1.6-0.6,1.7c-0.6,0.1-1-0.4-0.9-0.9C1686.7,837.1,1687.9,836.3,1688.6,837.1z"
						/>
					<path class="st26" d="M1667.9,836.4c1.2,0,1.5,2,0.2,2C1666.9,838.3,1666.7,836.4,1667.9,836.4z"/>
					<path class="st26" d="M1660,822.3c1.3,0,1.5,1.9,0.2,1.9C1659,824.3,1658.7,822.3,1660,822.3z"/>
					<path class="st26" d="M1665,809.1c1.3,0,1.5,2,0.2,2C1664,811,1663.7,809.1,1665,809.1z"/>
					<path class="st26" d="M1678.6,800.9c1.3,0,1.5,2,0.2,2C1677.6,802.8,1677.3,800.9,1678.6,800.9z"/>
				</g>
			</g>
			<path class="st41" d="M1670.8,828.5c2.2,2.1,5.1,3.4,8.4,3.4c6.7,0,12.1-5.4,12.1-12.1c0-3.9-1.9-7.4-4.7-9.6
				C1683.6,813.9,1675.5,823.1,1670.8,828.5z"/>
		</g>
		<path class="st26" d="M1396.4,637.4l1.9,7.9h16.5l11.6,67.4l7.4-0.3c0,0-6.1-49.1-8.2-67.1h34.9l-21.3,67.1l7,0.3l5.2,0.2l31.2-75
			l-10.4-0.1L1396.4,637.4z"/>
		<path class="st58" d="M1069.9,634.9h70.5c0,0-50.1-45.6-63.2-48.6c-0.2,0-0.4-0.1-0.7-0.1C1076,605.2,1072.4,623.8,1069.9,634.9z"
			/>
		<g>
			<polygon class="st12" points="1481.3,735.6 1477.8,841.6 1449.1,841.9 1449.8,735.1 			"/>
			<polygon class="st59" points="1478.3,826.8 1449.5,826.4 1449.1,831.2 1478.2,831.5 			"/>
			<polygon class="st59" points="1478.8,812.2 1449.4,812.5 1449.5,806.5 1479.1,807.1 			"/>
			<polygon class="st59" points="1479.5,792.2 1449.5,792.3 1449.4,787.6 1479.7,787.9 			"/>
			<polygon class="st59" points="1480.1,772.7 1449.5,773 1449.5,767.5 1480.3,767.3 			"/>
			<polygon class="st59" points="1480.8,751.6 1449.6,750.3 1449.6,744.9 1481,745.7 			"/>
		</g>
		<path class="st60" d="M1624.8,760.2l1,8.4c0,0,8.7-8.9,28.1-18.9c13.7-7.1,32.8-14.8,57.9-20.3v-5.9c0,0-29,0.1-56.4,13.3
			C1644.2,742.1,1633.3,749.7,1624.8,760.2z"/>
		<g>
			<polygon class="st61" points="1581.8,759.7 1581.8,794.7 1522.2,797.2 1519.7,759.2 			"/>
			<polygon class="st62" points="1557.7,764.2 1557.2,790.8 1578.4,790.8 1578.4,764.2 			"/>
			<polygon class="st62" points="1549.8,765.1 1549.8,790.8 1527.1,790.8 1525.6,765.6 			"/>
		</g>
		<polygon class="st63" points="1598,760.1 1601.1,760.1 1609,659.6 1603,659.6 		"/>
		<path class="st55" d="M1446.4,712.7l5.2,0.2l31.2-75l-10.4-0.1C1467.2,652.5,1453.6,691.7,1446.4,712.7z"/>
		
			<linearGradient id="SVGID_34_" gradientUnits="userSpaceOnUse" x1="563.7587" y1="752.6949" x2="594.3367" y2="752.6949" gradientTransform="matrix(-1 0 0 1 2219.0879 0)">
			<stop  offset="0" style="stop-color:#608715"/>
			<stop  offset="1" style="stop-color:#336215"/>
		</linearGradient>
		<path class="st64" d="M1624.8,760.2l1,8.4c0,0,8.7-8.9,28.1-18.9l1.5-12.9C1644.2,742.1,1633.3,749.7,1624.8,760.2z"/>
		<polygon class="st25" points="1443.8,737.5 1481.3,737.5 1481.3,726.7 1446.2,726.7 		"/>
		<polygon class="st65" points="1486.9,623.7 1487.3,624.8 1637.1,618.4 1637.1,611.8 1487.2,613.7 1487.2,623.1 		"/>
		<g>
			<g>
				
					<linearGradient id="SVGID_35_" gradientUnits="userSpaceOnUse" x1="733.8811" y1="765.8508" x2="771.9932" y2="765.8508" gradientTransform="matrix(-1 0 0 1 2219.0879 0)">
					<stop  offset="0" style="stop-color:#3A8E1B"/>
					<stop  offset="0.99" style="stop-color:#008019"/>
				</linearGradient>
				<path class="st66" d="M1447.1,841.1c0,1.1,0.9,2,2,2c1.1,0,2-0.9,2-2l0.2-60.1l0.3-88.9h29.6l-2.7,76.2l-2.6,73.2
					c0,1.1,0.8,2,1.9,2h0.1c1.1,0,1.9-0.8,2-1.9l2.7-75.2l2.7-76.2c0-0.6-0.2-1.1-0.6-1.4c-0.4-0.4-0.9-0.6-1.4-0.6h-33.6
					c-1.1,0-2,0.9-2,2l-0.3,92.8L1447.1,841.1z"/>
			</g>
			
				<linearGradient id="SVGID_36_" gradientUnits="userSpaceOnUse" x1="736.6206" y1="805.0099" x2="743.2633" y2="805.0099" gradientTransform="matrix(-1 0 0 1 2219.0879 0)">
				<stop  offset="0" style="stop-color:#3A8E1B"/>
				<stop  offset="0.99" style="stop-color:#008019"/>
			</linearGradient>
			<path class="st67" d="M1475.8,841.5c0,1.1,0.8,2,1.9,2h0.1c1.1,0,1.9-0.8,2-1.9l2.7-75.2l-4,1.9L1475.8,841.5z"/>
			
				<linearGradient id="SVGID_37_" gradientUnits="userSpaceOnUse" x1="767.8287" y1="812.0638" x2="771.9932" y2="812.0638" gradientTransform="matrix(-1 0 0 1 2219.0879 0)">
				<stop  offset="0" style="stop-color:#3A8E1B"/>
				<stop  offset="0.99" style="stop-color:#008019"/>
			</linearGradient>
			<path class="st68" d="M1447.1,841.1c0,1.1,0.9,2,2,2c1.1,0,2-0.9,2-2l0.2-60.1l-4,1.9L1447.1,841.1z"/>
		</g>
		<g>
			<polygon class="st69" points="1183.9,566.4 1188.2,567.4 1525.1,644.8 1528,640.7 1534,632 1192.3,544.7 1188.5,554.6 
				1187.2,558 			"/>
			<polygon class="st65" points="1186.7,554.2 1187.2,558 1188.2,567.4 1525.1,644.8 1528,640.7 1188.5,554.6 			"/>
		</g>
		<g>
			
				<linearGradient id="SVGID_38_" gradientUnits="userSpaceOnUse" x1="1026.8044" y1="563.5311" x2="1066.2432" y2="563.5311" gradientTransform="matrix(-1 0 0 1 2219.0879 0)">
				<stop  offset="0" style="stop-color:#43595A"/>
				<stop  offset="1" style="stop-color:#38464B"/>
			</linearGradient>
			<path class="st70" d="M1152.8,570.4c0,0,0.3,7.2,1.3,10.2c0.2,0.6,0.4,1,0.6,1.2c1.5,1,7.4,0.5,7.4,0.5l30.1-14.3
				c0,0-3.4-1-3.9-7.4c-0.1-0.7-0.1-1.4,0-2.1c0.4-6,3.7-13.2,3.9-13.6L1152.8,570.4z"/>
			
				<linearGradient id="SVGID_39_" gradientUnits="userSpaceOnUse" x1="1026.8044" y1="570.3544" x2="1064.9113" y2="570.3544" gradientTransform="matrix(-1 0 0 1 2219.0879 0)">
				<stop  offset="0" style="stop-color:#43595A"/>
				<stop  offset="1" style="stop-color:#38464B"/>
			</linearGradient>
			<path class="st71" d="M1154.2,580.6c0.2,0.6,0.4,1,0.6,1.2c1.5,1,7.4,0.5,7.4,0.5l30.1-14.3c0,0-3.4-1-3.9-7.4
				c-0.1-0.7-0.1-1.4,0-2.1L1154.2,580.6z"/>
		</g>
		<g>
			<polygon class="st12" points="1527.5,613.4 1537,613.2 1542.6,613.2 1550.8,598 1544,597.8 1535.5,597.5 			"/>
			<path class="st65" d="M1537,613.2l5.7-0.1l8.2-15.2l-6.7-0.2C1542,602.1,1539,608.8,1537,613.2z"/>
		</g>
		
			<linearGradient id="SVGID_40_" gradientUnits="userSpaceOnUse" x1="1249.2222" y1="659.9727" x2="1034.5978" y2="746.2651" gradientTransform="matrix(-1 0 0 1 2219.0879 0)">
			<stop  offset="1.003910e-02" style="stop-color:#D47700"/>
			<stop  offset="0.995" style="stop-color:#D96700"/>
		</linearGradient>
		<polygon class="st72" points="952.7,701.8 953.4,711 1216.4,717.2 1217.4,701.8 		"/>
		<g>
			<path class="st73" d="M975.5,812.6l8.6,15.2l70-0.1l34.2-0.1l28.9,0l68.9-0.1l4.9-14.8h-29.9c-4.4-6-12.6-13.6-26.5-14.1
				c-0.5,0-1.1,0-1.7,0c-15.1,0-24.2,8-28.9,14.2h-24.1c-4.5-6.3-13.2-14.2-28.1-14.2c-2.1,0-4,0.2-5.9,0.4
				c-11.6,1.7-19,8.4-23.1,13.7H975.5z"/>
			<path class="st74" d="M1117.2,827.5l68.9-0.1l4.9-14.8h-29.9c-4.4-6-12.6-13.6-26.5-14.1l1.3,13.8L1117.2,827.5z"/>
			<path class="st74" d="M1045.9,798.8c4,7.8,7.2,19.5,8.2,28.8l34.2-0.1c-0.3-4.4-0.9-9.7-2-15h-6.4c-4.5-6.3-13.2-14.2-28.1-14.2
				C1049.7,798.4,1047.7,798.5,1045.9,798.8z"/>
		</g>
		<g>
			<path class="st37" d="M1162.2,837.5c0,2.7-0.4,5.4-1,7.9c-2.3,8.6-8.2,15.6-16,19.4c-4,1.9-8.5,3-13.2,3
				c-16.7,0-30.3-13.6-30.3-30.3c0-11.1,6-20.8,14.8-26c3.8-2.3,8.1-3.7,12.7-4.1c0.9-0.1,1.8-0.1,2.8-0.1
				C1148.6,807.2,1162.2,820.7,1162.2,837.5z"/>
			
				<linearGradient id="SVGID_41_" gradientUnits="userSpaceOnUse" x1="959.5023" y1="816.9992" x2="933.1467" y2="858.5093" gradientTransform="matrix(1 0 0 1 185.3496 0)">
				<stop  offset="0" style="stop-color:#959289"/>
				<stop  offset="1" style="stop-color:#43595A"/>
			</linearGradient>
			<path class="st75" d="M1148.6,837.5c0,4.2-1.5,8-4.1,10.9c-3.1,3.5-7.6,5.8-12.7,5.8c-9.2,0-16.7-7.5-16.7-16.7
				c0-7.1,4.4-13.1,10.6-15.6c1.9-0.8,4-1.2,6.2-1.2C1141.1,820.7,1148.6,828.2,1148.6,837.5z"/>
			<path class="st39" d="M1145.5,837.5c0,5.5-3.3,10.2-8,12.4c-1.7,0.8-3.6,1.2-5.7,1.2c-7.5,0-13.6-6.1-13.6-13.6
				c0-6,3.9-11.1,9.3-12.9c1.4-0.5,2.8-0.7,4.3-0.7C1139.4,823.8,1145.5,829.9,1145.5,837.5z"/>
			<g>
				<path class="st40" d="M1138.3,837.5c0,1.8-0.7,3.5-1.9,4.6c-1.2,1.1-2.7,1.8-4.5,1.8c-3.6,0-6.4-2.9-6.4-6.4
					c0-2.1,1-3.9,2.5-5.1c1.1-0.8,2.5-1.3,3.9-1.3C1135.4,831,1138.3,833.9,1138.3,837.5z"/>
				<g>
					<path class="st26" d="M1124.7,830.9c-0.1,0-0.1,0.1-0.2,0.2c-0.3,0.5,0.2,1,0.7,0.7c0.1,0,0.1-0.1,0.2-0.2
						C1125.7,831.2,1125.1,830.6,1124.7,830.9z"/>
					<path class="st26" d="M1121.8,838.7c-0.7,0-0.8,1-0.1,1C1122.3,839.7,1122.4,838.7,1121.8,838.7z"/>
					<path class="st26" d="M1126.9,846.7c-0.3,0.4-0.2,0.9,0.3,0.9c0.3,0,0.5-0.2,0.5-0.5C1127.8,846.7,1127.2,846.2,1126.9,846.7z"
						/>
					<path class="st26" d="M1137.8,846.3c-0.7,0-0.8,1-0.1,1C1138.4,847.3,1138.5,846.3,1137.8,846.3z"/>
					<path class="st26" d="M1142.1,838.8c-0.7,0-0.8,1-0.1,1C1142.6,839.8,1142.7,838.8,1142.1,838.8z"/>
					<path class="st26" d="M1139.4,831.7c-0.7,0-0.8,1-0.1,1C1139.9,832.8,1140.1,831.7,1139.4,831.7z"/>
					<path class="st26" d="M1132.1,827.4c-0.7,0-0.8,1-0.1,1C1132.7,828.4,1132.8,827.4,1132.1,827.4z"/>
				</g>
			</g>
			<path class="st41" d="M1136.3,842.1c-1.2,1.1-2.7,1.8-4.5,1.8c-3.6,0-6.4-2.9-6.4-6.4c0-2.1,1-3.9,2.5-5.1
				C1129.5,834.3,1133.8,839.2,1136.3,842.1z"/>
		</g>
		<g>
			<path class="st37" d="M1080.9,837c0,2.7-0.4,5.4-1,7.9c-2.3,8.6-8.2,15.6-16,19.4c-4,1.9-8.5,3-13.2,3
				c-16.7,0-30.3-13.6-30.3-30.3c0-11.1,5.9-20.8,14.8-26.1c3.8-2.3,8.1-3.7,12.7-4.1c0.9-0.1,1.8-0.1,2.8-0.1
				C1067.3,806.7,1080.9,820.2,1080.9,837z"/>
			
				<linearGradient id="SVGID_42_" gradientUnits="userSpaceOnUse" x1="878.2043" y1="816.506" x2="851.8467" y2="858.0191" gradientTransform="matrix(1 0 0 1 185.3496 0)">
				<stop  offset="0" style="stop-color:#959289"/>
				<stop  offset="1" style="stop-color:#43595A"/>
			</linearGradient>
			<path class="st76" d="M1067.3,837c0,4.2-1.5,8-4.1,10.9c-3.1,3.6-7.6,5.8-12.7,5.8c-9.2,0-16.7-7.5-16.7-16.7
				c0-7.1,4.4-13.1,10.6-15.6c1.9-0.8,4-1.2,6.2-1.2C1059.8,820.2,1067.3,827.7,1067.3,837z"/>
			<path class="st39" d="M1064.2,837c0,5.5-3.3,10.2-8,12.4c-1.7,0.8-3.6,1.3-5.7,1.3c-7.5,0-13.6-6.1-13.6-13.6
				c0-6,3.9-11.2,9.3-12.9c1.3-0.5,2.8-0.7,4.3-0.7C1058.1,823.3,1064.2,829.4,1064.2,837z"/>
			<g>
				<path class="st40" d="M1057,837c0,1.8-0.8,3.4-2,4.6c-1.2,1.1-2.7,1.8-4.5,1.8c-3.5,0-6.4-2.9-6.4-6.4c0-2.1,1-3.9,2.5-5.1
					c1.1-0.8,2.4-1.3,3.9-1.3C1054.1,830.5,1057,833.4,1057,837z"/>
				<g>
					<path class="st26" d="M1043.4,830.5c-0.1,0-0.1,0.1-0.2,0.2c-0.3,0.5,0.2,1,0.7,0.7c0.1,0,0.1-0.1,0.2-0.2
						C1044.4,830.7,1043.8,830.1,1043.4,830.5z"/>
					<path class="st26" d="M1040.5,838.2c-0.7,0-0.8,1-0.1,1C1041,839.2,1041.1,838.2,1040.5,838.2z"/>
					<path class="st26" d="M1045.6,846.2c-0.3,0.3-0.2,0.9,0.3,0.9c0.3,0,0.5-0.2,0.5-0.5C1046.5,846.2,1045.9,845.7,1045.6,846.2z"
						/>
					<path class="st26" d="M1056.5,845.7c-0.7,0-0.8,1-0.1,1C1057.1,846.8,1057.2,845.7,1056.5,845.7z"/>
					<path class="st26" d="M1060.8,838.3c-0.7,0-0.8,1-0.1,1C1061.3,839.3,1061.4,838.3,1060.8,838.3z"/>
					<path class="st26" d="M1058.1,831.2c-0.7,0-0.8,1-0.1,1C1058.7,832.3,1058.8,831.2,1058.1,831.2z"/>
					<path class="st26" d="M1050.9,826.9c-0.7,0-0.8,1-0.1,1C1051.4,827.9,1051.5,826.9,1050.9,826.9z"/>
				</g>
			</g>
			<path class="st41" d="M1055,841.6c-1.2,1.1-2.7,1.8-4.5,1.8c-3.5,0-6.4-2.9-6.4-6.4c0-2.1,1-3.9,2.5-5.1
				C1048.2,833.8,1052.5,838.7,1055,841.6z"/>
		</g>
		<g>
			<path class="st77" d="M1072.5,634c16.1,0.7,29.2,0.7,38.1,0.5c8.6-0.2,13.4-0.5,13.4-0.5s39.9-51.2,38.2-51.8
				c-4-1.5-6.3-3.3-7.7-5.1c-2.7-3.5-1.7-6.7-1.7-6.7L1072.5,634z"/>
			<path class="st58" d="M1110.7,634.5c8.6-0.2,13.4-0.5,13.4-0.5s39.9-51.2,38.2-51.8c-4-1.5-6.3-3.3-7.7-5.1L1110.7,634.5z"/>
		</g>
		
			<linearGradient id="SVGID_43_" gradientUnits="userSpaceOnUse" x1="679.7621" y1="694.0355" x2="711.4269" y2="653.8938" gradientTransform="matrix(-1 0 0 1 2219.0879 0)">
			<stop  offset="0" style="stop-color:#3A8E1B"/>
			<stop  offset="0.99" style="stop-color:#008019"/>
		</linearGradient>
		<polygon class="st78" points="1551.7,667 1498.2,671 1501.5,688.8 1557,676.9 		"/>
		<g>
			<path class="st79" d="M1242.1,858.3l8.8-0.2l88.4-2.2c0,0,0.7-29.2,1.1-46.9c0.2-7.3,0.3-12.6,0.3-13.1l-98.1,53.1L1242.1,858.3z
				"/>
			<path class="st80" d="M1250.9,858.1l88.4-2.2c0,0,0.7-29.2,1.1-46.9C1325.4,818.2,1282.3,844.3,1250.9,858.1z"/>
		</g>
		<g>
			
				<linearGradient id="SVGID_44_" gradientUnits="userSpaceOnUse" x1="565.8674" y1="655.8428" x2="589.5468" y2="655.8428" gradientTransform="matrix(-1 0 0 1 2219.0879 0)">
				<stop  offset="0" style="stop-color:#43595A"/>
				<stop  offset="1" style="stop-color:#38464B"/>
			</linearGradient>
			<polygon class="st81" points="1629.5,659.4 1641.1,659.5 1652.8,659.7 1653.2,652.3 1639.6,652.1 1629.9,652 			"/>
			<polygon class="st55" points="1629.5,659.4 1641.1,659.5 1639.6,652.1 1629.9,652 			"/>
		</g>
	</g>
</g>
</svg>
