<svg width="215" height="34" viewBox="0 0 215 34" fill="none" xmlns="http://www.w3.org/2000/svg">
<path d="M55.0141 31.0963C57.48 31.0963 59.5968 30.1704 61.3645 28.3186C63.1323 26.4357 64.0162 24.2027 64.0162 21.6195C64.0162 19.0364 63.1323 16.8189 61.3645 14.9672C59.5968 13.1154 57.48 12.1895 55.0141 12.1895C52.5184 12.1895 50.3868 13.1154 48.619 14.9672C46.8513 16.8189 45.9674 19.0364 45.9674 21.6195C45.9674 24.2027 46.8513 26.4357 48.619 28.3186C50.3868 30.1704 52.5184 31.0963 55.0141 31.0963ZM66.3781 32.3567C66.3781 32.6991 66.2667 33.0025 66.0438 33.267C65.925 33.3604 65.7988 33.4382 65.6651 33.5005C65.5314 33.5627 65.3754 33.5938 65.1971 33.5938C64.8852 33.5938 64.6029 33.4849 64.3504 33.267C64.1276 32.9714 64.0162 32.6679 64.0162 32.3567V28.9021C63.5854 29.4779 63.11 30.007 62.5901 30.4894C62.0702 30.9718 61.5057 31.4153 60.8966 31.8198C59.114 32.9869 57.1532 33.5705 55.0141 33.5705C51.8945 33.5705 49.1984 32.4112 46.9256 30.0926C44.7122 27.7117 43.6055 24.8874 43.6055 21.6195C43.6055 19.9856 43.8877 18.4684 44.4522 17.0679C45.0167 15.6674 45.8411 14.3758 46.9255 13.1932C49.1835 10.8746 51.8797 9.71527 55.0141 9.71527C58.1187 9.71527 60.8001 10.8746 63.058 13.1932C65.2714 15.5585 66.3781 18.3673 66.3781 21.6195V32.3567Z" fill="#EA0A4D"/>
<path d="M89.1281 9.5752C89.4995 9.5752 89.7892 9.72303 89.9971 10.0187L89.9747 9.97202C90.1975 10.1899 90.3089 10.4778 90.3089 10.8357V23.8837C90.3089 26.5602 89.3805 28.8399 87.5236 30.7228H87.5461C85.7486 32.6057 83.5352 33.5471 80.9059 33.5471C79.5987 33.5471 78.4029 33.3137 77.3185 32.8469C76.234 32.38 75.2313 31.6876 74.3103 30.7695C72.4683 28.9488 71.525 26.7002 71.4805 24.0237V10.8356C71.4805 10.4933 71.5919 10.2054 71.8147 9.972C72.0524 9.70747 72.3346 9.5752 72.6614 9.5752C73.018 9.5752 73.3076 9.72303 73.5304 10.0187L73.508 9.97203C73.7457 10.2054 73.8645 10.4933 73.8645 10.8357V23.8837C73.8645 25.8755 74.5479 27.5561 75.9145 28.9255C77.2812 30.3415 78.9449 31.0496 80.9058 31.0496C82.8518 31.0496 84.5155 30.3415 85.897 28.9255C87.2488 27.5561 87.9247 25.8755 87.9247 23.8837V10.8356C87.9247 10.4933 88.051 10.2054 88.3035 9.972C88.5263 9.70747 88.8013 9.5752 89.1281 9.5752Z" fill="#EA0A4D"/>
<path d="M112.613 31.5631V31.5397C112.777 31.7576 112.858 32.0066 112.858 32.2867V32.4501C112.829 32.6212 112.784 32.7768 112.725 32.9169C112.665 33.0569 112.561 33.1892 112.413 33.3137C112.22 33.4693 111.975 33.5471 111.677 33.5471C111.321 33.5471 111.016 33.3993 110.764 33.1036L103.611 23.5802C102.408 25.1519 101.212 26.7313 100.024 28.3186C98.8503 29.8902 97.6544 31.4775 96.4363 33.0803V33.0569C96.1838 33.3837 95.8793 33.5471 95.5227 33.5471C95.4039 33.5471 95.2628 33.516 95.0994 33.4537C94.9508 33.3915 94.8245 33.3215 94.7206 33.2437C94.6017 33.1347 94.5126 33.018 94.4532 32.8935C94.3938 32.7535 94.3566 32.5745 94.3418 32.3567C94.3418 32.1855 94.3566 32.0299 94.3862 31.8898C94.4307 31.7498 94.5124 31.6175 94.6313 31.493L94.5869 31.5631C95.8644 29.8358 97.1122 28.1707 98.3303 26.5679C99.5484 24.9496 100.804 23.2768 102.096 21.5495C100.833 19.8844 99.5781 18.2272 98.3303 16.5777C97.0974 14.9126 95.8496 13.2398 94.5869 11.5592L94.6093 11.5826C94.4905 11.4581 94.4162 11.3258 94.3865 11.1858C94.3569 11.0457 94.3421 10.8746 94.3421 10.6723C94.3717 10.3455 94.5351 10.0498 94.8323 9.78528C95.0403 9.64523 95.3151 9.5752 95.6568 9.5752C95.9242 9.62188 96.1767 9.77749 96.4144 10.042L103.612 19.5654C104.785 17.9938 105.974 16.4143 107.177 14.8271C108.395 13.2243 109.591 11.6293 110.764 10.042C110.883 9.91755 111.002 9.8164 111.121 9.73859C111.255 9.66078 111.425 9.60632 111.633 9.5752C111.96 9.5752 112.22 9.66078 112.413 9.83195C112.562 9.94088 112.666 10.0654 112.725 10.2054C112.785 10.3455 112.829 10.5011 112.859 10.6723V10.859C112.859 11.1391 112.777 11.3803 112.614 11.5826V11.5592C111.96 12.4151 111.321 13.2632 110.697 14.1035C110.088 14.9282 109.472 15.7529 108.848 16.5777C108.239 17.3869 107.622 18.2116 106.999 19.0519C106.375 19.8766 105.736 20.7092 105.082 21.5495L112.613 31.5631Z" fill="#EA0A4D"/>
<path d="M134.876 28.5754C135.203 28.6221 135.455 28.7543 135.634 28.9722C135.842 29.2056 135.946 29.5246 135.946 29.9292C135.901 30.3027 135.752 30.5906 135.5 30.7928V30.7695C133.42 32.5435 131.036 33.4304 128.347 33.4304C125.183 33.4304 122.502 32.2711 120.303 29.9525C118.075 27.6184 116.961 24.8251 116.961 21.5729C116.961 18.2583 118.075 15.4496 120.303 13.1465C122.502 10.8123 125.183 9.64526 128.347 9.64526C131.006 9.64526 133.368 10.5167 135.433 12.2595H135.411C135.559 12.3529 135.663 12.4774 135.723 12.633C135.797 12.7731 135.849 12.9598 135.879 13.1932C135.879 13.5355 135.797 13.8001 135.633 13.9868V13.9635C135.515 14.1502 135.388 14.2747 135.255 14.3369C135.136 14.3836 134.995 14.4225 134.831 14.4536H134.653C134.371 14.4536 134.133 14.3758 133.94 14.2202C132.276 12.8197 130.412 12.1195 128.347 12.1195C125.866 12.1195 123.749 13.0376 121.997 14.8738C120.214 16.7256 119.323 18.9586 119.323 21.5728C119.323 24.1716 120.214 26.3812 121.997 28.2019C123.749 30.0381 125.866 30.9562 128.347 30.9562C130.471 30.9562 132.358 30.256 134.007 28.8555C134.215 28.6687 134.445 28.5753 134.698 28.5753L134.876 28.5754Z" fill="#EA0A4D"/>
<path d="M158.784 9.5752C159.156 9.5752 159.445 9.72303 159.653 10.0187L159.631 9.97202C159.854 10.1899 159.965 10.4778 159.965 10.8357V23.8837C159.965 26.5602 159.037 28.8399 157.18 30.7228H157.202C155.405 32.6057 153.191 33.5471 150.562 33.5471C149.255 33.5471 148.059 33.3137 146.975 32.8469C145.89 32.38 144.888 31.6876 143.967 30.7695C142.125 28.9488 141.181 26.7002 141.137 24.0237V10.8356C141.137 10.4933 141.248 10.2054 141.471 9.972C141.709 9.70747 141.991 9.5752 142.318 9.5752C142.674 9.5752 142.964 9.72303 143.187 10.0187L143.164 9.97203C143.402 10.2054 143.521 10.4933 143.521 10.8357V23.8837C143.521 25.8755 144.204 27.5561 145.571 28.9255C146.937 30.3415 148.601 31.0496 150.562 31.0496C152.508 31.0496 154.172 30.3415 155.553 28.9255C156.905 27.5561 157.581 25.8755 157.581 23.8837V10.8356C157.581 10.4933 157.707 10.2054 157.96 9.972C158.183 9.70747 158.458 9.5752 158.784 9.5752Z" fill="#EA0A4D"/>
<path d="M175.515 31.1196C178.011 31.1196 180.143 30.1937 181.91 28.3419C183.693 26.4902 184.584 24.2571 184.584 21.6429C184.584 19.0286 183.693 16.7956 181.91 14.9438C180.143 13.092 178.011 12.1661 175.515 12.1661C173.035 12.1661 170.91 13.092 169.143 14.9438C167.375 16.7956 166.491 19.0286 166.491 21.6429C166.491 24.2571 167.375 26.4902 169.143 28.3419C170.91 30.1937 173.035 31.1196 175.515 31.1196ZM175.515 9.69193C178.679 9.69193 181.376 10.859 183.604 13.1932C185.832 15.5274 186.946 18.3439 186.946 21.6429C186.946 24.9418 185.832 27.7662 183.604 30.1159C181.376 32.4501 178.679 33.6172 175.515 33.6172C172.381 33.6172 169.692 32.4501 167.449 30.1159C165.221 27.7817 164.114 24.9574 164.129 21.6429C164.129 18.2194 164.129 14.8193 164.129 11.4426C164.144 8.06579 164.152 4.66568 164.152 1.24224C164.152 0.931014 164.285 0.60423 164.553 0.261886C164.731 0.0907132 164.991 0.00512695 165.332 0.00512695C165.644 0.00512695 165.897 0.0907132 166.09 0.261886C166.224 0.433058 166.328 0.59645 166.402 0.752061C166.476 0.907672 166.513 1.07106 166.513 1.24224V14.3603C166.944 13.8001 167.42 13.2632 167.939 12.7497C168.474 12.2362 169.031 11.8005 169.611 11.4426C171.438 10.2755 173.406 9.69193 175.515 9.69193Z" fill="#EA0A4D"/>
<path d="M211.506 20.149C211.343 19.0597 211.023 18.0638 210.548 17.1613C210.087 16.2587 209.471 15.4262 208.699 14.6637C207.852 13.8856 206.909 13.2865 205.869 12.8664C204.829 12.4307 203.744 12.2128 202.615 12.2128C200.268 12.2128 198.226 13.0453 196.488 14.7104V14.687C194.913 16.1965 193.97 18.0171 193.658 20.149H211.506ZM214.002 21.4094C214.002 21.4872 213.994 21.5495 213.979 21.5962C213.86 22.2809 213.474 22.6232 212.821 22.6232H193.613C193.821 24.9574 194.72 26.9103 196.309 28.482C197.171 29.3845 198.129 30.0536 199.184 30.4894C200.239 30.9251 201.382 31.1429 202.615 31.1429C204.041 31.1429 205.438 30.785 206.804 30.0692H206.782C208.089 29.3534 209.166 28.3575 210.013 27.0815C210.176 26.8014 210.459 26.6146 210.86 26.5213H210.971C211.209 26.5213 211.454 26.6146 211.706 26.8014C211.959 27.0192 212.107 27.2838 212.152 27.595C212.167 27.6261 212.174 27.665 212.174 27.7117C212.174 27.7428 212.174 27.7739 212.174 27.8051C212.174 28.1007 212.093 28.3419 211.929 28.5287V28.482C211.409 29.2912 210.808 30.0148 210.124 30.6528C209.456 31.2752 208.706 31.8198 207.874 32.2867C206.24 33.1892 204.487 33.6405 202.615 33.6405C199.451 33.6405 196.748 32.4734 194.504 30.1392C192.276 27.7895 191.162 24.9652 191.162 21.6662V21.3161C191.281 18.0794 192.447 15.3406 194.66 13.0998C196.859 10.8435 199.511 9.71527 202.615 9.71527C205.705 9.71527 208.349 10.8435 210.548 13.0998C212.791 15.3562 213.942 18.1105 214.002 21.3628L214.002 21.4094Z" fill="#EA0A4D"/>
<path d="M6.05032 20.9646L0 27.3026L6.05032 33.6405L12.1006 27.3026L6.05032 20.9646Z" fill="#767676"/>
<path d="M12.857 13.8344L6.80664 20.1724L12.857 26.5103L18.9073 20.1724L12.857 13.8344Z" fill="#767676"/>
<path d="M19.6636 20.9646L13.6133 27.3026L19.6636 33.6405L25.7139 27.3026L19.6636 20.9646Z" fill="#767676"/>
<path d="M26.4702 13.8344L20.4199 20.1724L26.4702 26.5103L32.5206 20.1724L26.4702 13.8344Z" fill="#EA0A4D"/>
<path d="M33.2769 6.70417L27.2266 13.0421L33.2769 19.3801L39.3272 13.0421L33.2769 6.70417Z" fill="#EA0A4D"/>
<path d="M33.2769 20.9646L27.2266 27.3026L33.2769 33.6405L39.3272 27.3026L33.2769 20.9646Z" fill="#EA0A4D"/>
</svg>
