<?xml version="1.0" encoding="utf-8"?>
<!-- Generator: Adobe Illustrator 24.3.0, SVG Export Plug-In . SVG Version: 6.00 Build 0)  -->
<svg version="1.1" id="Layer_1" xmlns="http://www.w3.org/2000/svg" xmlns:xlink="http://www.w3.org/1999/xlink" x="0px" y="0px"
	 viewBox="0 0 2000 1000" style="enable-background:new 0 0 2000 1000;" xml:space="preserve">
<style type="text/css">
	.st0{clip-path:url(#SVGID_3_);fill:url(#SVGID_4_);}
	.st1{clip-path:url(#SVGID_6_);fill:#6CA9BC;}
	.st2{clip-path:url(#SVGID_8_);fill:url(#SVGID_9_);}
	.st3{clip-path:url(#SVGID_11_);}
	.st4{fill:url(#SVGID_12_);}
	.st5{clip-path:url(#SVGID_14_);fill:url(#SVGID_15_);}
	.st6{clip-path:url(#SVGID_17_);}
	.st7{opacity:0.3;fill:#65ADC9;enable-background:new    ;}
	.st8{opacity:0.3;clip-path:url(#SVGID_21_);fill:#65ADC9;enable-background:new    ;}
	.st9{opacity:0.39;clip-path:url(#SVGID_23_);}
	.st10{fill:#FFFCF0;}
	.st11{clip-path:url(#SVGID_25_);}
	.st12{fill:#2B486B;}
	.st13{fill:#445E77;}
	.st14{clip-path:url(#SVGID_28_);}
	.st15{filter:url(#Adobe_OpacityMaskFilter);}
	.st16{clip-path:url(#SVGID_29_);}
	.st17{clip-path:url(#SVGID_33_);}
	.st18{clip-path:url(#SVGID_34_);fill:url(#SVGID_35_);}
	.st19{clip-path:url(#SVGID_29_);mask:url(#SVGID_30_);fill:url(#SVGID_36_);}
	.st20{fill:url(#SVGID_37_);}
	.st21{clip-path:url(#SVGID_39_);}
	.st22{fill:#608DB2;}
	.st23{opacity:0.3;}
	.st24{fill:#1E1C1C;}
	.st25{fill:#126A9B;}
	.st26{opacity:0.76;}
	.st27{opacity:5.000000e-02;}
	.st28{clip-path:url(#SVGID_41_);}
	.st29{opacity:0.4;fill:#2B486B;enable-background:new    ;}
	.st30{opacity:0.39;fill:#E9C583;enable-background:new    ;}
	.st31{opacity:0.32;}
	.st32{fill:#FFFFFF;}
	.st33{opacity:0.73;}
	.st34{fill:#A28B5F;}
	.st35{clip-path:url(#SVGID_43_);}
</style>
<g>
	<g>
		<defs>
			<rect id="SVGID_2_" x="-1.7" width="2002.5" height="1000"/>
		</defs>
		<clipPath id="SVGID_3_">
			<use xlink:href="#SVGID_2_"  style="overflow:visible;"/>
		</clipPath>
		
			<linearGradient id="SVGID_4_" gradientUnits="userSpaceOnUse" x1="-10093.3682" y1="549.5355" x2="14565.7617" y2="446.8746" gradientTransform="matrix(1 0 0 -1 0 1000)">
			<stop  offset="0" style="stop-color:#DFFFDB"/>
			<stop  offset="7.740000e-02" style="stop-color:#C8F4E1"/>
			<stop  offset="0.2389" style="stop-color:#8DD7F0"/>
			<stop  offset="0.2574" style="stop-color:#86D4F2"/>
			<stop  offset="0.2647" style="stop-color:#8DD3F0"/>
			<stop  offset="0.2968" style="stop-color:#A9CEE7"/>
			<stop  offset="0.3251" style="stop-color:#B9CBE2"/>
			<stop  offset="0.3466" style="stop-color:#BFCAE0"/>
			<stop  offset="0.3523" style="stop-color:#ACB9D1"/>
			<stop  offset="0.3645" style="stop-color:#899BB6"/>
			<stop  offset="0.3779" style="stop-color:#6C819F"/>
			<stop  offset="0.3927" style="stop-color:#546C8C"/>
			<stop  offset="0.4094" style="stop-color:#415C7D"/>
			<stop  offset="0.429" style="stop-color:#345173"/>
			<stop  offset="0.4543" style="stop-color:#2C4A6D"/>
			<stop  offset="0.506" style="stop-color:#2A486B"/>
			<stop  offset="0.6679" style="stop-color:#2C437B"/>
			<stop  offset="0.7493" style="stop-color:#2D4085"/>
			<stop  offset="0.7624" style="stop-color:#324588"/>
			<stop  offset="0.7777" style="stop-color:#405291"/>
			<stop  offset="0.7941" style="stop-color:#57689F"/>
			<stop  offset="0.8111" style="stop-color:#7887B4"/>
			<stop  offset="0.8286" style="stop-color:#A1AECE"/>
			<stop  offset="0.8395" style="stop-color:#BFCAE0"/>
			<stop  offset="0.9333" style="stop-color:#DFFFDB"/>
		</linearGradient>
		<rect x="0" y="-8" class="st0" width="2000.8" height="1009.4"/>
	</g>
	<g>
		<defs>
			<rect id="SVGID_5_" x="-1.7" width="2002.5" height="1000"/>
		</defs>
		<clipPath id="SVGID_6_">
			<use xlink:href="#SVGID_5_"  style="overflow:visible;"/>
		</clipPath>
		<path class="st1" d="M2000.8,660.8c-72.5-24.5-216.4-67.6-409.5-99.3c-35.2-5.8-72.1-11.2-110.5-16
			c-102.9-13-216.6-21.9-338.4-23.2c-251-2.8-470.4,22.7-632.6,50.5C408.3,590.2,315.3,631.1,265,644c45.2,6.6,89.3-8.4,98.5-5.3
			c16.4,5.4,60.1,13.5,91.9,19.1c35.9,5.4,119.8,17,214.3,22.1h165.6c45.6-3.1,88.7-9.4,124.9-20.3c0,0,129.1,9.8,204,17.6l107-41.5
			c0,0,79.1-0.1,132.6,11.1c32.8,6.9,134.7,23.4,270.7,33.1L1869,695l131.8-11.8V660.8z"/>
	</g>
	<g>
		<defs>
			<rect id="SVGID_7_" x="-1.7" width="2002.5" height="1000"/>
		</defs>
		<clipPath id="SVGID_8_">
			<use xlink:href="#SVGID_7_"  style="overflow:visible;"/>
		</clipPath>
		
			<linearGradient id="SVGID_9_" gradientUnits="userSpaceOnUse" x1="-10238.8564" y1="355.3422" x2="2491.3569" y2="291.0018" gradientTransform="matrix(1 0 0 -1 0 1000)">
			<stop  offset="0" style="stop-color:#688468"/>
			<stop  offset="0.3883" style="stop-color:#89A589"/>
			<stop  offset="0.635" style="stop-color:#89A589"/>
			<stop  offset="0.8399" style="stop-color:#C5E4C2"/>
			<stop  offset="0.9972" style="stop-color:#BFCAE0"/>
		</linearGradient>
		<path class="st2" d="M1688.2,642.9c-58.7-9.5-109.9-18.1-154.7-25.1c-11-1.7-22-2.7-33.1-3c-58.4-1.6-117.8-3.3-177.4-4.9
			c-17.8-0.5-35.2,4.8-49.7,15.1c-62.8,44.8-304.8,31.8-429.8-3.4c-124.9-35.2-238.1-29.2-379.1,0c-108,22.4-162.2,14-330.1-7.6l0,0
			C78.6,621.2,36,630.7,0,638.5v160.2l149.5-15l29.9-2.3l1821.4,19.2V654C1926.6,658.3,1777.8,657.4,1688.2,642.9z"/>
	</g>
	<g>
		<defs>
			<rect id="SVGID_10_" x="-1.7" width="2002.5" height="1000"/>
		</defs>
		<clipPath id="SVGID_11_">
			<use xlink:href="#SVGID_10_"  style="overflow:visible;"/>
		</clipPath>
		<g class="st3">
			
				<linearGradient id="SVGID_12_" gradientUnits="userSpaceOnUse" x1="-16575.6504" y1="346.9382" x2="2945.2429" y2="248.2767" gradientTransform="matrix(1 0 0 -1 0 1000)">
				<stop  offset="0" style="stop-color:#688468"/>
				<stop  offset="0.3883" style="stop-color:#89A589"/>
				<stop  offset="0.635" style="stop-color:#89A589"/>
				<stop  offset="0.8399" style="stop-color:#C5E4C2"/>
				<stop  offset="0.9972" style="stop-color:#BFCAE0"/>
			</linearGradient>
			<path class="st4" d="M2000.8,649.6c-2.2,0.5-4.5,0.9-6.7,1.4c-47.3,9.3-92.5,26.9-134.4,50.7c-38.7,21.9-80.7,42.9-80.7,40
				c1,49.2-182.4,22.6-129.9,96.3l351.8,6.4L2000.8,649.6L2000.8,649.6z"/>
		</g>
	</g>
	<g>
		<defs>
			<rect id="SVGID_13_" x="-1.7" width="2002.5" height="1000"/>
		</defs>
		<clipPath id="SVGID_14_">
			<use xlink:href="#SVGID_13_"  style="overflow:visible;"/>
		</clipPath>
		
			<linearGradient id="SVGID_15_" gradientUnits="userSpaceOnUse" x1="-10180.5088" y1="246.9112" x2="14608.0371" y2="-101.2018" gradientTransform="matrix(1 0 0 -1 0 1000)">
			<stop  offset="2.510000e-02" style="stop-color:#5A8E54"/>
			<stop  offset="0.1075" style="stop-color:#FFF0CD"/>
			<stop  offset="0.1956" style="stop-color:#D8BB8D"/>
			<stop  offset="0.2265" style="stop-color:#D1B68C"/>
			<stop  offset="0.2727" style="stop-color:#BCA988"/>
			<stop  offset="0.3287" style="stop-color:#9A9281"/>
			<stop  offset="0.3922" style="stop-color:#6C7378"/>
			<stop  offset="0.4613" style="stop-color:#314C6C"/>
			<stop  offset="0.4686" style="stop-color:#2A486B"/>
			<stop  offset="0.8047" style="stop-color:#2A486B"/>
			<stop  offset="0.8192" style="stop-color:#445D77"/>
			<stop  offset="0.8502" style="stop-color:#889396"/>
			<stop  offset="0.8951" style="stop-color:#F4E8C8"/>
			<stop  offset="0.8994" style="stop-color:#FFF0CD"/>
			<stop  offset="0.9088" style="stop-color:#E4E0B9"/>
			<stop  offset="0.9274" style="stop-color:#B3C395"/>
			<stop  offset="0.9451" style="stop-color:#8CAC79"/>
			<stop  offset="0.9613" style="stop-color:#719B65"/>
			<stop  offset="0.9755" style="stop-color:#609258"/>
			<stop  offset="0.9862" style="stop-color:#5A8E54"/>
		</linearGradient>
		<path class="st5" d="M0,758.1v270.6h-79.8v28.1l2080.6-26V762.3C1534.4,801.5,704.8,786.4,0,758.1z"/>
	</g>
	<g>
		<defs>
			<rect id="SVGID_16_" x="-1.7" width="2002.5" height="1000"/>
		</defs>
		<clipPath id="SVGID_17_">
			<use xlink:href="#SVGID_16_"  style="overflow:visible;"/>
		</clipPath>
		<g class="st6">
			<path class="st7" d="M1073.2,652.5c0.3,0,0.5,0,0.8,0l23-1.3h-3.6L1073.2,652.5z"/>
			<path class="st7" d="M1218.8,644.2l-121.8,7h68.8C1184.2,649.7,1202.1,647.5,1218.8,644.2z"/>
		</g>
	</g>
	<g>
		<defs>
			<rect id="SVGID_18_" x="-1.7" width="2002.5" height="1000"/>
		</defs>
		<clipPath id="SVGID_19_">
			<use xlink:href="#SVGID_18_"  style="overflow:visible;"/>
		</clipPath>
	</g>
	<g>
		<defs>
			<rect id="SVGID_20_" x="-1.7" width="2002.5" height="1000"/>
		</defs>
		<clipPath id="SVGID_21_">
			<use xlink:href="#SVGID_20_"  style="overflow:visible;"/>
		</clipPath>
		<path class="st8" d="M650.2,594.6c-15.7-9.5-33.1-16.1-51-15.6c-18.3,0.5-37.5,8.3-55.4,19c0,0,0,0,0,0c-4.8,2.8-9.4,5.9-13.9,9.1
			C572.8,598.6,613.5,595,650.2,594.6z"/>
	</g>
	<g>
		<defs>
			<rect id="SVGID_22_" x="-1.7" width="2002.5" height="1000"/>
		</defs>
		<clipPath id="SVGID_23_">
			<use xlink:href="#SVGID_22_"  style="overflow:visible;"/>
		</clipPath>
		<g class="st9">
			<circle class="st10" cx="725.3" cy="69.4" r="3.2"/>
			<circle class="st10" cx="948.9" cy="153.9" r="3.2"/>
			<path class="st10" d="M1712,50.9c0,1.8-1.4,3.2-3.2,3.2s-3.2-1.4-3.2-3.2c0-1.8,1.4-3.2,3.2-3.2S1712,49.1,1712,50.9z"/>
			<circle class="st10" cx="1475.1" cy="169.2" r="1.6"/>
			<circle class="st10" cx="1545.8" cy="66.8" r="1.6"/>
			<circle class="st10" cx="1393.2" cy="139.4" r="1.6"/>
			<circle class="st10" cx="1313" cy="60" r="1.6"/>
			<circle class="st10" cx="1165.3" cy="116.3" r="1.6"/>
			<path class="st10" d="M1009.2,175.8c0,0.9-0.7,1.6-1.6,1.6s-1.6-0.7-1.6-1.6s0.7-1.6,1.6-1.6S1009.2,174.9,1009.2,175.8z"/>
			<circle class="st10" cx="891" cy="48.6" r="1.6"/>
			<circle class="st10" cx="694.8" cy="157.1" r="1.6"/>
			<circle class="st10" cx="578.9" cy="45.4" r="1.6"/>
			<circle class="st10" cx="634.3" cy="120.1" r="1.6"/>
			<circle class="st10" cx="1822.1" cy="171.3" r="1.6"/>
			<circle class="st10" cx="1959.8" cy="66.8" r="1.6"/>
			<circle class="st10" cx="1675.2" cy="107.6" r="3.2"/>
			<circle class="st10" cx="1504.5" cy="191.3" r="3.2"/>
		</g>
	</g>
	<g>
		<defs>
			<rect id="SVGID_24_" x="-1.7" width="2002.5" height="1000"/>
		</defs>
		<clipPath id="SVGID_25_">
			<use xlink:href="#SVGID_24_"  style="overflow:visible;"/>
		</clipPath>
		<g class="st11">
			<g>
				<path class="st12" d="M817.3,973.4c31.9,18.8-39,23.4-43.6,29.1h655.7c-18.7-23.1-42.5-35.3-67.3-48.2
					c-35.5-18.3-73.6-28.9-111.5-37.8c-46.8-11-94-17.7-141.1-26.7c-25.3-4.9-50.6-10.9-75.2-19.5c-11.2-3.9-22.5-8.2-33-14.2
					c-5.6-3.2-7.2-1.4-11.3-7.2c-15.2-21.5,23.9-42.2,35.3-48.5c22.4-12.4,42.3-20.3,64.7-32.9c12.2-6.8,31.3-24.2,28.7-43.2
					c-1.4-10.3-9-18.3-16-23.8c-8.5-6.7-18.2-11-27.8-14.9c-22.4-9-45.4-16.7-68.2-24.5c-25.6-8.7-51.5-14.4-78-18.8
					c-52.5-8.8-101.3-13.5-159.7-12.9c-50,0.5-74.4-1.9-120.9-0.5c-2.9,0.1-55.6-1.8-58.3-0.7c-3.3,3.7,155.3,19,222.7,39.4
					c28.8,8.8,76.1,27.1,98,52.1c22.3,25.6-17.6,26.8-43.8,32.3c-48.1,10.2-91.9,12.8-139.4,27.1c-28,8.4-57.7,21.1-77.7,47
					c-9.5,12.3-17.2,27.3-14.9,44.5c2,15,7.2,27.3,17,36.1c11.7,10.5,27,21.5,40.9,26.9c20.4,7.9,45.7,13.2,66.4,19.3
					C775.4,957.8,802.4,964.6,817.3,973.4z"/>
				<path class="st13" d="M773.7,1002.5h655.7c-18.7-23.1-42.5-40-67.3-52.8c-35.5-18.3-73.6-28.9-111.5-37.8
					c-46.8-11-94-17.7-141.1-26.7c-25.3-4.9-50.6-10.9-75.2-19.5c-11.2-3.9-22.5-8.2-33-14.2c-5.6-3.2-11.3-7.2-15.3-12.9
					c-15.2-21.5,24.9-42.4,36.2-48.7c22.4-12.4,46.5-20.2,68.8-32.8c12.2-6.8,30.3-18.4,27.7-37.5c-1.4-10.3-9-18.3-16-23.8
					c-8.5-6.7-18.2-11-27.8-14.9c-22.4-9-45.4-16.7-68.2-24.5c-25.6-8.7-51.3-16-78-18.8c-53.3-5.6-184.9-46-246.9-43.6
					c-25.3,4.2-39.9,24.1-55.6,27.5c-0.5,0.1-0.9,0.2-1.4,0.3c-2.8,0.6-32.2,5.4-35,6.4c0.6,2,162.2,13.5,229.6,33.9
					c28.8,8.8,71.2,24.8,93.1,49.9c22.3,25.6-14.5,31.3-40.8,36.8c-48.1,10.2-97,11.3-144.5,25.6c-28,8.4-57.7,21.1-77.7,47
					c-9.5,12.3-17.2,27.3-14.9,44.5c2,15,11.8,26.9,21.5,35.7c11.6,10.5,25.6,18.5,39.5,23.8c20.4,7.9,41.8,11.2,62.5,17.3
					c16.1,4.7,49,14.5,63.8,23.3C854.2,985,778.3,996.8,773.7,1002.5z"/>
				<g>
					<g>
						<defs>
							<polygon id="SVGID_26_" points="1,1 2,1 1,2 							"/>
						</defs>
						<defs>
							<polygon id="SVGID_27_" points="-1,-1 -2,-1 -1,-2 							"/>
						</defs>
						<clipPath id="SVGID_28_">
							<use xlink:href="#SVGID_26_"  style="overflow:visible;"/>
						</clipPath>
						<clipPath id="SVGID_29_" class="st14">
							<use xlink:href="#SVGID_27_"  style="overflow:visible;"/>
						</clipPath>
						<defs>
							<filter id="Adobe_OpacityMaskFilter" filterUnits="userSpaceOnUse" x="661.9" y="617.8" width="487.6" height="386.5">
								<feColorMatrix  type="matrix" values="1 0 0 0 0  0 1 0 0 0  0 0 1 0 0  0 0 0 1 0"/>
							</filter>
						</defs>
						<mask maskUnits="userSpaceOnUse" x="661.9" y="617.8" width="487.6" height="386.5" id="SVGID_30_">
							<g class="st15">
								<g>
									<defs>
										<polygon id="SVGID_31_" points="1,1 2,1 1,2 										"/>
									</defs>
									<defs>
										<polygon id="SVGID_32_" points="-1,-1 -2,-1 -1,-2 										"/>
									</defs>
									<clipPath id="SVGID_33_" class="st16">
										<use xlink:href="#SVGID_31_"  style="overflow:visible;"/>
									</clipPath>
									<clipPath id="SVGID_34_" class="st17">
										<use xlink:href="#SVGID_32_"  style="overflow:visible;"/>
									</clipPath>
									
										<linearGradient id="SVGID_35_" gradientUnits="userSpaceOnUse" x1="905.73" y1="-40.1045" x2="905.73" y2="392.9114" gradientTransform="matrix(1 0 0 -1 0 1000)">
										<stop  offset="2.200000e-02" style="stop-color:#FFFFFF"/>
										<stop  offset="0.3722" style="stop-color:#FFFFFF"/>
										<stop  offset="1" style="stop-color:#4D4D4D"/>
									</linearGradient>
									<path class="st18" d="M1143.2,1004c2.1,0.1,4.2,0.2,6.3,0.3c-5-5.8-11.2-12-18.7-18.3C1061.1,927.6,974,914,893.6,890
										c-23.4-7-46.6-15.1-69-26c-11.2-5.5-23.2-11.6-31.9-22c-13.7-16.5-3.6-28.7,11.8-36.6c29.5-15.2,61.3-21.3,92.6-28.5
										c27.1-6.2,53.9-14.5,80.2-24.6c17.8-6.8,48.1-19.5,50.1-39.8c2.7-27-25.1-33.4-40.3-39.2c-81.8-31.4-164.5-47.5-250-53
										c-25-1.6-50.1-2.5-75.2-2.2c81.3,1.5,163.1,12.5,242.7,32.5c24.5,6.2,48.7,13.4,72.4,23.1c12.8,5.2,34.1,9.4,41.7,24.4
										c12.1,23.8-32,40.7-43.7,45.3c-36.4,14.4-74.4,20.6-112,28.5c-24.3,5.2-50.9,10.4-73,24.5c-9.6,6.2-19.9,16.7-21.2,30.8
										c-1.2,12.8,8.9,23.7,16.5,30.5c3.6,3.2,7.3,6,11,8.6c52.7,36.5,114,46.9,171.9,65c51.4,16.1,103.9,35.5,147.9,72.5
										C1125.2,1004.4,1134.4,1003.6,1143.2,1004z"/>
								</g>
							</g>
						</mask>
						
							<linearGradient id="SVGID_36_" gradientUnits="userSpaceOnUse" x1="905.73" y1="-40.1045" x2="905.73" y2="392.9114" gradientTransform="matrix(1 0 0 -1 0 1000)">
							<stop  offset="2.200000e-02" style="stop-color:#FFFFFF"/>
							<stop  offset="0.3722" style="stop-color:#FFFFFF"/>
							<stop  offset="1" style="stop-color:#4D4D4D"/>
						</linearGradient>
						<path class="st19" d="M1143.2,1004c2.1,0.1,4.2,0.2,6.3,0.3c-5-5.8-11.2-12-18.7-18.3C1061.1,927.6,974,914,893.6,890
							c-23.4-7-46.6-15.1-69-26c-11.2-5.5-23.2-11.6-31.9-22c-13.7-16.5-3.6-28.7,11.8-36.6c29.5-15.2,61.3-21.3,92.6-28.5
							c27.1-6.2,53.9-14.5,80.2-24.6c17.8-6.8,48.1-19.5,50.1-39.8c2.7-27-25.1-33.4-40.3-39.2c-81.8-31.4-164.5-47.5-250-53
							c-25-1.6-50.1-2.5-75.2-2.2c81.3,1.5,163.1,12.5,242.7,32.5c24.5,6.2,48.7,13.4,72.4,23.1c12.8,5.2,34.1,9.4,41.7,24.4
							c12.1,23.8-32,40.7-43.7,45.3c-36.4,14.4-74.4,20.6-112,28.5c-24.3,5.2-50.9,10.4-73,24.5c-9.6,6.2-19.9,16.7-21.2,30.8
							c-1.2,12.8,8.9,23.7,16.5,30.5c3.6,3.2,7.3,6,11,8.6c52.7,36.5,114,46.9,171.9,65c51.4,16.1,103.9,35.5,147.9,72.5
							C1125.2,1004.4,1134.4,1003.6,1143.2,1004z"/>
					</g>
				</g>
				
					<linearGradient id="SVGID_37_" gradientUnits="userSpaceOnUse" x1="905.73" y1="-40.1045" x2="905.73" y2="392.9114" gradientTransform="matrix(1 0 0 -1 0 1000)">
					<stop  offset="2.200000e-02" style="stop-color:#FCFCFC"/>
					<stop  offset="0.3722" style="stop-color:#FFFFFF"/>
					<stop  offset="1" style="stop-color:#BCC1C1"/>
				</linearGradient>
				<path class="st20" d="M1143.2,1004c2.1,0.1,4.2,0.2,6.3,0.3c-5-5.8-11.2-12-18.7-18.3C1061.1,927.6,974,914,893.6,890
					c-23.4-7-46.6-15.1-69-26c-11.2-5.5-23.2-11.6-31.9-22c-13.7-16.5-3.6-28.7,11.8-36.6c29.5-15.2,61.3-21.3,92.6-28.5
					c27.1-6.2,53.9-14.5,80.2-24.6c17.8-6.8,48.1-19.5,50.1-39.8c2.7-27-25.1-33.4-40.3-39.2c-81.8-31.4-164.5-47.5-250-53
					c-25-1.6-50.1-2.5-75.2-2.2c81.3,1.5,163.1,12.5,242.7,32.5c24.5,6.2,48.7,13.4,72.4,23.1c12.8,5.2,34.1,9.4,41.7,24.4
					c12.1,23.8-32,40.7-43.7,45.3c-36.4,14.4-74.4,20.6-112,28.5c-24.3,5.2-50.9,10.4-73,24.5c-9.6,6.2-19.9,16.7-21.2,30.8
					c-1.2,12.8,8.9,23.7,16.5,30.5c3.6,3.2,7.3,6,11,8.6c52.7,36.5,114,46.9,171.9,65c51.4,16.1,103.9,35.5,147.9,72.5
					C1125.2,1004.4,1134.4,1003.6,1143.2,1004z"/>
			</g>
		</g>
	</g>
	<g>
		<defs>
			<rect id="SVGID_38_" x="-1.7" width="2002.5" height="1000"/>
		</defs>
		<clipPath id="SVGID_39_">
			<use xlink:href="#SVGID_38_"  style="overflow:visible;"/>
		</clipPath>
		<g class="st21">
			<g>
				<g>
					<path class="st22" d="M620.4,871.4h-12.9c-1.9,0-3.5-1.6-3.5-3.5V455.4c0-2.9,2.3-5.3,5.3-5.3h9.4c2.9,0,5.3,2.4,5.3,5.3v412.6
						C623.9,869.9,622.3,871.4,620.4,871.4z"/>
				</g>
			</g>
			<g class="st23">
				<polygon class="st24" points="604.1,568.2 623.9,546.9 623.9,539.1 604.1,539.1 				"/>
			</g>
			<g class="st23">
				<polygon class="st24" points="604.1,659.3 623.9,638 623.9,630.2 604.1,630.2 				"/>
			</g>
			<g>
				<g>
					<g>
						<path class="st25" d="M657,563.7l1.9-10.6l-138.3-22.9c-3.6-0.6-6-4-5.4-7.6l7.2-43.7c0.6-3.6,4-6,7.6-5.4l138.4,23l2-10.4
							c0.5-2.4,3.5-3.2,5.1-1.4l38.4,43.5c2.7,3,1.9,7.8-1.6,9.8l-50.9,28.9C659.2,568.1,656.5,566.2,657,563.7z"/>
					</g>
				</g>
				<g>
					<g>
						<g class="st26">
							<path class="st12" d="M682,540.6c4.1,0.5,7.6,0.9,10.3,1C692.3,541.7,688.4,541.3,682,540.6z"/>
							<path class="st12" d="M692.2,541.9c-2.5-0.2-6-0.5-10.3-1l0.1-0.5c6.3,0.7,10.2,1,10.3,1L692.2,541.9z"/>
						</g>
						<g class="st26">
							<path class="st12" d="M628.1,532.2c20.8,4.5,41.8,7.2,53.9,8.5C661.5,538.1,628.1,532.2,628.1,532.2z"/>
							<path class="st12" d="M681.9,540.9c-11-1.2-32.7-3.9-53.9-8.5l0.1-0.5c0.3,0.1,33.7,6,53.9,8.5L681.9,540.9z"/>
						</g>
						<g class="st26">
							<path class="st12" d="M707.9,540c-4.4-0.6-8.8-1.2-13.1-1.9c3.8,0.6,8.3,1.3,12.7,2C707.6,540.1,707.8,540,707.9,540z"/>
							<path class="st12" d="M707.5,540.4L707.5,540.4c-4.5-0.7-9-1.5-12.8-2.1l0.1-0.5c2.5,0.4,5.1,0.7,7.6,1.1
								c1.8,0.3,3.7,0.5,5.5,0.8l0.9,0.1l-0.9,0.4C707.8,540.3,707.7,540.3,707.5,540.4L707.5,540.4z"/>
						</g>
						<g class="st26">
							<path class="st12" d="M694.8,538.1c-4.1-0.7-7.2-1.2-8-1.3C689.4,537.3,692.1,537.7,694.8,538.1z"/>
							<path class="st12" d="M694.7,538.3c-3.1-0.5-5.7-0.9-8-1.3l0.1-0.5c0.8,0.1,3.7,0.6,8,1.3L694.7,538.3z"/>
						</g>
						<g class="st26">
							<path class="st12" d="M584.2,524.3c-17.7-2-46.5-7.2-46.5-7.2C555.6,521,573.8,523.2,584.2,524.3z"/>
							<path class="st12" d="M584.2,524.5c-9.5-1-28.2-3.2-46.5-7.2l0.1-0.5c0.3,0,29,5.2,46.5,7.2L584.2,524.5z"/>
						</g>
						<g class="st26">
							<path class="st12" d="M584.2,524.3c3.5,0.4,6.6,0.7,8.9,0.8C593.1,525.1,589.7,524.8,584.2,524.3z"/>
							<path class="st12" d="M593.1,525.3c-2.2-0.1-5.2-0.3-8.9-0.8l0-0.5c5.5,0.5,8.8,0.8,8.9,0.8L593.1,525.3z"/>
						</g>
						<g class="st26">
							<path class="st12" d="M611.4,526.7c4.2,0.7,8.3,1.3,12.5,2c8.4,1.3,16.8,2.7,25.3,4.1c-13.7-2.3-27.3-4.6-41-6.9
								c-2.7-0.5-6-1.1-8.7-1.2C602,525.5,608.4,526.2,611.4,526.7z"/>
							<path class="st12" d="M649.2,533l-37.8-6.1c-0.9-0.1-2-0.3-3.2-0.5c-3.1-0.4-7-0.9-8.8-1.6l-1.6-0.6l1.7,0.1
								c2.3,0.1,5,0.6,7.4,1c0.5,0.1,0.9,0.2,1.3,0.2l41,6.9L649.2,533z"/>
						</g>
						<g class="st26">
							<path class="st12" d="M590.1,527.3c5.9,0.9,11.7,1.9,17.5,2.9c-0.9-0.5-2.1-0.7-3.3-0.9C599.7,528.4,594.9,527.7,590.1,527.3
								z"/>
							<path class="st12" d="M609.2,530.7l-1.6-0.3c-1.7-0.3-3.4-0.6-5.1-0.9c-4.1-0.7-8.3-1.4-12.4-2l0.1-0.5
								c4.4,0.4,9.2,1.1,14.3,2c1.2,0.2,2.4,0.5,3.3,0.9L609.2,530.7z"/>
						</g>
						<g class="st26">
							<path class="st12" d="M521.7,516.5c-0.8-0.1-1.6-0.2-2.4-0.3C520.1,516.3,520.8,516.4,521.7,516.5z"/>
							<path class="st12" d="M521.6,516.7c-0.9-0.1-1.7-0.2-2.4-0.3l0.1-0.5c0.8,0.1,1.6,0.2,2.4,0.3L521.6,516.7z"/>
						</g>
						<g class="st26">
							<path class="st12" d="M530.7,517.5c-2.9-0.6-6-0.7-9-1C524.7,516.8,527.7,517.2,530.7,517.5z"/>
							<path class="st12" d="M530.7,517.8c-2.7-0.2-5.4-0.6-8-0.9l-1-0.1l0.1-0.5c0.8,0.1,1.7,0.2,2.5,0.2c2.2,0.2,4.4,0.4,6.6,0.8
								L530.7,517.8z"/>
						</g>
						<g class="st26">
							<path class="st12" d="M541.5,514.8c-1.1-0.2-2.2-0.4-3.3-0.6c1,0.2,2,0.5,3,0.7L541.5,514.8z"/>
							<path class="st12" d="M541.2,515.2l-3.1-0.8l0.1-0.5c1.1,0.1,2.2,0.3,3.3,0.6l0.6,0.1L541.2,515.2z"/>
						</g>
						<g class="st26">
							<path class="st12" d="M515.6,527.7c20.8,4.5,41.8,7.2,53.9,8.5C549,533.7,515.6,527.7,515.6,527.7z"/>
							<path class="st12" d="M569.5,536.5c-11-1.2-32.7-3.9-53.9-8.5l0.1-0.5c0.3,0.1,33.7,6,53.9,8.5L569.5,536.5z"/>
						</g>
						<g class="st26">
							<path class="st12" d="M535.8,523.5c9.4,1.4,18.8,2.9,28.2,4.4c-1.5-0.4-3.5-0.8-5.3-1C551.1,525.6,543.4,524.5,535.8,523.5z"
								/>
							<path class="st12" d="M564,528.1c-2.7-0.4-5.5-0.9-8.2-1.3c-6.6-1-13.3-2.1-20-3.1l0.1-0.5c7,0.9,14.7,2,22.9,3.3
								c2,0.3,3.8,0.6,5.3,1.1L564,528.1z"/>
						</g>
					</g>
				</g>
				<g>
					<g>
						<g class="st26">
							<path class="st12" d="M562.6,509.5c-4.1-0.5-7.6-0.9-10.3-1C552.3,508.5,556.2,508.8,562.6,509.5z"/>
							<path class="st12" d="M562.6,509.7c-6.3-0.7-10.3-1-10.3-1l0-0.5c2.5,0.1,6,0.5,10.3,1L562.6,509.7z"/>
						</g>
						<g class="st26">
							<path class="st12" d="M616.6,518c-20.8-4.5-41.9-7.2-54-8.5C583.1,512,616.6,518,616.6,518z"/>
							<path class="st12" d="M616.6,518.2c-0.3-0.1-33.7-6-54-8.5l0.1-0.5c11,1.2,32.7,3.9,54,8.5L616.6,518.2z"/>
						</g>
						<g class="st26">
							<path class="st12" d="M522.5,507.9c9.1,1.7,18.2,2.8,27.3,4.2c-11-1.8-29.1-4.7-29.1-4.8
								C520.7,507.5,521.7,507.7,522.5,507.9z"/>
							<path class="st12" d="M549.8,512.3c-2.5-0.4-5-0.7-7.5-1.1c-6.5-0.9-13.1-1.9-19.7-3.1l0,0c-1.7-0.3-2-0.5-2-0.8
								c0,0,0-0.1,0-0.1l0,0l0.3,0l0.1-0.2c0.5,0.1,17.3,2.9,29.1,4.8L549.8,512.3z"/>
						</g>
						<g class="st26">
							<path class="st12" d="M549.8,512c4.1,0.7,7.2,1.2,8,1.3C555.2,512.8,552.5,512.4,549.8,512z"/>
							<path class="st12" d="M557.8,513.5c-0.8-0.1-3.7-0.6-8-1.3l0.1-0.5c3.1,0.5,5.7,0.9,8,1.3L557.8,513.5z"/>
						</g>
						<g class="st26">
							<path class="st12" d="M533.2,506.6c-1-0.2-2-0.5-3-0.7l-0.3,0.2C530.9,506.3,532,506.5,533.2,506.6z"/>
							<path class="st12" d="M533.1,506.9c-1.1-0.1-2.2-0.3-3.3-0.6l-0.6-0.1l1-0.6l3.1,0.8L533.1,506.9z"/>
						</g>
						<g class="st26">
							<path class="st12" d="M660.5,525.8c17.7,2,46.5,7.2,46.5,7.2C689.1,529.1,671,526.9,660.5,525.8z"/>
							<path class="st12" d="M707,533.3c-0.3,0-29-5.2-46.5-7.2l0-0.5c9.5,1,28.2,3.2,46.6,7.2L707,533.3z"/>
						</g>
						<g class="st26">
							<path class="st12" d="M660.5,525.8c-3.5-0.4-6.6-0.7-8.9-0.8C651.6,525,655,525.3,660.5,525.8z"/>
							<path class="st12" d="M660.5,526.1c-5.5-0.5-8.9-0.8-8.9-0.8l0-0.5c2.2,0.1,5.2,0.3,8.9,0.8L660.5,526.1z"/>
						</g>
						<g class="st26">
							<path class="st12" d="M633.2,523.5c-4.2-0.7-8.4-1.3-12.5-2c-8.4-1.3-16.9-2.7-25.3-4.1c13.7,2.3,27.4,4.6,41,6.9
								c2.7,0.5,6,1.1,8.7,1.2C642.7,524.6,636.3,523.9,633.2,523.5z"/>
							<path class="st12" d="M646.9,525.8l-1.7-0.1c-2.3-0.1-5-0.6-7.4-1c-0.5-0.1-0.9-0.2-1.3-0.2l-41-6.9l0.1-0.5l37.9,6.1
								c0.9,0.1,2,0.3,3.2,0.5c3.1,0.4,7,0.9,8.8,1.6L646.9,525.8z"/>
						</g>
						<g class="st26">
							<path class="st12" d="M654.6,522.8c-5.9-0.9-11.7-1.9-17.6-2.9c0.9,0.5,2.1,0.7,3.3,0.9C645,521.7,649.8,522.4,654.6,522.8z"
								/>
							<path class="st12" d="M654.6,523c-4.4-0.4-9.2-1.1-14.3-2c-1.2-0.2-2.4-0.5-3.3-0.9l-1.4-0.7l1.6,0.3
								c1.7,0.3,3.4,0.6,5.1,0.9c4.1,0.7,8.3,1.4,12.4,2L654.6,523z"/>
						</g>
						<g class="st26">
							<path class="st12" d="M703.3,535.3c1.1,0.2,2.2,0.4,3.3,0.6c-1-0.2-2-0.5-3-0.7L703.3,535.3z"/>
							<path class="st12" d="M706.6,536.2c-1.1-0.1-2.2-0.3-3.3-0.6l-0.6-0.1l1-0.6l3.1,0.8L706.6,536.2z"/>
						</g>
					</g>
				</g>
				<g>
					<g>
						<g class="st26">
							<path class="st12" d="M637.8,507.7c4.1,0.5,7.6,0.9,10.3,1C648.2,508.7,644.2,508.4,637.8,507.7z"/>
							<path class="st12" d="M648.1,509c-2.5-0.1-6-0.5-10.3-1l0.1-0.5c6.3,0.7,10.3,1,10.3,1L648.1,509z"/>
						</g>
						<g class="st26">
							<path class="st12" d="M583.8,499.2c20.8,4.5,41.9,7.2,54,8.5C617.3,505.2,583.8,499.2,583.8,499.2z"/>
							<path class="st12" d="M637.8,507.9c-11-1.2-32.7-3.9-54-8.5l0.1-0.5c0.3,0.1,33.7,6,54,8.5L637.8,507.9z"/>
						</g>
						<g class="st26">
							<path class="st12" d="M677.9,509.3c-9.1-1.7-18.2-2.8-27.3-4.2c11,1.8,29.1,4.7,29.1,4.8
								C679.8,509.7,678.8,509.5,677.9,509.3z"/>
							<path class="st12" d="M679.7,510.1c-0.5-0.1-17.3-2.9-29.1-4.8l0.1-0.5c2.5,0.4,5,0.7,7.6,1.1c6.5,0.9,13.1,1.9,19.7,3.1l0,0
								c1.7,0.3,2,0.5,2,0.8c0,0,0,0.1,0,0.1l-0.3,0L679.7,510.1z"/>
						</g>
						<g class="st26">
							<path class="st12" d="M650.7,505.1c-4.1-0.6-7.2-1.1-8-1.3C645.3,504.3,648,504.7,650.7,505.1z"/>
							<path class="st12" d="M650.6,505.4c-3.1-0.5-5.6-0.9-8-1.3l0.1-0.5c0.8,0.1,3.7,0.6,8,1.3L650.6,505.4z"/>
						</g>
						<g class="st26">
							<path class="st12" d="M667.3,510.5c1,0.2,2,0.5,3,0.7l0.3-0.2C669.5,510.8,668.4,510.7,667.3,510.5z"/>
							<path class="st12" d="M670.3,511.5l-3.1-0.8l0.1-0.5c1.1,0.1,2.2,0.3,3.3,0.6l0.6,0.1L670.3,511.5z"/>
						</g>
						<g class="st26">
							<path class="st12" d="M519.5,497.6c0,0.1,0,0.1,0,0.2c15.9,3.2,31.3,5,40.6,6C547.3,502.3,528.9,499.2,519.5,497.6z"/>
							<path class="st12" d="M560,504c-9.9-1-25-2.8-40.6-6l-0.3,0l0.2-0.7l0.2,0c9.7,1.7,27.9,4.7,40.5,6.2L560,504z"/>
						</g>
						<g class="st26">
							<path class="st12" d="M539.9,491.3c3.5,0.4,6.6,0.7,8.9,0.8C548.8,492.1,545.5,491.9,539.9,491.3z"/>
							<path class="st12" d="M548.8,492.4c-2.2-0.1-5.2-0.4-8.9-0.8l0-0.5c5.5,0.5,8.9,0.8,8.9,0.8L548.8,492.4z"/>
						</g>
						<g class="st26">
							<path class="st12" d="M567.2,493.7c4.2,0.7,8.4,1.3,12.5,2c8.4,1.4,16.9,2.7,25.3,4.1c-13.7-2.3-27.4-4.6-41-6.9
								c-2.7-0.5-6-1.1-8.7-1.2C557.8,492.6,564.1,493.2,567.2,493.7z"/>
							<path class="st12" d="M605,500l-37.9-6.1c-0.9-0.1-2-0.3-3.2-0.5c-3.1-0.4-7-0.9-8.8-1.6l-1.6-0.6l1.7,0.1
								c2.3,0.1,5,0.6,7.5,1c0.5,0.1,0.9,0.1,1.3,0.2l41,6.9L605,500z"/>
						</g>
						<g class="st26">
							<path class="st12" d="M536.6,493c9,1.3,17.9,2.9,26.8,4.3c-1.4-0.5-3.3-0.9-5-1.2C551.2,494.9,543.8,493.8,536.6,493z"/>
							<path class="st12" d="M565.8,497.9l-2.4-0.4c-2.6-0.4-5.2-0.9-7.8-1.3c-6.2-1-12.7-2.1-19-3l0.1-0.5c6.7,0.7,14,1.8,21.8,3.1
								c1.9,0.3,3.7,0.6,5.1,1.2L565.8,497.9z"/>
						</g>
						<g class="st26">
							<path class="st12" d="M570.6,532.8c-2.9-0.6-6-0.7-9-1C564.6,532.2,567.6,532.6,570.6,532.8z"/>
							<path class="st12" d="M570.6,533.1c-2.7-0.2-5.4-0.6-8-0.9l-1-0.1l0.1-0.5c0.8,0.1,1.7,0.2,2.5,0.2c2.2,0.2,4.4,0.4,6.6,0.8
								L570.6,533.1z"/>
						</g>
						<g class="st26">
							<path class="st12" d="M581.4,530.1c-1.1-0.2-2.2-0.4-3.3-0.6c1,0.2,2,0.5,3,0.7L581.4,530.1z"/>
							<path class="st12" d="M581.2,530.6l-3.1-0.8l0.1-0.5c1.1,0.1,2.2,0.3,3.3,0.6l0.6,0.1L581.2,530.6z"/>
						</g>
					</g>
				</g>
				<g>
					<g>
						<g class="st26">
							<path class="st12" d="M523.1,476.9C523.1,477,523.1,477,523.1,476.9c20.5,2.8,48.9,7.9,48.9,7.9
								C553.9,480.9,535.6,478.4,523.1,476.9z"/>
							<path class="st12" d="M572,485.1c-0.3,0-28.7-5.1-48.9-7.8l-0.3,0l0.2-0.5l0.2,0c12.2,1.4,30.7,4,48.9,7.9L572,485.1z"/>
						</g>
						<g class="st26">
							<path class="st12" d="M689.7,549.9c-40.1-6.2-87.7-13.5-87.7-13.5c0.1,0.2,4,0.9,7.1,1.4c27,4.3,53.7,8.3,80.4,12.2
								C689.6,550,689.6,550,689.7,549.9z"/>
							<path class="st12" d="M689.6,550.3l-5.6-0.8c-24.5-3.6-49.8-7.4-74.9-11.4c-7.1-1.1-7.3-1.3-7.3-1.6v0l0.2-0.1l0.1-0.2
								c0.7,0.2,44.5,6.9,87.7,13.5l0.7,0.1L689.6,550.3z"/>
						</g>
						<g class="st26">
							<path class="st12" d="M522,486.9c4.1,0.6,7.2,1.1,8,1.3C527.3,487.7,524.7,487.3,522,486.9z"/>
							<path class="st12" d="M530,488.4c-0.8-0.1-3.8-0.6-8-1.3l0.1-0.5c3.1,0.5,5.7,0.9,8,1.3L530,488.4z"/>
						</g>
						<g class="st26">
							<path class="st12" d="M609.7,509.1c-3.8-0.7-7.7-1.4-11.6-2l-1.1,0.1C601.3,507.9,605.5,508.5,609.7,509.1z"/>
							<path class="st12" d="M609.7,509.4c-4.2-0.6-8.5-1.3-12.6-2l-2.2-0.4l3.3-0.2l0,0l11.6,2L609.7,509.4z"/>
						</g>
						<g class="st26">
							<path class="st12" d="M616,492.7c17.7,2,46.5,7.2,46.5,7.2C644.6,496,626.4,493.8,616,492.7z"/>
							<path class="st12" d="M662.5,500.2c-0.3,0-29-5.2-46.5-7.2l0-0.5c9.5,1,28.2,3.2,46.6,7.2L662.5,500.2z"/>
						</g>
						<g class="st26">
							<path class="st12" d="M616,492.7c-3.5-0.4-6.6-0.7-8.9-0.8C607.1,491.9,610.4,492.1,616,492.7z"/>
							<path class="st12" d="M616,493c-5.5-0.5-8.9-0.8-8.9-0.8l0-0.5c2.2,0.1,5.2,0.4,8.9,0.8L616,493z"/>
						</g>
						<g class="st26">
							<path class="st12" d="M588.7,490.3c-4.2-0.7-8.4-1.3-12.5-2c-8.4-1.4-16.9-2.7-25.3-4.1c13.7,2.3,27.4,4.6,41,6.9
								c2.7,0.5,6,1.1,8.7,1.2C598.1,491.5,591.8,490.8,588.7,490.3z"/>
							<path class="st12" d="M602.3,492.7l-1.7-0.1c-2.3-0.1-5-0.6-7.4-1c-0.5-0.1-0.9-0.1-1.3-0.2l-41-6.9l0.1-0.5l37.9,6.1
								c0.9,0.1,2,0.3,3.2,0.5c3.1,0.4,7,0.9,8.8,1.6L602.3,492.7z"/>
						</g>
						<g class="st26">
							<path class="st12" d="M610,489.7c-5.9-0.9-11.7-1.9-17.6-2.9c0.9,0.5,2.1,0.7,3.3,0.9C600.5,488.5,605.3,489.2,610,489.7z"/>
							<path class="st12" d="M610,489.9c-4.4-0.4-9.2-1.1-14.3-2c-1.2-0.2-2.4-0.5-3.3-0.9l-1.4-0.7l1.6,0.3
								c1.7,0.3,3.4,0.6,5.1,0.9c4.1,0.7,8.3,1.4,12.4,2L610,489.9z"/>
						</g>
						<g class="st26">
							<path class="st12" d="M678.6,500.5c0.8,0.1,1.6,0.2,2.4,0.3C680.2,500.7,679.4,500.6,678.6,500.5z"/>
							<path class="st12" d="M681,501.1c-0.8-0.1-1.6-0.2-2.4-0.3l0.1-0.5c0.9,0.1,1.7,0.2,2.4,0.3L681,501.1z"/>
						</g>
						<g class="st26">
							<path class="st12" d="M669.6,499.5c2.9,0.6,6,0.7,9,1C675.6,500.1,672.6,499.7,669.6,499.5z"/>
							<path class="st12" d="M678.6,500.8c-0.8-0.1-1.7-0.1-2.5-0.2c-2.2-0.2-4.4-0.4-6.6-0.8l0.1-0.5c2.7,0.2,5.4,0.6,8,0.9l1,0.1
								L678.6,500.8z"/>
						</g>
						<g class="st26">
							<path class="st12" d="M658.8,502.2c1.1,0.2,2.2,0.4,3.3,0.6c-1-0.2-2-0.5-3-0.7L658.8,502.2z"/>
							<path class="st12" d="M662,503c-1.1-0.1-2.2-0.3-3.3-0.6l-0.6-0.1l1-0.6l3.1,0.8L662,503z"/>
						</g>
					</g>
				</g>
				<g>
					<g>
						<path class="st12" d="M642.3,513.5c37.3,5.7,67.2,10.5,67.2,10.5c-22.8-3.9-45.6-7.5-67.2-10.8
							C642.4,513.3,642.3,513.4,642.3,513.5z"/>
						<path class="st12" d="M709.5,524.3c-0.3,0-30.3-4.8-67.2-10.5l-0.3,0l0.2-0.8l0.2,0c23.7,3.7,46.3,7.3,67.2,10.8L709.5,524.3z
							"/>
					</g>
				</g>
				<g>
					<g>
						<path class="st12" d="M700.5,513C700.5,513,700.5,513,700.5,513c-5.2-0.8-10.3-1.7-15.4-2.6c0.9,0.5,2.1,0.7,3.3,0.9
							C692.4,512.1,696.5,512.7,700.5,513C700.5,513.1,700.5,513,700.5,513z"/>
						<path class="st12" d="M701.3,513.4l-0.7-0.1c-3.9-0.4-8-1-12.2-1.8c-1.2-0.2-2.4-0.5-3.3-0.9l-1.4-0.7l1.6,0.3
							c1.6,0.3,3.3,0.5,4.9,0.8c3.4,0.6,7,1.2,10.4,1.7l0.1,0L701.3,513.4z"/>
					</g>
				</g>
				<g>
					<g>
						<path class="st12" d="M693,505.1c-5.2-0.7-10.4-1.5-15.5-2.1c5.2,0.9,10.4,1.6,15.7,2.3C693.1,505.3,693.1,505.2,693,505.1z"
							/>
						<path class="st12" d="M693.8,505.7l-0.7-0.1c-4.7-0.6-10.1-1.4-15.7-2.3l0.1-0.5c4.5,0.6,9.4,1.3,15.5,2.1l0.1,0l0.1,0.1
							c0,0,0,0.1,0.1,0.1L693.8,505.7z"/>
					</g>
				</g>
				<g>
					<g>
						<path class="st12" d="M684.6,495.7c-5.1-0.8-10.3-1.6-15.4-2.4c0,0.1,0,0.1,0,0.2c5.2,0.8,10.4,1.6,15.6,2.4
							C684.7,495.8,684.7,495.8,684.6,495.7z"/>
						<path class="st12" d="M685.4,496.2l-3-0.5c-4.4-0.7-8.8-1.3-13.2-2l-0.2,0l0.1-0.7l15.8,2.5L685.4,496.2z"/>
					</g>
				</g>
			</g>
			<g>
				<g>
					<path class="st25" d="M657,761.4l1.9-10.6l-138.3-22.9c-3.6-0.6-6-4-5.4-7.6l7.2-43.7c0.6-3.6,4-6,7.6-5.4l138.4,23l2-10.4
						c0.5-2.4,3.5-3.2,5.1-1.4l38.4,43.5c2.7,3,1.9,7.8-1.6,9.8l-50.9,28.9C659.2,765.8,656.5,763.9,657,761.4z"/>
				</g>
				<g>
					<g>
						<g class="st26">
							<path class="st12" d="M682,738.3c4.1,0.5,7.6,0.9,10.3,1C692.3,739.4,688.4,739,682,738.3z"/>
							<path class="st12" d="M692.2,739.6c-2.5-0.2-6-0.5-10.3-1l0.1-0.5c6.3,0.7,10.2,1,10.3,1L692.2,739.6z"/>
						</g>
						<g class="st26">
							<path class="st12" d="M628.1,729.9c20.8,4.5,41.8,7.2,53.9,8.5C661.5,735.8,628.1,729.9,628.1,729.9z"/>
							<path class="st12" d="M681.9,738.6c-11-1.2-32.7-3.9-53.9-8.5l0.1-0.5c0.3,0.1,33.7,6,53.9,8.5L681.9,738.6z"/>
						</g>
						<g class="st26">
							<path class="st12" d="M707.9,737.7c-4.4-0.6-8.8-1.2-13.1-1.9c3.8,0.6,8.3,1.3,12.7,2C707.6,737.8,707.8,737.7,707.9,737.7z"
								/>
							<path class="st12" d="M707.5,738.1L707.5,738.1c-4.5-0.7-9-1.5-12.8-2.1l0.1-0.5c2.5,0.4,5.1,0.7,7.6,1.1
								c1.8,0.3,3.7,0.5,5.5,0.8l0.9,0.1l-0.9,0.4C707.8,738,707.7,738,707.5,738.1L707.5,738.1z"/>
						</g>
						<g class="st26">
							<path class="st12" d="M694.8,735.8c-4.1-0.7-7.2-1.2-8-1.3C689.4,735,692.1,735.4,694.8,735.8z"/>
							<path class="st12" d="M694.7,736c-3.1-0.5-5.7-0.9-8-1.3l0.1-0.5c0.8,0.1,3.7,0.6,8,1.3L694.7,736z"/>
						</g>
						<g class="st26">
							<path class="st12" d="M584.2,722c-17.7-2-46.5-7.2-46.5-7.2C555.6,718.7,573.8,720.9,584.2,722z"/>
							<path class="st12" d="M584.2,722.2c-9.5-1-28.2-3.2-46.5-7.2l0.1-0.5c0.3,0,29,5.2,46.5,7.2L584.2,722.2z"/>
						</g>
						<g class="st26">
							<path class="st12" d="M584.2,722c3.5,0.4,6.6,0.7,8.9,0.8C593.1,722.8,589.7,722.5,584.2,722z"/>
							<path class="st12" d="M593.1,723c-2.2-0.1-5.2-0.3-8.9-0.8l0-0.5c5.5,0.5,8.8,0.8,8.9,0.8L593.1,723z"/>
						</g>
						<g class="st26">
							<path class="st12" d="M611.4,724.4c4.2,0.7,8.3,1.3,12.5,2c8.4,1.3,16.8,2.7,25.3,4.1c-13.7-2.3-27.3-4.6-41-6.9
								c-2.7-0.5-6-1.1-8.7-1.2C602,723.2,608.4,723.9,611.4,724.4z"/>
							<path class="st12" d="M649.2,730.7l-37.8-6.1c-0.9-0.1-2-0.3-3.2-0.5c-3.1-0.4-7-0.9-8.8-1.6l-1.6-0.6l1.7,0.1
								c2.3,0.1,5,0.6,7.4,1c0.5,0.1,0.9,0.2,1.3,0.2l41,6.9L649.2,730.7z"/>
						</g>
						<g class="st26">
							<path class="st12" d="M590.1,725c5.9,0.9,11.7,1.9,17.5,2.9c-0.9-0.5-2.1-0.7-3.3-0.9C599.7,726.2,594.9,725.5,590.1,725z"/>
							<path class="st12" d="M609.2,728.4l-1.6-0.3c-1.7-0.3-3.4-0.6-5.1-0.9c-4.1-0.7-8.3-1.4-12.4-2l0.1-0.5
								c4.4,0.4,9.2,1.1,14.3,2c1.2,0.2,2.4,0.5,3.3,0.9L609.2,728.4z"/>
						</g>
						<g class="st26">
							<path class="st12" d="M521.7,714.2c-0.8-0.1-1.6-0.2-2.4-0.3C520.1,714,520.8,714.1,521.7,714.2z"/>
							<path class="st12" d="M521.6,714.4c-0.9-0.1-1.7-0.2-2.4-0.3l0.1-0.5c0.8,0.1,1.6,0.2,2.4,0.3L521.6,714.4z"/>
						</g>
						<g class="st26">
							<path class="st12" d="M530.7,715.2c-2.9-0.6-6-0.7-9-1C524.7,714.5,527.7,715,530.7,715.2z"/>
							<path class="st12" d="M530.7,715.5c-2.7-0.2-5.4-0.6-8-0.9l-1-0.1l0.1-0.5c0.8,0.1,1.7,0.2,2.5,0.2c2.2,0.2,4.4,0.4,6.6,0.8
								L530.7,715.5z"/>
						</g>
						<g class="st26">
							<path class="st12" d="M541.5,712.5c-1.1-0.2-2.2-0.4-3.3-0.6c1,0.2,2,0.5,3,0.7L541.5,712.5z"/>
							<path class="st12" d="M541.2,712.9l-3.1-0.8l0.1-0.5c1.1,0.1,2.2,0.3,3.3,0.6l0.6,0.1L541.2,712.9z"/>
						</g>
						<g class="st26">
							<path class="st12" d="M515.6,725.4c20.8,4.5,41.8,7.2,53.9,8.5C549,731.4,515.6,725.4,515.6,725.4z"/>
							<path class="st12" d="M569.5,734.2c-11-1.2-32.7-3.9-53.9-8.5l0.1-0.5c0.3,0.1,33.7,6,53.9,8.5L569.5,734.2z"/>
						</g>
						<g class="st26">
							<path class="st12" d="M535.8,721.2c9.4,1.4,18.8,2.9,28.2,4.4c-1.5-0.4-3.5-0.8-5.3-1C551.1,723.3,543.4,722.2,535.8,721.2z"
								/>
							<path class="st12" d="M564,725.8c-2.7-0.4-5.5-0.9-8.2-1.3c-6.6-1-13.3-2.1-20-3.1l0.1-0.5c7,0.9,14.7,2,22.9,3.3
								c2,0.3,3.8,0.6,5.3,1.1L564,725.8z"/>
						</g>
					</g>
				</g>
				<g>
					<g>
						<g class="st26">
							<path class="st12" d="M562.6,707.2c-4.1-0.5-7.6-0.9-10.3-1C552.3,706.2,556.2,706.5,562.6,707.2z"/>
							<path class="st12" d="M562.6,707.4c-6.3-0.7-10.3-1-10.3-1l0-0.5c2.5,0.2,6,0.5,10.3,1L562.6,707.4z"/>
						</g>
						<g class="st26">
							<path class="st12" d="M616.6,715.7c-20.8-4.5-41.9-7.2-54-8.5C583.1,709.7,616.6,715.7,616.6,715.7z"/>
							<path class="st12" d="M616.6,715.9c-0.3-0.1-33.7-6-54-8.5l0.1-0.5c11,1.2,32.7,3.9,54,8.5L616.6,715.9z"/>
						</g>
						<g class="st26">
							<path class="st12" d="M522.5,705.5c9.1,1.7,18.2,2.8,27.3,4.2c-11-1.8-29.1-4.7-29.1-4.8
								C520.7,705.2,521.7,705.4,522.5,705.5z"/>
							<path class="st12" d="M549.8,710c-2.5-0.4-5-0.7-7.5-1.1c-6.5-0.9-13.1-1.8-19.7-3.1l0,0c-1.7-0.3-2-0.5-2-0.8
								c0,0,0-0.1,0-0.1l0,0l0.3,0l0.1-0.2c0.5,0.1,17.3,2.9,29.1,4.8L549.8,710z"/>
						</g>
						<g class="st26">
							<path class="st12" d="M549.8,709.7c4.1,0.7,7.2,1.2,8,1.3C555.2,710.5,552.5,710.1,549.8,709.7z"/>
							<path class="st12" d="M557.8,711.3c-0.8-0.1-3.7-0.6-8-1.3l0.1-0.5c3.1,0.5,5.7,0.9,8,1.3L557.8,711.3z"/>
						</g>
						<g class="st26">
							<path class="st12" d="M533.2,704.3c-1-0.2-2-0.5-3-0.7l-0.3,0.2C530.9,704,532,704.2,533.2,704.3z"/>
							<path class="st12" d="M533.1,704.6c-1.1-0.1-2.2-0.3-3.3-0.6l-0.6-0.1l1-0.6l3.1,0.8L533.1,704.6z"/>
						</g>
						<g class="st26">
							<path class="st12" d="M660.5,723.5c17.7,2,46.5,7.2,46.5,7.2C689.1,726.8,671,724.6,660.5,723.5z"/>
							<path class="st12" d="M707,731c-0.3,0-29-5.2-46.5-7.2l0-0.5c9.5,1,28.2,3.2,46.6,7.2L707,731z"/>
						</g>
						<g class="st26">
							<path class="st12" d="M660.5,723.5c-3.5-0.4-6.6-0.7-8.9-0.8C651.6,722.7,655,723,660.5,723.5z"/>
							<path class="st12" d="M660.5,723.8c-5.5-0.5-8.9-0.8-8.9-0.8l0-0.5c2.2,0.1,5.2,0.3,8.9,0.8L660.5,723.8z"/>
						</g>
						<g class="st26">
							<path class="st12" d="M633.2,721.2c-4.2-0.7-8.4-1.3-12.5-2c-8.4-1.3-16.9-2.7-25.3-4.1c13.7,2.3,27.4,4.6,41,6.9
								c2.7,0.5,6,1.1,8.7,1.2C642.7,722.3,636.3,721.6,633.2,721.2z"/>
							<path class="st12" d="M646.9,723.5l-1.7-0.1c-2.3-0.1-5-0.6-7.4-1c-0.5-0.1-0.9-0.2-1.3-0.2l-41-6.9l0.1-0.5l37.9,6.1
								c0.9,0.1,2,0.3,3.2,0.5c3.1,0.4,7,0.9,8.8,1.6L646.9,723.5z"/>
						</g>
						<g class="st26">
							<path class="st12" d="M654.6,720.5c-5.9-0.9-11.7-1.9-17.6-2.9c0.9,0.5,2.1,0.7,3.3,0.9C645,719.4,649.8,720.1,654.6,720.5z"
								/>
							<path class="st12" d="M654.6,720.8c-4.4-0.4-9.2-1.1-14.3-2c-1.2-0.2-2.4-0.5-3.3-0.9l-1.4-0.7l1.6,0.3
								c1.7,0.3,3.4,0.6,5.1,0.9c4.1,0.7,8.3,1.4,12.4,2L654.6,720.8z"/>
						</g>
						<g class="st26">
							<path class="st12" d="M703.3,733c1.1,0.2,2.2,0.4,3.3,0.6c-1-0.2-2-0.5-3-0.7L703.3,733z"/>
							<path class="st12" d="M706.6,733.9c-1.1-0.1-2.2-0.3-3.3-0.6l-0.6-0.1l1-0.6l3.1,0.8L706.6,733.9z"/>
						</g>
					</g>
				</g>
				<g>
					<g>
						<g class="st26">
							<path class="st12" d="M637.8,705.4c4.1,0.5,7.6,0.9,10.3,1C648.2,706.4,644.2,706.1,637.8,705.4z"/>
							<path class="st12" d="M648.1,706.7c-2.5-0.2-6-0.5-10.3-1l0.1-0.5c6.3,0.7,10.3,1,10.3,1L648.1,706.7z"/>
						</g>
						<g class="st26">
							<path class="st12" d="M583.8,696.9c20.8,4.5,41.9,7.2,54,8.5C617.3,702.9,583.8,696.9,583.8,696.9z"/>
							<path class="st12" d="M637.8,705.6c-11-1.2-32.7-3.9-54-8.5l0.1-0.5c0.3,0.1,33.7,6,54,8.5L637.8,705.6z"/>
						</g>
						<g class="st26">
							<path class="st12" d="M677.9,707c-9.1-1.7-18.2-2.8-27.3-4.2c11,1.8,29.1,4.7,29.1,4.8C679.8,707.4,678.8,707.2,677.9,707z"
								/>
							<path class="st12" d="M679.7,707.8c-0.5-0.1-17.3-2.9-29.1-4.8l0.1-0.5c2.5,0.4,5,0.7,7.6,1.1c6.5,0.9,13.1,1.8,19.7,3.1l0,0
								c1.7,0.3,2,0.5,2,0.8c0,0,0,0.1,0,0.1l-0.3,0L679.7,707.8z"/>
						</g>
						<g class="st26">
							<path class="st12" d="M650.7,702.8c-4.1-0.7-7.2-1.2-8-1.3C645.3,702,648,702.4,650.7,702.8z"/>
							<path class="st12" d="M650.6,703.1c-3.1-0.5-5.6-0.9-8-1.3l0.1-0.5c0.8,0.1,3.7,0.6,8,1.3L650.6,703.1z"/>
						</g>
						<g class="st26">
							<path class="st12" d="M667.3,708.2c1,0.2,2,0.5,3,0.7l0.3-0.2C669.5,708.5,668.4,708.4,667.3,708.2z"/>
							<path class="st12" d="M670.3,709.2l-3.1-0.8l0.1-0.5c1.1,0.1,2.2,0.3,3.3,0.6l0.6,0.1L670.3,709.2z"/>
						</g>
						<g class="st26">
							<path class="st12" d="M519.5,695.3c0,0.1,0,0.1,0,0.2c15.9,3.2,31.3,5,40.6,6C547.3,700,528.9,696.9,519.5,695.3z"/>
							<path class="st12" d="M560,701.7c-9.9-1-25-2.8-40.6-6l-0.3,0l0.2-0.7l0.2,0c9.7,1.7,27.9,4.7,40.5,6.2L560,701.7z"/>
						</g>
						<g class="st26">
							<path class="st12" d="M539.9,689c3.5,0.4,6.6,0.7,8.9,0.8C548.8,689.8,545.5,689.6,539.9,689z"/>
							<path class="st12" d="M548.8,690.1c-2.2-0.1-5.2-0.3-8.9-0.8l0-0.5c5.5,0.5,8.9,0.8,8.9,0.8L548.8,690.1z"/>
						</g>
						<g class="st26">
							<path class="st12" d="M567.2,691.4c4.2,0.7,8.4,1.3,12.5,2c8.4,1.3,16.9,2.7,25.3,4.1c-13.7-2.3-27.4-4.6-41-6.9
								c-2.7-0.5-6-1.1-8.7-1.2C557.8,690.3,564.1,690.9,567.2,691.4z"/>
							<path class="st12" d="M605,697.7l-37.9-6.1c-0.9-0.1-2-0.3-3.2-0.5c-3.1-0.4-7-0.9-8.8-1.6l-1.6-0.6l1.7,0.1
								c2.3,0.1,5,0.6,7.5,1c0.5,0.1,0.9,0.2,1.3,0.2l41,6.9L605,697.7z"/>
						</g>
						<g class="st26">
							<path class="st12" d="M536.6,690.7c9,1.3,17.9,2.8,26.8,4.3c-1.4-0.5-3.3-0.9-5-1.2C551.2,692.5,543.8,691.5,536.6,690.7z"/>
							<path class="st12" d="M565.8,695.6l-2.4-0.4c-2.6-0.4-5.2-0.8-7.8-1.3c-6.2-1-12.7-2.1-19-3l0.1-0.5c6.7,0.7,14,1.8,21.8,3.1
								c1.9,0.3,3.7,0.7,5.1,1.2L565.8,695.6z"/>
						</g>
						<g class="st26">
							<path class="st12" d="M570.6,730.5c-2.9-0.6-6-0.7-9-1C564.6,729.9,567.6,730.3,570.6,730.5z"/>
							<path class="st12" d="M570.6,730.8c-2.7-0.2-5.4-0.6-8-0.9l-1-0.1l0.1-0.5c0.8,0.1,1.7,0.2,2.5,0.2c2.2,0.2,4.4,0.4,6.6,0.8
								L570.6,730.8z"/>
						</g>
						<g class="st26">
							<path class="st12" d="M581.4,727.8c-1.1-0.2-2.2-0.4-3.3-0.6c1,0.2,2,0.5,3,0.7L581.4,727.8z"/>
							<path class="st12" d="M581.2,728.3l-3.1-0.8l0.1-0.5c1.1,0.1,2.2,0.3,3.3,0.6l0.6,0.1L581.2,728.3z"/>
						</g>
					</g>
				</g>
				<g>
					<g>
						<g class="st26">
							<path class="st12" d="M523.1,674.6C523.1,674.7,523.1,674.7,523.1,674.6c20.5,2.9,48.9,7.9,48.9,7.9
								C553.9,678.6,535.6,676.1,523.1,674.6z"/>
							<path class="st12" d="M572,682.8c-0.3,0-28.7-5.1-48.9-7.8l-0.3,0l0.2-0.5l0.2,0c12.2,1.4,30.7,4,48.9,7.9L572,682.8z"/>
						</g>
						<g class="st26">
							<path class="st12" d="M689.7,747.6c-40.1-6.2-87.7-13.5-87.7-13.5c0.1,0.2,4,0.9,7.1,1.4c27,4.3,53.7,8.3,80.4,12.2
								C689.6,747.7,689.6,747.7,689.7,747.6z"/>
							<path class="st12" d="M689.6,748l-5.6-0.8c-24.5-3.6-49.8-7.4-74.9-11.4c-7.1-1.1-7.3-1.3-7.3-1.6v0l0.2-0.1l0.1-0.2
								c0.7,0.2,44.5,6.9,87.7,13.5l0.7,0.1L689.6,748z"/>
						</g>
						<g class="st26">
							<path class="st12" d="M522,684.6c4.1,0.7,7.2,1.2,8,1.3C527.3,685.4,524.7,685,522,684.6z"/>
							<path class="st12" d="M530,686.1c-0.8-0.1-3.8-0.6-8-1.3l0.1-0.5c3.1,0.5,5.7,0.9,8,1.3L530,686.1z"/>
						</g>
						<g class="st26">
							<path class="st12" d="M609.7,706.8c-3.8-0.7-7.7-1.3-11.6-2l-1.1,0.1C601.3,705.6,605.5,706.2,609.7,706.8z"/>
							<path class="st12" d="M609.7,707.1c-4.2-0.6-8.5-1.3-12.6-2l-2.2-0.4l3.3-0.2l0,0l11.6,2L609.7,707.1z"/>
						</g>
						<g class="st26">
							<path class="st12" d="M616,690.4c17.7,2,46.5,7.2,46.5,7.2C644.6,693.7,626.4,691.5,616,690.4z"/>
							<path class="st12" d="M662.5,697.9c-0.3,0-29-5.2-46.5-7.2l0-0.5c9.5,1,28.2,3.2,46.6,7.2L662.5,697.9z"/>
						</g>
						<g class="st26">
							<path class="st12" d="M616,690.4c-3.5-0.4-6.6-0.7-8.9-0.8C607.1,689.6,610.4,689.8,616,690.4z"/>
							<path class="st12" d="M616,690.7c-5.5-0.5-8.9-0.8-8.9-0.8l0-0.5c2.2,0.1,5.2,0.3,8.9,0.8L616,690.7z"/>
						</g>
						<g class="st26">
							<path class="st12" d="M588.7,688c-4.2-0.7-8.4-1.3-12.5-2c-8.4-1.3-16.9-2.7-25.3-4.1c13.7,2.3,27.4,4.6,41,6.9
								c2.7,0.5,6,1.1,8.7,1.2C598.1,689.2,591.8,688.5,588.7,688z"/>
							<path class="st12" d="M602.3,690.4l-1.7-0.1c-2.3-0.1-5-0.6-7.4-1c-0.5-0.1-0.9-0.2-1.3-0.2l-41-6.9l0.1-0.5l37.9,6.1
								c0.9,0.1,2,0.3,3.2,0.5c3.1,0.4,7,0.9,8.8,1.6L602.3,690.4z"/>
						</g>
						<g class="st26">
							<path class="st12" d="M610,687.4c-5.9-0.9-11.7-1.9-17.6-2.9c0.9,0.5,2.1,0.7,3.3,0.9C600.5,686.2,605.3,687,610,687.4z"/>
							<path class="st12" d="M610,687.6c-4.4-0.4-9.2-1.1-14.3-2c-1.2-0.2-2.4-0.5-3.3-0.9l-1.4-0.7l1.6,0.3
								c1.7,0.3,3.4,0.6,5.1,0.9c4.1,0.7,8.3,1.4,12.4,2L610,687.6z"/>
						</g>
						<g class="st26">
							<path class="st12" d="M678.6,698.2c0.8,0.1,1.6,0.2,2.4,0.3C680.2,698.4,679.4,698.3,678.6,698.2z"/>
							<path class="st12" d="M681,698.8c-0.8-0.1-1.6-0.2-2.4-0.3l0.1-0.5c0.9,0.1,1.7,0.2,2.4,0.3L681,698.8z"/>
						</g>
						<g class="st26">
							<path class="st12" d="M669.6,697.2c2.9,0.6,6,0.7,9,1C675.6,697.8,672.6,697.5,669.6,697.2z"/>
							<path class="st12" d="M678.6,698.5c-0.8-0.1-1.7-0.2-2.5-0.2c-2.2-0.2-4.4-0.4-6.6-0.8l0.1-0.5c2.7,0.2,5.4,0.6,8,0.9l1,0.1
								L678.6,698.5z"/>
						</g>
						<g class="st26">
							<path class="st12" d="M658.8,699.9c1.1,0.2,2.2,0.4,3.3,0.6c-1-0.2-2-0.5-3-0.7L658.8,699.9z"/>
							<path class="st12" d="M662,700.7c-1.1-0.1-2.2-0.3-3.3-0.6l-0.6-0.1l1-0.6l3.1,0.8L662,700.7z"/>
						</g>
					</g>
				</g>
				<g>
					<g>
						<path class="st12" d="M642.3,711.2c37.3,5.7,67.2,10.5,67.2,10.5c-22.8-3.9-45.6-7.5-67.2-10.8
							C642.4,711,642.3,711.1,642.3,711.2z"/>
						<path class="st12" d="M709.5,722c-0.3,0-30.3-4.8-67.2-10.5l-0.3,0l0.2-0.8l0.2,0c23.7,3.7,46.3,7.3,67.2,10.8L709.5,722z"/>
					</g>
				</g>
				<g>
					<g>
						<path class="st12" d="M700.5,710.7C700.5,710.7,700.5,710.7,700.5,710.7c-5.2-0.8-10.3-1.7-15.4-2.6c0.9,0.5,2.1,0.7,3.3,0.9
							C692.4,709.8,696.5,710.4,700.5,710.7C700.5,710.8,700.5,710.7,700.5,710.7z"/>
						<path class="st12" d="M701.3,711.1l-0.7-0.1c-3.9-0.4-8-1-12.2-1.8c-1.2-0.2-2.4-0.5-3.3-0.9l-1.4-0.7l1.6,0.3
							c1.6,0.3,3.3,0.5,4.9,0.8c3.4,0.6,7,1.2,10.4,1.7l0.1,0L701.3,711.1z"/>
					</g>
				</g>
				<g>
					<g>
						<path class="st12" d="M693,702.8c-5.2-0.7-10.4-1.5-15.5-2.1c5.2,0.9,10.4,1.6,15.7,2.3C693.1,703,693.1,702.9,693,702.8z"/>
						<path class="st12" d="M693.8,703.4l-0.7-0.1c-4.7-0.6-10.1-1.4-15.7-2.3l0.1-0.5c4.5,0.6,9.4,1.3,15.5,2.1l0.1,0l0.1,0.1
							c0,0,0,0.1,0.1,0.1L693.8,703.4z"/>
					</g>
				</g>
				<g>
					<g>
						<path class="st12" d="M684.6,693.4c-5.1-0.8-10.3-1.6-15.4-2.4c0,0.1,0,0.1,0,0.2c5.2,0.8,10.4,1.6,15.6,2.4
							C684.7,693.5,684.7,693.5,684.6,693.4z"/>
						<path class="st12" d="M685.4,693.9l-3-0.5c-4.4-0.7-8.8-1.3-13.2-2l-0.2,0l0.1-0.7l15.8,2.5L685.4,693.9z"/>
					</g>
				</g>
			</g>
			<g class="st27">
				<path class="st24" d="M615.2,487.7L530,473.5c-3.6-0.6-7,1.8-7.6,5.4l-7.2,43.7c-0.6,3.6,1.8,7,5.4,7.6l94.7,15.7L615.2,487.7z"
					/>
			</g>
			<g>
				<g>
					<path class="st25" d="M573.6,657.5l-1.9-10.6L710,624c3.6-0.6,6-4,5.4-7.6l-7.2-43.7c-0.6-3.6-4-6-7.6-5.4l-138.4,23l-2-10.4
						c-0.5-2.4-3.5-3.2-5.1-1.4l-38.4,43.5c-2.7,3-1.9,7.8,1.6,9.8l50.9,28.9C571.4,661.9,574,660,573.6,657.5z"/>
				</g>
				<g>
					<g>
						<g class="st26">
							<path class="st12" d="M548.6,634.4c-4.1,0.5-7.6,0.9-10.3,1C538.3,635.5,542.2,635.1,548.6,634.4z"/>
							<path class="st12" d="M538.3,635.7l0-0.5c0,0,4-0.3,10.3-1l0.1,0.5C544.3,635.2,540.8,635.6,538.3,635.7z"/>
						</g>
						<g class="st26">
							<path class="st12" d="M602.5,626c-20.8,4.5-41.8,7.2-53.9,8.5C569,631.9,602.5,626,602.5,626z"/>
							<path class="st12" d="M548.6,634.7l-0.1-0.5c20.2-2.5,53.5-8.4,53.9-8.5l0.1,0.5C581.3,630.8,559.6,633.5,548.6,634.7z"/>
						</g>
						<g class="st26">
							<path class="st12" d="M522.7,633.8c4.4-0.6,8.8-1.2,13.1-1.9c-3.8,0.6-8.3,1.3-12.7,2C522.9,633.9,522.8,633.8,522.7,633.8z"
								/>
							<path class="st12" d="M523,634.2L523,634.2c-0.2-0.1-0.2-0.1-0.4-0.2l-0.9-0.4l0.9-0.1c1.9-0.3,3.7-0.5,5.6-0.8
								c2.5-0.4,5-0.7,7.5-1.1l0.1,0.5C532.1,632.7,527.5,633.5,523,634.2L523,634.2z"/>
						</g>
						<g class="st26">
							<path class="st12" d="M535.8,631.9c4.1-0.7,7.2-1.2,8-1.3C541.1,631.1,538.5,631.5,535.8,631.9z"/>
							<path class="st12" d="M535.8,632.1l-0.1-0.5c4.4-0.7,7.2-1.2,8-1.3l0.1,0.5C541.4,631.3,538.9,631.7,535.8,632.1z"/>
						</g>
						<g class="st26">
							<path class="st12" d="M646.4,618.1c17.7-2,46.5-7.2,46.5-7.2C674.9,614.8,656.8,617,646.4,618.1z"/>
							<path class="st12" d="M646.4,618.3l0-0.5c17.5-2,46.2-7.2,46.5-7.2l0.1,0.5C674.6,615.2,655.9,617.4,646.4,618.3z"/>
						</g>
						<g class="st26">
							<path class="st12" d="M646.4,618.1c-3.5,0.4-6.6,0.7-8.9,0.8C637.5,618.9,640.8,618.6,646.4,618.1z"/>
							<path class="st12" d="M637.5,619.1l0-0.5c0,0,3.4-0.2,8.9-0.8l0,0.5C642.7,618.8,639.7,619,637.5,619.1z"/>
						</g>
						<g class="st26">
							<path class="st12" d="M619.1,620.5c-4.2,0.7-8.3,1.3-12.5,2c-8.4,1.3-16.8,2.7-25.3,4.1c13.7-2.3,27.3-4.6,41-6.9
								c2.7-0.5,6-1.1,8.7-1.2C628.5,619.3,622.2,620,619.1,620.5z"/>
							<path class="st12" d="M581.3,626.8l-0.1-0.5l41-6.9c0.4-0.1,0.9-0.2,1.3-0.2c2.4-0.4,5.1-0.9,7.4-1l1.7-0.1l-1.6,0.6
								c-1.8,0.6-5.7,1.2-8.8,1.6c-1.2,0.2-2.3,0.3-3.2,0.5L581.3,626.8z"/>
						</g>
						<g class="st26">
							<path class="st12" d="M640.4,621.1c-5.9,0.9-11.7,1.9-17.5,2.9c0.9-0.5,2.1-0.7,3.3-0.9C630.9,622.2,635.7,621.5,640.4,621.1
								z"/>
							<path class="st12" d="M621.3,624.5l1.4-0.7c0.9-0.5,2.1-0.7,3.3-0.9c5.1-0.9,9.9-1.6,14.3-2l0.1,0.5c-4.1,0.6-8.3,1.3-12.4,2
								c-1.7,0.3-3.4,0.6-5.1,0.9L621.3,624.5z"/>
						</g>
						<g class="st26">
							<path class="st12" d="M708.9,610.3c0.8-0.1,1.6-0.2,2.4-0.3C710.5,610.1,709.7,610.2,708.9,610.3z"/>
							<path class="st12" d="M708.9,610.5l-0.1-0.5c0.8-0.1,1.6-0.2,2.4-0.3l0.1,0.5C710.6,610.3,709.8,610.4,708.9,610.5z"/>
						</g>
						<g class="st26">
							<path class="st12" d="M699.9,611.3c2.9-0.6,6-0.7,9-1C705.9,610.6,702.9,611,699.9,611.3z"/>
							<path class="st12" d="M699.9,611.5l-0.1-0.5c2.1-0.4,4.4-0.6,6.6-0.8c0.8-0.1,1.7-0.1,2.5-0.2l0.1,0.5l-1,0.1
								C705.3,611,702.5,611.3,699.9,611.5z"/>
						</g>
						<g class="st26">
							<path class="st12" d="M689.1,608.6c1.1-0.2,2.2-0.4,3.3-0.6c-1,0.2-2,0.5-3,0.7L689.1,608.6z"/>
							<path class="st12" d="M689.3,609l-1-0.6l0.6-0.1c1.1-0.2,2.2-0.4,3.3-0.6l0.1,0.5L689.3,609z"/>
						</g>
						<g class="st26">
							<path class="st12" d="M715,621.5c-20.8,4.5-41.8,7.2-53.9,8.5C681.5,627.5,715,621.5,715,621.5z"/>
							<path class="st12" d="M661.1,630.2l-0.1-0.5c20.2-2.5,53.5-8.4,53.9-8.5l0.1,0.5C693.8,626.3,672.1,629,661.1,630.2z"/>
						</g>
						<g class="st26">
							<path class="st12" d="M694.8,617.3c-9.4,1.4-18.8,2.9-28.2,4.4c1.5-0.4,3.5-0.8,5.3-1C679.4,619.4,687.2,618.2,694.8,617.3z"
								/>
							<path class="st12" d="M666.6,621.9l-0.1-0.5c1.5-0.4,3.4-0.7,5.3-1.1c8.2-1.3,15.9-2.5,22.9-3.3l0.1,0.5
								c-6.7,1-13.4,2.1-20,3.1C672.1,621.1,669.3,621.5,666.6,621.9z"/>
						</g>
					</g>
				</g>
				<g>
					<g>
						<g class="st26">
							<path class="st12" d="M667.9,603.3c4.1-0.5,7.6-0.9,10.3-1C678.2,602.2,674.3,602.6,667.9,603.3z"/>
							<path class="st12" d="M668,603.5l-0.1-0.5c4.3-0.5,7.8-0.9,10.3-1l0,0.5C678.2,602.5,674.3,602.8,668,603.5z"/>
						</g>
						<g class="st26">
							<path class="st12" d="M614,611.7c20.8-4.5,41.9-7.2,54-8.5C647.4,605.8,614,611.7,614,611.7z"/>
							<path class="st12" d="M614,612l-0.1-0.5c21.3-4.6,43-7.3,54-8.5l0.1,0.5C647.7,606,614.3,611.9,614,612z"/>
						</g>
						<g class="st26">
							<path class="st12" d="M708,601.6c-9.1,1.7-18.2,2.8-27.3,4.2c11-1.8,29.1-4.7,29.1-4.8C709.9,601.2,708.9,601.5,708,601.6z"
								/>
							<path class="st12" d="M680.8,606.1l-0.1-0.5c11.8-1.9,28.6-4.6,29.1-4.8l0.1,0.2l0.3,0l0,0c0,0,0,0.1,0,0.1
								c0,0.2-0.4,0.4-2,0.8l0,0c-6.6,1.2-13.3,2.2-19.7,3.1C685.8,605.3,683.3,605.7,680.8,606.1z"/>
						</g>
						<g class="st26">
							<path class="st12" d="M680.8,605.8c-4.1,0.7-7.2,1.2-8,1.3C675.4,606.6,678.1,606.2,680.8,605.8z"/>
							<path class="st12" d="M672.8,607.3l-0.1-0.5c2.4-0.4,5-0.8,8-1.3l0.1,0.5C676.5,606.8,673.6,607.2,672.8,607.3z"/>
						</g>
						<g class="st26">
							<path class="st12" d="M697.4,600.4c1-0.2,2-0.5,3-0.7l0.3,0.2C699.6,600.1,698.5,600.3,697.4,600.4z"/>
							<path class="st12" d="M697.4,600.7l-0.1-0.5l3.1-0.8l1,0.6l-0.6,0.1C699.7,600.3,698.5,600.5,697.4,600.7z"/>
						</g>
						<g class="st26">
							<path class="st12" d="M570,619.6c-17.7,2-46.5,7.2-46.5,7.2C541.4,622.9,559.6,620.7,570,619.6z"/>
							<path class="st12" d="M523.5,627.1l-0.1-0.5c18.3-4.1,37-6.3,46.6-7.2l0,0.5C552.6,621.9,523.8,627.1,523.5,627.1z"/>
						</g>
						<g class="st26">
							<path class="st12" d="M570,619.6c3.5-0.4,6.6-0.7,8.9-0.8C578.9,618.8,575.5,619.1,570,619.6z"/>
							<path class="st12" d="M570,619.9l0-0.5c3.7-0.4,6.7-0.7,8.9-0.8l0,0.5C578.9,619.1,575.5,619.3,570,619.9z"/>
						</g>
						<g class="st26">
							<path class="st12" d="M597.3,617.2c4.2-0.7,8.4-1.3,12.5-2c8.4-1.3,16.9-2.7,25.3-4.1c-13.7,2.3-27.4,4.6-41,6.9
								c-2.7,0.5-6,1.1-8.7,1.2C587.8,618.4,594.2,617.7,597.3,617.2z"/>
							<path class="st12" d="M583.7,619.6l1.6-0.6c1.8-0.6,5.7-1.2,8.8-1.6c1.2-0.2,2.3-0.3,3.2-0.5l37.9-6.1l0.1,0.5l-41,6.9
								c-0.4,0.1-0.9,0.2-1.3,0.2c-2.4,0.4-5.1,0.9-7.5,1L583.7,619.6z"/>
						</g>
						<g class="st26">
							<path class="st12" d="M576,616.6c5.9-0.9,11.7-1.9,17.6-2.9c-0.9,0.5-2.1,0.7-3.3,0.9C585.5,615.5,580.7,616.2,576,616.6z"/>
							<path class="st12" d="M576,616.8l-0.1-0.5c4.2-0.6,8.4-1.3,12.4-2c1.7-0.3,3.4-0.6,5.1-0.9l1.6-0.3l-1.4,0.7
								c-0.9,0.5-2.1,0.7-3.3,0.9C585.2,615.8,580.4,616.4,576,616.8z"/>
						</g>
						<g class="st26">
							<path class="st12" d="M527.2,629.1c-1.1,0.2-2.2,0.4-3.3,0.6c1-0.2,2-0.5,3-0.7L527.2,629.1z"/>
							<path class="st12" d="M523.9,629.9l-0.1-0.5l3.1-0.8l1,0.6l-0.6,0.1C526.2,629.6,525.1,629.8,523.9,629.9z"/>
						</g>
					</g>
				</g>
				<g>
					<g>
						<g class="st26">
							<path class="st12" d="M592.7,601.5c-4.1,0.5-7.6,0.9-10.3,1C582.4,602.5,586.3,602.2,592.7,601.5z"/>
							<path class="st12" d="M582.4,602.8l0-0.5c0,0,4-0.3,10.3-1l0.1,0.5C588.4,602.3,584.9,602.6,582.4,602.8z"/>
						</g>
						<g class="st26">
							<path class="st12" d="M646.7,593c-20.8,4.5-41.9,7.2-54,8.5C613.2,599,646.7,593,646.7,593z"/>
							<path class="st12" d="M592.8,601.7l-0.1-0.5c20.3-2.5,53.6-8.4,54-8.5l0.1,0.5C625.5,597.8,603.8,600.5,592.8,601.7z"/>
						</g>
						<g class="st26">
							<path class="st12" d="M552.6,603.1c9.1-1.7,18.2-2.8,27.3-4.2c-11,1.8-29.1,4.7-29.1,4.8
								C550.8,603.5,551.8,603.2,552.6,603.1z"/>
							<path class="st12" d="M550.8,603.9l-0.1-0.2l-0.3,0l0,0l0,0c0,0,0-0.1,0-0.1c0-0.2,0.4-0.4,2-0.8c6.6-1.2,13.3-2.2,19.7-3.1
								c2.5-0.4,5-0.7,7.6-1.1l0.1,0.5C568.1,601.1,551.4,603.8,550.8,603.9z"/>
						</g>
						<g class="st26">
							<path class="st12" d="M579.9,598.9c4.1-0.7,7.2-1.2,8-1.3C585.2,598.1,582.6,598.5,579.9,598.9z"/>
							<path class="st12" d="M579.9,599.2l-0.1-0.5c4.2-0.7,7.2-1.2,8-1.3l0.1,0.5C585.6,598.3,583,598.7,579.9,599.2z"/>
						</g>
						<g class="st26">
							<path class="st12" d="M563.3,604.3c-1,0.2-2,0.5-3,0.7l-0.3-0.2C561,604.6,562.2,604.5,563.3,604.3z"/>
							<path class="st12" d="M560.2,605.3l-1-0.6l0.6-0.1c1.1-0.2,2.2-0.4,3.3-0.6l0.1,0.5L560.2,605.3z"/>
						</g>
						<g class="st26">
							<path class="st12" d="M711.1,591.4c0,0.1,0,0.1,0,0.2c-15.9,3.2-31.3,5-40.6,6C683.3,596.1,701.7,593,711.1,591.4z"/>
							<path class="st12" d="M670.6,597.8l0-0.5c12.6-1.5,30.8-4.5,40.5-6.2l0.2,0l0.2,0.7l-0.3,0
								C695.6,595,680.5,596.8,670.6,597.8z"/>
						</g>
						<g class="st26">
							<path class="st12" d="M690.6,585.1c-3.5,0.4-6.6,0.7-8.9,0.8C681.7,585.9,685.1,585.7,690.6,585.1z"/>
							<path class="st12" d="M681.8,586.2l0-0.5c0,0,3.4-0.2,8.9-0.8l0,0.5C686.9,585.8,683.9,586.1,681.8,586.2z"/>
						</g>
						<g class="st26">
							<path class="st12" d="M663.3,587.5c-4.2,0.7-8.4,1.3-12.5,2c-8.4,1.3-16.9,2.7-25.3,4.1c13.7-2.3,27.4-4.6,41-6.9
								c2.7-0.5,6-1.1,8.7-1.2C672.8,586.4,666.4,587,663.3,587.5z"/>
							<path class="st12" d="M625.5,593.8l-0.1-0.5l41-6.9c0.4-0.1,0.9-0.2,1.3-0.2c2.4-0.4,5.1-0.9,7.4-1l1.7-0.1l-1.6,0.6
								c-1.8,0.6-5.7,1.2-8.8,1.6c-1.2,0.2-2.3,0.3-3.2,0.5L625.5,593.8z"/>
						</g>
						<g class="st26">
							<path class="st12" d="M694,586.8c-9,1.3-17.9,2.8-26.8,4.3c1.4-0.5,3.3-0.9,5-1.2C679.4,588.6,686.7,587.6,694,586.8z"/>
							<path class="st12" d="M664.8,591.7l2.2-0.9c1.4-0.5,3.3-0.9,5.1-1.2c7.8-1.3,15.1-2.4,21.8-3.1l0.1,0.5c-6.3,0.9-12.8,2-19,3
								c-2.6,0.4-5.2,0.9-7.8,1.3L664.8,591.7z"/>
						</g>
						<g class="st26">
							<path class="st12" d="M660,626.6c2.9-0.6,6-0.7,9-1C666,626,663,626.4,660,626.6z"/>
							<path class="st12" d="M660,626.9l-0.1-0.5c2.2-0.4,4.4-0.6,6.6-0.8c0.8-0.1,1.7-0.1,2.5-0.2l0.1,0.5l-1,0.1
								C665.4,626.3,662.6,626.7,660,626.9z"/>
						</g>
						<g class="st26">
							<path class="st12" d="M649.1,623.9c1.1-0.2,2.2-0.4,3.3-0.6c-1,0.2-2,0.5-3,0.7L649.1,623.9z"/>
							<path class="st12" d="M649.4,624.3l-1-0.6l0.6-0.1c1.1-0.2,2.2-0.4,3.3-0.6l0.1,0.5L649.4,624.3z"/>
						</g>
					</g>
				</g>
				<g>
					<g>
						<g class="st26">
							<path class="st12" d="M707.4,570.7C707.4,570.8,707.4,570.8,707.4,570.7c-20.5,2.9-48.9,7.9-48.9,7.9
								C676.7,574.7,695,572.2,707.4,570.7z"/>
							<path class="st12" d="M658.5,578.9l-0.1-0.5c18.2-3.9,36.7-6.5,48.9-7.9l0.2,0l0.1,0.2l-0.2,0.1l0,0l0.2,0l0.1,0.3l-0.3,0.1
								C687.2,573.8,658.8,578.8,658.5,578.9z"/>
						</g>
						<g class="st26">
							<path class="st12" d="M540.9,643.7c40.1-6.2,87.7-13.5,87.7-13.5c-0.1,0.2-4,0.9-7.1,1.4c-27,4.3-53.7,8.3-80.4,12.2
								C541,643.8,540.9,643.8,540.9,643.7z"/>
							<path class="st12" d="M541,644.1l-0.8-0.5l0.7-0.1c43.1-6.6,87-13.3,87.7-13.5l0.1,0.2l0.2,0.1l0,0l0,0
								c-0.1,0.2-0.1,0.4-7.3,1.6c-25.2,4-50.5,7.8-75,11.4L541,644.1z"/>
						</g>
						<g class="st26">
							<path class="st12" d="M708.6,580.7c-4.1,0.7-7.2,1.2-8,1.3C703.2,581.5,705.9,581.1,708.6,580.7z"/>
							<path class="st12" d="M700.6,582.2l-0.1-0.5c2.4-0.4,5-0.8,8-1.3l0.1,0.5C704.3,581.6,701.4,582.1,700.6,582.2z"/>
						</g>
						<g class="st26">
							<path class="st12" d="M620.8,602.9c3.8-0.7,7.7-1.3,11.6-2l1.1,0.1C629.3,601.7,625,602.3,620.8,602.9z"/>
							<path class="st12" d="M620.9,603.2l-0.1-0.5l11.6-2l3.3,0.2l-2.2,0.4C629.3,601.9,625.1,602.6,620.9,603.2z"/>
						</g>
						<g class="st26">
							<path class="st12" d="M614.6,586.5c-17.7,2-46.5,7.2-46.5,7.2C586,589.7,604.1,587.5,614.6,586.5z"/>
							<path class="st12" d="M568.1,594l-0.1-0.5c18.3-4.1,37-6.3,46.6-7.2l0,0.5C597.1,588.8,568.4,593.9,568.1,594z"/>
						</g>
						<g class="st26">
							<path class="st12" d="M614.6,586.5c3.5-0.4,6.6-0.7,8.9-0.8C623.5,585.7,620.1,585.9,614.6,586.5z"/>
							<path class="st12" d="M614.6,586.8l0-0.5c3.8-0.4,6.8-0.7,8.9-0.8l0,0.5C623.5,586,620.1,586.2,614.6,586.8z"/>
						</g>
						<g class="st26">
							<path class="st12" d="M641.9,584.1c4.2-0.7,8.4-1.3,12.5-2c8.4-1.3,16.9-2.7,25.3-4.1c-13.7,2.3-27.4,4.6-41,6.9
								c-2.7,0.5-6,1.1-8.7,1.2C632.4,585.2,638.8,584.6,641.9,584.1z"/>
							<path class="st12" d="M628.2,586.5l1.6-0.6c1.8-0.6,5.7-1.2,8.8-1.6c1.2-0.2,2.3-0.3,3.2-0.5l37.9-6.1l0.1,0.5l-41,6.9
								c-0.4,0.1-0.9,0.2-1.3,0.2c-2.4,0.4-5.1,0.9-7.4,1L628.2,586.5z"/>
						</g>
						<g class="st26">
							<path class="st12" d="M620.5,583.5c5.9-0.9,11.7-1.9,17.6-2.9c-0.9,0.5-2.1,0.7-3.3,0.9C630.1,582.3,625.3,583,620.5,583.5z"
								/>
							<path class="st12" d="M620.5,583.7l-0.1-0.5c4.2-0.6,8.4-1.3,12.4-2c1.7-0.3,3.4-0.6,5.1-0.9l1.6-0.3l-1.4,0.7
								c-0.9,0.5-2.1,0.7-3.3,0.9C629.8,582.7,624.9,583.3,620.5,583.7z"/>
						</g>
						<g class="st26">
							<path class="st12" d="M551.9,594.3c-0.8,0.1-1.6,0.2-2.4,0.3C550.3,594.5,551.1,594.4,551.9,594.3z"/>
							<path class="st12" d="M549.6,594.8l-0.1-0.5c0.7-0.1,1.5-0.2,2.4-0.3l0.1,0.5C551.2,594.7,550.4,594.8,549.6,594.8z"/>
						</g>
						<g class="st26">
							<path class="st12" d="M561,593.3c-2.9,0.6-6,0.7-9,1C555,593.9,558,593.5,561,593.3z"/>
							<path class="st12" d="M552,594.6l-0.1-0.5l1-0.1c2.6-0.3,5.3-0.7,8-0.9l0.1,0.5c-2.1,0.4-4.4,0.6-6.6,0.8
								C553.6,594.4,552.8,594.5,552,594.6z"/>
						</g>
						<g class="st26">
							<path class="st12" d="M571.8,596c-1.1,0.2-2.2,0.4-3.3,0.6c1-0.2,2-0.5,3-0.7L571.8,596z"/>
							<path class="st12" d="M568.5,596.8l-0.1-0.5l3.1-0.8l1,0.6l-0.6,0.1C570.8,596.5,569.6,596.7,568.5,596.8z"/>
						</g>
					</g>
				</g>
				<g>
					<g>
						<path class="st12" d="M588.2,607.3c-37.3,5.7-67.2,10.5-67.2,10.5c22.8-3.9,45.6-7.5,67.2-10.8
							C588.2,607.1,588.2,607.2,588.2,607.3z"/>
						<path class="st12" d="M521,618l-0.1-0.5c20.9-3.5,43.5-7.2,67.2-10.8l0.2,0l0.2,0.8l-0.3,0C551.3,613.3,521.3,618,521,618z"/>
					</g>
				</g>
				<g>
					<g>
						<path class="st12" d="M530.1,606.8C530.1,606.8,530.1,606.8,530.1,606.8c5.2-0.8,10.3-1.7,15.4-2.6c-0.9,0.5-2.1,0.7-3.3,0.9
							C538.1,605.8,534.1,606.5,530.1,606.8C530,606.8,530,606.8,530.1,606.8z"/>
						<path class="st12" d="M529.3,607.2l0.7-0.7l0.1,0c3.5-0.5,7-1.1,10.4-1.7c1.6-0.3,3.3-0.6,4.9-0.8l1.6-0.3l-1.4,0.7
							c-0.9,0.5-2.1,0.7-3.3,0.9c-4.2,0.8-8.3,1.3-12.2,1.8L529.3,607.2z"/>
					</g>
				</g>
				<g>
					<g>
						<path class="st12" d="M537.5,598.9c5.2-0.7,10.4-1.5,15.5-2.1c-5.2,0.9-10.4,1.6-15.7,2.3C537.5,599.1,537.5,599,537.5,598.9z
							"/>
						<path class="st12" d="M536.8,599.5l0.5-0.5c0,0,0-0.1,0.1-0.1l0.1-0.1l0.1,0c6.1-0.9,11-1.5,15.5-2.1l0.1,0.5
							c-5.5,0.9-11,1.7-15.7,2.3L536.8,599.5z"/>
					</g>
				</g>
				<g>
					<g>
						<path class="st12" d="M545.9,589.5c5.1-0.8,10.3-1.6,15.4-2.4c0,0.1,0,0.1,0,0.2c-5.2,0.8-10.4,1.6-15.6,2.4
							C545.8,589.6,545.9,589.5,545.9,589.5z"/>
						<path class="st12" d="M545.2,590l0.6-0.8l15.8-2.5l0.1,0.7l-0.2,0c-4.5,0.7-8.9,1.3-13.4,2L545.2,590z"/>
					</g>
				</g>
			</g>
			<g class="st27">
				<path class="st24" d="M615.2,581.5l-53,8.8l-2-10.4c-0.5-2.4-3.5-3.2-5.1-1.4l-38.4,43.5c-2.7,3-1.9,7.8,1.6,9.8l50.9,28.9
					c2.2,1.2,4.8-0.6,4.4-3.1l-1.9-10.6l45-7.5L615.2,581.5z"/>
			</g>
		</g>
	</g>
	<g>
		<defs>
			<rect id="SVGID_40_" x="-1.7" width="2002.5" height="1000"/>
		</defs>
		<clipPath id="SVGID_41_">
			<use xlink:href="#SVGID_40_"  style="overflow:visible;"/>
		</clipPath>
		<g class="st28">
			<path class="st29" d="M616.8,871.3c0,0,1.7,3.2,4.2,3.9c2.5,0.8,3.9,0.9-10.1,2.5c-14,1.5-19.4,1.5-20.8-0.8
				C588.8,874.7,596.1,871.8,616.8,871.3z"/>
			<g>
				<path class="st13" d="M617.1,870.5c0,0,0.5-3.6-2.9-5.5c-3.4-1.8-1.7-2.3-4.9-2c-3.2,0.4-8.8,0.4-12.2,3.8
					c-3.4,3.4-3.9,3.9-3.6,6.4c0.3,2.5,3.5,3.4,6.6,3.5c3.1,0.1,4.7-0.1,8.3-0.5C612,875.8,615.7,874.8,617.1,870.5z"/>
				<g>
					<path class="st30" d="M595.4,868.6c0.2,1.5,2.5,5.1,4.7,4.1c2.4-1,3.2-1.2,5.3,0.9c2.1,2.1,3.2,1.8,9.3-1
						c0.9-0.4,1.6-0.8,2.1-1.2c-1.7,3.6-5,4.5-8.4,4.9c-3.6,0.4-5.2,0.7-8.3,0.5c-3.1-0.1-6.3-1-6.6-3.5
						C593.3,871.3,593.6,870.5,595.4,868.6z"/>
				</g>
				<g class="st31">
					<path class="st32" d="M612.6,866.5c-2.4,1.2-1,2-6.9,2.2c-5.6,0.2-5.4-1.8-6.5-3.4c3.3-1.8,7.5-1.9,10.1-2.2
						c3.2-0.4,1.5,0.1,4.9,2c0.1,0,0.2,0.1,0.2,0.2C614.7,865.8,614.4,865.5,612.6,866.5z"/>
				</g>
				<g class="st33">
					<path class="st34" d="M595.2,874.4c1.8,1.8,4,2.2,12,1.7c2.8-0.2,4.9-0.7,6.5-1.2c-1.5,0.9-3.4,1.2-5.2,1.4
						c-3.6,0.4-5.2,0.7-8.3,0.5c-3.1-0.1-6.3-1-6.6-3.5c-0.2-1.2-0.1-1.9,0.3-2.7C594,871.8,594.3,873.4,595.2,874.4z"/>
				</g>
			</g>
		</g>
	</g>
	<g>
		<defs>
			<rect id="SVGID_42_" x="-1.7" width="2002.5" height="1000"/>
		</defs>
		<clipPath id="SVGID_43_">
			<use xlink:href="#SVGID_42_"  style="overflow:visible;"/>
		</clipPath>
		<g class="st35">
			<path class="st29" d="M633,866.9c0,0,1.3,2.3,3.1,2.9c1.8,0.6,2.9,0.7-7.5,1.8c-10.4,1.1-14.4,1.1-15.4-0.6
				C612.2,869.4,617.6,867.2,633,866.9z"/>
			<g>
				<path class="st13" d="M633.2,866.3c0,0,0.4-2.7-2.2-4.1c-2.5-1.3-1.3-1.7-3.6-1.4c-2.3,0.3-6.5,0.3-9,2.8
					c-2.5,2.5-2.9,2.9-2.7,4.7c0.2,1.8,2.6,2.5,4.9,2.6c2.3,0.1,3.5-0.1,6.2-0.4C629.5,870.2,632.1,869.5,633.2,866.3z"/>
				<g>
					<path class="st30" d="M617.1,864.8c0.2,1.1,1.8,3.8,3.5,3.1c1.8-0.8,2.3-0.9,3.9,0.7c1.6,1.5,2.3,1.3,6.9-0.8
						c0.7-0.3,1.2-0.6,1.5-0.9c-1.2,2.7-3.7,3.4-6.2,3.6c-2.7,0.3-3.9,0.5-6.2,0.4c-2.3-0.1-4.7-0.8-4.9-2.6
						C615.5,866.8,615.8,866.3,617.1,864.8z"/>
				</g>
				<g class="st31">
					<path class="st32" d="M629.9,863.3c-1.8,0.9-0.7,1.5-5.1,1.6c-4.2,0.2-4-1.3-4.8-2.5c2.5-1.4,5.6-1.4,7.5-1.7
						c2.4-0.3,1.1,0.1,3.6,1.4c0.1,0,0.1,0.1,0.2,0.1C631.4,862.8,631.2,862.6,629.9,863.3z"/>
				</g>
				<g class="st33">
					<path class="st34" d="M617,869.2c1.3,1.4,3,1.6,8.9,1.2c2.1-0.1,3.6-0.5,4.8-0.9c-1.2,0.6-2.5,0.9-3.9,1.1
						c-2.7,0.3-3.9,0.5-6.2,0.4c-2.3-0.1-4.7-0.8-4.9-2.6c-0.1-0.9-0.1-1.4,0.3-2C616,867.3,616.3,868.4,617,869.2z"/>
				</g>
			</g>
		</g>
	</g>
</g>
</svg>
