<?xml version="1.0" encoding="utf-8"?>
<!-- Generator: Adobe Illustrator 24.3.0, SVG Export Plug-In . SVG Version: 6.00 Build 0)  -->
<svg version="1.1" id="Layer_1" xmlns="http://www.w3.org/2000/svg" xmlns:xlink="http://www.w3.org/1999/xlink" x="0px" y="0px"
	 viewBox="0 0 2000 1000" style="enable-background:new 0 0 2000 1000;" xml:space="preserve">
<style type="text/css">
	.st0{clip-path:url(#SVGID_2_);fill:url(#SVGID_3_);}
	.st1{clip-path:url(#SVGID_5_);}
	.st2{fill:url(#SVGID_6_);}
	.st3{clip-path:url(#SVGID_8_);fill:url(#SVGID_9_);}
	.st4{clip-path:url(#SVGID_11_);}
	.st5{clip-path:url(#SVGID_16_);}
	.st6{clip-path:url(#SVGID_17_);fill:url(#SVGID_18_);}
	.st7{opacity:0.5;fill:url(#SVGID_19_);enable-background:new    ;}
	.st8{clip-path:url(#SVGID_21_);fill:#DEDEC0;}
	.st9{clip-path:url(#SVGID_23_);fill:none;}
	.st10{clip-path:url(#SVGID_25_);fill:#DAE2E2;}
	.st11{opacity:0.5;clip-path:url(#SVGID_27_);}
	.st12{opacity:0.55;fill:#2147DD;enable-background:new    ;}
	.st13{opacity:0.39;clip-path:url(#SVGID_29_);}
	.st14{fill:#FFFCF0;}
	.st15{opacity:0.39;clip-path:url(#SVGID_31_);}
	.st16{opacity:0.39;clip-path:url(#SVGID_33_);}
	.st17{clip-path:url(#SVGID_35_);}
	.st18{fill:#315272;}
	.st19{clip-path:url(#SVGID_37_);}
	.st20{opacity:0.4;clip-path:url(#SVGID_39_);fill:#FFFFFF;enable-background:new    ;}
	.st21{clip-path:url(#SVGID_41_);}
	.st22{fill:#705E67;}
	.st23{fill:#5E4C54;}
	.st24{fill:#493A41;}
	.st25{fill:#E5C26A;}
	.st26{fill:#EFD078;}
	.st27{fill:#CEA957;}
	.st28{fill:#9B8992;}
	.st29{fill:#685660;}
	.st30{fill:#F4A03B;}
	.st31{fill:#E27933;}
	.st32{fill:#35282E;}
	.st33{fill:#4F3F45;}
	.st34{fill:#FFBA40;}
	.st35{fill:#E83468;}
	.st36{fill:#D5E0E2;}
	.st37{fill:#C1CCD1;}
	.st38{fill:#57686B;}
	.st39{fill:#414F51;}
	.st40{fill:#9FA7AA;}
	.st41{fill:#869193;}
	.st42{fill:#F7D98D;}
	.st43{fill:#9CAAAD;}
	.st44{fill:#7B8E91;}
	.st45{fill:#ABB6BA;}
	.st46{clip-path:url(#SVGID_43_);}
	.st47{fill:#E2BF6A;}
	.st48{fill:#68525B;}
	.st49{fill:#876F7A;}
	.st50{fill:#FFFFFF;}
	.st51{fill:#6D5C64;}
	.st52{fill:#3D3035;}
	.st53{fill:#3F3137;}
	.st54{fill:#8F9799;}
	.st55{fill:#FFD85A;}
</style>
<g>
	<g>
		<g>
			<g>
				<defs>
					<rect id="SVGID_1_" x="-1.1" width="2002.1" height="1000"/>
				</defs>
				<clipPath id="SVGID_2_">
					<use xlink:href="#SVGID_1_"  style="overflow:visible;"/>
				</clipPath>
				
					<linearGradient id="SVGID_3_" gradientUnits="userSpaceOnUse" x1="-14094.165" y1="566.1398" x2="10564.9648" y2="463.4789" gradientTransform="matrix(1 0 0 -1 0 1000)">
					<stop  offset="0" style="stop-color:#DFFFDB"/>
					<stop  offset="7.740000e-02" style="stop-color:#C8F4E1"/>
					<stop  offset="0.2389" style="stop-color:#8DD7F0"/>
					<stop  offset="0.2574" style="stop-color:#86D4F2"/>
					<stop  offset="0.2647" style="stop-color:#8DD3F0"/>
					<stop  offset="0.2968" style="stop-color:#A9CEE7"/>
					<stop  offset="0.3251" style="stop-color:#B9CBE2"/>
					<stop  offset="0.3466" style="stop-color:#BFCAE0"/>
					<stop  offset="0.3523" style="stop-color:#ACB9D1"/>
					<stop  offset="0.3645" style="stop-color:#899BB6"/>
					<stop  offset="0.3779" style="stop-color:#6C819F"/>
					<stop  offset="0.3927" style="stop-color:#546C8C"/>
					<stop  offset="0.4094" style="stop-color:#415C7D"/>
					<stop  offset="0.429" style="stop-color:#345173"/>
					<stop  offset="0.4543" style="stop-color:#2C4A6D"/>
					<stop  offset="0.506" style="stop-color:#2A486B"/>
					<stop  offset="0.6679" style="stop-color:#2C437B"/>
					<stop  offset="0.7493" style="stop-color:#2D4085"/>
					<stop  offset="0.7624" style="stop-color:#324588"/>
					<stop  offset="0.7777" style="stop-color:#405291"/>
					<stop  offset="0.7941" style="stop-color:#57689F"/>
					<stop  offset="0.8111" style="stop-color:#7887B4"/>
					<stop  offset="0.8286" style="stop-color:#A1AECE"/>
					<stop  offset="0.8395" style="stop-color:#BFCAE0"/>
					<stop  offset="0.9333" style="stop-color:#DFFFDB"/>
				</linearGradient>
				<rect x="-1.1" y="-8" class="st0" width="2002.1" height="1009.4"/>
			</g>
		</g>
	</g>
	<g>
		<g>
			<g>
				<defs>
					<rect id="SVGID_4_" x="-1.1" width="2002.1" height="1000"/>
				</defs>
				<clipPath id="SVGID_5_">
					<use xlink:href="#SVGID_4_"  style="overflow:visible;"/>
				</clipPath>
				<g class="st1">
					
						<linearGradient id="SVGID_6_" gradientUnits="userSpaceOnUse" x1="-20576.2266" y1="404.4561" x2="-1055.3333" y2="305.7946" gradientTransform="matrix(1 0 0 -1 0 1000)">
						<stop  offset="0" style="stop-color:#688468"/>
						<stop  offset="0.3883" style="stop-color:#89A589"/>
						<stop  offset="0.635" style="stop-color:#89A589"/>
						<stop  offset="0.8399" style="stop-color:#C5E4C2"/>
						<stop  offset="0.9972" style="stop-color:#BFCAE0"/>
					</linearGradient>
					<path class="st2" d="M1967.3,659.1c-21-6.5-42.7-10.4-64.7-10.8c-81.9-1.5-135-3.3-147.7-5.4c-58.7-9.5-109.9-18.1-154.7-25.1
						c-11-1.7-22-2.7-33.1-3c-58.4-1.6-117.8-3.3-177.4-4.9c-17.8-0.5-35.2,4.8-49.7,15.1c-62.8,44.8-304.9,31.8-429.8-3.4
						s-238.1-29.2-379.1,0c-108,22.4-162.2,14-330.1-7.6l0,0c-94.4,12.1-150.9,30.7-202.1,37.3v154.1l217.2-21.7l29.9-2.3
						l1755.1,8.9V668.1C1988.8,665.3,1977.6,662.3,1967.3,659.1z"/>
				</g>
			</g>
		</g>
	</g>
	<g>
		<g>
			<g>
				<defs>
					<rect id="SVGID_7_" x="-1.1" width="2002.1" height="1000"/>
				</defs>
				<clipPath id="SVGID_8_">
					<use xlink:href="#SVGID_7_"  style="overflow:visible;"/>
				</clipPath>
				
					<linearGradient id="SVGID_9_" gradientUnits="userSpaceOnUse" x1="-14180.1924" y1="331.0793" x2="10608.3535" y2="-17.0338" gradientTransform="matrix(1 0 0 -1 0 1000)">
					<stop  offset="2.510000e-02" style="stop-color:#5A8E54"/>
					<stop  offset="0.1075" style="stop-color:#FFF0CD"/>
					<stop  offset="0.1956" style="stop-color:#D8BB8D"/>
					<stop  offset="0.2265" style="stop-color:#D1B68C"/>
					<stop  offset="0.2727" style="stop-color:#BCA988"/>
					<stop  offset="0.3287" style="stop-color:#9A9281"/>
					<stop  offset="0.3922" style="stop-color:#6C7378"/>
					<stop  offset="0.4613" style="stop-color:#314C6C"/>
					<stop  offset="0.4686" style="stop-color:#2A486B"/>
					<stop  offset="0.8047" style="stop-color:#2A486B"/>
					<stop  offset="0.8192" style="stop-color:#445D77"/>
					<stop  offset="0.8502" style="stop-color:#889396"/>
					<stop  offset="0.8951" style="stop-color:#F4E8C8"/>
					<stop  offset="0.8994" style="stop-color:#FFF0CD"/>
					<stop  offset="0.9088" style="stop-color:#E4E0B9"/>
					<stop  offset="0.9274" style="stop-color:#B3C395"/>
					<stop  offset="0.9451" style="stop-color:#8CAC79"/>
					<stop  offset="0.9613" style="stop-color:#719B65"/>
					<stop  offset="0.9755" style="stop-color:#609258"/>
					<stop  offset="0.9862" style="stop-color:#5A8E54"/>
				</linearGradient>
				<path class="st3" d="M-1.1,760.7v246.1l2002.1,5.8V757.4C1252.8,758.5,523.2,760.6-1.1,760.7z"/>
			</g>
		</g>
	</g>
	<g>
		<g>
			<g>
				<defs>
					<rect id="SVGID_10_" x="-1.1" width="2002.1" height="1000"/>
				</defs>
				<clipPath id="SVGID_11_">
					<use xlink:href="#SVGID_10_"  style="overflow:visible;"/>
				</clipPath>
				<g class="st4">
					<g>
						<g>
							<g>
								<g>
									<defs>
										<polygon id="SVGID_12_" points="1,1 2,1 1,2 										"/>
									</defs>
									<clipPath id="SVGID_13_">
										<use xlink:href="#SVGID_12_"  style="overflow:visible;"/>
									</clipPath>
								</g>
								<g>
									<defs>
										<polygon id="SVGID_14_" points="1,1 2,1 1,2 										"/>
									</defs>
									<defs>
										<polygon id="SVGID_15_" points="-1,-1 -2,-1 -1,-2 										"/>
									</defs>
									<clipPath id="SVGID_16_">
										<use xlink:href="#SVGID_14_"  style="overflow:visible;"/>
									</clipPath>
									<clipPath id="SVGID_17_" class="st5">
										<use xlink:href="#SVGID_15_"  style="overflow:visible;"/>
									</clipPath>
									
										<radialGradient id="SVGID_18_" cx="218.4418" cy="554.9329" r="4.2281" gradientTransform="matrix(1.1579 0 0 -1.0181 -239.1573 1003.4223)" gradientUnits="userSpaceOnUse">
										<stop  offset="0" style="stop-color:#FFFFFF"/>
										<stop  offset="9.660001e-02" style="stop-color:#F9F9F9"/>
										<stop  offset="0.2208" style="stop-color:#E9E9E9"/>
										<stop  offset="0.36" style="stop-color:#CFCFCF"/>
										<stop  offset="0.5102" style="stop-color:#AAAAAA"/>
										<stop  offset="0.6692" style="stop-color:#7B7B7B"/>
										<stop  offset="0.8346" style="stop-color:#414141"/>
										<stop  offset="1" style="stop-color:#000000"/>
									</radialGradient>
									<path class="st6" d="M18.2,438.5c0,2.3-2.1,4.1-4.6,4.1S9,440.8,9,438.5c0-2.2,2.1-4.1,4.6-4.1
										C16.2,434.4,18.2,436.2,18.2,438.5z"/>
								</g>
							</g>
						</g>
					</g>
					
						<radialGradient id="SVGID_19_" cx="218.4418" cy="554.9329" r="4.2281" gradientTransform="matrix(1.1579 0 0 -1.0181 -239.1573 1003.4223)" gradientUnits="userSpaceOnUse">
						<stop  offset="0" style="stop-color:#A9DBE6"/>
						<stop  offset="0.1079" style="stop-color:#A5D6E0"/>
						<stop  offset="0.2465" style="stop-color:#99C6D0"/>
						<stop  offset="0.4018" style="stop-color:#85ADB6"/>
						<stop  offset="0.5694" style="stop-color:#6A8A91"/>
						<stop  offset="0.7468" style="stop-color:#475D62"/>
						<stop  offset="0.9297" style="stop-color:#1D2729"/>
						<stop  offset="1" style="stop-color:#0B1011"/>
					</radialGradient>
					<path class="st7" d="M18.2,438.5c0,2.3-2.1,4.1-4.6,4.1S9,440.8,9,438.5c0-2.2,2.1-4.1,4.6-4.1
						C16.2,434.4,18.2,436.2,18.2,438.5z"/>
				</g>
			</g>
		</g>
	</g>
	<g>
		<g>
			<g>
				<defs>
					<rect id="SVGID_20_" x="-1.1" width="2002.1" height="1000"/>
				</defs>
				<clipPath id="SVGID_21_">
					<use xlink:href="#SVGID_20_"  style="overflow:visible;"/>
				</clipPath>
				<path class="st8" d="M1900.4,648.8c-0.5-0.1-0.7,0.4-1.1,0.6c-0.6,1-0.7,3.3-0.1,6.4c6.1,0.6,12.6-1.1,12.6-1.1
					c0-4-0.4-6.2-0.5-6.8C1908.1,648.3,1901.5,649,1900.4,648.8z M1906.9,650.3c2.7-0.2,3.3,2.9-2.2,3.7s-4.4-1.6-4-3
					C1901.1,649.6,1906.9,650.3,1906.9,650.3z"/>
			</g>
		</g>
	</g>
	<g>
		<g>
			<g>
				<defs>
					<rect id="SVGID_22_" x="-1.1" width="2002.1" height="1000"/>
				</defs>
				<clipPath id="SVGID_23_">
					<use xlink:href="#SVGID_22_"  style="overflow:visible;"/>
				</clipPath>
				<path class="st9" d="M1897.6,650c0.4-0.2,0.6-0.7,1.1-0.6C1898.2,649.4,1897.8,649.6,1897.6,650z"/>
			</g>
		</g>
	</g>
	<g>
		<g>
			<g>
				<defs>
					<rect id="SVGID_24_" x="-1.1" width="2002.1" height="1000"/>
				</defs>
				<clipPath id="SVGID_25_">
					<use xlink:href="#SVGID_24_"  style="overflow:visible;"/>
				</clipPath>
				<path class="st10" d="M1867.8,642.6c-0.2,7.9-0.6,15.5-0.6,15.5c3.3,0.8,11.8-1.1,11.8-1.1s-2.3-5.1-6.1-11.2
					C1871.2,642.9,1869.3,642.4,1867.8,642.6z M1875.9,655.9c-1,1.2-6,0.7-5.3-0.2s2.9-4.7,2.5-4.1c-0.5,0.6-3.6,5.6-4.2,4
					s0.4-9.7,0.4-9.7c0-1.4,1.4-1.5,3.2,2C1874.2,651.4,1876.9,654.7,1875.9,655.9z"/>
			</g>
		</g>
	</g>
	<g>
		<g>
			<g>
				<defs>
					<rect id="SVGID_26_" x="-1.1" width="2002.1" height="1000"/>
				</defs>
				<clipPath id="SVGID_27_">
					<use xlink:href="#SVGID_26_"  style="overflow:visible;"/>
				</clipPath>
				<g class="st11">
					<path class="st12" d="M-1.1,933.8v56.6c588.1,3.1,1356.2,6.3,2002.1,8.9v-47.7L-1.1,933.8z"/>
					<polygon class="st12" points="-1.1,866.2 -1.1,903.3 2001.1,921.7 2001.1,895.2 					"/>
					<polygon class="st12" points="-1.1,808 -1.1,829.2 2001.1,853.8 2001.1,827.7 					"/>
					<polygon class="st12" points="-1.1,760.8 -1.1,778.1 2001.1,801.6 2001.1,780 					"/>
				</g>
			</g>
		</g>
	</g>
	<g>
		<g>
			<g>
				<defs>
					<rect id="SVGID_28_" x="-1.1" width="2002.1" height="1000"/>
				</defs>
				<clipPath id="SVGID_29_">
					<use xlink:href="#SVGID_28_"  style="overflow:visible;"/>
				</clipPath>
				<g class="st13">
					<circle class="st14" cx="214.7" cy="69.4" r="3.2"/>
					<circle class="st14" cx="438.4" cy="153.9" r="3.2"/>
					<path class="st14" d="M1201.4,50.9c0,1.8-1.4,3.2-3.2,3.2c-1.8,0-3.2-1.4-3.2-3.2s1.4-3.2,3.2-3.2S1201.4,49.1,1201.4,50.9z"/>
					<circle class="st14" cx="964.6" cy="169.2" r="1.6"/>
					<circle class="st14" cx="1035.2" cy="66.8" r="1.6"/>
					<circle class="st14" cx="882.6" cy="139.4" r="1.6"/>
					<circle class="st14" cx="802.4" cy="60" r="1.6"/>
					<circle class="st14" cx="654.8" cy="116.3" r="1.6"/>
					<path class="st14" d="M498.6,175.8c0,0.9-0.7,1.6-1.6,1.6s-1.6-0.7-1.6-1.6s0.7-1.6,1.6-1.6S498.6,174.9,498.6,175.8z"/>
					<circle class="st14" cx="380.4" cy="48.6" r="1.6"/>
					<circle class="st14" cx="184.3" cy="157.1" r="1.6"/>
					<circle class="st14" cx="68.3" cy="45.4" r="1.6"/>
					<circle class="st14" cx="123.8" cy="120.1" r="1.6"/>
					<circle class="st14" cx="1311.5" cy="171.3" r="1.6"/>
					<circle class="st14" cx="1449.3" cy="66.8" r="1.6"/>
					<circle class="st14" cx="1164.6" cy="107.6" r="3.2"/>
					<circle class="st14" cx="994" cy="191.3" r="3.2"/>
				</g>
			</g>
		</g>
	</g>
	<g>
		<g>
			<g>
				<defs>
					<rect id="SVGID_30_" x="-1.1" width="2002.1" height="1000"/>
				</defs>
				<clipPath id="SVGID_31_">
					<use xlink:href="#SVGID_30_"  style="overflow:visible;"/>
				</clipPath>
				<g class="st15">
					<circle class="st14" cx="1665.4" cy="212.8" r="3.2"/>
					<circle class="st14" cx="1889" cy="297.4" r="3.2"/>
					<path class="st14" d="M1949.3,319.3c0,0.9-0.7,1.6-1.6,1.6s-1.6-0.7-1.6-1.6s0.7-1.6,1.6-1.6
						C1948.6,317.7,1949.3,318.4,1949.3,319.3z"/>
					<circle class="st14" cx="1831.1" cy="192.1" r="1.6"/>
					<circle class="st14" cx="1634.9" cy="300.6" r="1.6"/>
					<circle class="st14" cx="1519" cy="188.8" r="1.6"/>
					<circle class="st14" cx="1574.5" cy="263.6" r="1.6"/>
				</g>
			</g>
		</g>
	</g>
	<g>
		<g>
			<g>
				<defs>
					<rect id="SVGID_32_" x="-1.1" width="2002.1" height="1000"/>
				</defs>
				<clipPath id="SVGID_33_">
					<use xlink:href="#SVGID_32_"  style="overflow:visible;"/>
				</clipPath>
				<g class="st16">
					<circle class="st14" cx="1633.2" cy="18.6" r="3.2"/>
					<circle class="st14" cx="1856.9" cy="103.2" r="3.2"/>
					<path class="st14" d="M1917.1,125.1c0,0.9-0.7,1.6-1.6,1.6s-1.6-0.7-1.6-1.6s0.7-1.6,1.6-1.6S1917.1,124.2,1917.1,125.1z"/>
					<circle class="st14" cx="1602.8" cy="106.4" r="1.6"/>
					<circle class="st14" cx="1542.3" cy="69.4" r="1.6"/>
				</g>
			</g>
		</g>
	</g>
	<g>
		<g>
			<g>
				<defs>
					<rect id="SVGID_34_" x="-1.1" width="2002.1" height="1000"/>
				</defs>
				<clipPath id="SVGID_35_">
					<use xlink:href="#SVGID_34_"  style="overflow:visible;"/>
				</clipPath>
				<g class="st17">
					<g>
						<path class="st18" d="M1859.9,962.7c-26.7-2.3-53.4-4.6-80.1-7c-28.7,2.2-57.2,4.3-85.9,6.4c-135.6,0.3-271.2,0.6-406.8,0.9
							c-44.5,0.2-100-6.1-111.3-13s-33-6.6-51.2-5.6c-100.6,5.4-201.3,10.9-301.9,16.3c-54.6,3-109.8,5.9-164.3,2.7
							c-73-4.4-150.7-19.4-216.7-3.8c-20.2,4.8-38.1,12.3-60.3,14.3c-22.1,2.1-50.3-5.4-46.7-16.1c-35.4,2.5-70.9,5-106.3,7.5
							c12.7-14.3-37.1-21-69.2-18.4c-53.2,4.2-106.8,7.4-160.5,9.8v56.3l2002.1,19v-68C1954.1,965.8,1906.7,965.4,1859.9,962.7z"/>
					</g>
				</g>
			</g>
		</g>
	</g>
	<g>
		<g>
			<g>
				<defs>
					<rect id="SVGID_36_" x="-1.1" width="2002.1" height="1000"/>
				</defs>
				<clipPath id="SVGID_37_">
					<use xlink:href="#SVGID_36_"  style="overflow:visible;"/>
				</clipPath>
				<g class="st19">
					<g>
						<path class="st18" d="M1270.5,904.1c-121.8-10.3-243.6-14.8-365.5-0.4c-89.3-4.2-178.6-7.6-267.9-11.4
							c-212.7,1.7-425.4,2.1-638.2,1.4V915c80.5,0.1,160.9-1.1,241.4-4.6c53.6,9.3,107.9-3.5,160.1-4.2
							c120.5,16.3,241.2,7.4,361.7,17.9c94-0.4,188-13.4,281.9-0.8c319-7.4,638-9.5,957-8.1v-19.1
							C1757.5,894.6,1514,895.8,1270.5,904.1z"/>
					</g>
				</g>
			</g>
		</g>
	</g>
	<g>
		<g>
			<g>
				<defs>
					<rect id="SVGID_38_" x="-1.1" width="2002.1" height="1000"/>
				</defs>
				<clipPath id="SVGID_39_">
					<use xlink:href="#SVGID_38_"  style="overflow:visible;"/>
				</clipPath>
				<polygon class="st20" points="2001.1,185.6 802.1,160.5 802.1,435.7 2001.1,363.3 				"/>
			</g>
		</g>
	</g>
	<g>
		<g>
			<g>
				<defs>
					<rect id="SVGID_40_" x="-1.1" width="2002.1" height="1000"/>
				</defs>
				<clipPath id="SVGID_41_">
					<use xlink:href="#SVGID_40_"  style="overflow:visible;"/>
				</clipPath>
				<g class="st21">
					<path class="st22" d="M787.6,204.4h-35.4v44.1c0,19.5,15.8,35.4,35.4,35.4V204.4z"/>
					<polygon class="st23" points="828,204.2 752.4,204.2 784.7,250.8 860.3,250.8 					"/>
					<polygon class="st24" points="835.7,208.8 760.1,208.8 792.5,255.3 868.1,255.3 					"/>
					<g>
						
							<rect x="806.8" y="159.4" transform="matrix(0.5755 -0.8178 0.8178 0.5755 202.9215 752.3986)" class="st25" width="38.8" height="42.7"/>
						
							<rect x="797.9" y="183.6" transform="matrix(0.5755 -0.8178 0.8178 0.5755 175.8867 748.7169)" class="st26" width="22.5" height="42.7"/>
						<g>
							<polygon class="st27" points="819.7,152.9 828.9,181 798.3,183.3 798.2,183.4 832.1,183.2 819.9,152.6 							"/>
							<polygon class="st27" points="833.1,208 832.5,183.3 854.5,177.1 854.6,177.1 830.1,181.2 832.8,208.3 							"/>
						</g>
						<g>
							<polygon class="st25" points="798.4,183.1 811.5,205.6 785.3,201.7 785.3,201.8 814.7,207.8 798.6,182.9 							"/>
							<polygon class="st25" points="820.1,225.9 815.1,207.9 833.2,207.9 833.2,207.9 812.7,206 820,226.1 							"/>
						</g>
					</g>
					<rect x="828.3" y="139.2" class="st28" width="11.7" height="60.8"/>
					<rect x="836" y="139.2" class="st22" width="137.8" height="60.8"/>
					<polygon class="st29" points="954,139.2 888.1,139.2 872.3,200 938.2,200 					"/>
					<path class="st23" d="M834.5,244.3h-60.9c-4,0-7.2,3.2-7.2,7.2v478.8h68.1L834.5,244.3L834.5,244.3z"/>
					<path class="st22" d="M780.3,245c-8,2.1-14,9.5-14,18.2v467.2h27.9V263.1C794.3,254.4,788.4,247.1,780.3,245z"/>
					<g>
						<rect x="799.3" y="278.1" class="st24" width="62.3" height="65.5"/>
						<rect x="799.3" y="368.9" class="st24" width="62.3" height="65.5"/>
						<rect x="799.3" y="459.7" class="st24" width="62.3" height="65.5"/>
						<rect x="799.3" y="550.6" class="st24" width="62.3" height="65.5"/>
						<rect x="799.3" y="641.4" class="st24" width="62.3" height="65.5"/>
					</g>
					<g>
						<path class="st23" d="M974.6,190.5c-0.6,0-1.2,0.1-1.7,0.1v-0.1H827.6V812h144.9c0.7,0.1,1.4,0.1,2.2,0.1c7.7,0,13.9-4,13.9-9
							V199.5C988.6,194.5,982.3,190.5,974.6,190.5z"/>
						<rect x="833.5" y="573.3" class="st24" width="155.1" height="38.9"/>
						<rect x="833.5" y="352.7" class="st24" width="155.1" height="38.9"/>
						<polygon class="st24" points="988.6,315.5 968.6,298.8 892.9,298.8 892.9,349.4 988.6,349.4 						"/>
						<polygon class="st24" points="988.6,528.7 970.8,512.3 892.9,512.3 892.9,570 988.6,570 						"/>
						<polygon class="st24" points="883.4,702.2 839.2,683.6 839.2,727.1 883.4,727.1 						"/>
						<g>
							<rect x="837.1" y="724.1" class="st24" width="151.4" height="3.2"/>
							<rect x="837.1" y="689.9" class="st24" width="151.4" height="3.2"/>
							<rect x="837.1" y="655.7" class="st24" width="151.4" height="3.2"/>
							<rect x="837.1" y="621.5" class="st24" width="151.4" height="3.2"/>
							<rect x="837.1" y="587.4" class="st24" width="151.4" height="3.2"/>
							<rect x="837.1" y="553.2" class="st24" width="151.4" height="3.2"/>
							<rect x="837.1" y="519" class="st24" width="151.4" height="3.2"/>
							<rect x="837.1" y="484.8" class="st24" width="151.4" height="3.2"/>
							<rect x="837.1" y="450.7" class="st24" width="151.4" height="3.2"/>
							<rect x="837.1" y="416.5" class="st24" width="151.4" height="3.2"/>
							<rect x="837.1" y="382.3" class="st24" width="151.4" height="3.2"/>
							<rect x="837.1" y="348.1" class="st24" width="151.4" height="3.2"/>
							<rect x="837.1" y="314" class="st24" width="151.4" height="3.2"/>
							<rect x="837.1" y="279.8" class="st24" width="151.4" height="3.2"/>
							<rect x="837.1" y="245.6" class="st24" width="151.4" height="3.2"/>
							<rect x="837.1" y="211.4" class="st24" width="151.4" height="3.2"/>
						</g>
						<path class="st28" d="M826.4,190.5c7.7,0,13.9,4,13.9,9v603.6c0,5-6.2,9-13.9,9s-13.9-4-13.9-9V199.5
							C812.5,194.5,818.7,190.5,826.4,190.5z"/>
						<path class="st23" d="M826.4,198.7c4.2,0,7.7,3.9,7.7,8.8v587.7c0,4.8-3.4,8.8-7.7,8.8c-4.2,0-7.7-3.9-7.7-8.8V207.5
							C818.7,202.6,822.2,198.7,826.4,198.7z"/>
					</g>
					<g>
						<path class="st24" d="M831.9,800.2c0-2.6-1.7-4.6-3.9-4.6s-3.9,2.1-3.9,4.6c0,2.6,1.7,4.6,3.9,4.6S831.9,802.7,831.9,800.2z"
							/>
						<path class="st24" d="M831.9,772.1c0-2.6-1.7-4.6-3.9-4.6s-3.9,2.1-3.9,4.6c0,2.6,1.7,4.6,3.9,4.6
							C830.2,776.7,831.9,774.7,831.9,772.1z"/>
						<path class="st24" d="M831.9,744c0-2.6-1.7-4.6-3.9-4.6s-3.9,2.1-3.9,4.6c0,2.6,1.7,4.6,3.9,4.6
							C830.2,748.7,831.9,746.6,831.9,744z"/>
						<path class="st24" d="M831.9,716c0-2.6-1.7-4.6-3.9-4.6s-3.9,2.1-3.9,4.6c0,2.6,1.7,4.6,3.9,4.6S831.9,718.5,831.9,716z"/>
						<path class="st24" d="M831.9,687.9c0-2.6-1.7-4.6-3.9-4.6s-3.9,2.1-3.9,4.6c0,2.6,1.7,4.6,3.9,4.6S831.9,690.5,831.9,687.9z"
							/>
						<path class="st24" d="M831.9,659.9c0-2.6-1.7-4.6-3.9-4.6s-3.9,2.1-3.9,4.6c0,2.6,1.7,4.6,3.9,4.6S831.9,662.4,831.9,659.9z"
							/>
						<path class="st24" d="M831.9,631.8c0-2.6-1.7-4.6-3.9-4.6s-3.9,2.1-3.9,4.6c0,2.6,1.7,4.6,3.9,4.6
							C830.2,636.4,831.9,634.4,831.9,631.8z"/>
						<path class="st24" d="M831.9,603.7c0-2.6-1.7-4.6-3.9-4.6s-3.9,2.1-3.9,4.6c0,2.6,1.7,4.6,3.9,4.6
							C830.2,608.4,831.9,606.3,831.9,603.7z"/>
						<path class="st24" d="M831.9,575.7c0-2.6-1.7-4.6-3.9-4.6s-3.9,2.1-3.9,4.6c0,2.6,1.7,4.6,3.9,4.6S831.9,578.2,831.9,575.7z"
							/>
						<path class="st24" d="M831.9,547.6c0-2.6-1.7-4.6-3.9-4.6s-3.9,2.1-3.9,4.6c0,2.6,1.7,4.6,3.9,4.6
							C830.2,552.2,831.9,550.2,831.9,547.6z"/>
						<path class="st24" d="M831.9,519.5c0-2.6-1.7-4.6-3.9-4.6s-3.9,2.1-3.9,4.6c0,2.6,1.7,4.6,3.9,4.6
							C830.2,524.2,831.9,522.1,831.9,519.5z"/>
						<path class="st24" d="M831.9,491.5c0-2.6-1.7-4.6-3.9-4.6s-3.9,2.1-3.9,4.6c0,2.6,1.7,4.6,3.9,4.6S831.9,494,831.9,491.5z"/>
						<path class="st24" d="M831.9,463.4c0-2.6-1.7-4.6-3.9-4.6s-3.9,2.1-3.9,4.6c0,2.6,1.7,4.6,3.9,4.6
							C830.2,468.1,831.9,466,831.9,463.4z"/>
						<path class="st24" d="M831.9,435.4c0-2.6-1.7-4.6-3.9-4.6s-3.9,2.1-3.9,4.6c0,2.6,1.7,4.6,3.9,4.6S831.9,437.9,831.9,435.4z"
							/>
						<path class="st24" d="M831.9,407.3c0-2.6-1.7-4.6-3.9-4.6s-3.9,2.1-3.9,4.6c0,2.6,1.7,4.6,3.9,4.6S831.9,409.9,831.9,407.3z"
							/>
						<path class="st24" d="M831.9,379.2c0-2.6-1.7-4.6-3.9-4.6s-3.9,2.1-3.9,4.6c0,2.6,1.7,4.6,3.9,4.6
							C830.2,383.9,831.9,381.8,831.9,379.2z"/>
						<path class="st24" d="M831.9,351.2c0-2.6-1.7-4.6-3.9-4.6s-3.9,2.1-3.9,4.6c0,2.6,1.7,4.6,3.9,4.6
							C830.2,355.8,831.9,353.7,831.9,351.2z"/>
						<path class="st24" d="M831.9,323.1c0-2.6-1.7-4.6-3.9-4.6s-3.9,2.1-3.9,4.6c0,2.6,1.7,4.6,3.9,4.6S831.9,325.7,831.9,323.1z"
							/>
						<path class="st24" d="M831.9,295c0-2.6-1.7-4.6-3.9-4.6s-3.9,2.1-3.9,4.6c0,2.6,1.7,4.6,3.9,4.6
							C830.2,299.7,831.9,297.6,831.9,295z"/>
						<path class="st24" d="M831.9,267c0-2.6-1.7-4.6-3.9-4.6s-3.9,2.1-3.9,4.6c0,2.6,1.7,4.6,3.9,4.6S831.9,269.5,831.9,267z"/>
						<path class="st24" d="M831.9,238.9c0-2.6-1.7-4.6-3.9-4.6s-3.9,2.1-3.9,4.6c0,2.6,1.7,4.6,3.9,4.6
							C830.2,243.6,831.9,241.5,831.9,238.9z"/>
						<path class="st24" d="M831.9,210.9c0-2.6-1.7-4.6-3.9-4.6s-3.9,2.1-3.9,4.6c0,2.6,1.7,4.6,3.9,4.6S831.9,213.4,831.9,210.9z"
							/>
					</g>
					<rect x="1086.8" y="475.7" class="st30" width="39.3" height="23.2"/>
					<rect x="1209.5" y="405.6" class="st30" width="39.3" height="23.2"/>
					<path class="st31" d="M1229,466.1h-23.7v24.6c0,2,1.6,3.6,3.6,3.6h20L1229,466.1L1229,466.1z"/>
					<path class="st30" d="M1199.1,458.4h-34.8c0,3.4,2.8,6.2,6.2,6.2h28.6L1199.1,458.4L1199.1,458.4z"/>
					<path class="st31" d="M1261.1,458.4h34.8c0,3.4-2.8,6.2-6.2,6.2h-28.6L1261.1,458.4L1261.1,458.4z"/>
					<rect x="1059.7" y="505.4" class="st32" width="34.8" height="31.1"/>
					<rect x="1059.7" y="523.4" class="st33" width="22.9" height="18.8"/>
					<path class="st34" d="M1089.7,530.5h-41.3c-15.5,24.5-22.8,105.2-29.8,202.5h74.5L1089.7,530.5z"/>
					<polygon class="st30" points="1109.9,530.5 1059.2,530.5 1044.6,732.9 1119.2,732.9 					"/>
					<g>
						<polygon class="st30" points="788.5,708.2 770.7,688.1 754.9,688.1 754.9,734.7 788.5,734.7 						"/>
						<polygon class="st34" points="782.5,708.2 764.7,688.1 748.9,688.1 748.9,734.7 782.5,734.7 						"/>
						<polygon class="st30" points="764.7,688.1 748.9,688.1 748.9,711.6 						"/>
						<ellipse class="st33" cx="777.7" cy="711.3" rx="2.3" ry="3.4"/>
						<path class="st33" d="M764.7,695.1c0-1.9-1-3.4-2.3-3.4s-2.3,1.5-2.3,3.4s1,3.4,2.3,3.4S764.7,697,764.7,695.1z"/>
					</g>
					<polygon class="st32" points="675.4,471.6 630.8,495.4 630.8,542.1 675.4,542.1 					"/>
					<rect x="632.9" y="506.7" class="st33" width="28.1" height="24.7"/>
					<rect x="780.2" y="501.1" class="st35" width="3" height="215.9"/>
					<path class="st35" d="M794.2,495.6c0-6.9-5.6-12.5-12.5-12.5s-12.5,5.6-12.5,12.5s5.6,12.5,12.5,12.5
						C788.6,508.1,794.2,502.5,794.2,495.6z"/>
					<path class="st32" d="M800.7,472.4h-38.3v22.9c0,1.5,1.2,2.7,2.7,2.7h32.8c1.5,0,2.7-1.2,2.7-2.7L800.7,472.4L800.7,472.4z"/>
					<path class="st33" d="M795.4,497.7c-2.5-5-12.7-8.8-24.9-8.8c-2.8,0-5.6,0.2-8.1,0.6v1.4c0,3.9,3.2,7.1,7.1,7.1h24
						C794.2,498,794.8,497.9,795.4,497.7z"/>
					<rect x="601.4" y="674.5" class="st32" width="112.9" height="28.1"/>
					<rect x="601.4" y="688.8" class="st33" width="33.5" height="13.8"/>
					<path class="st34" d="M669.7,519.4H610c-19.8,19.8-22.1,85-22.1,163.5h107.7L669.7,519.4z"/>
					<polygon class="st30" points="698.9,519.4 625.6,519.4 625.6,683 733.3,683 					"/>
					<polygon class="st30" points="725.9,694.4 629.9,694.4 617.3,868.3 756.7,868.3 					"/>
					<polygon class="st34" points="633.8,694.4 589.7,694.4 559,868.3 623,868.3 					"/>
					<path class="st31" d="M666.1,421.5h-50.5v33.4h34.1c0.7,7.9,2.2,16.2,4.3,23.4h-32V499h48.3v-0.1c2.4-0.1,5.1-0.4,8.1-0.8
						c34.7-5,60.3-34.8,60.3-69.9C738.8,428.3,689.8,420.9,666.1,421.5z"/>
					<path class="st30" d="M666.1,421.5h-50.5v10.4l76.8-3.1c0,0,46.4,0.7,46.4-0.5C738.8,428.3,689.8,420.9,666.1,421.5z"/>
					<path class="st34" d="M692.4,428.3c0,0-64.9-9.7-81.3-5.9c-16.3,3.8-5.8,76.7,10.9,76.7c2.7,0,6.2-0.3,10.1-0.9
						C666.8,493.2,692.4,463.3,692.4,428.3z"/>
					<path class="st33" d="M712.4,438.7c-1.2,8.4-4,16.4-8,23.7h56.8v-23.7H712.4z"/>
					<path class="st32" d="M725.1,448.8h36.1v-10.1h-48.8c-1.2,8.4-4,16.4-8,23.7h17.2C723.2,458,724.4,453.5,725.1,448.8z"/>
					<polygon class="st30" points="833.3,435.7 774.6,435.7 774.6,482.5 818.6,482.5 					"/>
					<polygon class="st34" points="802.1,435.7 743.4,435.7 743.4,482.5 787.4,482.5 					"/>
					<polygon class="st36" points="1407.9,476.7 1325.3,476.7 1107.2,733.5 1346.1,733.5 					"/>
					<polygon class="st37" points="1414.7,476.7 1332.1,476.7 1114.1,733.5 1353,733.5 					"/>
					<polygon class="st37" points="1598.9,370.8 1454.9,370.8 1379.2,481.8 1563.4,481.8 					"/>
					<polygon class="st38" points="1588,382.8 1458.2,382.8 1390,482.8 1556.1,482.8 					"/>
					<polygon class="st39" points="1588,382.8 1458.2,382.8 1492.5,482.8 1556.1,482.8 					"/>
					<path class="st37" d="M1588.5,370.8h-3.5l-75.7,111h141.2v-48.9C1650.6,398.6,1622.8,370.8,1588.5,370.8z"/>
					<path class="st40" d="M1598.9,370.8h-3.5l-75.7,111H1661v-48.9C1661,398.6,1633.2,370.8,1598.9,370.8z"/>
					<rect x="1525.4" y="474" class="st40" width="135.6" height="419.8"/>
					<polygon class="st41" points="1661,670 1627.5,639 1525.4,623.3 1525.4,893.8 1661,893.8 					"/>
					<g>
						<rect x="1419.6" y="409.5" class="st25" width="67.2" height="73.8"/>
						<rect x="1382.5" y="409.5" class="st42" width="39" height="73.8"/>
						<polygon class="st27" points="1487,410.2 1456.1,442.3 1422,410.2 1421.9,410.2 1456.1,447.6 1487.7,410.2 						"/>
						<polygon class="st27" points="1422.6,483.2 1456.5,449.4 1487.6,483.2 1487.7,483.2 1457.1,443.8 1421.9,483.2 						"/>
						<polygon class="st25" points="1421.1,410.2 1402.9,442.3 1382.8,410.2 1382.7,410.2 1402.9,447.6 1421.5,410.2 						"/>
						<polygon class="st25" points="1383.1,483.2 1403.1,449.4 1421.4,483.2 1421.5,483.2 1403.4,443.8 1382.7,483.2 						"/>
					</g>
					<polygon class="st43" points="1521.5,481.8 1337.9,481.8 1119.8,738.5 1459.8,738.5 					"/>
					<polygon class="st44" points="1337.9,481.8 1119.8,738.5 1140.6,738.5 1358.6,481.8 					"/>
					<g>
						<polygon class="st38" points="1316,702.3 1150.6,702.3 1146.8,706.8 1315,706.8 						"/>
						<polygon class="st38" points="1341.4,672.3 1176.1,672.3 1172.3,676.7 1340.3,676.7 						"/>
						<polygon class="st38" points="1366.7,642.3 1201.6,642.3 1197.8,646.7 1365.6,646.7 						"/>
						<polygon class="st38" points="1392,612.2 1227.1,612.2 1223.3,616.7 1391,616.7 						"/>
						<polygon class="st38" points="1417.4,582.2 1252.6,582.2 1248.8,586.7 1416.3,586.7 						"/>
						<polygon class="st38" points="1442.7,552.2 1278.1,552.2 1274.3,556.6 1441.6,556.6 						"/>
						<polygon class="st38" points="1468,522.2 1303.6,522.2 1299.8,526.6 1467,526.6 						"/>
						<polygon class="st38" points="1493.4,492.1 1329.1,492.1 1325.3,496.6 1492.3,496.6 						"/>
					</g>
					<polygon class="st36" points="1574.6,476.7 1492,476.7 1273.9,733.5 1512.9,733.5 					"/>
					<polygon class="st40" points="1585,476.7 1502.4,476.7 1284.3,733.5 1523.2,733.5 					"/>
					<rect x="1243.1" y="452.3" class="st32" width="41.4" height="18.8"/>
					<rect x="1225.8" y="452.3" class="st33" width="19.7" height="18.8"/>
					<path class="st45" d="M1618.6,614.2h-94.1v250.5h94.1c16.8,0,30.5-13.6,30.5-30.5V644.7
						C1649.1,627.8,1635.4,614.2,1618.6,614.2z"/>
					<polygon class="st36" points="1523.2,614.2 1412.3,614.2 1330.5,717.3 1450.5,717.3 					"/>
					<polygon class="st38" points="1516.9,623.5 1415.7,623.5 1341.1,717.6 1450.6,717.6 					"/>
					<polygon class="st39" points="1516.9,623.5 1415.7,623.5 1434.5,723.8 					"/>
					<g>
						<g>
							<g>
								<g>
									<defs>
										<polygon id="SVGID_42_" points="1433,717.3 1507.4,623.5 1415.7,623.5 1341.1,717.6 										"/>
									</defs>
									<clipPath id="SVGID_43_">
										<use xlink:href="#SVGID_42_"  style="overflow:visible;"/>
									</clipPath>
									<g class="st46">
										<rect x="1426.4" y="654.4" class="st47" width="48.8" height="61.2"/>
										<rect x="1399.4" y="654.4" class="st42" width="28.3" height="61.2"/>
										<polygon class="st27" points="1474.7,654.7 1452.6,685.6 1428.2,654.7 1428.1,654.7 1452.6,690.8 1475.2,654.7 										
											"/>
										<polygon class="st27" points="1428.7,716 1452.9,691.2 1475.1,716 1475.2,716 1453.3,687.1 1428.1,716 										"/>
										<polygon class="st47" points="1427.5,654.7 1414.2,685.6 1399.6,654.7 1399.5,654.7 1414.2,690.8 1427.8,654.7 										
											"/>
										<polygon class="st47" points="1399.8,716 1414.4,691.2 1427.8,716 1427.8,716 1414.6,687.1 1399.5,716 										"/>
									</g>
								</g>
							</g>
						</g>
					</g>
					<polygon class="st36" points="1525.2,614.2 1507,614.2 1425.2,717.3 1525.2,717.3 					"/>
					<polygon class="st45" points="1536.2,614.2 1518,614.2 1436.3,717.3 1536.2,717.3 					"/>
					<rect x="599.2" y="756.3" class="st32" width="933.1" height="66.2"/>
					<g>
						<polygon class="st33" points="1158.1,611.1 1142.8,611.1 1142.8,605.3 1152.3,605.3 1152.3,585 1134.2,566.9 1116.6,566.9 
							1116.6,561 1136.6,561 1158.1,582.6 						"/>
					</g>
					<g>
						<rect x="1114.3" y="592.1" class="st47" width="28.5" height="37.7"/>
						<rect x="1098.5" y="592.1" class="st26" width="16.5" height="37.7"/>
						<polygon class="st25" points="1115.5,608.1 1104.6,601.2 1103.8,615.4 1115.5,629.5 						"/>
						<polygon class="st27" points="1142.1,592.1 1129.5,611.1 1115.5,592.1 1115.5,592.1 1129.5,614.3 1142.4,592.1 						"/>
						<polygon class="st27" points="1115.8,629.8 1129.7,614.6 1142.4,629.8 1142.4,629.8 1129.9,612 1115.5,629.8 						"/>
						<polygon class="st25" points="1115.1,592.1 1107.3,611.1 1098.7,592.1 1098.6,592.1 1107.3,614.3 1115.3,592.1 						"/>
						<polygon class="st25" points="1098.8,629.8 1107.4,614.6 1115.2,629.8 1115.3,629.8 1107.5,612 1098.6,629.8 						"/>
					</g>
					<g>
						<rect x="798.1" y="670.9" class="st25" width="48.6" height="46.1"/>
						<rect x="771.3" y="670.9" class="st42" width="28.2" height="46.1"/>
						<polygon class="st27" points="846,670.9 823.5,694.4 798.7,670.9 798.6,670.9 823.5,698.3 846.5,670.9 						"/>
						<polygon class="st27" points="799.1,717.6 823.8,698.7 846.4,717.6 846.5,717.6 824.2,695.6 798.6,717.6 						"/>
						<polygon class="st25" points="799.1,670.9 785.6,694.4 770.6,670.9 770.5,670.9 785.6,698.3 799.5,670.9 						"/>
						<polygon class="st25" points="770.9,717.6 785.8,698.7 799.4,717.6 799.5,717.6 786,695.6 770.5,717.6 						"/>
					</g>
					<g>
						<rect x="677.6" y="659" class="st25" width="61.2" height="58"/>
						<rect x="643.8" y="659" class="st42" width="35.5" height="58"/>
						<polygon class="st27" points="737.3,660.1 709.6,689.1 679.1,660.1 679,660.1 709.6,693.9 737.9,660.1 						"/>
						<polygon class="st27" points="679.6,717.6 710,694.4 737.8,717.6 737.9,717.6 710.5,690.5 679,717.6 						"/>
						<polygon class="st25" points="678.9,659 662,688.6 643.3,659 643.3,659 662,693.4 679.3,659 						"/>
						<polygon class="st25" points="643.7,717.6 662.2,693.9 679.2,717.6 679.3,717.6 662.5,690 643.3,717.6 						"/>
					</g>
					<g>
						<rect x="953.3" y="649.2" class="st25" width="61.2" height="67.7"/>
						<rect x="919.5" y="649.2" class="st42" width="35.5" height="67.7"/>
						<polygon class="st27" points="1013,650.5 985.4,684.3 954.9,650.5 954.8,650.5 985.4,689.9 1013.7,650.5 						"/>
						<polygon class="st27" points="955.4,717.6 985.8,690.5 1013.6,717.6 1013.7,717.6 986.2,686 954.8,717.6 						"/>
						<polygon class="st25" points="954.6,649.2 937.8,683.7 919.1,649.2 919.1,649.2 937.8,689.4 955,649.2 						"/>
						<polygon class="st25" points="919.5,717.6 938,689.9 955,717.6 955,717.6 938.3,685.4 919.1,717.6 						"/>
					</g>
					<g>
						<rect x="908.4" y="509.7" class="st47" width="68.9" height="61"/>
						<rect x="870.3" y="509.7" class="st42" width="40" height="61"/>
						<polygon class="st27" points="975.5,509.7 944.6,541.8 910.5,509.7 910.3,509.7 944.6,547.1 976.2,509.7 						"/>
						<polygon class="st27" points="911.1,573.3 945,547.6 976.1,573.3 976.2,573.3 945.5,543.3 910.3,573.3 						"/>
						<polygon class="st47" points="910.5,509.7 891.4,543.5 870.2,509.7 870.1,509.7 891.4,549.1 911,509.7 						"/>
						<polygon class="st47" points="870.5,576.8 891.6,549.6 910.9,576.8 911,576.8 891.9,545.2 870.1,576.8 						"/>
					</g>
					<g>
						<rect x="906.7" y="288.4" class="st25" width="68.9" height="61"/>
						<rect x="868.6" y="288.4" class="st26" width="40" height="61"/>
						<g>
							<polygon class="st27" points="974.8,288.4 943.5,322.2 908.8,288.4 908.7,288.4 943.5,327.8 975.6,288.4 							"/>
							<polygon class="st27" points="909.4,355.5 943.9,328.4 975.4,355.5 975.6,355.5 944.4,323.9 908.7,355.5 							"/>
						</g>
						<g>
							<polygon class="st25" points="909.3,288.4 890.1,322.2 868.9,288.4 868.8,288.4 890.1,327.8 909.7,288.4 							"/>
							<polygon class="st25" points="869.2,355.5 890.3,328.4 909.6,355.5 909.7,355.5 890.7,323.9 868.8,355.5 							"/>
						</g>
					</g>
					<path class="st48" d="M1453.3,715.5H526.1c-30.4,0-30.4,54,0,54h927.2C1484.8,769.5,1484.8,715.5,1453.3,715.5z"/>
					<path class="st49" d="M671.9,715.5H526.1c-16,0-23.6,14.9-22.7,29.1h168.5L671.9,715.5L671.9,715.5z"/>
					<rect x="780.1" y="508.1" class="st50" width="3.1" height="208.9"/>
					<path class="st50" d="M774.9,714.8c0,3.7,3,6.7,6.7,6.7s6.7-3,6.7-6.7s-3-6.7-6.7-6.7S774.9,711.1,774.9,714.8z"/>
					<path class="st50" d="M777.9,714.8c0,2,1.6,3.6,3.6,3.6s3.6-1.6,3.6-3.6s-1.6-3.6-3.6-3.6C779.5,711.1,777.9,712.7,777.9,714.8
						z"/>
					<g>
						<path class="st33" d="M691,759.5H508c0.7,1,1.4,2,2.2,2.9H691V759.5z"/>
						<path class="st33" d="M682.6,743.3H503.4c0,1,0.1,2,0.2,2.9h179V743.3z"/>
						<path class="st33" d="M684.2,725.5H508c-0.6,0.9-1.1,1.9-1.6,2.9h177.8V725.5z"/>
					</g>
					<path class="st33" d="M1607,715.5H679.8c-30.4,0-30.4,54,0,54H1607C1638.5,769.5,1638.5,715.5,1607,715.5z"/>
					<path class="st32" d="M1597.4,723.8h-908c-29.8,0-29.8,37.4,0,37.4h908C1628.3,761.2,1628.3,723.8,1597.4,723.8z"/>
					<polygon class="st51" points="1088,790 560.7,790 510.3,891.9 1088,891.9 					"/>
					<polygon class="st33" points="1614,790 727.5,790 681,891.9 1626.6,891.9 					"/>
					<polygon class="st52" points="1397.4,790 1260.4,790 1258,891.9 1404.2,891.9 					"/>
					<g>
						<polygon class="st52" points="1596.2,790 1605.9,790 1610.2,894.5 1585.5,894.5 						"/>
						<polygon class="st52" points="1469,790 1478.8,790 1483,894.5 1458.3,894.5 						"/>
						<polygon class="st52" points="1147.6,790 1157.3,790 1161.6,894.5 1136.9,894.5 						"/>
						<polygon class="st52" points="1019.6,790 1029.3,790 1033.5,894.5 1008.9,894.5 						"/>
						<polygon class="st52" points="891.5,790 901.3,790 905.5,894.5 880.8,894.5 						"/>
						<polygon class="st52" points="765.9,790 775.6,790 779.8,894.5 755.1,894.5 						"/>
					</g>
					<g>
						<circle class="st33" cx="693.9" cy="741.4" r="11.7"/>
						<circle class="st30" cx="758" cy="741.4" r="11.7"/>
						<circle class="st33" cx="822.1" cy="741.4" r="11.7"/>
						<circle class="st30" cx="886.2" cy="741.4" r="11.7"/>
						<circle class="st30" cx="1591.1" cy="741.4" r="11.7"/>
						<circle class="st33" cx="1527" cy="741.4" r="11.7"/>
						<circle class="st30" cx="1463" cy="741.4" r="11.7"/>
						<circle class="st33" cx="1398.9" cy="741.4" r="11.7"/>
						<circle class="st33" cx="1206.6" cy="741.4" r="11.7"/>
						<circle class="st30" cx="1142.5" cy="741.4" r="11.7"/>
						<circle class="st33" cx="1078.4" cy="741.4" r="11.7"/>
						<ellipse class="st30" cx="1014.4" cy="741.3" rx="11.7" ry="11.7"/>
						<circle class="st33" cx="950.3" cy="741.4" r="11.7"/>
					</g>
					<polygon class="st30" points="1587.5,740.1 1597.2,740.1 1597.2,894.5 1572.5,894.5 					"/>
					<polygon class="st30" points="1460.3,740.1 1470,740.1 1470,894.5 1445.3,894.5 					"/>
					<polygon class="st30" points="1138.9,740.1 1148.6,740.1 1148.6,894.5 1123.9,894.5 					"/>
					<polygon class="st30" points="1010.8,740.1 1020.5,740.1 1020.5,894.5 995.9,894.5 					"/>
					<polygon class="st30" points="882.8,740.1 892.5,740.1 892.5,894.5 867.8,894.5 					"/>
					<polygon class="st30" points="757.1,740.1 766.8,740.1 766.8,894.5 742.2,894.5 					"/>
					<g>
						<polygon class="st31" points="1666.5,890.6 501.9,890.6 500.5,906.2 1667.9,906.2 						"/>
						<polygon class="st34" points="692.4,890.6 488.3,890.6 486.7,906.2 685,906.2 						"/>
					</g>
					<rect x="1272.7" y="841" class="st32" width="72" height="29.8"/>
					<ellipse class="st32" cx="1349.1" cy="857" rx="21.3" ry="37.8"/>
					<g>
						<rect x="1202.3" y="560.2" class="st47" width="39" height="50.3"/>
						<polygon class="st27" points="1240.8,560.3 1222.4,585.6 1202.1,560.3 1202,560.3 1222.4,589.8 1241.3,560.3 						"/>
						<polygon class="st27" points="1202.4,610.5 1222.7,590.2 1241.2,610.5 1241.3,610.5 1223,586.9 1202,610.5 						"/>
						<rect x="1180.7" y="560.2" class="st26" width="22.6" height="50.3"/>
						<polygon class="st47" points="1202.6,560.3 1192.2,585.6 1180.8,560.3 1180.7,560.3 1192.2,589.8 1202.8,560.3 						"/>
						<polygon class="st47" points="1181,610.5 1192.4,590.2 1202.8,610.5 1202.8,610.5 1192.5,586.9 1180.7,610.5 						"/>
					</g>
					<path class="st53" d="M1191.7,571.6c0-4-1.4-7.3-3.1-7.3s-3.1,3.3-3.1,7.3s1.4,7.3,3.1,7.3
						C1190.3,578.9,1191.7,575.6,1191.7,571.6z"/>
					<path class="st33" d="M1190.8,571.6c0-4-1.4-7.3-3.1-7.3s-3.1,3.3-3.1,7.3s1.4,7.3,3.1,7.3
						C1189.4,578.9,1190.8,575.6,1190.8,571.6z"/>
					<path class="st53" d="M1107.3,608.4c0-4-1.4-7.3-3.1-7.3s-3.1,3.3-3.1,7.3s1.4,7.3,3.1,7.3S1107.3,612.4,1107.3,608.4z"/>
					<path class="st33" d="M1106,608.4c0-4-1.4-7.3-3.1-7.3s-3.1,3.3-3.1,7.3s1.4,7.3,3.1,7.3S1106,612.4,1106,608.4z"/>
					<g>
						<rect x="1210.8" y="471.7" class="st33" width="4.1" height="41"/>
						<path class="st33" d="M1235.2,453.3h-44.7v13.4c0,8.4,44.7,8.4,44.7,0V453.3z"/>
						<g>
							<g>
								<polygon class="st33" points="1169.3,574.9 1187.2,574.9 1187.2,568.1 1176.1,568.1 1176.1,544.4 1197.3,523.2 
									1217.8,523.2 1217.8,516.4 1194.5,516.4 1169.3,541.6 								"/>
							</g>
							<g>
								<polygon class="st33" points="1256.5,574.9 1238.6,574.9 1238.6,568.1 1249.7,568.1 1249.7,544.4 1228.5,523.2 1208,523.2 
									1208,516.4 1231.3,516.4 1256.5,541.6 								"/>
							</g>
						</g>
						<rect x="1205.4" y="507.4" class="st33" width="14.9" height="13.4"/>
						<path class="st33" d="M1206.7,473.7c0,3.5,2.8,6.3,6.3,6.3s6.3-2.8,6.3-6.3s-2.8-6.3-6.3-6.3S1206.7,470.2,1206.7,473.7z"/>
					</g>
					<path class="st34" d="M1243.2,854.3h85.3c7.2-157.3-11.1-280.6-56.7-388.1h-51.2c-2.6,0-4.5,2.3-3.9,4.8
						C1241.1,583.1,1248.5,732.4,1243.2,854.3z"/>
					<path class="st30" d="M1285.2,854.3h85.3c0-157.3-23.9-280.6-74.4-388.1h-56.2C1270.2,578.8,1284.9,730.6,1285.2,854.3z"/>
					<path class="st30" d="M1258.5,405.6c-20.7,0-37.4,16.8-37.4,37.4v16.2h74.8V443C1295.9,422.3,1279.1,405.6,1258.5,405.6z"/>
					<path class="st34" d="M1201.7,405.6c-20.7,0-37.4,16.8-37.4,37.4v16.2h74.8V443C1239.1,422.3,1222.4,405.6,1201.7,405.6z"/>
					<path class="st33" d="M1233.7,432.1c0-6.9-3.4-12.5-7.7-12.5c-4.2,0-7.7,5.6-7.7,12.5s3.4,12.5,7.7,12.5
						C1230.3,444.5,1233.7,439,1233.7,432.1z"/>
					<path class="st30" d="M1232.2,432.1c0-4.7-2.3-8.5-5.2-8.5c-2.9,0-5.2,3.8-5.2,8.5s2.3,8.5,5.2,8.5
						C1229.9,440.5,1232.2,436.7,1232.2,432.1z"/>
					<g>
						<rect x="1119" y="522.7" class="st33" width="3.5" height="35.1"/>
						<path class="st32" d="M1139.9,506.9h-38.3v11.5c0,7.2,38.3,7.2,38.3,0V506.9z"/>
						<g>
							<g>
								<polygon class="st33" points="1083.4,611.1 1103.2,611.1 1103.2,605.3 1089.3,605.3 1089.3,585 1107.4,566.9 1125,566.9 
									1125,561 1105,561 1083.4,582.6 								"/>
							</g>
						</g>
						<rect x="1114.4" y="553.3" class="st33" width="12.8" height="11.5"/>
						<path class="st32" d="M1115.5,524.4c0,3,2.4,5.4,5.4,5.4s5.4-2.4,5.4-5.4s-2.4-5.4-5.4-5.4S1115.5,521.4,1115.5,524.4z"/>
					</g>
					<path class="st30" d="M1129.5,475.7c-18.2,0-33,14.8-33,33v7.2h65.9v-7.2C1162.4,490.4,1147.7,475.7,1129.5,475.7z"/>
					<path class="st34" d="M1081.9,475.7c-18.2,0-33,14.8-33,33v7.2h65.9v-7.2C1114.8,490.4,1100.1,475.7,1081.9,475.7z"/>
					<polygon class="st31" points="1289.3,865.6 1379.8,865.6 1385,906.2 1289.3,906.2 					"/>
					<ellipse class="st32" cx="1264.5" cy="857" rx="21.3" ry="37.8"/>
					<rect x="847.7" y="570.8" class="st22" width="157.7" height="8.1"/>
					<rect x="847.7" y="347.5" class="st22" width="157.7" height="8.1"/>
					<path class="st31" d="M1282.3,856c0-16.2-7-29.3-15.6-29.3s-15.6,13.1-15.6,29.3s7,29.3,15.6,29.3S1282.3,872.2,1282.3,856z"/>
					<g>
						<circle class="st54" cx="1650.9" cy="641.1" r="3.2"/>
						<circle class="st54" cx="1650.9" cy="624.6" r="3.2"/>
						<path class="st54" d="M1654.2,608c0-1.8-1.5-3.2-3.2-3.2c-1.8,0-3.2,1.5-3.2,3.2c0,1.8,1.5,3.2,3.2,3.2
							C1652.7,611.3,1654.2,609.8,1654.2,608z"/>
						<path class="st54" d="M1654.2,591.5c0-1.8-1.5-3.2-3.2-3.2c-1.8,0-3.2,1.5-3.2,3.2c0,1.8,1.5,3.2,3.2,3.2
							S1654.2,593.3,1654.2,591.5z"/>
						<circle class="st54" cx="1650.9" cy="574.9" r="3.2"/>
						<path class="st54" d="M1654.2,558.4c0-1.8-1.5-3.2-3.2-3.2c-1.8,0-3.2,1.5-3.2,3.2c0,1.8,1.5,3.2,3.2,3.2
							C1652.7,561.6,1654.2,560.2,1654.2,558.4z"/>
						<circle class="st54" cx="1650.9" cy="541.8" r="3.2"/>
						<circle class="st54" cx="1650.9" cy="525.3" r="3.2"/>
						<path class="st54" d="M1654.2,508.7c0-1.8-1.5-3.2-3.2-3.2c-1.8,0-3.2,1.5-3.2,3.2c0,1.8,1.5,3.2,3.2,3.2
							C1652.7,512,1654.2,510.5,1654.2,508.7z"/>
						<circle class="st54" cx="1650.9" cy="492.2" r="3.2"/>
						<circle class="st54" cx="1650.9" cy="475.6" r="3.2"/>
						<path class="st54" d="M1654.2,459.1c0-1.8-1.5-3.2-3.2-3.2c-1.8,0-3.2,1.5-3.2,3.2c0,1.8,1.5,3.2,3.2,3.2
							C1652.7,462.3,1654.2,460.9,1654.2,459.1z"/>
						<circle class="st54" cx="1650.9" cy="442.5" r="3.2"/>
						<circle class="st54" cx="1650.9" cy="426" r="3.2"/>
					</g>
					<g>
						<path class="st54" d="M1463.7,706.4c1.1-1.4,0.8-3.5-0.6-4.5c-1.4-1.1-3.5-0.8-4.5,0.6c-1.1,1.4-0.8,3.5,0.6,4.5
							C1460.6,708.1,1462.6,707.8,1463.7,706.4z"/>
						<path class="st54" d="M1473.6,693.2c1.1-1.4,0.8-3.5-0.6-4.5s-3.5-0.8-4.5,0.6c-1.1,1.4-0.8,3.5,0.6,4.5
							C1470.5,694.9,1472.5,694.6,1473.6,693.2z"/>
						<path class="st54" d="M1483.5,679.9c1.1-1.4,0.8-3.5-0.6-4.5c-1.4-1.1-3.5-0.8-4.5,0.6c-1.1,1.4-0.8,3.5,0.6,4.5
							C1480.4,681.7,1482.5,681.4,1483.5,679.9z"/>
						<path class="st54" d="M1493.5,666.7c1.1-1.4,0.8-3.5-0.6-4.5c-1.4-1.1-3.5-0.8-4.5,0.6c-1.1,1.4-0.8,3.5,0.6,4.5
							C1490.3,668.4,1492.4,668.1,1493.5,666.7z"/>
						<path class="st54" d="M1503.4,653.5c1.1-1.4,0.8-3.5-0.6-4.5c-1.4-1.1-3.5-0.8-4.5,0.6c-1.1,1.4-0.8,3.5,0.6,4.5
							C1500.3,655.2,1502.3,654.9,1503.4,653.5z"/>
						<path class="st54" d="M1513.3,640.2c1.1-1.4,0.8-3.5-0.6-4.5c-1.4-1.1-3.5-0.8-4.5,0.6c-1.1,1.4-0.8,3.5,0.6,4.5
							C1510.2,641.9,1512.2,641.7,1513.3,640.2z"/>
						<path class="st54" d="M1523.2,627c1.1-1.4,0.8-3.5-0.6-4.5c-1.4-1.1-3.5-0.8-4.5,0.6c-1.1,1.4-0.8,3.5,0.6,4.5
							C1520.1,628.7,1522.2,628.4,1523.2,627z"/>
					</g>
					<path class="st55" d="M1194.1,418.1c2.3-2.9,4.4-5.8,6.4-8.7h-11.8c-11.4,0-20.7,9.2-20.7,20.7v10.8
						C1176.6,436.1,1185.9,428.3,1194.1,418.1z"/>
					<path class="st34" d="M1291,433.2c0-8.2-4.7-15.3-11.5-18.7c-3,6.1-3.4,15.6-0.7,25.6c1.5,5.3,3.7,10,6.2,13.8h5.9L1291,433.2
						L1291,433.2z"/>
					<path class="st31" d="M1118,524.4c0,1.6,1.3,2.9,2.9,2.9s2.9-1.3,2.9-2.9s-1.3-2.9-2.9-2.9S1118,522.8,1118,524.4z"/>
					<rect x="847.7" y="570.8" class="st28" width="26.2" height="8.1"/>
					<rect x="847.7" y="347.5" class="st28" width="26.2" height="8.1"/>
					<path class="st31" d="M689.6,436.3c0-4.7-2.7-8.5-5.9-8.5c-3.3,0-5.9,3.8-5.9,8.5s2.7,8.5,5.9,8.5
						C686.9,444.8,689.6,441,689.6,436.3z"/>
					<path class="st31" d="M620.4,433.1c0-4.7-2.7-8.5-5.9-8.5c-3.3,0-5.9,3.8-5.9,8.5s2.7,8.5,5.9,8.5S620.4,437.8,620.4,433.1z"/>
					<path class="st33" d="M619.1,433.1c0-2.7-1.5-4.9-3.4-4.9s-3.4,2.2-3.4,4.9c0,2.7,1.5,4.9,3.4,4.9S619.1,435.8,619.1,433.1z"/>
					<path class="st33" d="M688.4,436.1c0-2.7-1.5-4.9-3.4-4.9s-3.4,2.2-3.4,4.9c0,2.7,1.5,4.9,3.4,4.9
						C686.8,441,688.4,438.8,688.4,436.1z"/>
					<path class="st31" d="M628.8,486.3c0-4.7-2.7-8.5-5.9-8.5s-5.9,3.8-5.9,8.5s2.7,8.5,5.9,8.5S628.8,491,628.8,486.3z"/>
					<path class="st33" d="M627.6,486.1c0-2.7-1.5-4.9-3.4-4.9s-3.4,2.2-3.4,4.9c0,2.7,1.5,4.9,3.4,4.9
						C626.1,490.9,627.6,488.8,627.6,486.1z"/>
					<path class="st50" d="M789.2,505.5c-2.3-1.5-5.6-2.5-9.4-2.5c-2.6,0-5.1,0.5-7.1,1.3c2.3,2.3,5.4,3.8,9,3.8
						C784.5,508.1,787.1,507.1,789.2,505.5z"/>
					<path class="st50" d="M776.7,508.1c0,2.8,2.3,5,5,5c2.8,0,5-2.3,5-5c0-2.8-2.3-5-5-5C778.9,503.1,776.7,505.3,776.7,508.1z"/>
					<path class="st50" d="M778.9,508.1c0,1.5,1.2,2.8,2.8,2.8c1.5,0,2.8-1.2,2.8-2.8c0-1.5-1.2-2.8-2.8-2.8
						C780.2,505.3,778.9,506.6,778.9,508.1z"/>
				</g>
			</g>
		</g>
	</g>
</g>
</svg>
