<?xml version="1.0" encoding="utf-8"?>
<!-- Generator: Adobe Illustrator 24.3.0, SVG Export Plug-In . SVG Version: 6.00 Build 0)  -->
<svg version="1.1" id="Layer_1" xmlns="http://www.w3.org/2000/svg" xmlns:xlink="http://www.w3.org/1999/xlink" x="0px" y="0px"
	 viewBox="0 0 2000 1000" style="enable-background:new 0 0 2000 1000;" xml:space="preserve">
<style type="text/css">
	.st0{clip-path:url(#SVGID_2_);fill:url(#SVGID_3_);}
	.st1{opacity:0.3;clip-path:url(#SVGID_2_);}
	.st2{fill:#65ADC9;}
	.st3{clip-path:url(#SVGID_2_);}
	.st4{opacity:0.3;fill:#65ADC9;}
	.st5{clip-path:url(#SVGID_2_);fill:url(#SVGID_4_);}
	.st6{clip-path:url(#SVGID_2_);fill:url(#SVGID_5_);}
	.st7{clip-path:url(#SVGID_2_);fill:url(#SVGID_6_);}
	.st8{opacity:0.7;clip-path:url(#SVGID_2_);}
	.st9{fill:#FFFFFF;}
	.st10{fill:#688468;}
	.st11{fill:#4C684C;}
	.st12{fill:#89A589;}
	.st13{fill:#88AB48;}
	.st14{clip-path:url(#SVGID_2_);fill:#89A589;}
	.st15{opacity:0.6;clip-path:url(#SVGID_2_);fill:#FFFFFF;}
	.st16{fill:#231F20;}
	.st17{fill:#4F4F51;}
	.st18{fill:#222224;}
	.st19{fill:#BE892D;}
	.st20{fill:#AA7A26;}
	.st21{fill:#DFAF36;}
	.st22{fill:#B38E28;}
	.st23{fill:#5D4B0A;}
	.st24{fill:#5A5B5D;}
	.st25{fill:#DC9134;}
	.st26{fill:#473901;}
	.st27{fill:#E2C534;}
	.st28{fill:#633F02;}
	.st29{fill:#333536;}
	.st30{fill:#75767B;}
	.st31{fill:#232D22;}
	.st32{fill:#B0B1B8;}
	.st33{fill:#888B90;stroke:#212121;stroke-width:1.8325;stroke-miterlimit:10;}
	.st34{fill:#75767B;stroke:#212121;stroke-width:1.8325;stroke-miterlimit:10;}
	.st35{fill:#909197;stroke:#212121;stroke-width:1.8325;stroke-miterlimit:10;}
	.st36{fill:#888B90;}
	.st37{fill:#333436;}
	.st38{fill:none;stroke:#FFFFFF;stroke-width:0.6664;stroke-miterlimit:10;}
	.st39{fill:#888B90;stroke:#212121;stroke-width:0.6664;stroke-miterlimit:10;}
	.st40{fill:#837F7E;}
	.st41{fill:#260404;}
</style>
<g>
	<defs>
		<rect id="SVGID_1_" x="-0.8" width="2001.5" height="1000"/>
	</defs>
	<clipPath id="SVGID_2_">
		<use xlink:href="#SVGID_1_"  style="overflow:visible;"/>
	</clipPath>
	<linearGradient id="SVGID_3_" gradientUnits="userSpaceOnUse" x1="-6094.6494" y1="467.1098" x2="18564.4805" y2="569.7706">
		<stop  offset="0" style="stop-color:#DFFFDB"/>
		<stop  offset="7.735043e-02" style="stop-color:#C8F4E1"/>
		<stop  offset="0.2389" style="stop-color:#8DD7F0"/>
		<stop  offset="0.2574" style="stop-color:#86D4F2"/>
		<stop  offset="0.2647" style="stop-color:#8DD3F0"/>
		<stop  offset="0.2968" style="stop-color:#A9CEE7"/>
		<stop  offset="0.3251" style="stop-color:#B9CBE2"/>
		<stop  offset="0.3466" style="stop-color:#BFCAE0"/>
		<stop  offset="0.3523" style="stop-color:#ACB9D1"/>
		<stop  offset="0.3645" style="stop-color:#899BB6"/>
		<stop  offset="0.3779" style="stop-color:#6C819F"/>
		<stop  offset="0.3927" style="stop-color:#546C8C"/>
		<stop  offset="0.4094" style="stop-color:#415C7D"/>
		<stop  offset="0.429" style="stop-color:#345173"/>
		<stop  offset="0.4543" style="stop-color:#2C4A6D"/>
		<stop  offset="0.506" style="stop-color:#2A486B"/>
		<stop  offset="0.6679" style="stop-color:#2C437B"/>
		<stop  offset="0.7493" style="stop-color:#2D4085"/>
		<stop  offset="0.7624" style="stop-color:#324588"/>
		<stop  offset="0.7777" style="stop-color:#405291"/>
		<stop  offset="0.7941" style="stop-color:#57689F"/>
		<stop  offset="0.8111" style="stop-color:#7887B4"/>
		<stop  offset="0.8286" style="stop-color:#A1AECE"/>
		<stop  offset="0.8395" style="stop-color:#BFCAE0"/>
		<stop  offset="0.9333" style="stop-color:#DFFFDB"/>
	</linearGradient>
	<rect x="-0.9" y="-8" class="st0" width="2001.7" height="1009.4"/>
	<g class="st1">
		<path class="st2" d="M163.9,649.8c11.2-1.7,38.8-7.7,71.2-9.5c32.4-1.9,88.9-5.9,170.1-1.3c71.5,4,118.6,7.1,157.7,11.1
			c0.1-0.3,0.2-0.5,0.2-0.8c0.7-5.8-11.3-16.4-35.2-37.4c-19.5-17.2-36.4-26.2-51.7-34c-9.5-4.9-25.4-8.8-35.9-4.7
			c-2.1,0.8-3.8,1.9-6.4,2.2c-6.9,0.7-9.7-4.2-11.7-7.6c-3.9-6.7-17.4-11.8-31.3-11.7c-15.7,0.1-28.4,5.8-40.2,10.9
			c-11.8,5-26.8,9.9-42.1,7.9c-4.2-0.5-8.1-1.6-12.3-1.8c-6-0.4-11.9,0.8-17.1,2.3c-27.8,8.2-41.7,25.3-70.4,32.6
			c-16.7,4.3-15.2,1-31.3,6c-27.1,8.4-59.4,29.5-58.1,41.2C126.9,654.3,154.3,651.3,163.9,649.8z"/>
	</g>
	<g class="st1">
		<path class="st2" d="M1513.5,648c36,6.3,127.7,7.3,170.3,7.7c26.8,0.3,63.3-2.8,86.8-5.2c-3.8-3.1-9.3-7.8-16.3-16.4
			c-16.8-20.7-20.3-29.7-34.4-43.6c-6.3-6.2-16.8-11-23.7-5.3c-1.3,1.1-2.5,2.6-4.2,3.1c-4.5,1.1-6.4-5.3-7.8-9.8
			c-2.6-8.8-11.6-15.2-20.7-14.8c-10.4,0.5-18.6,8.3-26.4,15.2s-17.5,13.7-27.6,11.4c-2.7-0.6-5.3-1.9-8.1-2.2
			c-4-0.4-7.8,1.4-11.2,3.5c-18.2,11.4-27.2,34.2-46,44.6c-6.5,3.6-13.8,5.4-20.5,8.6c-4.5,2.1-8.4,2.6-12.1,3
			C1512.2,647.8,1512.9,647.8,1513.5,648z"/>
	</g>
	<g class="st3">
		<path class="st4" d="M1886.7,651.2c-0.1-0.1-0.3-0.2-0.4-0.2c-3.3-1.1-13.3,0.2-24.6,2.3C1869.7,652.3,1878.1,651.6,1886.7,651.2z
			"/>
		<path class="st4" d="M1390.7,654.7c172.2,22.2,282.9,18.9,282.9,18.9s66.3-3.2,107.6-8.1c10.8-1.3,21.4-3,32.1-4.8
			c-19.5-9.4-95.6-46.1-102.2-50.9c-7.5-5.5-100.1-5.4-100.1-5.4s-62.1-37.7-70.4-42.7c-8.3-5-41.3-6.9-41.3-6.9s-12.9-9.9-16.1-8.9
			c-3.2,1-23.6,22.8-23.6,22.8l-4.7-8.9l-57,49.6l-52.4,6c0,0-27.8,0-33.7,0s-43.7,17.9-43.7,17.9s-21.8-9.9-29.8-10.9
			c-4.3-0.5-38.2,11.6-68.4,22.9C1210.6,642.1,1284.1,641,1390.7,654.7z"/>
	</g>
	<g class="st3">
		<path class="st4" d="M1076.9,667.2c87.6-13.4,149.2-16.9,182.8-17.6l-57.9-64.3l-53.4,45.2l-44.6,13.3l-20.7,15.1l-45.7-29.3
			l-33.5,29.3c0,0-25.1-20.1-61.1-1.4c-15.8,8.2-30.4,16.5-42.8,23.3C950,681,1076.9,667.2,1076.9,667.2z"/>
		<path class="st4" d="M868.9,694.1c-2.8,0.3-4.1,0.5-3.3,0.6c0.9,0.1,2.1-0.1,3.3-0.3C868.9,694.3,868.9,694.2,868.9,694.1z"/>
	</g>
	<linearGradient id="SVGID_4_" gradientUnits="userSpaceOnUse" x1="-6240.3232" y1="695.1012" x2="6489.8896" y2="759.4417">
		<stop  offset="0" style="stop-color:#688468"/>
		<stop  offset="0.3883" style="stop-color:#89A589"/>
		<stop  offset="0.635" style="stop-color:#89A589"/>
		<stop  offset="0.8399" style="stop-color:#C5E4C2"/>
		<stop  offset="0.9972" style="stop-color:#BFCAE0"/>
	</linearGradient>
	<path class="st5" d="M2000.8,633.5c-28.6,6.6-52.8,13-75.4,17.4c-47.3,9.3-92.5,26.9-134.4,50.7c-38.7,21.9-80.7,42.9-80.8,40
		c1,49.2-182.4,22.6-129.9,96.3l420.5-63.9V633.5z"/>
	<linearGradient id="SVGID_5_" gradientUnits="userSpaceOnUse" x1="-6240.1265" y1="656.1672" x2="6490.0864" y2="720.5076">
		<stop  offset="0" style="stop-color:#688468"/>
		<stop  offset="0.3883" style="stop-color:#89A589"/>
		<stop  offset="0.635" style="stop-color:#89A589"/>
		<stop  offset="0.8399" style="stop-color:#C5E4C2"/>
		<stop  offset="0.9972" style="stop-color:#BFCAE0"/>
	</linearGradient>
	<path class="st6" d="M1950.1,653.6c-72.1,4.7-150.9,4.1-242.9-10.8c-58.7-9.5-109.9-18.1-154.7-25.1c-11-1.7-22-2.7-33.1-3
		c-58.4-1.6-117.8-3.3-177.4-4.9c-17.8-0.5-35.2,4.8-49.7,15.1c-62.8,44.8-304.9,31.8-429.8-3.4c-124.9-35.2-238.1-29.2-379.1,0
		c-108,22.4-162.2,14-330.1-7.6v0c-66.4,8.5-114.1,20.3-154.3,28.8v138.5l152.2-23.1v0l1823.4-21.7L1950.1,653.6z"/>
	<linearGradient id="SVGID_6_" gradientUnits="userSpaceOnUse" x1="-6181.5205" y1="738.7898" x2="18607.0254" y2="1086.9028">
		<stop  offset="2.508229e-02" style="stop-color:#5A8E54"/>
		<stop  offset="0.1075" style="stop-color:#FFF0CD"/>
		<stop  offset="0.1956" style="stop-color:#D8BB8D"/>
		<stop  offset="0.2265" style="stop-color:#D1B68C"/>
		<stop  offset="0.2727" style="stop-color:#BCA988"/>
		<stop  offset="0.3287" style="stop-color:#9A9281"/>
		<stop  offset="0.3922" style="stop-color:#6C7378"/>
		<stop  offset="0.4613" style="stop-color:#314C6C"/>
		<stop  offset="0.4686" style="stop-color:#2A486B"/>
		<stop  offset="0.8047" style="stop-color:#2A486B"/>
		<stop  offset="0.8192" style="stop-color:#445D77"/>
		<stop  offset="0.8502" style="stop-color:#889396"/>
		<stop  offset="0.8951" style="stop-color:#F4E8C8"/>
		<stop  offset="0.8994" style="stop-color:#FFF0CD"/>
		<stop  offset="0.9088" style="stop-color:#E4E0B9"/>
		<stop  offset="0.9274" style="stop-color:#B3C395"/>
		<stop  offset="0.9451" style="stop-color:#8CAC79"/>
		<stop  offset="0.9613" style="stop-color:#719B65"/>
		<stop  offset="0.9755" style="stop-color:#609258"/>
		<stop  offset="0.9862" style="stop-color:#5A8E54"/>
	</linearGradient>
	<polygon class="st7" points="-0.9,708.7 -0.9,1000 1960.8,1000 1954.4,1026.2 2000.8,1039.1 2000.8,668.3 	"/>
	<g class="st8">
		<path class="st9" d="M72.2,166.8c-6.9-5-15.5-10.5-35.1-13c-11.8-1.5-24.9-1.5-38.1-0.8v27.3h66.7
			C65.8,180.3,77.2,170.4,72.2,166.8z"/>
	</g>
	<g class="st3">
		<path class="st10" d="M1965.9,1010.8V783.9C1615.6,792,645,862.3,645,862.3l982.3,67.7l-816,80.7H1965.9z"/>
		<path class="st10" d="M2000.8,1065.8V783.9c-160.6-1.3-285,10.2-285,10.2l-204.2,59l172.2,0.9l-6.9,71.3L1562,1000l110.3,79
			l371.9,49.5v-62.7H2000.8z"/>
		<path class="st11" d="M1226.5,971.5c0,0,7.5-30.1,22.6-32c15.1-1.9,22.6,15.1,22.6,15.1s3.8-32,15.1-37.6
			c11.3-5.6,24.5,22.6,24.5,22.6s22.6-75.3,52.7-84.7c30.1-9.4,56.5,56.5,56.5,56.5s15.1-33.9,37.6-33.9c22.6,0,39.5,43.3,39.5,43.3
			s20.7-28.2,39.5-30.1c18.8-1.9,30.1,30.1,30.1,30.1s9.4-18.8,26.3-11.3c16.9,7.5,18.8,22.6,18.8,22.6L1226.5,971.5z"/>
		<g>
			<path class="st12" d="M1499,994.5c0,0-22.9-24.7,2.1-32.3c24.9-7.6,39.5,17.1,39.5,17.1s14.5-58.8,66.5-55
				c31,2.3,48.7,24.2,57.9,41.4c-1.7-17.2-3-37.5,0.3-38.4c11.3,16,13.8,48.7,13.8,48.7c3.8-21.8,39.5-65.3,52.1-64.7
				c-8.6,8.6-25.9,39.4-37,60c10.2-6.4,24.9-14.6,45.9-24.2c35.7-16.3,73.2-1.9,94.6,9.7c-7.1-6.1-13.5-14.5-13.5-24.9
				c0-22.8,51.9-19,51.9-19s-33.2-53.1-4.2-58.8c29.1-5.7,51.9,19,51.9,19s-14.5-81.6,35.3-72.1c3.4,0.7,6.7,1.5,9.8,2.6v207.2
				h-545.5C1454,983.2,1499,994.5,1499,994.5z"/>
			<g>
				<path class="st13" d="M1930.4,942.4c-52-100.2-139-175.8-139.9-176.5l1.6-1.8c0.9,0.8,88.3,76.6,140.5,177.2L1930.4,942.4z"/>
				<path class="st13" d="M1905.6,877.3c-3.3,5.5-4,11.8-2.4,17.6c5.8-1.4,11-5,14.3-10.5c3.3-5.5,4-11.8,2.4-17.6
					C1914.1,868.2,1908.9,871.8,1905.6,877.3z"/>
				<path class="st13" d="M1887.4,887c6.4,0.6,11.9,3.8,15.6,8.4c-4.5,3.9-10.5,6-16.9,5.4c-6.4-0.6-11.9-3.8-15.6-8.4
					C1875,888.5,1881,886.4,1887.4,887z"/>
				<path class="st13" d="M1890.1,855.9c-2.9,5.7-3.2,12.1-1.2,17.7c5.7-1.8,10.7-5.7,13.6-11.4c2.9-5.7,3.2-12.1,1.2-17.7
					C1897.9,846.3,1893,850.2,1890.1,855.9z"/>
				
					<ellipse transform="matrix(2.632748e-02 -0.9997 0.9997 2.632748e-02 949.6323 2722.4819)" class="st13" cx="1872.4" cy="873.8" rx="6.9" ry="16.3"/>
				<path class="st13" d="M1871.2,831.2c-2.9,5.7-3.2,12.1-1.2,17.7c5.7-1.8,10.7-5.7,13.6-11.4c2.9-5.7,3.2-12.1,1.2-17.7
					C1879.1,821.5,1874.1,825.5,1871.2,831.2z"/>
				<path class="st13" d="M1853.7,842.1c6.4,0.2,12.1,3,16.1,7.3c-4.2,4.2-10.1,6.7-16.5,6.5c-6.4-0.2-12.1-3-16.1-7.3
					C1841.5,844.4,1847.3,841.9,1853.7,842.1z"/>
				<path class="st13" d="M1850.2,805.5c-2.9,5.7-3.2,12.1-1.2,17.7c5.7-1.8,10.7-5.7,13.6-11.4c2.9-5.7,3.2-12.1,1.2-17.7
					C1858.1,795.8,1853.1,799.7,1850.2,805.5z"/>
				
					<ellipse transform="matrix(2.632597e-02 -0.9997 0.9997 2.632597e-02 961.3293 2633.5027)" class="st13" cx="1832.5" cy="823.3" rx="6.9" ry="16.3"/>
				<path class="st13" d="M1828.9,783.5c-2.9,5.7-3.2,12.1-1.2,17.7c5.7-1.8,10.7-5.7,13.6-11.4c2.9-5.7,3.2-12.1,1.2-17.7
					C1836.8,773.9,1831.8,777.8,1828.9,783.5z"/>
				
					<ellipse transform="matrix(2.632778e-02 -0.9997 0.9997 2.632778e-02 963.4557 2589.2717)" class="st13" cx="1810.9" cy="800.1" rx="6.9" ry="16.3"/>
				<path class="st13" d="M1808.2,762.2c-2.9,5.7-3.2,12.1-1.2,17.7c5.7-1.8,10.7-5.7,13.6-11.4c2.9-5.7,3.2-12.1,1.2-17.7
					C1816.1,752.5,1811.1,756.5,1808.2,762.2z"/>
				<path class="st13" d="M1779.6,764.7c5,4,11.2,5.6,17,4.8c-0.5-5.9-3.4-11.6-8.4-15.6c-5-4-11.2-5.6-17-4.8
					C1771.8,755,1774.6,760.7,1779.6,764.7z"/>
				<path class="st13" d="M1792.3,772.8c6.4,0.2,12.1,3,16.1,7.3c-4.2,4.1-10.1,6.7-16.5,6.5c-6.4-0.2-12.1-3-16.1-7.3
					C1780,775.1,1785.9,772.6,1792.3,772.8z"/>
			</g>
			<g>
				<path class="st13" d="M1876.4,951.2c-40.7-42.7-95.3-67.9-95.9-68.1l0.5-1.2c0.5,0.3,55.4,25.5,96.3,68.4L1876.4,951.2z"/>
				<path class="st13" d="M1854.5,922.1c-0.8,3.2-0.3,6.5,1.3,9.1c2.7-1.5,4.8-4.1,5.6-7.3c0.8-3.2,0.3-6.5-1.3-9.1
					C1857.5,916.3,1855.3,918.9,1854.5,922.1z"/>
				<path class="st13" d="M1846.8,929.6c3.3-0.6,6.5,0.2,9,1.9c-1.7,2.6-4.4,4.5-7.7,5.2c-3.3,0.6-6.5-0.2-9-1.9
					C1840.8,932.2,1843.5,930.3,1846.8,929.6z"/>
				<path class="st13" d="M1843.6,913.7c-0.6,3.3,0.2,6.5,2,9c2.6-1.7,4.5-4.4,5.1-7.7c0.6-3.3-0.2-6.5-2-9
					C1846.2,907.7,1844.2,910.4,1843.6,913.7z"/>
				<path class="st13" d="M1836.4,921.7c3.2-0.8,6.5-0.3,9.2,1.3c-1.5,2.7-4.1,4.8-7.3,5.7c-3.2,0.8-6.5,0.3-9.2-1.3
					C1830.6,924.7,1833.2,922.5,1836.4,921.7z"/>
				<path class="st13" d="M1830.6,904c-0.6,3.3,0.2,6.5,2,9c2.6-1.7,4.5-4.4,5.1-7.7c0.6-3.3-0.2-6.5-2-9
					C1833.1,898,1831.2,900.7,1830.6,904z"/>
				<path class="st13" d="M1823.4,912c3.2-0.8,6.5-0.3,9.2,1.3c-1.5,2.7-4.1,4.8-7.3,5.7c-3.2,0.8-6.5,0.3-9.2-1.3
					C1817.6,915,1820.2,912.9,1823.4,912z"/>
				<path class="st13" d="M1816.3,894.2c-0.6,3.3,0.2,6.5,2,9c2.6-1.7,4.5-4.4,5.1-7.7c0.6-3.3-0.2-6.5-2-9
					C1818.8,888.2,1816.9,890.9,1816.3,894.2z"/>
				<path class="st13" d="M1809.1,902.2c3.2-0.8,6.5-0.3,9.2,1.3c-1.5,2.7-4.1,4.8-7.3,5.7c-3.2,0.8-6.5,0.3-9.2-1.3
					C1803.3,905.1,1805.9,903,1809.1,902.2z"/>
				<path class="st13" d="M1802.4,886.3c-0.6,3.3,0.2,6.5,2,9c2.6-1.7,4.5-4.4,5.1-7.7c0.6-3.3-0.2-6.5-2-9
					C1804.9,880.3,1803,883,1802.4,886.3z"/>
				<path class="st13" d="M1794.9,893.7c3.2-0.8,6.5-0.3,9.2,1.3c-1.5,2.7-4.1,4.8-7.3,5.7c-3.2,0.8-6.5,0.3-9.2-1.3
					C1789.1,896.7,1791.6,894.6,1794.9,893.7z"/>
				<path class="st13" d="M1788.9,878.6c-0.6,3.3,0.2,6.5,2,9c2.6-1.7,4.5-4.4,5.1-7.7c0.6-3.3-0.2-6.5-2-9
					C1791.5,872.6,1789.5,875.3,1788.9,878.6z"/>
				<path class="st13" d="M1775,884.1c3.1,1.3,6.4,1.2,9.2-0.1c-1.1-2.9-3.4-5.3-6.5-6.6c-3.1-1.3-6.4-1.2-9.2,0.1
					C1769.6,880.3,1771.9,882.8,1775,884.1z"/>
				<path class="st13" d="M1782.5,886.2c3.2-0.8,6.5-0.3,9.2,1.3c-1.5,2.7-4.1,4.8-7.3,5.7c-3.2,0.8-6.5,0.3-9.2-1.3
					C1776.7,889.2,1779.2,887.1,1782.5,886.2z"/>
			</g>
			<path class="st12" d="M1213.8,1010.8c-18.7-25.9-44.4-12.5-44.4-12.5s3.8-30.1-16.3-27.6c-20.1,2.5-33.9,32.6-33.9,32.6
				s-10-45.2-51.4-43.9c-41.4,1.3-45.2,40.1-45.2,40.1s-2.5-21.3-16.3-17.6s-8.8,21.3-8.8,21.3s-15.1-26.3-25.1-18.8
				c-6.4,4.8-0.1,17.6,5.3,26.3H1213.8z"/>
		</g>
	</g>
	<path class="st14" d="M2000.8,808.8c-16.6-6.7-34.9-5.2-34.9-5.2s-31.6,75.5-33.4,82.2c-1.7,6.7-3.3,73.5-3.3,73.5l-17.7,51.5
		l38.2,54.5c0,0,20.7-1.8,51-4.5V808.8z"/>
	<path class="st15" d="M1584.7,315.3c13.2-23.2,34.9-29.3,72.2-16.5c-7.5-17,15-50.6,51.1-15c-10.8-57,74.7-63.6,70.5-8.4
		c21.4-26.7,77.9-11.5,55.9,20.3c33-8.2,46.4-0.5,68,19.7H1584.7z"/>
	<g class="st3">
		<g>
			<g>
				<rect x="347.6" y="333.7" class="st16" width="19.4" height="19.6"/>
			</g>
			<g>
				<rect x="344.8" y="315.9" class="st17" width="26.2" height="24.6"/>
				<rect x="346.9" y="317.4" class="st18" width="22.1" height="21.8"/>
			</g>
			<g>
				<g>
					<g>
						<g>
							<g>
								<rect x="454.1" y="789.2" class="st19" width="2.2" height="8.2"/>
								<rect x="445.5" y="789.2" class="st19" width="2.2" height="8.2"/>
							</g>
							<g>
								<rect x="454.1" y="757.9" class="st19" width="2.2" height="8.2"/>
								<rect x="445.5" y="757.9" class="st19" width="2.2" height="8.2"/>
							</g>
						</g>
						<g>
							<g>
								<polygon class="st20" points="441.1,789.5 461.3,766.3 459.9,765.8 439.7,789 								"/>
							</g>
							<rect x="437.1" y="788.3" class="st19" width="26.1" height="1.9"/>
							<rect x="437.1" y="765.1" class="st19" width="26.1" height="1.9"/>
							<rect x="437.1" y="796.4" class="st19" width="26.1" height="1.9"/>
						</g>
						<g>
							<g>
								<polygon class="st20" points="459.9,757.9 461.3,757.3 440.3,734.2 438.9,734.7 								"/>
							</g>
							<rect x="437.1" y="756.7" class="st19" width="26.1" height="1.9"/>
							<rect x="437.1" y="733.5" class="st19" width="26.1" height="1.9"/>
						</g>
					</g>
					<g>
						<g>
							<g>
								<rect x="454.1" y="726.3" class="st19" width="2.2" height="8.2"/>
								<rect x="445.5" y="726.3" class="st19" width="2.2" height="8.2"/>
							</g>
							<g>
								<rect x="454.1" y="694.9" class="st19" width="2.2" height="8.2"/>
								<rect x="445.5" y="694.9" class="st19" width="2.2" height="8.2"/>
							</g>
						</g>
						<g>
							<g>
								<polygon class="st20" points="441.1,726.5 461.3,703.3 459.9,702.8 439.7,726 								"/>
							</g>
							<rect x="437.1" y="725.3" class="st19" width="26.1" height="1.9"/>
							<rect x="437.1" y="702.2" class="st19" width="26.1" height="1.9"/>
						</g>
						<g>
							<g>
								<polygon class="st20" points="459.9,694.9 461.3,694.4 440.3,671.2 438.9,671.7 								"/>
							</g>
							<rect x="437.1" y="693.7" class="st19" width="26.1" height="1.9"/>
							<rect x="437.1" y="670.5" class="st19" width="26.1" height="1.9"/>
						</g>
					</g>
					<g>
						<g>
							<g>
								<rect x="454.1" y="663.7" class="st19" width="2.2" height="8.2"/>
								<rect x="445.5" y="663.7" class="st19" width="2.2" height="8.2"/>
							</g>
							<g>
								<rect x="454.1" y="632.3" class="st19" width="2.2" height="8.2"/>
								<rect x="445.5" y="632.3" class="st19" width="2.2" height="8.2"/>
							</g>
						</g>
						<g>
							<g>
								<polygon class="st20" points="441.1,663.9 461.3,640.8 459.9,640.2 439.7,663.4 								"/>
							</g>
							<rect x="437.1" y="662.7" class="st19" width="26.1" height="1.9"/>
							<rect x="437.1" y="639.6" class="st19" width="26.1" height="1.9"/>
						</g>
						<g>
							<g>
								<polygon class="st20" points="459.9,632.3 461.3,631.8 440.3,608.6 438.9,609.2 								"/>
							</g>
							<rect x="437.1" y="631.1" class="st19" width="26.1" height="1.9"/>
							<rect x="437.1" y="608" class="st19" width="26.1" height="1.9"/>
						</g>
					</g>
					<g>
						<g>
							<g>
								<rect x="454.1" y="600.7" class="st19" width="2.2" height="8.2"/>
								<rect x="445.5" y="600.7" class="st19" width="2.2" height="8.2"/>
							</g>
							<g>
								<rect x="454.1" y="569.4" class="st19" width="2.2" height="8.2"/>
								<rect x="445.5" y="569.4" class="st19" width="2.2" height="8.2"/>
							</g>
						</g>
						<g>
							<g>
								<polygon class="st20" points="441.1,601 461.3,577.8 459.9,577.3 439.7,600.5 								"/>
							</g>
							<rect x="437.1" y="599.8" class="st19" width="26.1" height="1.9"/>
							<rect x="437.1" y="576.6" class="st19" width="26.1" height="1.9"/>
						</g>
						<g>
							<g>
								<polygon class="st20" points="459.9,569.4 461.3,568.8 440.3,545.7 438.9,546.2 								"/>
							</g>
							<rect x="437.1" y="568.2" class="st19" width="26.1" height="1.9"/>
							<rect x="437.1" y="545" class="st19" width="26.1" height="1.9"/>
						</g>
					</g>
					<g>
						<g>
							<g>
								<rect x="454.1" y="537.8" class="st19" width="2.2" height="8.2"/>
								<rect x="445.5" y="537.8" class="st19" width="2.2" height="8.2"/>
							</g>
							<g>
								<rect x="454.1" y="506.4" class="st19" width="2.2" height="8.2"/>
								<rect x="445.5" y="506.4" class="st19" width="2.2" height="8.2"/>
							</g>
						</g>
						<g>
							<g>
								<polygon class="st20" points="441.1,538 461.3,514.9 459.9,514.3 439.7,537.5 								"/>
							</g>
							<rect x="437.1" y="536.8" class="st19" width="26.1" height="1.9"/>
							<rect x="437.1" y="513.7" class="st19" width="26.1" height="1.9"/>
						</g>
						<g>
							<g>
								<polygon class="st20" points="459.9,506.4 461.3,505.9 440.3,482.7 438.9,483.3 								"/>
							</g>
							<rect x="437.1" y="505.2" class="st19" width="26.1" height="1.9"/>
							<rect x="437.1" y="482" class="st19" width="26.1" height="1.9"/>
						</g>
					</g>
					<g>
						<g>
							<g>
								<rect x="454.1" y="474.8" class="st19" width="2.2" height="8.2"/>
								<rect x="445.5" y="474.8" class="st19" width="2.2" height="8.2"/>
							</g>
							<g>
								<rect x="454.1" y="443.5" class="st19" width="2.2" height="8.2"/>
								<rect x="445.5" y="443.5" class="st19" width="2.2" height="8.2"/>
							</g>
						</g>
						<g>
							<g>
								<polygon class="st20" points="441.1,475.1 461.3,451.9 459.9,451.4 439.7,474.6 								"/>
							</g>
							<rect x="437.1" y="473.9" class="st19" width="26.1" height="1.9"/>
							<rect x="437.1" y="450.7" class="st19" width="26.1" height="1.9"/>
						</g>
						<g>
							<g>
								<polygon class="st20" points="459.9,443.5 461.3,442.9 440.3,419.8 438.9,420.3 								"/>
							</g>
							<rect x="437.1" y="442.3" class="st19" width="26.1" height="1.9"/>
							<rect x="437.1" y="419.1" class="st19" width="26.1" height="1.9"/>
						</g>
					</g>
					<g>
						<g>
							<g>
								<rect x="454.1" y="412.2" class="st19" width="2.2" height="8.2"/>
								<rect x="445.5" y="412.2" class="st19" width="2.2" height="8.2"/>
							</g>
							<g>
								<rect x="454.1" y="380.9" class="st19" width="2.2" height="8.2"/>
								<rect x="445.5" y="380.9" class="st19" width="2.2" height="8.2"/>
							</g>
						</g>
						<g>
							<g>
								<polygon class="st20" points="441.1,412.5 461.3,389.3 459.9,388.8 439.7,412 								"/>
							</g>
							<rect x="437.1" y="411.3" class="st19" width="26.1" height="1.9"/>
							<rect x="437.1" y="388.1" class="st19" width="26.1" height="1.9"/>
						</g>
						<g>
							<g>
								<polygon class="st20" points="459.9,380.9 461.3,380.4 440.3,357.2 438.9,357.7 								"/>
							</g>
							<rect x="437.1" y="379.7" class="st19" width="26.1" height="1.9"/>
							<rect x="437.1" y="356.5" class="st19" width="26.1" height="1.9"/>
						</g>
					</g>
					<g>
						<g>
							<g>
								<rect x="454.1" y="349.3" class="st19" width="2.2" height="8.2"/>
								<rect x="445.5" y="349.3" class="st19" width="2.2" height="8.2"/>
							</g>
							<g>
								<rect x="454.1" y="317.9" class="st19" width="2.2" height="8.2"/>
								<rect x="445.5" y="317.9" class="st19" width="2.2" height="8.2"/>
							</g>
						</g>
						<g>
							<g>
								<polygon class="st20" points="441.1,349.6 461.3,326.4 459.9,325.9 439.7,349 								"/>
							</g>
							<rect x="437.1" y="348.3" class="st19" width="26.1" height="1.9"/>
							<rect x="437.1" y="325.2" class="st19" width="26.1" height="1.9"/>
						</g>
						<g>
							<rect x="437.1" y="316.7" class="st19" width="26.1" height="1.9"/>
						</g>
					</g>
					<rect x="460.2" y="312.9" class="st21" width="5.3" height="499.7"/>
					<rect x="435.6" y="312.9" class="st21" width="5.4" height="499.7"/>
					<rect x="432.5" y="307.9" class="st22" width="37.6" height="10"/>
					<rect x="432.5" y="313.8" class="st22" width="37.6" height="4.1"/>
				</g>
				<g>
					<rect x="422" y="316.7" class="st22" width="64.6" height="13"/>
					<rect x="422" y="316.7" class="st23" width="64.6" height="6.5"/>
					<g>
						<polygon class="st24" points="757.8,309.1 758.7,306.6 452.3,193.4 451.4,195.9 						"/>
						<polygon class="st24" points="346,308.8 451.1,196.5 559.5,295.7 561.3,293.7 451,192.8 344,307 						"/>
						<g>
							<polygon class="st25" points="436.7,315.6 437.5,315 423.2,294.1 422.3,294.7 							"/>
							<polygon class="st25" points="423.9,317 440.2,290.3 439.3,289.8 423,316.5 							"/>
						</g>
						<path class="st25" d="M343.7,306.8l95.8-18.7l41.7,0l277.1,18.5l1.2,0.1v11.4H343.7V306.8z M756.9,309.1l-275.8-18.4h-41.2
							L346.3,309v6.4h410.5V309.1z"/>
						<g>
							<path class="st22" d="M437.1,314c0.5,0,1-0.4,1.1-0.9l13.2-113.8L464.5,313c0.1,0.6,0.6,1,1.2,0.9c0.6-0.1,1-0.6,0.9-1.2
								l-14.2-123c-0.1-0.5-0.5-0.9-1.1-0.9c-0.5,0-1,0.4-1.1,0.9l-14.2,123c-0.1,0.6,0.3,1.1,0.9,1.2C437,314,437.1,314,437.1,314z
								"/>
							<path class="st22" d="M440,288.8h22.6c0.6,0,1.1-0.5,1.1-1.1c0-0.6-0.5-1.1-1.1-1.1H440c-0.6,0-1.1,0.5-1.1,1.1
								C438.9,288.3,439.4,288.8,440,288.8z"/>
							<path class="st22" d="M443,261.8h16c0.6,0,1.1-0.5,1.1-1.1c0-0.6-0.5-1.1-1.1-1.1h-16c-0.6,0-1.1,0.5-1.1,1.1
								C442,261.4,442.4,261.8,443,261.8z"/>
							<path class="st22" d="M457.9,261.8c0.1,0,0.2,0,0.3-0.1c0.6-0.2,0.9-0.8,0.7-1.4l-11.1-32.5c-0.2-0.6-0.8-0.9-1.4-0.7
								c-0.6,0.2-0.9,0.8-0.7,1.4l11.1,32.5C457.1,261.6,457.5,261.8,457.9,261.8z"/>
							<path class="st22" d="M444.3,261.8c0.4,0,0.9-0.3,1-0.7l11.5-32.5c0.2-0.6-0.1-1.2-0.7-1.4c-0.6-0.2-1.2,0.1-1.4,0.7
								l-11.5,32.5c-0.2,0.6,0.1,1.2,0.7,1.4C444.1,261.8,444.2,261.8,444.3,261.8z"/>
							<path class="st22" d="M440,288.8c0.3,0,0.7-0.1,0.9-0.4l19-26.4c0.3-0.5,0.2-1.1-0.2-1.5c-0.5-0.3-1.1-0.2-1.5,0.2l-19,26.4
								c-0.3,0.5-0.2,1.1,0.2,1.5C439.6,288.7,439.8,288.8,440,288.8z"/>
							<path class="st22" d="M462.1,288.8c0.2,0,0.4-0.1,0.6-0.2c0.5-0.3,0.6-1,0.3-1.5l-17.8-26c-0.3-0.5-1-0.6-1.5-0.3
								c-0.5,0.3-0.6,1-0.3,1.5l17.8,26C461.4,288.6,461.8,288.8,462.1,288.8z"/>
						</g>
						<g>
							<rect x="457.9" y="312.8" class="st26" width="22.8" height="3.9"/>
						</g>
						<g>
							<rect x="456.9" y="287.7" class="st21" width="26.2" height="27.6"/>
							<rect x="459" y="289.4" class="st27" width="22.1" height="24.5"/>
						</g>
						<rect x="726.2" y="305.8" class="st25" width="2.7" height="10"/>
						<rect x="694.1" y="303.1" class="st25" width="2.7" height="12.8"/>
						<rect x="652.2" y="300.9" class="st25" width="2.7" height="15"/>
						<rect x="568.7" y="295.3" class="st25" width="2.7" height="20.6"/>
						<rect x="511.5" y="291.5" class="st25" width="2.7" height="24.4"/>
						<rect x="421.5" y="292.4" class="st25" width="2.7" height="24.4"/>
						<rect x="392.1" y="298.4" class="st25" width="2.7" height="18.3"/>
						<g>
							<polygon class="st25" points="393.2,317.2 393.6,316.2 366.9,304.1 366.4,305 							"/>
							<polygon class="st25" points="366.1,316.4 393.7,300 393.1,299.1 367.2,314.5 367.2,304.6 366.1,304.6 							"/>
						</g>
						<polygon class="st25" points="345.3,317.2 365.9,305 365.3,304.1 344.7,316.3 						"/>
						<polygon class="st25" points="365.4,317.2 365.8,316.2 345.2,307.4 344.8,308.4 						"/>
						<g>
							<polygon class="st25" points="394.3,316.3 422.3,294.1 421.7,293.2 393.6,315.4 							"/>
							<polygon class="st25" points="422.5,316.3 423.1,315.4 393.6,299.1 393.1,300 							"/>
						</g>
						<polygon class="st25" points="513.9,316.4 569.5,296.6 569.1,295.6 513.5,315.4 						"/>
						<polygon class="st25" points="569.1,317.2 569.5,316.2 513,292.5 512.6,293.5 						"/>
						
							<rect x="477.5" y="304" transform="matrix(0.7809 -0.6246 0.6246 0.7809 -81.3549 377.1559)" class="st25" width="39" height="1.1"/>
						<polygon class="st25" points="511.9,316.3 512.6,315.5 482.1,289.7 481.4,290.5 						"/>
						<polygon class="st25" points="571.1,316.4 615.4,300 615.1,299 570.7,315.4 						"/>
						
							<rect x="592.4" y="281" transform="matrix(0.3961 -0.9182 0.9182 0.3961 77.1356 729.1848)" class="st25" width="1.1" height="49.9"/>
						<polygon class="st25" points="616.8,316.4 652.9,302.1 652.5,301.1 616.4,315.4 						"/>
						<rect x="613.9" y="298.4" class="st25" width="2.7" height="18.3"/>
						
							<rect x="633.4" y="288.5" transform="matrix(0.3853 -0.9228 0.9228 0.3853 104.7733 774.8707)" class="st25" width="1.1" height="40.7"/>
						
							<rect x="652.7" y="310.3" transform="matrix(0.9606 -0.278 0.278 0.9606 -59.824 199.622)" class="st25" width="42.8" height="1.1"/>
						<polygon class="st25" points="693.9,317.2 694.3,316.2 655.2,301 654.8,302 						"/>
						
							<rect x="695.9" y="310.8" transform="matrix(0.9418 -0.3363 0.3363 0.9418 -63.239 257.5068)" class="st25" width="32.1" height="1.1"/>
						<polygon class="st25" points="727.3,317.2 727.7,316.2 694.9,303.4 694.5,304.4 						"/>
						
							<rect x="728.8" y="312" transform="matrix(0.9563 -0.2925 0.2925 0.9563 -58.9225 231.0421)" class="st25" width="28.7" height="1.1"/>
						<polygon class="st25" points="758,317.2 758.4,316.2 727.7,305.3 727.4,306.3 						"/>
					</g>
				</g>
				<rect x="446.3" y="192.8" class="st26" width="9.4" height="9.4"/>
				<path class="st22" d="M448.3,197.5c0,1.6,1.3,2.9,2.9,2.9c1.6,0,2.9-1.3,2.9-2.9c0-1.6-1.3-2.9-2.9-2.9
					C449.6,194.6,448.3,195.9,448.3,197.5z"/>
			</g>
			<g>
				<path class="st27" d="M749.2,312.6c0,4.3,3.5,7.7,7.7,7.7c4.3,0,7.7-3.5,7.7-7.7c0-4.3-3.4-7.7-7.7-7.7
					C752.7,304.8,749.2,308.3,749.2,312.6z"/>
				<path class="st28" d="M751.4,312.6c0,3,2.5,5.5,5.5,5.5s5.5-2.5,5.5-5.5c0-3.1-2.5-5.5-5.5-5.5S751.4,309.5,751.4,312.6z"/>
				<path class="st25" d="M753.6,312.6c0,1.9,1.5,3.4,3.4,3.4c1.9,0,3.4-1.5,3.4-3.4c0-1.9-1.5-3.4-3.4-3.4
					C755.1,309.2,753.6,310.7,753.6,312.6z"/>
			</g>
			<rect x="429.9" y="329.7" class="st16" width="39.4" height="9.5"/>
			<g>
				<g>
					<rect x="415.5" y="798.9" class="st24" width="70" height="20.9"/>
					<rect x="415.5" y="798.9" class="st29" width="70" height="4.5"/>
				</g>
				<g>
					<rect x="395.3" y="816" class="st24" width="110.5" height="13.4"/>
					<rect x="395.3" y="816" class="st29" width="110.5" height="2.9"/>
				</g>
			</g>
		</g>
		<polygon class="st25" points="749.2,318.1 749.2,342.1 751.4,342.1 751.4,317.3 		"/>
		<polygon class="st25" points="761.8,318.1 761.8,342.1 764.1,342.1 764.1,317.3 		"/>
		<path class="st30" d="M750.3,342.4c0,0-2.2-1.6-1.1,6.1c1.1,7.8,1.7,7.3,1.7,7.3s3.1,6.9-1.7,11.2s-11.5,20.5,4.3,29.5
			c15.8,9,28.6-2.9,28.6-2.9s6.1-8.5,1.5-10.7c0,0-2.8-1.5-4.8,2.5s-9,10.9-18.3,4.8c-9.3-6.1-5.3-19.9,1.7-24.5c0,0,3.3-3.2,3-10.8
			s1.3-12.7-1.3-12.9c-2.6-0.2-7.1-1.2-7.1-1.2L750.3,342.4z"/>
		<g>
			<path class="st31" d="M749.2,342.4c0,4.4,3.6,8,8,8c4.4,0,8-3.6,8-8c0-4.4-3.6-8-8-8C752.8,334.3,749.2,337.9,749.2,342.4z"/>
			<path class="st32" d="M751.5,342.4c0,3.2,2.6,5.8,5.8,5.8c3.2,0,5.8-2.6,5.8-5.8c0-3.2-2.6-5.8-5.8-5.8
				C754.1,336.6,751.5,339.2,751.5,342.4z"/>
		</g>
		<g>
			<g>
				<polygon class="st33" points="638.5,447.9 638.5,622.3 1001.9,622.3 1001.9,445 638.5,445 				"/>
				<g>
					<path class="st33" d="M394.3,467.5h224.5v175.1h274.7l83.3,1.1v254.7H389.3V472.6C389.3,469.8,391.5,467.5,394.3,467.5z"/>
				</g>
				<rect x="564.2" y="860.4" class="st34" width="127.4" height="22.8"/>
				<rect x="554.6" y="883.2" class="st35" width="151.6" height="25.4"/>
			</g>
			<g>
				<rect x="751.2" y="474.1" class="st9" width="104.6" height="125.7"/>
				<rect x="759.2" y="480.6" class="st36" width="40.7" height="113.8"/>
				<rect x="807.8" y="480.6" class="st36" width="40.7" height="113.8"/>
			</g>
			<g>
				<rect x="427.9" y="493.4" class="st9" width="104.6" height="125.7"/>
				<rect x="435.9" y="500" class="st36" width="40.7" height="113.8"/>
				<rect x="484.6" y="500" class="st36" width="40.7" height="113.8"/>
			</g>
			<g>
				<rect x="427.9" y="682.4" class="st9" width="104.6" height="156.7"/>
				<rect x="435.9" y="690.5" class="st36" width="40.7" height="141.9"/>
				<rect x="484.6" y="690.5" class="st36" width="40.7" height="141.9"/>
			</g>
			<g>
				<rect x="739.9" y="682.4" class="st9" width="104.6" height="156.7"/>
				<rect x="747.9" y="690.5" class="st36" width="40.7" height="141.9"/>
				<rect x="796.5" y="690.5" class="st36" width="40.7" height="141.9"/>
			</g>
			<rect x="587.4" y="679.3" class="st37" width="84.8" height="181.2"/>
			<path class="st38" d="M616.3,799.2h-9.4c-5.2,0-9.4-4.2-9.4-9.4v-89.9c0-5.2,4.2-9.4,9.4-9.4h9.4c5.2,0,9.4,4.2,9.4,9.4v89.9
				C625.7,795,621.5,799.2,616.3,799.2z"/>
			<path class="st38" d="M651.7,799.2h-9.4c-5.2,0-9.4-4.2-9.4-9.4v-89.9c0-5.2,4.2-9.4,9.4-9.4h9.4c5.2,0,9.4,4.2,9.4,9.4v89.9
				C661.1,795,656.9,799.2,651.7,799.2z"/>
			<path class="st38" d="M616.3,853h-9.4c-5.2,0-9.4-4.2-9.4-9.4v-29.3c0-5.2,4.2-9.4,9.4-9.4h9.4c5.2,0,9.4,4.2,9.4,9.4v29.3
				C625.7,848.8,621.5,853,616.3,853z"/>
			<path class="st38" d="M651.7,853h-9.4c-5.2,0-9.4-4.2-9.4-9.4v-29.3c0-5.2,4.2-9.4,9.4-9.4h9.4c5.2,0,9.4,4.2,9.4,9.4v29.3
				C661.1,848.8,656.9,853,651.7,853z"/>
			<polygon class="st39" points="668.7,445 766.1,389.4 925.9,445 916.5,445 765.7,393.1 677.8,445 			"/>
		</g>
	</g>
	<g class="st3">
		<path class="st40" d="M1058.4,122c-1.5-0.8-1.7-0.7-3.3-0.1c-1.7,0.7-1.8,1.2-2.4,2.8c-0.3,0.8-0.5,1.6-0.7,2.4
			c-0.2,0.9-0.3,1.9-0.4,2.8c2-4.4,6.5-6.4,10.6-4c-0.5-0.9-1.1-1.8-1.9-2.5C1059.7,122.8,1059.1,122.3,1058.4,122z"/>
		<path class="st40" d="M1038.1,131.3c3.1-2,7.5-2.4,11.1-1.4c-1.6-1.4-3.4-2.7-5.6-3.1C1040.5,126.2,1039.4,129,1038.1,131.3z"/>
		<path class="st41" d="M1063.9,127.1c-0.9-3.5-4.7-7.4-8.7-7.1c-3.6,0.3-4.8,6.4-4.7,9.9c-1.9-2.3-5-4.8-7.9-4.6
			c-3.4,0.3-4.6,4.3-6.3,6.6c-0.2,0.3,0,0.6,0.2,0.7c0,0.2,0.2,0.4,0.4,0.3c2.2-0.9,4.2-1.9,6.6-2.3c2.6-0.3,4.9,0.1,7.4,0.8
			c0,0,0,0,0,0c0.1,0.1,0.2,0.1,0.3,0.1c0.3,0,0.5-0.2,0.5-0.5c1.2-1.8,2.1-3.8,4.2-4.8c2.5-1.2,5-0.2,7,1.5
			C1063.5,128.3,1064.2,127.7,1063.9,127.1C1063.9,127.2,1063.9,127.1,1063.9,127.1z M1038.1,131.3c1.3-2.3,2.4-5,5.5-4.5
			c2.2,0.4,4,1.6,5.6,3.1C1045.6,128.9,1041.2,129.2,1038.1,131.3z M1051.5,129.8c0.1-0.9,0.2-1.9,0.4-2.8c0.2-0.8,0.4-1.6,0.7-2.4
			c0.6-1.6,0.8-2.1,2.4-2.8c1.6-0.7,1.8-0.7,3.3,0.1c0.7,0.4,1.3,0.8,1.9,1.3c0.8,0.8,1.4,1.6,1.9,2.5
			C1058,123.5,1053.5,125.5,1051.5,129.8z"/>
	</g>
	<g class="st3">
		<path class="st40" d="M188.4,437.8c-1.5-0.8-1.7-0.7-3.3-0.1c-1.7,0.7-1.8,1.2-2.4,2.8c-0.3,0.8-0.5,1.6-0.7,2.4
			c-0.2,0.9-0.3,1.9-0.4,2.8c2-4.4,6.5-6.4,10.6-4c-0.5-0.9-1.1-1.8-1.9-2.5C189.7,438.6,189.1,438.1,188.4,437.8z"/>
		<path class="st40" d="M168.1,447.1c3.1-2,7.5-2.4,11.1-1.4c-1.6-1.4-3.4-2.7-5.6-3.1C170.6,442,169.4,444.8,168.1,447.1z"/>
		<path class="st41" d="M194,442.9c-0.9-3.5-4.7-7.4-8.7-7.1c-3.6,0.3-4.8,6.4-4.7,9.9c-1.9-2.3-5-4.8-7.9-4.6
			c-3.4,0.3-4.6,4.3-6.3,6.6c-0.2,0.3,0,0.6,0.2,0.7c0,0.2,0.2,0.4,0.4,0.3c2.2-0.9,4.2-1.9,6.6-2.3c2.6-0.3,4.9,0.1,7.4,0.8
			c0,0,0,0,0,0c0.1,0.1,0.2,0.1,0.3,0.1c0.3,0,0.5-0.2,0.5-0.5c1.2-1.8,2.1-3.8,4.2-4.8c2.5-1.2,5-0.2,7,1.5
			C193.5,444.1,194.2,443.5,194,442.9C194,443,194,443,194,442.9z M168.1,447.1c1.3-2.3,2.4-5,5.5-4.5c2.2,0.4,4,1.6,5.6,3.1
			C175.6,444.7,171.2,445.1,168.1,447.1z M181.5,445.7c0.1-0.9,0.2-1.9,0.4-2.8c0.2-0.8,0.4-1.6,0.7-2.4c0.6-1.6,0.8-2.1,2.4-2.8
			c1.6-0.7,1.8-0.7,3.3,0.1c0.7,0.4,1.3,0.8,1.9,1.3c0.8,0.8,1.4,1.6,1.9,2.5C188,439.3,183.6,441.3,181.5,445.7z"/>
	</g>
	<g class="st3">
		<path class="st40" d="M1560.4,416.5c-1.5-0.8-1.7-0.7-3.3-0.1c-1.7,0.7-1.8,1.2-2.4,2.8c-0.3,0.8-0.5,1.6-0.7,2.4
			c-0.2,0.9-0.3,1.9-0.4,2.8c2-4.4,6.5-6.4,10.6-4c-0.5-0.9-1.1-1.8-1.9-2.5C1561.7,417.3,1561.1,416.8,1560.4,416.5z"/>
		<path class="st40" d="M1540.1,425.8c3.1-2,7.5-2.4,11.1-1.4c-1.6-1.4-3.4-2.7-5.6-3.1C1542.5,420.7,1541.4,423.5,1540.1,425.8z"/>
		<path class="st41" d="M1565.9,421.6c-0.9-3.5-4.7-7.4-8.7-7.1c-3.6,0.3-4.8,6.4-4.7,9.9c-1.9-2.3-5-4.8-7.9-4.6
			c-3.4,0.3-4.6,4.3-6.3,6.6c-0.2,0.3,0,0.6,0.2,0.7c0,0.2,0.2,0.4,0.4,0.3c2.2-0.9,4.2-1.9,6.6-2.3c2.6-0.3,4.9,0.1,7.4,0.8
			c0,0,0,0,0,0c0.1,0.1,0.2,0.1,0.3,0.1c0.3,0,0.5-0.2,0.5-0.5c1.2-1.8,2.1-3.8,4.2-4.8c2.5-1.2,5-0.2,7,1.5
			C1565.5,422.8,1566.2,422.2,1565.9,421.6C1566,421.7,1566,421.7,1565.9,421.6z M1540.1,425.8c1.3-2.3,2.4-5,5.5-4.5
			c2.2,0.4,4,1.6,5.6,3.1C1547.6,423.4,1543.2,423.8,1540.1,425.8z M1553.5,424.4c0.1-0.9,0.2-1.9,0.4-2.8c0.2-0.8,0.4-1.6,0.7-2.4
			c0.6-1.6,0.8-2.1,2.4-2.8c1.6-0.7,1.8-0.7,3.3,0.1c0.7,0.4,1.3,0.8,1.9,1.3c0.8,0.8,1.4,1.6,1.9,2.5
			C1560,418,1555.5,420,1553.5,424.4z"/>
	</g>
</g>
</svg>
