<?xml version="1.0" encoding="UTF-8" standalone="no"?>
<!-- Created with Inkscape (http://www.inkscape.org/) -->

<svg
   width="63.499996mm"
   height="31.749975mm"
   viewBox="0 0 63.499996 31.749976"
   version="1.1"
   id="svg1"
   inkscape:version="1.3 (0e150ed6c4, 2023-07-21)"
   sodipodi:docname="lowcoden-paths.svg"
   inkscape:export-filename="lowcoden.png"
   inkscape:export-xdpi="96"
   inkscape:export-ydpi="96"
   xmlns:inkscape="http://www.inkscape.org/namespaces/inkscape"
   xmlns:sodipodi="http://sodipodi.sourceforge.net/DTD/sodipodi-0.dtd"
   xmlns="http://www.w3.org/2000/svg"
   xmlns:svg="http://www.w3.org/2000/svg">
  <sodipodi:namedview
     id="namedview1"
     pagecolor="#ffffff"
     bordercolor="#000000"
     borderopacity="0.25"
     inkscape:showpageshadow="2"
     inkscape:pageopacity="0.0"
     inkscape:pagecheckerboard="0"
     inkscape:deskcolor="#d1d1d1"
     inkscape:document-units="mm"
     inkscape:zoom="2.0632156"
     inkscape:cx="522.97007"
     inkscape:cy="222.46827"
     inkscape:window-width="3440"
     inkscape:window-height="1362"
     inkscape:window-x="0"
     inkscape:window-y="0"
     inkscape:window-maximized="1"
     inkscape:current-layer="layer1"
     showgrid="false" />
  <defs
     id="defs1" />
  <g
     inkscape:label="Layer 1"
     inkscape:groupmode="layer"
     id="layer1"
     transform="translate(-109.30433,-211.76642)">
    <g
       id="g2"
       inkscape:export-filename="lowcoden-logo-light-sq.svg"
       inkscape:export-xdpi="96"
       inkscape:export-ydpi="96"
       transform="matrix(0.99218579,0,0,0.99218579,0.85412648,1.6547863)">
      <path
         d="m 173.30434,243.76645 h -8.88647 l -8.33926,-19.89605 h -0.17511 c 0.13133,1.76562 0.21888,3.32695 0.26266,4.684 0.0584,1.35705 0.0876,2.49521 0.0876,3.4145 v 11.79755 h -7.06977 v -32.00003 h 8.8208 l 8.29549,19.34886 h 0.1751 c -0.0875,-1.60511 -0.16051,-3.05701 -0.21888,-4.35568 -0.0583,-1.29868 -0.0875,-2.42955 -0.0875,-3.39262 v -11.60056 h 7.13544 z"
         id="text8"
         style="font-weight:800;font-stretch:condensed;font-size:44.8263px;font-family:'Open Sans';-inkscape-font-specification:'Open Sans, Ultra-Bold Condensed';fill:#701a75;stroke-width:0"
         aria-label="N"
         inkscape:export-filename="lowcoden-logo-light-sq.svg"
         inkscape:export-xdpi="96"
         inkscape:export-ydpi="96"
         sodipodi:nodetypes="cccccscccccccsccc" />
      <path
         d="M 109.30438,227.76648 V 211.7665 h 3.80847 v 12.72775 h 4.16963 v 3.27223 z m 19.09709,-6.22708 c 0,0.79526 -0.0875,1.57593 -0.26265,2.342 -0.16781,0.75877 -0.4487,1.44824 -0.84268,2.06839 -0.39398,0.62015 -0.91564,1.11628 -1.56498,1.48837 -0.64204,0.3648 -1.44094,0.5472 -2.39671,0.5472 -0.87551,0 -1.63064,-0.17875 -2.26539,-0.53625 -0.63475,-0.3648 -1.1564,-0.84998 -1.56497,-1.45554 -0.40857,-0.61286 -0.71136,-1.30233 -0.90835,-2.0684 -0.19699,-0.77337 -0.29548,-1.56862 -0.29548,-2.38577 0,-1.18923 0.17145,-2.26538 0.51436,-3.22845 0.34291,-0.97035 0.88645,-1.74007 1.63064,-2.30916 0.75148,-0.56908 1.72913,-0.85362 2.93296,-0.85362 1.50297,0 2.71409,0.55449 3.63338,1.66347 0.91932,1.10029 1.38258,2.66023 1.38978,4.67982 6e-5,0.016 9e-5,0.0319 9e-5,0.0479 z m -6.43501,0.0438 c 0,2.25444 0.46329,3.38166 1.38988,3.38166 0.51071,0 0.86457,-0.28454 1.06156,-0.85362 0.20428,-0.56909 0.30642,-1.42636 0.30642,-2.57182 0,-1.13087 -0.10214,-1.97355 -0.30642,-2.52804 -0.19699,-0.56179 -0.55085,-0.84268 -1.06156,-0.84268 -0.48153,0 -0.83539,0.27725 -1.06156,0.83174 -0.21888,0.55449 -0.32832,1.41541 -0.32832,2.58276 z m 16.79888,6.1833 -0.8974,-5.47195 c -0.0949,-0.54719 -0.17875,-1.14181 -0.25171,-1.78385 -0.0729,-0.64205 -0.13862,-1.22572 -0.19699,-1.75103 h -0.0875 c -0.0803,0.59827 -0.15686,1.22207 -0.22982,1.87141 -0.0657,0.64204 -0.13863,1.18923 -0.21888,1.64158 l -0.94117,5.49384 h -4.10396 l -2.58276,-12.39943 h 3.63337 l 0.6238,3.88508 c 0.11674,0.61286 0.21159,1.30597 0.28454,2.07934 0.0803,0.76607 0.13498,1.50661 0.16416,2.22161 h 0.0985 c 0.0438,-0.58367 0.10217,-1.20748 0.1751,-1.87141 0.0803,-0.66393 0.20064,-1.39352 0.36115,-2.18878 l 0.71135,-4.12584 h 4.19151 l 0.70041,4.19151 c 0.12403,0.80985 0.23347,1.56497 0.32832,2.26538 0.0949,0.69311 0.15686,1.26949 0.18605,1.72914 h 0.0875 c 0.0438,-0.69311 0.10581,-1.41541 0.18604,-2.16689 0.0803,-0.75148 0.1824,-1.46283 0.30643,-2.13406 l 0.66758,-3.88508 h 3.56771 l -2.5937,12.39943 z"
         id="text7"
         style="font-weight:800;font-stretch:condensed;font-size:22.4131px;font-family:'Open Sans';-inkscape-font-specification:'Open Sans, Ultra-Bold Condensed';stroke-width:0"
         aria-label="Low"
         sodipodi:nodetypes="cccccccscscscccsccscsssccscscsccsccccccccccccccccccccccccccc" />
      <path
         style="font-weight:800;font-stretch:condensed;font-size:19.1057px;font-family:'Open Sans';-inkscape-font-specification:'Open Sans, Ultra-Bold Condensed';stroke-width:0"
         d="m 113.53968,243.76644 c -1.42422,0 -2.48772,-0.43535 -3.1905,-1.30605 -0.69657,-0.8707 -1.04485,-2.24206 -1.04485,-4.11407 0,-1.02619 0.14615,-1.95597 0.43846,-2.78936 0.29853,-0.83339 0.76498,-1.49574 1.39935,-1.98706 0.63437,-0.49755 1.4522,-0.74632 2.45351,-0.74632 0.58461,0 1.11325,0.0684 1.58592,0.20524 0.47889,0.1306 0.92668,0.32962 1.34337,0.59705 l -0.82094,2.46284 c -0.62815,-0.41669 -1.25941,-0.62504 -1.89378,-0.62504 -0.41669,0 -0.75254,0.24877 -1.00753,0.74632 -0.24877,0.49755 -0.37316,1.20966 -0.37316,2.13633 0,1.85957 0.48511,2.78936 1.45532,2.78936 0.79607,0 1.58592,-0.31097 2.36955,-0.9329 v 2.63077 c -0.75253,0.62193 -1.65744,0.93289 -2.71472,0.93289 z m 12.65006,-5.49475 c 0,0.67791 -0.0746,1.34337 -0.22389,1.9964 -0.14305,0.64681 -0.38249,1.23453 -0.71833,1.76317 -0.33585,0.52864 -0.78053,0.95155 -1.33404,1.26874 -0.5473,0.31096 -1.22832,0.46644 -2.04305,0.46644 -0.74631,0 -1.39001,-0.15237 -1.93109,-0.45712 -0.54108,-0.31096 -0.98576,-0.72454 -1.33404,-1.24075 -0.34828,-0.52242 -0.60638,-1.11014 -0.7743,-1.76317 -0.16792,-0.65925 -0.25188,-1.33715 -0.25188,-2.03371 0,-1.01375 0.14615,-1.93109 0.43846,-2.75204 0.29231,-0.82717 0.75564,-1.4833 1.39001,-1.96841 0.64059,-0.48511 1.47397,-0.72766 2.50016,-0.72766 1.28118,0 2.31358,0.47267 3.09721,1.418 0.78985,0.94533 1.18478,2.2887 1.18478,4.03011 z m -5.48542,0.0373 c 0,1.92176 0.39492,2.88264 1.18477,2.88264 0.43535,0 0.73699,-0.24255 0.90491,-0.72766 0.17414,-0.4851 0.26121,-1.21587 0.26121,-2.1923 0,-0.96399 -0.0871,-1.68232 -0.26121,-2.15499 -0.16792,-0.47889 -0.46956,-0.71833 -0.90491,-0.71833 -0.41047,0 -0.71211,0.23633 -0.90491,0.709 -0.18657,0.47267 -0.27986,1.20655 -0.27986,2.20164 z m 9.87936,5.45743 c -1.00131,0 -1.77561,-0.49443 -2.32291,-1.4833 -0.5473,-0.98887 -0.82095,-2.32602 -0.82095,-4.01145 0,-1.69165 0.27054,-3.02258 0.81162,-3.99279 0.5473,-0.97021 1.29362,-1.45532 2.23895,-1.45532 0.49133,0 0.92357,0.12128 1.29672,0.36383 0.37938,0.24255 0.71211,0.63748 0.9982,1.18478 h 0.0933 c -0.0249,-0.47889 -0.0466,-0.88625 -0.0653,-1.2221 -0.0187,-0.33584 -0.028,-0.60327 -0.028,-0.80229 v -3.28379 h 3.09722 v 14.51585 h -2.48151 l -0.44779,-1.03551 h -0.16792 c -0.33584,0.44157 -0.65924,0.75565 -0.97021,0.94222 -0.31097,0.18658 -0.72144,0.27987 -1.23142,0.27987 z m 1.01685,-2.57479 c 0.42291,0 0.72455,-0.20835 0.90491,-0.62504 0.18658,-0.42291 0.27987,-1.10704 0.27987,-2.05237 v -0.60638 c 0,-0.83961 -0.0933,-1.45221 -0.27987,-1.8378 -0.18036,-0.39182 -0.47578,-0.58773 -0.88625,-0.58773 -0.70278,0 -1.05417,0.91735 -1.05417,2.75204 0,1.97152 0.34517,2.95728 1.03551,2.95728 z m 9.93534,-8.34941 c 1.26252,0 2.24206,0.41669 2.93862,1.25008 0.70279,0.82717 1.05418,2.01505 1.05418,3.56366 v 1.62324 h -5.04697 c 0,0.709 0.14615,1.2252 0.43846,1.5486 0.29853,0.31719 0.75254,0.47578 1.36203,0.47578 0.48511,0 0.93601,-0.0622 1.3527,-0.18658 0.41669,-0.12439 0.86759,-0.33584 1.3527,-0.63437 v 2.52815 c -0.45401,0.26743 -0.94223,0.46022 -1.46465,0.57839 -0.52242,0.11817 -1.08838,0.17725 -1.69787,0.17725 -1.52995,0 -2.6432,-0.46334 -3.33977,-1.39001 -0.69034,-0.92667 -1.03551,-2.27004 -1.03551,-4.03011 0,-1.76628 0.34206,-3.1252 1.02619,-4.07675 0.69034,-0.95155 1.7103,-1.42733 3.05989,-1.42733 z m 0.0746,2.38821 c -0.3234,0 -0.59394,0.13993 -0.81161,0.4198 -0.21146,0.27987 -0.31719,0.76498 -0.31719,1.45532 h 2.18298 c 0,-0.67169 -0.0964,-1.15057 -0.2892,-1.43666 -0.1928,-0.29231 -0.44779,-0.43846 -0.76498,-0.43846 z"
         id="text6"
         aria-label="code"
         sodipodi:nodetypes="scsccscccscssccsscscscccsccscssscscscsssscscccssccccccssscsscsssscscccssccsscscssccccs" />
    </g>
  </g>
</svg>
