<?xml version="1.0" encoding="utf-8"?>
<!-- Generator: Adobe Illustrator 24.3.0, SVG Export Plug-In . SVG Version: 6.00 Build 0)  -->
<svg version="1.1" id="Layer_1" xmlns="http://www.w3.org/2000/svg" xmlns:xlink="http://www.w3.org/1999/xlink" x="0px" y="0px"
	 viewBox="0 0 2000 1000" style="enable-background:new 0 0 2000 1000;" xml:space="preserve">
<style type="text/css">
	.st0{clip-path:url(#SVGID_2_);}
	.st1{fill:url(#SVGID_3_);}
	.st2{opacity:0.5;fill:#65ADC9;}
	.st3{fill:#FFFFFF;}
	.st4{opacity:0.6;}
	.st5{fill:url(#SVGID_4_);}
	.st6{fill:url(#SVGID_5_);}
	.st7{opacity:0.7;}
	.st8{fill:#00606B;}
	.st9{fill:#837F7E;}
	.st10{fill:#260404;}
	.st11{fill:url(#SVGID_6_);}
	.st12{opacity:0.3;fill:#65ADC9;}
	.st13{opacity:0.3;}
	.st14{fill:#65ADC9;}
	.st15{fill:#65311A;}
	.st16{fill:#DB89C6;}
	.st17{fill:#A565A0;}
	.st18{fill:#ABC7F4;}
	.st19{fill:#FFA6B5;}
	.st20{fill:#FFFF52;}
	.st21{fill:#85D651;}
	.st22{fill:#FF6666;}
	.st23{fill:#FFCE31;}
	.st24{fill:#D8356B;}
	.st25{fill:#894E87;}
	.st26{fill:#ED9811;}
	.st27{fill:#F7CD1E;}
	.st28{fill:#68AF3A;}
	.st29{fill:#7A9DE2;}
	.st30{fill:#CCB969;}
	.st31{fill:#B5925B;}
	.st32{fill:#CCCDDD;}
	.st33{fill:#DD4A7B;}
	.st34{fill:#5AB741;}
	.st35{fill:#C9C993;}
	.st36{fill:#FFF0CD;}
	.st37{fill:none;stroke:#65311A;stroke-width:0.833;stroke-miterlimit:10;}
	.st38{fill:none;stroke:#65311A;stroke-width:1.4993;stroke-linecap:round;stroke-linejoin:round;stroke-miterlimit:10;}
	.st39{fill:none;stroke:#65311A;stroke-width:0.6664;stroke-miterlimit:10;}
	.st40{fill:none;stroke:#65311A;stroke-width:0.9995;stroke-miterlimit:10;}
	.st41{fill:#65311A;stroke:#65311A;stroke-width:0.6664;stroke-miterlimit:10;}
	.st42{fill:#F7DFAD;}
	.st43{fill:#E45B37;}
	.st44{fill:#14272B;}
	.st45{fill:#214148;}
</style>
<g>
	<defs>
		<rect id="SVGID_1_" x="-0.19" y="0" width="2000.19" height="1000"/>
	</defs>
	<clipPath id="SVGID_2_">
		<use xlink:href="#SVGID_1_"  style="overflow:visible;"/>
	</clipPath>
	<g class="st0">
		<linearGradient id="SVGID_3_" gradientUnits="userSpaceOnUse" x1="-2000.77" y1="487.5052" x2="22429.2871" y2="589.2123">
			<stop  offset="0" style="stop-color:#DFFFDB"/>
			<stop  offset="0.0774" style="stop-color:#C8F4E1"/>
			<stop  offset="0.2389" style="stop-color:#8DD7F0"/>
			<stop  offset="0.2574" style="stop-color:#86D4F2"/>
			<stop  offset="0.2647" style="stop-color:#8DD3F0"/>
			<stop  offset="0.2968" style="stop-color:#A9CEE7"/>
			<stop  offset="0.3251" style="stop-color:#B9CBE2"/>
			<stop  offset="0.3466" style="stop-color:#BFCAE0"/>
			<stop  offset="0.3523" style="stop-color:#ACB9D1"/>
			<stop  offset="0.3645" style="stop-color:#899BB6"/>
			<stop  offset="0.3779" style="stop-color:#6C819F"/>
			<stop  offset="0.3927" style="stop-color:#546C8C"/>
			<stop  offset="0.4094" style="stop-color:#415C7D"/>
			<stop  offset="0.429" style="stop-color:#345173"/>
			<stop  offset="0.4543" style="stop-color:#2C4A6D"/>
			<stop  offset="0.506" style="stop-color:#2A486B"/>
			<stop  offset="0.6679" style="stop-color:#2C437B"/>
			<stop  offset="0.7493" style="stop-color:#2D4085"/>
			<stop  offset="0.7624" style="stop-color:#324588"/>
			<stop  offset="0.7777" style="stop-color:#405291"/>
			<stop  offset="0.7941" style="stop-color:#57689F"/>
			<stop  offset="0.8111" style="stop-color:#7887B4"/>
			<stop  offset="0.8286" style="stop-color:#A1AECE"/>
			<stop  offset="0.8395" style="stop-color:#BFCAE0"/>
			<stop  offset="0.9333" style="stop-color:#DFFFDB"/>
		</linearGradient>
		<rect x="-0.19" y="0" class="st1" width="2001.34" height="1000"/>
		<path class="st2" d="M1499.98,650.35c-81.95,16.55-195.78,28.98-390.88,4.63c-195.1-24.35-369.96-25.95-445.36-12.2
			c-25.47,4.64-53.65,7.88-79.81,10.13c-18.53,2.07-39.92,3.41-63.48,4.05c-19.11,0.82-31.35,1-31.35,1l0.25-0.55
			c-75.14,0.02-167.86-6.52-263.9-20.57c-86.1-12.6-163.68-10.59-225.64-5.15v116.98c43.64,6.17,108.56,20.73,157.54,45.81
			c55.91,28.63,96.64,33.5,134.69,39.47c38.05,5.97,125.6-0.85,125.6-0.85s114.83-11.85,196.2,7.26
			c81.38,19.12,196.48-9.49,196.48-9.49l51.02-12.92c103-22.84,235.32-25.55,284.27-22.6c48.94,2.94,264.08-22.44,264.08-22.44
			s192.26-20.26,226.4-23.86c34.14-3.6,172.42-17.91,172.42-17.91s-69.85,16.96,4.62-0.47c74.47-17.43,150.98-16.94,150.98-16.94
			C1845.43,620.64,1581.94,633.8,1499.98,650.35z"/>
		<g>
			<g>
				<path class="st3" d="M501.52,683.34c2.34-0.06,4.68-0.08,7.02-0.1c2.34-0.02,4.68-0.05,7.02-0.01c4.68,0.04,9.36,0.1,14.04,0.03
					c4.68-0.07,9.36-0.07,14.04-0.07c2.34-0.02,4.68,0.01,7.02,0.04c2.34,0.02,4.68,0.05,7.02,0.1v0.03
					c-2.34,0.06-4.68,0.08-7.02,0.1c-2.34,0.03-4.68,0.06-7.02,0.04c-4.68,0-9.36-0.01-14.04-0.07c-4.68-0.07-9.36-0.01-14.04,0.04
					c-2.34,0.04-4.68,0.01-7.02-0.01c-2.34-0.02-4.68-0.03-7.02-0.1V683.34z"/>
			</g>
			<g class="st4">
				<path class="st3" d="M377.47,685.32c1.64-0.06,3.27-0.08,4.91-0.1c1.64-0.02,3.27-0.05,4.91-0.02c3.27,0.07,6.55,0.11,9.82,0.05
					c3.27-0.05,6.55-0.1,9.82-0.08c3.27,0.01,6.55,0.06,9.82,0.16v0.03c-3.27,0.09-6.55,0.14-9.82,0.16
					c-3.27,0.02-6.55-0.03-9.82-0.08c-3.27-0.06-6.55-0.02-9.82,0.05c-1.64,0.02-3.27,0-4.91-0.02c-1.64-0.02-3.27-0.03-4.91-0.1
					V685.32z"/>
			</g>
			<g>
				<path class="st3" d="M581.38,694.84c3.95-0.06,7.91-0.08,11.86-0.1c3.96-0.02,7.91-0.05,11.86-0.01
					c7.91,0.04,15.82,0.1,23.73,0.04c7.91-0.07,15.82-0.07,23.73-0.07c3.95-0.02,7.91,0.01,11.86,0.04l11.86,0.1v0.03l-11.86,0.1
					c-3.95,0.03-7.91,0.06-11.86,0.04c-7.91,0-15.82-0.01-23.73-0.07c-7.91-0.07-15.82-0.01-23.73,0.04
					c-3.96,0.04-7.91,0.01-11.86-0.01c-3.95-0.02-7.91-0.03-11.86-0.1V694.84z"/>
			</g>
			<g>
				<path class="st3" d="M833.92,720.01l17.35-0.1c5.78-0.02,11.56-0.05,17.35-0.01c11.57,0.04,23.13,0.1,34.7,0.04l34.7-0.07
					l17.35,0.04l17.35,0.1v0.03l-17.35,0.1l-17.35,0.04l-34.7-0.07c-11.57-0.07-23.13-0.01-34.7,0.03
					c-5.78,0.04-11.56,0.01-17.35-0.01l-17.35-0.1V720.01z"/>
			</g>
			<g>
				<path class="st3" d="M389.08,725.96l21.07-0.1c7.02-0.02,14.05-0.05,21.07-0.01c14.05,0.04,28.1,0.1,42.15,0.04l42.15-0.07
					c14.05-0.02,28.1,0.1,42.15,0.15v0.03c-14.05,0.04-28.1,0.17-42.15,0.15l-42.15-0.07c-14.05-0.07-28.1-0.01-42.15,0.04
					c-7.02,0.04-14.05,0.01-21.07-0.01l-21.07-0.1V725.96z"/>
			</g>
			<g>
				<path class="st3" d="M505.67,733.66l14.7-0.1c4.9-0.02,9.8-0.05,14.7-0.01c9.8,0.04,19.6,0.1,29.4,0.03l29.4-0.07l14.7,0.04
					l14.7,0.1v0.03l-14.7,0.1l-14.7,0.04l-29.4-0.07c-9.8-0.07-19.6-0.01-29.4,0.03c-4.9,0.04-9.8,0.01-14.7-0.01l-14.7-0.1V733.66z
					"/>
			</g>
			<g>
				<path class="st3" d="M705.93,771.72l19.34-0.1c6.45-0.02,12.89-0.05,19.34-0.01c12.89,0.04,25.78,0.1,38.67,0.03l38.67-0.07
					c12.89-0.02,25.78,0.1,38.67,0.15v0.03c-12.89,0.04-25.78,0.17-38.67,0.15l-38.67-0.07c-12.89-0.07-25.78-0.01-38.67,0.03
					c-6.45,0.04-12.89,0.01-19.34-0.01l-19.34-0.1V771.72z"/>
			</g>
			<g>
				<path class="st3" d="M613.84,783.03l19.34-0.1c6.45-0.02,12.89-0.05,19.34-0.01c12.89,0.04,25.78,0.1,38.67,0.04l38.67-0.07
					c12.89-0.02,25.78,0.1,38.67,0.15v0.03c-12.89,0.04-25.78,0.17-38.67,0.15l-38.67-0.07c-12.89-0.07-25.78-0.01-38.67,0.04
					c-6.45,0.04-12.89,0.01-19.34-0.01l-19.34-0.1V783.03z"/>
			</g>
		</g>
		<linearGradient id="SVGID_4_" gradientUnits="userSpaceOnUse" x1="-2239.333" y1="732.9423" x2="10490.8799" y2="797.2827">
			<stop  offset="0" style="stop-color:#688468"/>
			<stop  offset="0.3883" style="stop-color:#89A589"/>
			<stop  offset="0.635" style="stop-color:#89A589"/>
			<stop  offset="0.8399" style="stop-color:#C5E4C2"/>
			<stop  offset="0.9972" style="stop-color:#BFCAE0"/>
		</linearGradient>
		<path class="st5" d="M2000,653.76c-19.36,4.67-36.8,8.97-53.31,12.21c-47.27,9.29-92.49,26.92-134.41,50.66
			c-38.73,21.94-80.69,42.92-80.75,40.03c0.97,49.22-182.43,22.58-129.95,96.3L2000,792.44V653.76z"/>
		<linearGradient id="SVGID_5_" gradientUnits="userSpaceOnUse" x1="-2087.7754" y1="811.92" x2="22470.4961" y2="1156.7992">
			<stop  offset="0.0251" style="stop-color:#5A8E54"/>
			<stop  offset="0.1075" style="stop-color:#FFF0CD"/>
			<stop  offset="0.1956" style="stop-color:#D8BB8D"/>
			<stop  offset="0.2265" style="stop-color:#D1B68C"/>
			<stop  offset="0.2727" style="stop-color:#BCA988"/>
			<stop  offset="0.3287" style="stop-color:#9A9281"/>
			<stop  offset="0.3922" style="stop-color:#6C7378"/>
			<stop  offset="0.4613" style="stop-color:#314C6C"/>
			<stop  offset="0.4686" style="stop-color:#2A486B"/>
			<stop  offset="0.8047" style="stop-color:#2A486B"/>
			<stop  offset="0.8192" style="stop-color:#445D77"/>
			<stop  offset="0.8502" style="stop-color:#889396"/>
			<stop  offset="0.8951" style="stop-color:#F4E8C8"/>
			<stop  offset="0.8994" style="stop-color:#FFF0CD"/>
			<stop  offset="0.9088" style="stop-color:#E4E0B9"/>
			<stop  offset="0.9274" style="stop-color:#B3C395"/>
			<stop  offset="0.9451" style="stop-color:#8CAC79"/>
			<stop  offset="0.9613" style="stop-color:#719B65"/>
			<stop  offset="0.9755" style="stop-color:#609258"/>
			<stop  offset="0.9862" style="stop-color:#5A8E54"/>
		</linearGradient>
		<path class="st6" d="M1246.15,793.12c-62.18,11.09-180.85,30.44-234.6,18.65c-60.59-13.3-167.03,49.56-235.11,53.09
			c-68.08,3.54-186.55-19.19-228.6-25.64c-42.05-6.45-222.46,10.74-309.93,20.7c-101.94,11.61-130.63-67.23-149.61-81.36
			c-9.29-6.92-46.07-13.48-88.49-19.09v239.21h2001.34V711.9C1808.96,730.28,1298.01,783.87,1246.15,793.12z"/>
		<g class="st7">
			<path class="st3" d="M930.11,368.59c-6.83-4.98-15.32-10.44-34.79-12.84c-22.4-2.77-49.38-0.34-72.54,2.04
				c-23.17,2.38-50.61,4.65-72.47,1.65c-8.39-1.15-14.78-2.97-22.23-4.44c-18.04-3.58-42.86-5.12-65.89-4.09
				c-49.1,2.2-83.79,14.92-133.74,15.14c-10.74,0.05-21.59-0.51-32.15-0.04c-17.47,0.78-31.63,4.67-32.49,8.91v7h459.91
				C923.73,381.92,935.04,372.18,930.11,368.59z"/>
		</g>
		<g>
			<g>
				<path class="st8" d="M399.34,786.42c0.02,2.08,0.31,4.14,0.87,6.14c0.07,0.25,0.44,0.11,0.37-0.13
					c-0.56-1.97-0.86-3.99-0.89-6.04C399.69,786.16,399.34,786.19,399.34,786.42L399.34,786.42z"/>
			</g>
		</g>
		<g>
			<g>
				<path class="st8" d="M268.1,700.53c0.16,0.62,0.32,1.24,0.48,1.87c0.04,0.16,0.27,0.07,0.24-0.08
					c-0.16-0.62-0.32-1.24-0.48-1.87C268.3,700.29,268.06,700.38,268.1,700.53L268.1,700.53z"/>
			</g>
		</g>
		<g>
			<g>
				<path class="st8" d="M271.45,699.08c0.01,0.98-0.32,1.94-0.92,2.72c-0.1,0.13,0.09,0.29,0.19,0.16
					c0.63-0.83,0.96-1.85,0.93-2.89C271.66,698.93,271.45,698.95,271.45,699.08L271.45,699.08z"/>
			</g>
		</g>
		<g>
			<g>
				<path class="st8" d="M294.77,680.83c-0.3,1.33,0.02,2.83,0.92,3.88c0.15,0.18,0.46-0.02,0.31-0.21
					c-0.79-1.03-1.15-2.32-0.88-3.6C295.16,680.67,294.82,680.61,294.77,680.83L294.77,680.83z"/>
			</g>
		</g>
		<g>
			<g>
				<path class="st8" d="M83.59,699.15c0.21,1.69,0.42,3.37,0.64,5.06c0.03,0.2,0.34,0.17,0.31-0.03c-0.23-1.69-0.45-3.37-0.68-5.06
					C83.83,698.95,83.56,698.98,83.59,699.15L83.59,699.15z"/>
			</g>
		</g>
		<g>
			<g>
				<path class="st8" d="M60.62,688.4c-0.32,1.36-0.18,2.8,0.39,4.07c0.07,0.16,0.33,0.07,0.25-0.09c-0.55-1.24-0.67-2.61-0.36-3.93
					C60.95,688.27,60.67,688.22,60.62,688.4L60.62,688.4z"/>
			</g>
		</g>
		<g>
			<path class="st3" d="M-0.19,243.21h107.8c0,0-15.58-31.04-69.37-32.17c16.77-21.93-4.61-36.52-38.43-32.88V243.21z"/>
		</g>
		<path class="st3" d="M1185.49,142.28c13.07-23.01,34.54-28.98,71.52-16.35c-7.45-16.87,14.87-50.09,50.6-14.91
			c-10.72-56.48,74-63.02,69.82-8.37c21.18-26.41,77.14-11.4,55.38,20.14c32.69-8.11,45.92-0.53,67.4,19.48H1185.49z"/>
		<g>
			<path class="st9" d="M320.54,472.3c-1.52-0.78-1.65-0.74-3.27-0.08c-1.67,0.68-1.83,1.14-2.41,2.74
				c-0.28,0.77-0.53,1.58-0.71,2.38c-0.21,0.92-0.32,1.85-0.44,2.78c2.02-4.31,6.45-6.32,10.55-4c-0.47-0.92-1.04-1.77-1.86-2.51
				C321.84,473.1,321.22,472.65,320.54,472.3z"/>
			<path class="st9" d="M300.43,481.54c3.05-2.01,7.42-2.35,11.03-1.41c-1.62-1.42-3.39-2.63-5.56-3.03
				C302.86,476.54,301.73,479.24,300.43,481.54z"/>
			<path class="st10" d="M326.04,477.42c-0.85-3.5-4.69-7.37-8.57-7.04c-3.56,0.3-4.71,6.3-4.67,9.76c-1.93-2.27-4.94-4.75-7.8-4.53
				c-3.41,0.26-4.56,4.24-6.2,6.59c-0.2,0.29-0.05,0.57,0.2,0.69c0.03,0.18,0.18,0.35,0.38,0.27c2.18-0.87,4.14-1.93,6.5-2.25
				c2.55-0.35,4.87,0.11,7.3,0.83c0.01,0.01,0.02,0.02,0.03,0.03c0.1,0.1,0.23,0.09,0.34,0.06c0.27,0.01,0.46-0.24,0.47-0.49
				c1.22-1.75,2.11-3.73,4.15-4.71c2.43-1.17,4.99-0.18,6.89,1.5c0.5,0.44,1.21-0.15,0.98-0.64
				C326.04,477.46,326.05,477.44,326.04,477.42z M300.43,481.54c1.3-2.3,2.42-5,5.46-4.44c2.17,0.4,3.94,1.61,5.56,3.03
				C307.86,479.19,303.49,479.53,300.43,481.54z M313.71,480.12c0.11-0.93,0.23-1.86,0.44-2.78c0.18-0.8,0.43-1.61,0.71-2.38
				c0.58-1.6,0.74-2.06,2.41-2.74c1.62-0.66,1.75-0.71,3.27,0.08c0.68,0.35,1.3,0.8,1.86,1.31c0.81,0.74,1.38,1.59,1.86,2.51
				C320.16,473.81,315.73,475.81,313.71,480.12z"/>
		</g>
		<g>
			<path class="st9" d="M1724.01,138.93c-1.52-0.78-1.65-0.74-3.27-0.08c-1.67,0.68-1.83,1.14-2.41,2.74
				c-0.28,0.77-0.53,1.58-0.71,2.38c-0.21,0.92-0.32,1.85-0.44,2.78c2.02-4.31,6.45-6.32,10.55-4c-0.47-0.92-1.04-1.77-1.86-2.51
				C1725.3,139.72,1724.68,139.27,1724.01,138.93z"/>
			<path class="st9" d="M1703.89,148.16c3.05-2.01,7.42-2.35,11.03-1.41c-1.62-1.42-3.39-2.63-5.56-3.03
				C1706.32,143.16,1705.19,145.86,1703.89,148.16z"/>
			<path class="st10" d="M1729.5,144.04c-0.85-3.5-4.69-7.37-8.57-7.04c-3.56,0.3-4.71,6.3-4.67,9.76c-1.93-2.27-4.94-4.75-7.8-4.53
				c-3.41,0.26-4.56,4.24-6.2,6.59c-0.2,0.29-0.05,0.57,0.2,0.69c0.03,0.18,0.18,0.35,0.38,0.27c2.18-0.87,4.14-1.93,6.5-2.25
				c2.55-0.35,4.87,0.11,7.3,0.83c0.01,0.01,0.02,0.02,0.03,0.03c0.1,0.1,0.23,0.09,0.34,0.06c0.27,0.01,0.46-0.24,0.47-0.49
				c1.22-1.75,2.11-3.73,4.15-4.71c2.43-1.17,4.99-0.18,6.89,1.5c0.5,0.44,1.21-0.15,0.98-0.64
				C1729.5,144.08,1729.51,144.06,1729.5,144.04z M1703.89,148.16c1.3-2.3,2.42-5,5.46-4.44c2.17,0.4,3.94,1.61,5.56,3.03
				C1711.32,145.81,1706.95,146.15,1703.89,148.16z M1717.17,146.74c0.11-0.93,0.23-1.86,0.44-2.78c0.18-0.8,0.43-1.61,0.71-2.38
				c0.58-1.6,0.74-2.06,2.41-2.74c1.62-0.66,1.75-0.71,3.27,0.08c0.68,0.35,1.3,0.8,1.86,1.31c0.81,0.74,1.38,1.59,1.86,2.51
				C1723.62,140.43,1719.19,142.43,1717.17,146.74z"/>
		</g>
		<g>
			<path class="st9" d="M762.17,102.65c-2.44,0.31-2.9,3.34-3.32,5.43c2.45-1.86,5.5-2.47,8.48-1.82
				C766.05,104.45,764.37,102.38,762.17,102.65z"/>
			<path class="st9" d="M776.23,100.33c-1.38-1.14-3.08-1.32-4.42,0.05c-0.94,0.97-1.54,2.23-2.03,3.54
				c0.59-0.84,1.31-1.57,2.28-2.02c1.76-0.83,3.9-0.5,5.66,0.34C777.3,101.56,776.88,100.86,776.23,100.33z"/>
			<path class="st10" d="M779.12,103.15c-0.43-2.78-3.69-5.94-6.65-4.67c-2.52,1.08-4,4.89-4.32,7.69
				c-1.24-2.29-3.26-5.02-5.97-4.55c-3.18,0.55-4.25,4.3-4.23,7.07c0,0.33,0.39,0.46,0.61,0.3c2.88-1.93,6.26-2.57,9.59-1.54
				c0.02,0.03,0.04,0.06,0.06,0.08c0.16,0.23,0.44,0.14,0.52-0.05c0.11-0.07,0.17-0.2,0.19-0.34c0.86-1.46,1.79-3.05,3.26-3.93
				c2.21-1.32,4.31-0.31,6.47,0.47c0.28,0.1,0.46-0.11,0.48-0.34c0.01-0.04,0.02-0.07,0.02-0.12c0-0.01-0.01-0.02-0.01-0.04
				C779.12,103.18,779.12,103.17,779.12,103.15z M758.84,108.08c0.42-2.08,0.89-5.12,3.32-5.43c2.2-0.28,3.89,1.8,5.15,3.61
				C764.34,105.61,761.29,106.21,758.84,108.08z M772.07,101.9c-0.97,0.46-1.69,1.18-2.28,2.02c0.48-1.31,1.08-2.57,2.03-3.54
				c1.33-1.37,3.03-1.2,4.42-0.05c0.65,0.53,1.06,1.23,1.5,1.91C775.97,101.4,773.84,101.07,772.07,101.9z"/>
		</g>
		<g>
			<path class="st9" d="M242.76,192.98c-1.89-0.05-2.85,1.49-3.41,3.08c1.9-1.45,4.84-1.2,6.96-0.12
				C245.53,194.51,244.48,193.03,242.76,192.98z"/>
			<path class="st9" d="M249.94,192.08c-1.07,0.93-1.84,2.23-2.42,3.54c1.53-2.01,4.23-2.71,6.67-2.19
				C253.28,191.8,251.86,190.41,249.94,192.08z"/>
			<path class="st10" d="M251.14,190.14c-2.21,0.38-3.68,2.94-4.4,5.07c-0.85-1.74-2.13-3.35-4.24-3.28
				c-2.76,0.09-4.17,2.92-4.59,5.29c-0.11,0.64,0.83,0.93,1,0.27c0.02-0.06,0.04-0.13,0.05-0.2c1.16-0.52,2.18-1.14,3.53-1.22
				c1.57-0.1,2.98,0.42,4.22,1.35c0.4,0.29,0.77-0.11,0.74-0.51c0.01-0.01,0.03-0.01,0.04-0.02c2.09-2.12,4.55-3.14,7.43-2.05
				c0.42,0.35,1.21,0.05,0.96-0.55C255.09,192.34,253.71,189.7,251.14,190.14z M239.34,196.06c0.57-1.59,1.52-3.13,3.41-3.08
				c1.73,0.05,2.77,1.52,3.55,2.95C244.18,194.86,241.24,194.62,239.34,196.06z M247.52,195.62c0.58-1.31,1.36-2.61,2.42-3.54
				c1.92-1.67,3.34-0.28,4.25,1.35C251.74,192.91,249.05,193.61,247.52,195.62z"/>
		</g>
		<g>
			<path class="st9" d="M1343.85,285.39c-1.89-0.05-2.85,1.49-3.41,3.08c1.9-1.45,4.84-1.2,6.96-0.12
				C1346.62,286.91,1345.58,285.43,1343.85,285.39z"/>
			<path class="st9" d="M1351.04,284.48c-1.07,0.93-1.84,2.23-2.42,3.54c1.53-2.01,4.23-2.71,6.67-2.19
				C1354.38,284.2,1352.95,282.81,1351.04,284.48z"/>
			<path class="st10" d="M1352.24,282.55c-2.21,0.38-3.68,2.94-4.4,5.07c-0.85-1.74-2.13-3.35-4.24-3.28
				c-2.76,0.09-4.17,2.92-4.59,5.29c-0.11,0.64,0.83,0.93,1,0.27c0.02-0.06,0.04-0.13,0.05-0.2c1.16-0.52,2.18-1.14,3.53-1.22
				c1.57-0.1,2.98,0.42,4.22,1.35c0.4,0.29,0.77-0.11,0.74-0.51c0.01-0.01,0.03-0.01,0.04-0.02c2.09-2.12,4.55-3.14,7.43-2.05
				c0.42,0.35,1.21,0.05,0.96-0.55C1356.18,284.74,1354.81,282.1,1352.24,282.55z M1340.44,288.46c0.57-1.59,1.52-3.13,3.41-3.08
				c1.73,0.05,2.77,1.52,3.55,2.95C1345.28,287.26,1342.34,287.02,1340.44,288.46z M1348.61,288.02c0.58-1.31,1.36-2.61,2.42-3.54
				c1.92-1.67,3.34-0.28,4.25,1.35C1352.84,285.31,1350.14,286.01,1348.61,288.02z"/>
		</g>
		<g>
			<linearGradient id="SVGID_6_" gradientUnits="userSpaceOnUse" x1="739.3632" y1="627.1542" x2="774.6087" y2="626.5163">
				<stop  offset="0" style="stop-color:#688468"/>
				<stop  offset="0.3883" style="stop-color:#89A589"/>
				<stop  offset="0.7169" style="stop-color:#89A589"/>
				<stop  offset="1" style="stop-color:#C5E4C2"/>
			</linearGradient>
			<path class="st11" d="M765.16,624.82c-8.46,1.36-17.12,2.76-26.02,4.21C752.13,626.94,761.34,625.44,765.16,624.82z"/>
		</g>
		<g>
			<path class="st12" d="M729.98,635.18c-0.14-0.06-0.3-0.16-0.44-0.21c-3.23-1.08-13.14,0.21-24.42,2.27
				C713.15,636.31,721.44,635.62,729.98,635.18z"/>
			<g>
				<g class="st13">
					<path class="st14" d="M518.36,657.44c-1.19,0.03-4.81,0.11-10.74,0.15C511.07,657.58,514.67,657.53,518.36,657.44z"/>
				</g>
				<g class="st13">
					<path class="st14" d="M335.84,649.35c-0.8,0.11-1.59,0.21-2.36,0.3c0.65,0.1,1.25,0.13,1.92,0.25
						c26.62,4.66,84.06,6.39,129.02,7.16C433.19,656.21,389.48,654.14,335.84,649.35z"/>
				</g>
				<g class="st13">
					<path class="st14" d="M456.84,588.78c0,0,26.16-0.02,51.67,0.79c-1.95-1.91-3.08-5.68-3.96-8.6
						c-2.59-8.68-11.51-15.02-20.56-14.62c-10.26,0.45-18.45,8.25-26.12,15.09c-1.76,1.57-3.63,3.13-5.58,4.58
						C455.15,587.75,456.84,588.78,456.84,588.78z"/>
				</g>
				<g class="st13">
					<path class="st14" d="M537.78,591.05c-6.32-5.18-15.3-8.47-21.36-3.41c-0.81,0.67-1.55,1.49-2.38,2.12
						C522.59,590.08,530.85,590.5,537.78,591.05z"/>
				</g>
			</g>
			<path class="st12" d="M19.92,629.13c13.36-4.98,27.44-10.13,39.31-14.26l-45.95-51.05l-13.47,11.4v56.4"/>
		</g>
		<g class="st13">
			<path class="st14" d="M640.73,646.51c11.14-1.7,38.43-7.59,70.54-9.45c32.11-1.86,88.12-5.8,168.49-1.28
				c70.88,3.99,117.46,7.06,156.25,10.95c0.06-0.26,0.18-0.51,0.21-0.78c0.65-5.76-11.18-16.2-34.85-37.07
				c-19.28-17-36.08-25.92-51.21-33.7c-9.45-4.86-25.2-8.74-35.54-4.63c-2.04,0.81-3.8,1.92-6.37,2.19
				c-6.82,0.73-9.61-4.18-11.56-7.57c-3.82-6.65-17.28-11.7-31.02-11.64c-15.59,0.07-28.13,5.78-39.85,10.77
				c-11.72,4.99-26.52,9.85-41.7,7.87c-4.12-0.54-8.01-1.56-12.22-1.83c-5.96-0.38-11.81,0.81-16.92,2.31
				c-27.54,8.08-41.34,25.03-69.79,32.31c-16.55,4.24-15.07,1.01-30.96,5.91c-26.86,8.29-58.88,29.27-57.6,40.83
				C604.03,650.93,631.15,647.97,640.73,646.51z"/>
		</g>
		<path class="st12" d="M640.73,646.51c-9.58,1.46-36.7,4.42-44.13,5.22c-0.73-6.65,9.55-16.41,23.52-25.08
			c-27.79-13.55-60-29.47-64.14-32.49c-7.44-5.44-99.14-5.37-99.14-5.37s-61.51-37.35-69.76-42.27c-8.25-4.92-40.9-6.88-40.9-6.88
			s-12.78-9.83-15.91-8.85c-3.13,0.98-23.41,22.61-23.41,22.61l-4.68-8.85l-56.45,49.15l-51.92,5.9c0,0-27.52,0-33.42,0
			s-43.25,17.69-43.25,17.69s-21.63-9.83-29.49-10.81c-4.25-0.53-37.81,11.49-67.74,22.65c13.57-0.82,113.07-4.05,218.66,9.59
			c170.58,22.03,280.23,18.71,280.23,18.71s65.64-3.14,106.61-8.07c10.68-1.29,21.19-2.98,31.76-4.76
			c-0.44-0.21-0.93-0.45-1.43-0.69C649.38,645.02,644.25,645.97,640.73,646.51z"/>
		<g>
			<path class="st15" d="M991.06,626.04c0.05,0,0.11,0.01,0.16,0.02c0.42,0.1,41.96,10.23,60.54,34.12c0.2,0.26,0.19,0.62-0.01,0.87
				c-0.14,0.17-0.33,0.25-0.54,0.25c-0.11,0-0.21-0.02-0.31-0.07c-0.16-0.08-9.21-4.46-22.08-4.46c-9.94,0-22.17,2.62-34.32,11.87
				l1.3,19.87c1.41,0.01,2.76,0.02,4.01,0.06c0.35,0.01,0.64,0.28,0.67,0.63l0.62,6.93h1.41c0.23-1.39,0.83-4.91,1.13-6.75
				c0.06-0.34,0.36-0.58,0.7-0.58c0.01,0,0.02,0,0.03,0c2.16,0.14,4.14,0.32,5.91,0.53c0.34,0.04,0.59,0.32,0.61,0.65l0.41,7.31
				h3.84l0.85-6.43c0.03-0.19,0.13-0.36,0.28-0.47c0.12-0.09,0.26-0.13,0.41-0.13c0.04,0,0.08,0,0.12,0.01
				c3.05,0.55,4.67,1.01,4.73,1.03c0.32,0.09,0.52,0.39,0.5,0.71l-0.76,11.59c2,0.44,3.97,0.91,5.82,1.42
				c2.7,0.75,4.71,3.03,5.12,5.82l2.23,15.4c0.4-0.21,0.77-0.44,1.21-0.56l-1.66-24.98c-0.02-0.33,0.19-0.63,0.5-0.71
				c0.09-0.02,2.17-0.61,6.07-1.32c0.04-0.01,0.08-0.01,0.13-0.01c0.15,0,0.29,0.05,0.41,0.13c0.15,0.11,0.26,0.28,0.28,0.47
				l1.11,8.42h5.29l0.54-9.58c0.02-0.34,0.28-0.61,0.61-0.65c2.55-0.3,5.02-0.52,7.57-0.68c0.02,0,0.03,0,0.05,0
				c0.32,0,0.62,0.25,0.68,0.58c0.4,2.43,1.21,7.2,1.49,8.85h2.16l0.81-9.08c0.03-0.35,0.32-0.62,0.67-0.63
				c2.07-0.07,4.03-0.1,5.98-0.1h0.16c1.95,0,3.91,0.03,5.98,0.1c0.35,0.01,0.64,0.28,0.67,0.63l0.81,9.08h2.16
				c0.28-1.65,1.09-6.42,1.49-8.85c0.06-0.34,0.34-0.58,0.68-0.58c0.02,0,0.03,0,0.05,0c2.52,0.16,5.07,0.39,7.57,0.68
				c0.33,0.04,0.59,0.31,0.61,0.65l0.54,9.58h5.29l1.1-8.42c0.02-0.19,0.13-0.36,0.28-0.47c0.12-0.09,0.26-0.13,0.4-0.13
				c0.04,0,0.09,0,0.13,0.01c3.9,0.71,5.98,1.29,6.07,1.32c0.32,0.09,0.53,0.39,0.51,0.71l-1.66,24.97c1.83,0.49,3.4,1.75,4.16,3.5
				c2.05,4.75,4.71,15.4-0.37,33.47c-0.57,2.03-2.43,3.38-4.48,3.38c-0.2,0-0.4-0.01-0.6-0.04c0.13,44.91-1.39,78.27-2.73,98.53
				c0,0,0,0,0,0c0.01,0,0.01-0.01,0.01-0.01c0,0,0,0,0,0c7.77,0.68,20.95,3.72,24.43,7.44c1.1,1.16,2.18,2.41,3.23,3.61
				c2.89,3.32,5.87,6.76,9.45,8.76c2.53,1.42,5.37,2.12,8.11,2.8c0.9,0.22,1.79,0.44,2.68,0.69c3.32,0.9,7.51,2.42,10.43,6.19
				c2.63,3.4,3.87,9.36,1.39,13.44c-2.68,4.46-8.21,4.58-11.18,4.65l-117.09,2.47c-0.4,0.01-0.83,0.02-1.27,0.02
				c-2.13,0-4.66-0.24-6.67-1.93c-0.55-0.47-0.96-1.13-1.33-1.82h-13.98c-0.45,0.71-0.98,1.39-1.65,1.86
				c-2.39,1.65-5.43,1.89-8,1.89c-0.54,0-1.05-0.01-1.54-0.02l-143.07-2.47c-4.97-0.09-10.52-0.53-13.51-4.6
				c-3.05-4.13-1.53-10.12,1.71-13.54c3.53-3.74,8.61-5.25,12.64-6.14c1.08-0.24,2.16-0.46,3.25-0.68c3.37-0.68,6.86-1.38,9.99-2.82
				c4.4-2.02,8.06-5.46,11.59-8.79c1.27-1.2,2.59-2.44,3.93-3.6c5.31-4.63,10.45-7.08,15.28-7.27c-1.45-16.31-2.9-42.34-2.83-81.06
				c-0.03,0-0.06,0-0.1-0.01c-1.84-0.26-3.35-1.57-3.86-3.36c-5.08-18.07-2.41-28.72-0.37-33.47c0.73-1.68,2.22-2.87,3.98-3.41
				l-1.25-18.84c-0.02-0.33,0.19-0.63,0.51-0.71c0.09-0.02,2.17-0.61,6.07-1.32c0.04-0.01,0.08-0.01,0.13-0.01
				c0.15,0,0.29,0.05,0.41,0.13c0.15,0.11,0.26,0.28,0.28,0.47l1.1,8.44h5.3l0.54-9.58c0.02-0.34,0.28-0.61,0.61-0.65
				c2.5-0.29,5.05-0.52,7.57-0.68c0.01,0,0.02,0,0.02,0c0.35,0,0.65,0.24,0.7,0.58c0.4,2.43,1.21,7.19,1.49,8.84h2.16l0.8-9.07
				c0.03-0.35,0.32-0.62,0.67-0.63c2.05-0.07,4-0.1,5.98-0.1h0.16c1.97,0,3.93,0.03,5.98,0.1c0.35,0.01,0.64,0.28,0.67,0.63
				l0.81,9.07h2.16c0.28-1.65,1.09-6.4,1.49-8.84c0.06-0.34,0.36-0.58,0.7-0.58c0.01,0,0.02,0,0.03,0c2.55,0.16,5.02,0.38,7.57,0.68
				c0.34,0.04,0.59,0.31,0.61,0.65l0.54,9.58h5.3l1.1-8.44c0.02-0.19,0.13-0.36,0.28-0.47c0.12-0.09,0.26-0.13,0.41-0.13
				c0.04,0,0.09,0,0.13,0.01l0.4,0.08c0.56,0.11,1.01,0.2,1.49,0.29l1.44-11.78c0.37-2.93,2.44-5.28,5.29-5.99
				c2.07-0.51,4.23-0.98,6.39-1.41L968.14,692c-0.02-0.33,0.19-0.63,0.5-0.71c0.07-0.02,1.7-0.48,4.74-1.03
				c0.04-0.01,0.08-0.01,0.12-0.01c0.15,0,0.29,0.05,0.41,0.13c0.15,0.11,0.25,0.28,0.28,0.47l0.84,6.43h3.85l0.42-7.32
				c0.02-0.34,0.28-0.61,0.61-0.65c1.84-0.21,3.83-0.38,5.9-0.52c0.02,0,0.03,0,0.05,0c0.33,0,0.62,0.25,0.68,0.58
				c0.3,1.84,0.89,5.37,1.13,6.75h1.41l0.62-6.93c0.03-0.35,0.32-0.62,0.67-0.63c1.02-0.04,2.09-0.06,3.17-0.06
				c0.28-0.01,0.57-0.01,0.86-0.01l-1.32-20.12c0-0.02,0-0.03,0-0.05l-2.72-41.55c-0.02-0.22,0.08-0.43,0.25-0.58
				C990.74,626.09,990.9,626.04,991.06,626.04 M991.06,624.2c-0.6,0-1.18,0.21-1.63,0.6c-0.61,0.52-0.95,1.3-0.89,2.1l2.72,41.54
				l0,0.04l0,0.01c0,0.01,0,0.02,0,0.03l1.19,18.15c-0.68,0.01-1.39,0.03-2.15,0.06c-0.99,0.04-1.85,0.65-2.23,1.53
				c-0.43-0.79-1.26-1.31-2.21-1.31c-0.06,0-0.13,0-0.19,0.01c-2.08,0.13-4.1,0.31-5.97,0.52c-1.23,0.14-2.17,1.14-2.24,2.37
				l-0.32,5.59h-0.51l-0.63-4.83c-0.09-0.68-0.46-1.31-1.01-1.71c-0.43-0.32-0.96-0.49-1.49-0.49c-0.15,0-0.29,0.01-0.44,0.04
				c-2.92,0.53-4.6,0.98-4.91,1.07c-1.15,0.33-1.92,1.42-1.85,2.6l0.67,10.04c-1.79,0.37-3.41,0.73-4.9,1.11
				c-3.59,0.9-6.2,3.86-6.66,7.55l-1.2,9.84c-0.15-0.03-0.29-0.04-0.44-0.04c-0.54,0-1.05,0.16-1.48,0.48
				c-0.57,0.41-0.94,1.04-1.03,1.73l-0.89,6.84h-1.96l-0.44-7.85c-0.07-1.23-1.01-2.23-2.23-2.37c-2.58-0.3-5.09-0.52-7.66-0.69
				l-0.06,0l-0.09,0c-1.26,0-2.31,0.89-2.51,2.12c-0.14,0.86-0.33,2.01-0.54,3.21l-0.3-3.31c-0.11-1.27-1.16-2.26-2.43-2.3
				c-2.07-0.07-4.05-0.1-6.04-0.1h-0.16c-1.99,0-3.96,0.03-6.04,0.1c-1.28,0.04-2.32,1.03-2.43,2.31l-0.29,3.27
				c-0.2-1.19-0.39-2.33-0.53-3.18c-0.2-1.22-1.25-2.12-2.51-2.12h-0.03l-0.05,0l-0.03,0l-0.03,0c-2.55,0.16-5.13,0.39-7.67,0.69
				c-1.22,0.14-2.16,1.14-2.23,2.37l-0.44,7.85h-1.96l-0.89-6.84c-0.09-0.68-0.46-1.31-1.02-1.72c-0.43-0.31-0.96-0.49-1.49-0.49
				c-0.16,0-0.31,0.01-0.47,0.04c-4.05,0.74-6.22,1.35-6.24,1.36c-1.13,0.32-1.9,1.41-1.83,2.6l1.16,17.52
				c-1.69,0.85-3.02,2.21-3.74,3.88c-2.14,4.97-4.95,16.08,0.29,34.69c0.56,1.99,2.02,3.56,3.88,4.29
				c-0.04,37.57,1.39,62.9,2.68,77.99c-4.68,0.69-9.55,3.22-14.5,7.54c-1.34,1.16-2.64,2.39-3.91,3.58l-0.07,0.07
				c-3.43,3.23-6.97,6.57-11.1,8.46c-2.94,1.35-6.32,2.03-9.59,2.69l-0.08,0.02c-1.05,0.21-2.14,0.43-3.21,0.67
				c-4.28,0.95-9.7,2.57-13.57,6.67c-3.76,3.96-5.48,10.99-1.85,15.89c3.49,4.73,9.55,5.24,14.95,5.34l143.07,2.47l0.09,0
				c0.47,0.01,0.97,0.02,1.48,0.02c2.72,0,6.2-0.25,9.04-2.21c0.65-0.45,1.16-1,1.57-1.53h11.98c0.32,0.49,0.71,0.97,1.18,1.38
				c2.49,2.1,5.51,2.36,7.86,2.36c0.43,0,0.84-0.01,1.24-0.02l0.07,0l117.09-2.47c3.09-0.07,9.52-0.22,12.72-5.53
				c2.99-4.92,1.46-11.66-1.51-15.5c-3.25-4.19-7.8-5.86-11.4-6.84c-0.88-0.24-1.77-0.46-2.63-0.67l-0.09-0.02
				c-2.64-0.65-5.34-1.32-7.65-2.62c-3.3-1.85-6.17-5.16-8.96-8.36c-1.07-1.23-2.16-2.48-3.28-3.67c-4.03-4.3-16.94-6.98-23.84-7.82
				c1.27-19.9,2.71-52.01,2.62-95.13c2.37-0.46,4.35-2.22,5.01-4.6c5.23-18.61,2.43-29.72,0.29-34.69
				c-0.77-1.78-2.16-3.19-3.92-4.02l1.57-23.61c0.08-1.18-0.69-2.28-1.83-2.6c-0.24-0.07-2.39-0.65-6.24-1.36
				c-0.13-0.03-0.3-0.04-0.46-0.04c-0.53,0-1.05,0.17-1.48,0.49c-0.56,0.41-0.93,1.03-1.02,1.71l-0.89,6.83h-1.95l-0.44-7.85
				c-0.07-1.23-1.01-2.23-2.23-2.37c-2.54-0.29-5.12-0.53-7.66-0.69c-0.05,0-0.11-0.01-0.17-0.01c-1.24,0-2.28,0.89-2.49,2.11
				c-0.14,0.86-0.33,2.01-0.54,3.22l-0.29-3.32c-0.11-1.27-1.16-2.26-2.44-2.3c-2.09-0.07-4.07-0.1-6.04-0.1h-0.16
				c-1.97,0-3.94,0.03-6.04,0.1c-1.27,0.04-2.32,1.03-2.43,2.3l-0.3,3.31c-0.2-1.2-0.4-2.35-0.54-3.21
				c-0.2-1.21-1.27-2.12-2.49-2.12c-0.07,0-0.14,0-0.2,0.01c-2.55,0.16-5.05,0.39-7.63,0.69c-1.22,0.14-2.16,1.14-2.23,2.37
				l-0.44,7.85h-1.95l-0.9-6.83c-0.1-0.69-0.47-1.31-1.02-1.71c-0.43-0.31-0.96-0.48-1.48-0.48c-0.16,0-0.31,0.01-0.46,0.04
				c-3.88,0.71-6,1.29-6.23,1.36c-1.14,0.32-1.92,1.42-1.84,2.6l0.4,5.99c-1.17-1.71-2.91-2.99-4.98-3.56
				c-1.32-0.37-2.76-0.73-4.38-1.1l0.66-10.03c0.08-1.18-0.69-2.27-1.82-2.59c-0.01,0-1.71-0.49-4.91-1.07
				c-0.15-0.03-0.3-0.04-0.45-0.04c-0.54,0-1.06,0.17-1.49,0.49c-0.55,0.4-0.92,1.02-1.01,1.7l-0.64,4.85h-0.5l-0.32-5.58
				c-0.07-1.22-1-2.22-2.22-2.37c-1.8-0.22-3.82-0.4-6.01-0.54l-0.06,0l-0.09,0c-0.95,0-1.79,0.52-2.23,1.31
				c-0.38-0.88-1.24-1.5-2.24-1.53c-0.77-0.03-1.57-0.04-2.35-0.05l-1.13-17.18c9.82-7.24,20.73-10.91,32.43-10.91
				c12.4,0,21.18,4.23,21.27,4.27c0.34,0.17,0.73,0.26,1.12,0.26c0.76,0,1.47-0.34,1.96-0.93c0.75-0.92,0.77-2.22,0.04-3.15
				c-18.93-24.33-61.14-34.67-61.56-34.78C991.45,624.23,991.26,624.2,991.06,624.2L991.06,624.2z"/>
		</g>
		<g>
			<path class="st16" d="M754.21,891.8c0.72-0.2,1.48-0.27,2.24-0.22c0.72-0.11,1.48-0.01,2.2,0.21c-0.18-3.34,1.75-7.94,4.44-10.17
				c-4.81-0.82-9.95-0.45-14.71,0.74c0.82,1.48,1.12,3.3,1.96,4.81C751.35,888.95,752.67,890.48,754.21,891.8z"/>
			<path class="st17" d="M752.94,892.31c-0.59,0.34-1.14,0.78-1.64,1.38c-0.22,0.25-0.37,0.52-0.53,0.78
				c-5.89-2.11-12.7-2.62-19-1.72c-0.55,0.07-1.11,0.17-1.66,0.26c0.65-0.72,1.32-1.42,2.05-2.07c3.82-3.55,8.56-6.22,13.66-7.86
				c0.58-0.18,1.17-0.35,1.76-0.52c-0.1,1.67,0.81,3.54,1.54,4.95C750.1,889.35,751.42,890.94,752.94,892.31z"/>
			<path class="st18" d="M761.64,894.39c-2.44-1.05-5.07-2.21-7.67-1.04c-3.88,1.75-2.53,6.34,0.67,7.93
				c2.52,1.25,8.03,1.47,9.5-1.61C765.1,897.66,763.39,895.72,761.64,894.39z"/>
			<path class="st19" d="M759.25,892c0.21,0.09,0.41,0.17,0.61,0.27c0.07-0.02,0.15-0.03,0.24-0.02c1.57,0.32,3.16,1.45,4.21,2.92
				c1.65-2.24,4.8-4.59,7.94-5.59c-0.01-0.15,1.87-0.51,1.87-0.42c0.37-0.05,0.74-0.07,1.1-0.07c-0.38-0.5-0.77-1-1.18-1.46
				c0,0.08-0.22-0.11-0.25-0.15c-0.56-0.83-0.87-0.98-1.64-1.74c-2.16-1.86-4.71-3.2-7.78-3.9c0,0,0,0.01,0,0.01
				c-0.99,1.55-2.29,2.82-3.15,4.48C760.26,888.18,759.88,890.08,759.25,892z"/>
			<path class="st18" d="M782.37,913.98c-0.55-0.66-1.13-1.31-1.72-1.96c-1.3-1.43-2.7-2.83-4.18-4.18
				c-0.01-0.1-2.01-1.82-2.08-1.82c-2.88-2.4-5.95-4.49-9.04-6.02c0.43-1.38,0.12-2.85-0.61-4.15c1.81-1.46,3.5-2.94,5.63-3.94
				c0.64-0.3,1.3-0.51,1.96-0.7c0.01,0.05,0.23-0.1,0.36-0.14c0.48-0.17,1-0.23,1.5-0.28c0-0.02,0.01-0.05,0.01-0.07
				c0.59-0.16,1.18-0.34,1.75-0.57c0.54,0.79,1.05,1.64,1.5,2.52c2.78,5.3,4.33,11.02,4.78,16.83
				C782.35,911,782.39,912.49,782.37,913.98z"/>
			<path class="st20" d="M764.26,930.49c-0.81-0.18-1.76-0.06-2.49,0.06c-1,0.17-1.93,0.52-2.76,1.07c-0.83-0.7-2.3-0.72-3.31-0.6
				c-0.94,0.12-2.62,0.55-3.07,1.54c-2.71-2.14-7.39-0.89-8.64,2.32c-0.02,0-0.04-0.01-0.07-0.02c-1-0.12-2.23-0.06-3.41,0.2
				c0.23-4.48,1.11-8.78,2.56-12.85c2.53-7.18,6.79-13.66,12.24-19.24c1.4,0.4,3.14,0.59,4.79,0.42
				c-0.71,6.77,0.53,14.15,2.36,20.99C763.02,926.48,763.64,928.53,764.26,930.49z"/>
			<path class="st21" d="M782.3,915.87c-0.23,4.13-0.96,8.26-2.16,12.24c-0.36,0.02-0.7,0.08-1.05,0.16
				c-0.04,0.01-0.08,0.01-0.13,0.01c-0.02,0.01-0.05,0.01-0.07,0.01s-0.02,0-0.05,0c-0.17-0.02-0.33-0.02-0.48-0.01
				c-0.07,0.04-0.17,0.06-0.26,0.06c-0.2,0.01-0.4,0.04-0.6,0.06c-0.19,0.01-0.34-0.07-0.43-0.19c-1.2-0.26-2.44-0.31-3.66-0.02
				c-0.82,0.2-1.97,0.53-2.6,1.22c-1.71-1.14-4.24-0.71-5.57,0.82c-0.58-2.07-1.05-4.14-1.44-6.21c-1.34-6.86-1.91-13.74-3.05-20.7
				c1.85-0.29,3.52-1.07,4.3-2.54c0.04-0.06,0.05-0.11,0.07-0.16c2.94,2.48,6.14,4.65,9.04,7.21c0.23,0.2,2.7,2.59,2.76,2.59
				c0.95,0.93,1.88,1.88,2.82,2.83C780.58,914.13,781.43,915.01,782.3,915.87z"/>
			<path class="st22" d="M750.49,898.47c-6.5,1.18-13.18,4.3-18.75,8.62c-3.09,2.41-5.83,5.19-8.01,8.2
				c-0.33-1.71-0.49-3.48-0.45-5.32c0.14-6.07,2.35-11.38,5.82-15.72c0.82-0.07,1.64-0.14,2.44-0.19c6.43-0.42,12.4,0.04,18.9,1.17
				C750.1,896.28,750.14,897.42,750.49,898.47z"/>
			<path class="st23" d="M754.58,902.74c-5.98,5.06-10.17,11.59-12.62,18.81c-1.44,4.26-2.29,8.78-2.52,13.35
				c-7.56-3.85-13.44-10.23-15.42-18.26c2.6-2.85,5.17-5.59,8.11-7.99c1.13-0.94,2.32-1.84,3.6-2.67c4.67-3.08,9.75-5.04,15.03-6.79
				c0.67,1.42,1.85,2.65,3.27,3.32C754.21,902.58,754.39,902.65,754.58,902.74z"/>
			<path class="st10" d="M781.4,928.15c1.32-3.86,2.1-7.95,2.35-12.08c0.01-0.04,0.01-0.08,0.01-0.13
				c0.55-9.39-1.68-19.02-6.88-26.81c-0.87-1.3-1.85-2.44-2.91-3.44c-0.37-0.53-1.8-1.6-1.8-1.51c-7.98-5.88-19.65-5.09-28.91-1.57
				c-6.02,2.29-11.37,6.02-15.21,10.87c-0.06,0.05-0.1,0.11-0.13,0.18c-3.55,4.55-5.77,10.07-5.92,16.32
				c-0.05,2.3,0.22,4.58,0.74,6.79c-0.02,0.03-0.03,0.05-0.05,0.08c0.03,0.07,0.06,0.15,0.09,0.22c0,0,0,0,0,0c0,0.01,0,0.01,0,0.02
				c0.07,0.18,0.11,0.36,0.13,0.55c0.02,0,0.03,0.01,0.05,0.01c2.21,8.04,8.06,14.94,16,17.92c-0.84,0.37-1.57,0.9-2.08,1.59
				c-0.02-0.01-0.03-0.02-0.05-0.03c-2.28-0.81-5.12-1.51-6.81,0.72c-0.18,0.23,0.19,0.48,0.39,0.3c1.79-1.66,4.17-0.85,6.17-0.09
				c0.02,0.01,0.03,0,0.05,0.01c0.07,0.04,0.16,0.05,0.25,0.01c1.15-0.53,2.07-1.36,3.31-1.75c1.21-0.39,2.46-0.46,3.72-0.3
				c0.3,0.04,0.47-0.13,0.52-0.35c2.11-2.91,4.38-3.53,7.71-2.26c0.25,0.09,0.48-0.07,0.58-0.29c0.02,0,0.03,0.02,0.05,0.02
				c0.94,0,1.81-0.8,2.78-0.97c0.62-0.11,1.28-0.1,1.9,0.03c0.34,0.07,0.64,0.19,0.94,0.27c0.08,0.16,0.25,0.27,0.43,0.2
				c0.99-0.39,1.98-0.81,3.04-0.97c1.04-0.16,2.17,0.15,3.15-0.12c0.16-0.05,0.24-0.16,0.27-0.29c0.72-0.58,1.5-1.08,2.42-1.22
				c1.15-0.17,2.01,0.27,3.02,0.7c0.34,0.14,0.62-0.11,0.7-0.42c0.71-0.2,1.38-0.67,2.1-0.84c1.28-0.29,2.55-0.2,3.8,0.19
				c0.04,0.01,0.07,0,0.1,0.01c0,0.07,1.47-0.06,1.47-0.1c0.73-0.06,1.46-0.1,2.21,0c1.34,0.18,2.41,0.77,3.6,1.37
				c0.69,0.35,1.53-0.57,0.87-1.13C784.52,928.93,782.97,928.33,781.4,928.15z M777.46,892.67c3.5,6.65,5.02,13.97,4.9,21.31
				c-1.75-2.1-3.74-4.19-5.89-6.15c-0.02-0.1-2.1-1.89-2.09-1.82c-2.87-2.39-5.95-4.49-9.04-6.02c0.43-1.38,0.12-2.86-0.62-4.15
				c1.8-1.46,3.51-2.94,5.63-3.94c0.64-0.3,1.3-0.51,1.97-0.7c0,0.05,0.22-0.09,0.36-0.14c0.48-0.17,0.99-0.24,1.5-0.29
				c0-0.02,0.02-0.04,0.01-0.06c0.59-0.16,1.18-0.34,1.75-0.56C776.49,890.95,777,891.79,777.46,892.67z M764.36,881.86
				c3.06,0.69,5.62,2.04,7.78,3.9c0.78,0.76,1.08,0.91,1.64,1.74c0.02,0.03,0.25,0.22,0.25,0.15c0.41,0.46,0.8,0.96,1.18,1.46
				c-0.36,0-0.73,0.02-1.1,0.07c0-0.09-1.88,0.27-1.87,0.42c-3.13,1-6.29,3.35-7.94,5.59c-1.05-1.47-2.64-2.6-4.21-2.92
				c-0.09-0.02-0.16-0.01-0.24,0.02c-0.19-0.1-0.4-0.19-0.61-0.27c0.64-1.92,1.02-3.82,1.96-5.64c0.86-1.66,2.16-2.94,3.15-4.48
				C764.36,881.87,764.36,881.87,764.36,881.86z M764.15,899.66c-1.48,3.08-6.98,2.86-9.5,1.61c-3.2-1.59-4.55-6.18-0.67-7.93
				c2.6-1.17,5.22,0,7.67,1.04C763.39,895.72,765.1,897.66,764.15,899.66z M763.1,881.63c-2.69,2.22-4.62,6.83-4.44,10.17
				c-0.72-0.22-1.48-0.33-2.2-0.21c-0.77-0.05-1.52,0.02-2.24,0.22c-1.54-1.32-2.86-2.85-3.86-4.63c-0.84-1.51-1.15-3.32-1.96-4.81
				C753.15,881.18,758.29,880.81,763.1,881.63z M745.83,883.09c0.58-0.19,1.17-0.35,1.76-0.51c-0.1,1.66,0.8,3.54,1.55,4.94
				c0.98,1.83,2.28,3.42,3.81,4.8c-0.6,0.33-1.15,0.78-1.64,1.38c-0.21,0.25-0.37,0.52-0.52,0.79c-6.41-2.3-13.92-2.7-20.67-1.45
				C734.2,888.44,739.76,885.04,745.83,883.09z M723.29,909.97c0.15-6.07,2.34-11.37,5.81-15.72c7.38-0.71,14.03-0.3,21.35,0.97
				c-0.36,1.07-0.31,2.19,0.04,3.25c-10.12,1.84-20.67,8.36-26.75,16.82C723.42,913.58,723.25,911.81,723.29,909.97z M739.45,934.89
				c-7.56-3.85-13.44-10.23-15.42-18.25c3.61-3.97,7.14-7.67,11.71-10.68c4.68-3.08,9.75-5.04,15.04-6.79
				c0.67,1.42,1.85,2.65,3.26,3.33c0.17,0.08,0.36,0.16,0.55,0.23C745.06,910.79,740.09,922.57,739.45,934.89z M761.76,930.55
				c-0.99,0.17-1.92,0.52-2.75,1.07c-0.84-0.7-2.31-0.72-3.32-0.59c-0.94,0.12-2.63,0.55-3.07,1.54c-2.71-2.14-7.39-0.89-8.65,2.33
				c-0.02-0.01-0.04-0.02-0.07-0.02c-1-0.13-2.23-0.07-3.42,0.2c0.61-12.34,6.26-23.33,14.81-32.09c1.4,0.41,3.14,0.59,4.8,0.43
				c-0.93,8.84,1.48,18.73,4.15,27.08C763.45,930.31,762.5,930.42,761.76,930.55z M780.14,928.12c-0.36,0.02-0.7,0.08-1.04,0.15
				c-0.04,0.01-0.09,0.02-0.13,0.02c-0.03,0.01-0.05,0.01-0.08,0.01c0,0,0,0,0-0.01c-0.01,0-0.03,0-0.04,0
				c-0.17-0.02-0.33-0.02-0.49-0.02c-0.08,0.04-0.16,0.06-0.26,0.07c-0.2,0.01-0.4,0.04-0.6,0.05c-0.2,0.01-0.34-0.07-0.43-0.19
				c-1.21-0.27-2.44-0.31-3.66-0.02c-0.82,0.19-1.98,0.52-2.59,1.21c-1.72-1.15-4.25-0.7-5.58,0.82c-2.47-8.92-3.02-17.85-4.49-26.9
				c1.86-0.3,3.52-1.08,4.31-2.55c0.03-0.05,0.04-0.1,0.07-0.15c2.94,2.49,6.15,4.65,9.04,7.21c0.23,0.2,2.77,2.66,2.76,2.59
				c1.83,1.79,3.59,3.64,5.39,5.46C782.07,920.01,781.34,924.13,780.14,928.12z"/>
			<path class="st24" d="M723.74,915.29c-0.33-1.71-0.49-3.48-0.45-5.32c0.14-6.07,2.35-11.38,5.82-15.72
				c0.82-0.07,1.64-0.14,2.44-0.19c-0.66,4.02-0.84,8.58,0.19,13.04C728.65,909.5,725.92,912.28,723.74,915.29z"/>
			<path class="st25" d="M731.78,892.76c-0.55,0.07-1.11,0.17-1.66,0.26c0.65-0.72,1.32-1.42,2.05-2.07
				C732.02,891.54,731.89,892.14,731.78,892.76z"/>
			<path class="st26" d="M741.96,921.54c-1.44,4.26-2.29,8.78-2.52,13.35c-7.56-3.85-13.44-10.23-15.42-18.26
				c2.6-2.85,5.17-5.59,8.11-7.99c1.41,4.71,4.27,9.2,9.49,12.69C741.74,921.4,741.84,921.47,741.96,921.54z"/>
			<path class="st27" d="M762.47,924.38c0.55,2.09,1.17,4.14,1.79,6.1c-0.81-0.18-1.76-0.06-2.49,0.06c-1,0.17-1.93,0.52-2.76,1.07
				c-0.83-0.7-2.3-0.72-3.31-0.6c-0.94,0.12-2.62,0.55-3.07,1.54c-2.71-2.14-7.39-0.89-8.64,2.32c-0.02,0-0.04-0.01-0.07-0.02
				c-1-0.12-2.23-0.06-3.41,0.2c0.23-4.48,1.11-8.78,2.56-12.85C749.13,925.68,756.04,926.08,762.47,924.38z"/>
			<path class="st28" d="M779.72,913.25c0.85,0.88,1.71,1.76,2.58,2.62c-0.23,4.13-0.96,8.26-2.16,12.24
				c-0.36,0.02-0.7,0.08-1.05,0.16c-0.04,0.01-0.08,0.01-0.13,0.01c-0.02,0.01-0.05,0.01-0.07,0.01s-0.02,0-0.05,0
				c-0.17-0.02-0.33-0.02-0.48-0.01c-0.07,0.04-0.17,0.06-0.26,0.06c-0.2,0.01-0.4,0.04-0.6,0.06c-0.19,0.01-0.34-0.07-0.43-0.19
				c-1.2-0.26-2.44-0.31-3.66-0.02c-0.82,0.2-1.97,0.53-2.6,1.22c-1.71-1.14-4.24-0.71-5.57,0.82c-0.58-2.07-1.05-4.14-1.44-6.21
				C770.08,922.07,775.82,918.16,779.72,913.25z"/>
			<path class="st29" d="M782.37,913.98c-0.55-0.66-1.13-1.31-1.72-1.96c0.59-0.82,1.12-1.65,1.59-2.52
				C782.35,911,782.39,912.49,782.37,913.98z"/>
		</g>
		<g>
			<path class="st26" d="M1262.7,876.14c-1.93-0.75-3.92-1.36-5.92-1.93c-1.1-0.31-2.21-0.61-3.33-0.88
				c-0.72-0.18-1.44-0.35-2.16-0.5c-3.42-0.18-4.83-0.66-5.9,2.02c1.43,5.8,11.48,9.63,16.25,11.3c2.2,0.77,4.47,1.37,6.75,1.85
				c1.42,0.3,3.98,1.04,5.2,0.82c0.52,0.05,1.03,0.09,1.55,0.14c2.49-0.93,2.04-2.88,0.28-4.68
				C1273.88,880.49,1266.17,877.48,1262.7,876.14z"/>
			<path class="st23" d="M1276.54,890.2c-3.72,9.74-6,20.21-8.52,30.3c-0.23,0.04-0.46,0.06-0.69,0.12c0.04-0.22-0.04-0.45-0.3-0.59
				c-2.32-1.29-5.19-1.6-7.67-0.6c-0.01-0.08-0.04-0.16-0.1-0.23c-0.06-0.08-0.13-0.17-0.19-0.25c-3.41-4.43-9.25-6.71-14.59-4.79
				c-0.01-0.11-0.06-0.22-0.16-0.33c-3.31-3.55-9.15-5.12-13.77-3.52c-0.01-0.05-0.02-0.11-0.06-0.17c-1.4-2.35-3.76-3.92-6.31-4.25
				c6.12-10.39,13.08-20.13,19.62-30.22c0.24-0.22,0.47-0.46,0.69-0.71c0.04,0.02,0.05,0.07,0.1,0.08
				c0.53,4.79,6.32,8.11,11.45,10.31c1.96,0.83,3.83,1.49,5.27,2.01C1263.49,888.15,1272.42,891.51,1276.54,890.2z"/>
			<path class="st10" d="M1273.41,880.58c-2.91-2.36-6.25-4.09-9.71-5.47c-3.91-1.55-11.73-5.06-16.5-3.16
				c-1.48,0.34-3.2,1.56-3.89,2.93c-7.75,9.58-14.27,20.43-20.56,30.97c-1.05,0.06-2.1,0.34-3.11,0.87
				c-0.31,0.16-0.09,0.64,0.23,0.56c1.03-0.28,2.04-0.4,3.02-0.38c0.16,0.08,0.34,0.1,0.51,0.04c2.47,0.19,4.67,1.38,6.13,3.78
				c0.15,0.24,0.39,0.3,0.6,0.24c0.03,0.01,0.05,0.03,0.09,0.03c5.18-0.52,9.15,0.42,13.31,3.64c0.02,0.01,0.04,0.02,0.05,0.03
				c-0.02,0.2,0.18,0.43,0.41,0.39c5.68-0.9,10.56,0.39,14.19,5c0.06,0.08,0.14,0.13,0.21,0.17c0.06,0.15,0.21,0.26,0.39,0.21
				c2.68-0.65,5.12-0.58,7.6,0.7c0.18,0.09,0.36,0.1,0.51,0.04c0.05,0.13,0.14,0.24,0.33,0.25c0.29,0.01,0.57,0.03,0.84,0.06
				c0.23,0.24,0.62,0.31,0.89,0.12c2.19,0.37,3.82,1.34,5.48,3.2c0.5,0.56,1.32-0.15,1-0.77c-1.07-2.06-3.6-3.47-6.04-3.61
				c1.76-7.22,3.94-14.36,5.85-21.56c0.41-1.17,0.76-2.36,1.15-3.53c0.81-2.43,1.68-4.88,2.22-7.38c0.01-0.05-0.01-0.08-0.02-0.13
				c0.01-0.06,0.02-0.11,0.03-0.17C1278.79,884.86,1275.3,882.1,1273.41,880.58z M1268.01,920.5c-0.23,0.04-0.46,0.06-0.68,0.13
				c0.04-0.22-0.04-0.45-0.3-0.6c-2.33-1.28-5.2-1.6-7.67-0.6c-0.02-0.07-0.04-0.15-0.1-0.22c-3.37-4.61-9.33-7-14.79-5.04
				c-0.01-0.11-0.05-0.22-0.15-0.33c-3.31-3.55-9.15-5.12-13.77-3.51c-0.01-0.05-0.02-0.11-0.06-0.16c-1.4-2.36-3.76-3.93-6.31-4.26
				c6.11-10.38,13.08-20.13,19.62-30.22c0.25-0.22,0.48-0.46,0.7-0.71c0.03,0.03,0.05,0.07,0.09,0.09
				c0.74,6.62,11.5,10.43,16.73,12.31c2.18,0.78,11.11,4.14,15.23,2.84C1272.81,899.93,1270.54,910.41,1268.01,920.5z
				 M1275.15,888.95c-0.52-0.05-1.03-0.09-1.55-0.14c-1.22,0.22-3.77-0.52-5.2-0.82c-2.28-0.48-4.55-1.08-6.75-1.85
				c-4.77-1.67-14.82-5.5-16.25-11.3c1.07-2.68,2.49-2.2,5.9-2.02c0.73,0.15,1.45,0.32,2.16,0.5c1.11,0.27,2.22,0.57,3.33,0.88
				c1.99,0.57,3.98,1.19,5.92,1.93c3.46,1.34,11.18,4.35,12.72,8.13C1277.18,886.07,1277.63,888.02,1275.15,888.95z"/>
			<path class="st26" d="M1276.54,890.2c-3.72,9.74-6,20.21-8.52,30.3c-0.23,0.04-0.46,0.06-0.69,0.12c0.04-0.22-0.04-0.45-0.3-0.59
				c-2.32-1.29-5.19-1.6-7.67-0.6c-0.01-0.08-0.04-0.16-0.1-0.23c-0.06-0.08-0.13-0.17-0.19-0.25c1.78-4.66,3.35-9.39,4.68-14.19
				c0.96-3.47,1.79-7.24,0.53-10.62c-1.28-3.47-4.47-5.79-7.5-7.91l-0.75-0.87c1.96,0.83,3.83,1.49,5.27,2.01
				C1263.49,888.15,1272.42,891.51,1276.54,890.2z"/>
		</g>
		<g>
			<path class="st30" d="M1095.1,961.08c-1.48,0.17-3.09,1.04-3.89,1.96c-3.2-1.54-8.02-0.3-10.82,1.65
				c-2.16-1.76-6.48-1.95-8.86-0.66c-2.96-3.27-8.38-2.72-11.98-0.75c-0.41-0.64-1.22-1.2-2.11-1.57c-1.14-0.48-2.44-0.61-3.26-0.16
				c-0.02-0.02-0.04-0.05-0.07-0.07c-0.13-0.1-0.28-0.18-0.42-0.28c6.32-6.03,12.49-11.35,21.78-11.8
				c6.91-0.34,13.24,2.44,17.24,7.63l0.01,0.01C1093.65,958.27,1094.45,959.61,1095.1,961.08z"/>
			<path class="st10" d="M1108.61,959.04c-3.73-0.11-8.11,0.78-11.47,2.41c-0.19-0.13-0.4-0.22-0.63-0.28
				c-7.05-19.11-33.66-14.82-43.46-0.36c-2.94-1.69-6.77-2-9.92-0.85c-0.42,0.15-0.26,0.76,0.18,0.67
				c3.81-0.78,6.94-0.22,10.35,1.61c0.15,0.08,0.29,0.07,0.4,0.01c0.37,0.11,0.69,0.04,1.08,0.04c0.56,0,1.1,0.11,1.63,0.3
				c1.02,0.36,1.55,1.17,2.44,1.66c0.23,0.13,0.5-0.01,0.57-0.24c4.03-1.06,7.46-2.18,11.12,0.73c0.25,0.2,0.54,0.12,0.69-0.07
				c1.39-0.14,2.73-0.44,4.15-0.33c1.68,0.14,3.01,0.95,4.6,1.33c0.28,0.07,0.51-0.16,0.51-0.41c1.78-0.81,3.5-1.47,5.48-1.63
				c1.66-0.13,3.27,0.26,4.91,0.21c0.17,0,0.29-0.12,0.34-0.26c0.96-0.43,1.86-0.96,2.91-1.16c0.41-0.08,0.83-0.08,1.24-0.09
				c0.28,0.21,0.69,0.15,0.89-0.08c0.19-0.04,0.38-0.08,0.57-0.16c0.01,0,0.01-0.01,0.02-0.02c0.02,0,0.04,0.02,0.06,0.01
				c1.91-0.37,3.77-0.95,5.68-1.3c1.91-0.35,3.85-0.46,5.77-0.75C1109.32,959.94,1109.15,959.05,1108.61,959.04z M1091.21,963.04
				c-3.2-1.54-8.02-0.3-10.82,1.65c-2.16-1.77-6.48-1.96-8.86-0.66c-2.96-3.28-8.38-2.72-11.98-0.75c-0.93-1.45-3.91-2.55-5.38-1.72
				c-0.02-0.03-0.04-0.05-0.07-0.08c-0.13-0.1-0.28-0.18-0.42-0.27c6.32-6.04,12.48-11.35,21.77-11.81
				c8.53-0.42,16.19,3.93,19.64,11.67C1093.62,961.25,1092.01,962.11,1091.21,963.04z"/>
			<path class="st31" d="M1095.1,961.08c-1.48,0.17-3.09,1.04-3.89,1.96c-3.2-1.54-8.02-0.3-10.82,1.65
				c-2.16-1.76-6.48-1.95-8.86-0.66c-2.96-3.27-8.38-2.72-11.98-0.75c-0.41-0.64-1.22-1.2-2.11-1.57c0.19-0.12,0.39-0.24,0.58-0.36
				c5.06-3.14,10.51-5.77,16.35-6.9c5.85-1.13,12.12-0.67,17.4,2.07c0.31,0.17,0.63,0.34,0.94,0.52l0.01,0.01
				C1093.65,958.27,1094.45,959.61,1095.1,961.08z"/>
		</g>
		<g>
			<path class="st21" d="M899.07,931.36c-0.41-1.22-1.13-2.26-2.5-3.25c-2.14-1.54-3.96-1.71-6.54-1.84
				c-3.56-0.18-7.09,0.05-10.61,0.55c-3.82,0.55-7.55,1.44-11.23,2.55c-2.84,0.85-9.13,1.97-10.05,5.47
				c-0.06,0.18-0.08,0.36-0.11,0.55c0,0.04-0.02,0.05-0.04,0.08c0.41,2.12,1.6,4.42,3.48,5.38c1.23,0.63,4.36,0.42,5.78,0.43
				c3.41,0.04,6.8-0.24,10.17-0.73c6.3-0.92,12.49-2.5,18.64-4.09c-0.1-0.34-0.26-0.61-0.54-0.75c-0.08-0.05-0.12-0.11-0.14-0.18
				c-0.28-0.18-0.48-0.53-0.58-0.89c-0.11-0.35-0.12-0.71-0.02-0.98c0.29-0.81,1.64-1.46,2.29-0.7c0.11,0.02,0.22,0.06,0.33,0.11
				c0.73,0.33,1.44,1.06,1.9,1.58c0.11,0.12,0.23,0.25,0.34,0.39C899.54,933.62,899.42,932.42,899.07,931.36z M861.76,934.36
				c0.45,0.23,0.9,0.41,1.37,0.59c0.3-0.52,1.05-0.82,1.57-1.02c0.83-0.33,1.7-0.4,2.58-0.29c0.36,0.04,0.37,0.55,0,0.57
				c-0.82,0.04-1.6,0.25-2.34,0.6c-0.28,0.13-0.51,0.33-0.75,0.51c4.05,1.22,8.81,0.95,12.86,0.55c5.66-0.54,10.99-2.2,16.18-4.51
				c0.55-0.25,1.06,0.57,0.48,0.84c-5.24,2.54-10.86,4.13-16.66,4.68c-4.67,0.45-11.62,1.04-15.58-2.01
				C861.17,934.63,861.42,934.18,861.76,934.36z"/>
			<path class="st32" d="M857.74,958.59c-2.47-1.28-2.67-4.98-2.51-7.47c0.25-3.83,1.86-7.33,4.6-9.98
				c-0.73-0.44-1.32-0.99-1.78-1.63c-2.37,4.25-8.65,18.86-0.28,20.98C857.58,959.85,857.55,959.19,857.74,958.59z"/>
			<path class="st32" d="M896.39,933.7c-0.07-0.04-0.09-0.1-0.11-0.15c-0.28,0.03-0.52,0.12-0.62,0.45c-0.17,0.56,0.4,0.8,0.63,1.21
				c0.02,0.04,0.02,0.09,0.02,0.13c4.46,1.69-1.86,8.65-3.56,10.6c-4.92,5.64-11.2,10.14-18.2,12.82c-0.01,0-0.02,0-0.02,0
				c-0.01,0.02,0,0.05-0.01,0.07c-0.18,0.37-0.32,0.9-0.23,1.32c0.04,0.19,0.15,0.35,0.25,0.51c5.49-2.53,10.59-5.66,15.19-9.6
				c2.04-1.74,4.04-3.6,5.8-5.63c1.14-1.32,2.27-2.72,3.11-4.26C899.98,938.72,898.81,935.23,896.39,933.7z"/>
			<path class="st21" d="M896.12,937.56c-0.04,0.48-0.13,1-0.26,1.52c-0.33,1.24-0.85,2.46-1.19,2.9c-0.82,1.12-1.69,2.22-2.6,3.26
				c-1.57,1.81-3.29,3.49-5.12,5.01c-3.73,3.09-7.8,5.39-12.18,7.37c-0.14-0.4-0.48-0.71-0.9-0.81c-0.16-0.05-0.33-0.06-0.49-0.04
				c-0.25,0.04-0.47,0.12-0.66,0.24c-2.26-0.45-4.65-0.58-7.02-0.58c-0.01-0.02,0-0.04-0.01-0.05c-1.75-4.85-3.25-9.97-5.53-14.6
				c0.08-0.11,0.17-0.23,0.25-0.35C868.79,945.59,890.44,939.06,896.12,937.56z"/>
			<path class="st33" d="M873.81,957.8c-0.04,0.02-0.07,0.05-0.12,0.05c-0.06,0-0.12,0-0.17,0.01c-0.26,0.11-0.5,0.35-0.61,0.55
				c-0.2,0.38-0.24,0.9-0.2,1.32c0.05,0.49,0.24,1.07,0.61,1.42c0.16,0.15,0.3,0.21,0.45,0.25c-0.28-0.32-0.46-0.8-0.5-1.12
				c-0.11-0.75,0.1-1.45,0.73-1.84c-0.06-0.18-0.04-0.37,0.11-0.49C874.02,957.85,873.91,957.81,873.81,957.8z"/>
			<path class="st22" d="M872.41,961.79c-0.69-0.78-0.98-1.93-0.81-2.93c0.05-0.31,0.16-0.62,0.3-0.92
				c-4.19,0.11-8.46-0.34-12.66-0.22c-0.03,0-0.05-0.01-0.08-0.01c-0.44,0.62-0.69,1.41-0.54,2.13c0.12,0.56,0.65,1.03,0.69,1.57
				C863.79,961.79,867.95,962.31,872.41,961.79z"/>
			<path class="st21" d="M896.54,946.3c-1.26,5.6-1.55,11.47-1.77,17.18c-1.85-0.4-4.08,0.33-4.98,1.91
				c-0.08,0.08-0.17,0.17-0.24,0.25c-2.6-0.53-6.48,0.51-7.75,3.07c-0.29-0.19-0.61-0.35-0.96-0.48c-2.95-1.17-7.59-0.4-9.84,1.5
				c-0.35-0.39-0.82-0.65-1.32-0.83c0-0.04,0-0.07-0.02-0.12c-0.45-1.05-0.84-2.12-1.22-3.2c-0.25-0.77-0.43-1.57-0.82-2.28
				c2.13-0.05,4.26-0.28,6.26-0.61c0.18-0.02,0.29-0.12,0.35-0.24c0.23-0.08,0.42-0.22,0.57-0.47c0.04-0.06,0.06-0.13,0.05-0.19
				c0.28-0.13,0.61-0.29,0.99-0.48C880.26,959.07,890.68,952.69,896.54,946.3z"/>
			<path class="st10" d="M877.05,936.87c5.8-0.55,11.43-2.14,16.67-4.69c0.57-0.28,0.07-1.09-0.49-0.84
				c-5.18,2.32-10.51,3.97-16.18,4.52c-4.04,0.39-8.81,0.66-12.86-0.56c0.24-0.17,0.48-0.36,0.74-0.49c0.73-0.36,1.52-0.57,2.34-0.6
				c0.38-0.02,0.36-0.53,0-0.57c-0.88-0.1-1.75-0.03-2.58,0.29c-0.52,0.21-1.27,0.5-1.56,1.02c-0.47-0.18-0.93-0.36-1.37-0.59
				c-0.34-0.18-0.59,0.28-0.29,0.5C865.43,937.9,872.38,937.31,877.05,936.87z"/>
			<path class="st10" d="M896.66,964.49c-0.19-0.2-0.41-0.37-0.65-0.51c0.23-6.21,1.07-12.37,1.33-18.57
				c2.25-2.65,3.64-5.26,3.4-7.54c0.12-0.07,0.21-0.17,0.2-0.33c-0.01-0.12-0.03-0.23-0.05-0.35c0.03-0.07,0.05-0.15,0.03-0.25
				c-0.08-0.51-0.1-1.14-0.28-1.65c0.01-0.05,0.04-0.08,0.04-0.14c-0.05-3.5-0.84-7.24-4.27-8.9c-4.36-2.11-10.81-1.28-15.42-0.75
				c-6.09,0.69-12.07,2.28-17.82,4.37c-2.28,0.83-4.88,1.65-5.55,3.87c-0.12-0.03-0.26,0.01-0.3,0.17
				c-0.49,2.16-0.29,3.84,0.43,5.14c-0.08,0.01-0.15,0.05-0.21,0.13c-3.63,4.88-9.38,20.26,0.05,22.45c0.27,0.06,0.48-0.06,0.6-0.24
				c0.08,0.13,0.15,0.27,0.25,0.4c0.06,0.07,0.14,0.11,0.23,0.13c0.01,0.01,0.02,0.02,0.03,0.03c2.57,1.02,5.43,1.39,8.29,1.38
				c-0.09,1.74,0.78,3.71,1.51,5.36c-1.39-0.09-2.86,0.39-3.66,1.34c-0.22,0.26,0.05,0.63,0.36,0.47c0.91-0.46,1.79-0.88,2.84-0.83
				c1.08,0.05,1.78,0.68,2.72,1.1c0.27,0.12,0.6-0.05,0.64-0.3c1.76-0.49,3.35-1.23,5.24-1.36c1.82-0.13,3.5,0.55,5.26,0.52
				c0.19,0,0.34-0.17,0.36-0.35c1.05-0.78,1.91-1.67,3.19-2.16c1.34-0.52,2.69-0.53,4.09-0.36c0.13,0.02,0.23-0.03,0.32-0.1
				c0.34-0.13,0.49-0.45,0.78-0.74c0.38-0.37,0.83-0.61,1.22-0.95c0.05-0.04,0.07-0.09,0.08-0.15c0.22-0.09,0.44-0.17,0.69-0.23
				c1.36-0.29,2.35,0.31,3.55,0.85c0.33,0.15,0.64-0.03,0.72-0.3c0.76-0.32,1.44-0.77,2.26-0.95c1.3-0.28,1.95,0.24,2.9,1.01
				c0.34,0.28,0.96,0.03,0.8-0.47C902.06,962.13,898.23,963.14,896.66,964.49z M898.64,941.17c-0.84,1.54-1.96,2.94-3.11,4.26
				c-1.76,2.03-3.76,3.88-5.8,5.63c-4.6,3.94-9.7,7.07-15.19,9.6c-0.11-0.16-0.21-0.33-0.25-0.51c-0.09-0.42,0.05-0.94,0.23-1.32
				c0.01-0.02,0-0.05,0.01-0.07c0.01,0,0.02,0,0.02,0c6.99-2.68,13.28-7.18,18.2-12.82c1.69-1.94,8.02-8.9,3.56-10.6
				c0-0.04,0.01-0.09-0.02-0.13c-0.23-0.41-0.8-0.65-0.63-1.21c0.1-0.32,0.34-0.42,0.62-0.45c0.02,0.06,0.05,0.11,0.11,0.15
				C898.81,935.23,899.98,938.72,898.64,941.17z M873.99,958.44c-0.64,0.39-0.84,1.08-0.73,1.84c0.05,0.32,0.23,0.79,0.5,1.12
				c-0.15-0.04-0.29-0.1-0.45-0.25c-0.37-0.35-0.56-0.92-0.61-1.42c-0.04-0.42-0.01-0.94,0.2-1.32c0.1-0.19,0.35-0.44,0.61-0.55
				c0.06,0,0.12,0,0.17-0.01c0.05,0,0.08-0.03,0.12-0.05c0.11,0.01,0.21,0.05,0.29,0.15C873.95,958.07,873.93,958.26,873.99,958.44z
				 M873.36,956.78c-0.25,0.03-0.47,0.12-0.67,0.24c-2.25-0.45-4.64-0.59-7.02-0.59c0-0.02,0-0.03-0.01-0.05
				c-1.75-4.85-3.25-9.97-5.53-14.6c0.09-0.11,0.17-0.23,0.26-0.34c8.39,4.15,30.04-2.38,35.73-3.88c-0.12,1.63-0.99,3.77-1.46,4.42
				c-0.82,1.12-1.69,2.21-2.6,3.26c-1.56,1.8-3.28,3.49-5.12,5.01c-3.73,3.1-7.8,5.39-12.18,7.37
				C874.57,957.07,873.99,956.7,873.36,956.78z M858.02,935.39c0.38-3.93,7.18-5.12,10.16-6.02c3.69-1.11,7.42-2,11.23-2.55
				c3.52-0.51,7.05-0.73,10.61-0.55c2.58,0.13,4.4,0.3,6.54,1.84c2.57,1.85,2.86,3.88,3.06,6.93c-0.11-0.13-0.23-0.26-0.34-0.38
				c-0.52-0.59-1.38-1.47-2.23-1.69c-0.66-0.75-2-0.1-2.29,0.7c-0.2,0.54,0.08,1.51,0.61,1.87c0.02,0.07,0.06,0.13,0.14,0.18
				c0.28,0.14,0.45,0.41,0.54,0.76c-6.16,1.58-12.33,3.17-18.63,4.09c-3.37,0.49-6.77,0.77-10.18,0.74
				c-1.41-0.01-4.55,0.19-5.77-0.44c-1.88-0.96-3.07-3.26-3.49-5.39C858,935.44,858.02,935.43,858.02,935.39z M858.05,939.51
				c0.46,0.65,1.05,1.19,1.78,1.63c-2.74,2.65-4.35,6.14-4.6,9.98c-0.16,2.48,0.04,6.19,2.51,7.47c-0.19,0.6-0.16,1.26,0.03,1.9
				C849.4,958.38,855.68,943.76,858.05,939.51z M858.12,957.82c-3.5-4.57-1.56-10.93,1.54-15.37c1.18,4.75,3.16,9.4,4.82,14
				c-1.78,0.03-3.54,0.12-5.23,0.2c-0.32,0.01-0.49,0.25-0.51,0.5C858.48,957.34,858.29,957.57,858.12,957.82z M859.32,961.41
				c-0.04-0.54-0.57-1.01-0.69-1.57c-0.15-0.73,0.1-1.51,0.54-2.13c0.03,0,0.05,0.01,0.08,0.01c4.2-0.12,8.47,0.33,12.66,0.22
				c-0.15,0.29-0.25,0.61-0.3,0.92c-0.17,1.01,0.12,2.15,0.81,2.93C867.95,962.31,863.79,961.79,859.32,961.41z M889.78,965.4
				c-0.08,0.08-0.16,0.16-0.23,0.25c-2.61-0.53-6.48,0.51-7.75,3.07c-2.8-1.82-8.29-1.1-10.8,1.03c-0.36-0.38-0.82-0.65-1.33-0.82
				c-0.01-0.04-0.01-0.08-0.03-0.12c-0.45-1.05-0.85-2.12-1.21-3.21c-0.26-0.76-0.44-1.57-0.82-2.28c2.13-0.04,4.25-0.28,6.25-0.61
				c0.18-0.03,0.29-0.13,0.35-0.25c0.22-0.07,0.43-0.21,0.57-0.46c0.04-0.06,0.05-0.13,0.05-0.2c3.64-1.64,15.34-8.57,21.7-15.49
				c-1.26,5.6-1.55,11.46-1.77,17.18C892.92,963.08,890.69,963.81,889.78,965.4z"/>
			<path class="st34" d="M875.82,961.31c1.34,2.52,3.03,4.86,5.01,6.92c-2.95-1.17-7.59-0.4-9.84,1.5
				c-0.35-0.39-0.82-0.65-1.32-0.83c0-0.04,0-0.07-0.02-0.12c-0.45-1.05-0.84-2.12-1.22-3.2c-0.25-0.77-0.43-1.57-0.82-2.28
				c2.13-0.05,4.26-0.28,6.26-0.61c0.18-0.02,0.29-0.12,0.35-0.24c0.23-0.08,0.42-0.22,0.57-0.47c0.04-0.06,0.06-0.13,0.05-0.19
				C875.11,961.66,875.45,961.51,875.82,961.31z"/>
			<path class="st34" d="M896.12,937.56c-0.04,0.48-0.13,1-0.26,1.52c-2.06,1.35-4.67,2.05-7.13,2.62c-3.19,0.76-6.38,1.5-9.57,2.26
				c-1.87,0.45-3.86,0.95-5.15,2.4c-1.72,1.94-1.57,4.89-1,7.42c0.23,1.02,0.52,2.03,0.85,3.03c-0.16-0.05-0.33-0.06-0.49-0.04
				c-0.25,0.04-0.47,0.12-0.66,0.24c-2.26-0.45-4.65-0.58-7.02-0.58c-0.01-0.02,0-0.04-0.01-0.05c-1.75-4.85-3.25-9.97-5.53-14.6
				c0.08-0.11,0.17-0.23,0.25-0.35C868.79,945.59,890.44,939.06,896.12,937.56z"/>
			<path class="st34" d="M896.06,936.46c-6.15,1.59-12.34,3.18-18.64,4.09c-3.37,0.49-6.77,0.77-10.17,0.73
				c-1.42-0.01-4.55,0.19-5.78-0.43c-1.88-0.96-3.07-3.26-3.48-5.38c0.01-0.04,0.04-0.05,0.04-0.08c0.02-0.19,0.05-0.37,0.11-0.55
				c0.83,1.67,3.33,4.23,10.78,5.15c6.98,0.87,19.25-1.96,25.89-5.35c0.1,0.36,0.3,0.71,0.58,0.89c0.02,0.07,0.06,0.13,0.14,0.18
				C895.8,935.85,895.96,936.13,896.06,936.46z"/>
			<path class="st34" d="M899.62,935.04c-0.11-0.13-0.23-0.26-0.34-0.39c-0.46-0.52-1.17-1.25-1.9-1.58
				c0.78-0.58,1.36-1.16,1.69-1.72C899.42,932.42,899.54,933.62,899.62,935.04z"/>
		</g>
		<path class="st35" d="M1855.8,722.46c-19.65,6.2-7.78,0.95-37.86,6.58c-108.14,20.23-554.27,59.45-672.34,66.31
			c-58.12,3.38-118.26-1.19-175.57,3.95c-58.16,5.22-107.73,19.87-159.72,31.57s-113.47,20.81-170.39,13.71
			c-23.65-2.95-44.79-8.53-68.18-11.8c-91.6-12.81-195.37,11.78-288.01,0.23c-88.97-11.09-135.1-50.97-215.5-69.87
			c-21.31-5.01-44.47-9.08-68.43-12.72v15.67c22.37,3.92,39.25,8.12,45.16,12.46c19.22,14.13,48.35,83.53,152.18,86.16
			c103.83,2.63,270.47-31.94,313.04-25.49c42.57,6.45,162.78,18.52,231.42,25.64c97.55,10.11,182.31-53.28,238.02-53.09
			c55.71,0.19,229.24,3.97,292.19-7.12c62.94-11.09,529.03-70.52,570.98-72c24.24-0.85,73.35-11.37,104.37-15.48
			C1930.7,717.34,1871.56,717.49,1855.8,722.46z"/>
		<g>
			<g>
				<path class="st36" d="M1022.85,899.14c0,0,0.01-0.01,0.01-0.03c3.36-5.03,8.21-8.6,13.48-9.55c4.19-0.76,8.46,0,12.7,0.03
					c1.5,0,3.01-0.09,4.5-0.38c7.91-1.53,14.48-8.45,22.28-10.76c6.71-1.98,13.59-0.38,20.11,2.7c0.33-3.71,0.75-9.04,1.2-15.94
					c8.2,0.71,20.83,3.85,23.99,7.22c4.15,4.4,7.85,9.71,12.84,12.5c3.44,1.93,7.26,2.53,10.95,3.55c3.69,1,7.46,2.58,10.07,5.94
					c2.6,3.36,3.6,8.94,1.34,12.65c-2.29,3.81-6.73,4.23-10.61,4.31c-39.02,0.83-78.05,1.64-117.09,2.47
					c-2.58,0.06-5.34,0.05-7.47-1.74c-0.59-0.5-1.09-1.19-1.44-1.98c-0.36-0.76-0.59-1.63-0.64-2.47
					C1019.87,904.55,1021.17,901.66,1022.85,899.14z"/>
			</g>
			<g>
				<path class="st36" d="M1036.38,726.16c5.23-1.12,17.28-3.32,32.05-3.44c14.77,0.11,26.81,2.31,32.05,3.44
					c0.11,0.03,0.23,0.05,0.33,0.08c1.76,0.39,3.21,1.58,3.92,3.22c1.94,4.51,4.65,15.03-0.4,33c-0.54,1.93-2.43,3.15-4.41,2.85
					c-5.4-0.82-16.88-2.32-31.49-2.85c-14.6,0.53-26.07,2.03-31.49,2.85c-1.97,0.3-3.87-0.92-4.41-2.85
					c-5.05-17.97-2.33-28.49-0.39-33c0.38-0.89,0.99-1.64,1.74-2.21c0.63-0.49,1.38-0.84,2.18-1.02
					C1036.17,726.21,1036.27,726.19,1036.38,726.16z"/>
			</g>
			<g>
				<path class="st36" d="M1102.18,700.66l-1.69,25.5c-5.24-1.13-17.28-3.32-32.05-3.44c-14.77,0.11-26.82,2.32-32.05,3.44
					l-1.69-25.5c0,0,2.09-0.59,6.01-1.3l1.19,9.03h6.56l0.58-10.23c2.27-0.26,4.78-0.5,7.54-0.68c0.49,2.97,1.59,9.43,1.59,9.43
					h3.39l0.87-9.72c1.91-0.06,3.89-0.1,5.96-0.1h0.16c2.07,0,4.05,0.04,5.96,0.1l0.87,9.72h3.39c0,0,1.1-6.46,1.59-9.43
					c2.75,0.18,5.27,0.41,7.54,0.68l0.58,10.23h6.56l1.18-9.03C1100.08,700.07,1102.18,700.66,1102.18,700.66z"/>
			</g>
			<g>
				<path class="st36" d="M1099.92,765.31c-5.4-0.81-16.88-2.32-31.49-2.85c-14.6,0.53-26.07,2.03-31.48,2.85c0,0-0.3,2.24,0,7.87
					c2.38,0.39,3.62,0.65,3.62,0.65l-2.57,29.44c5.34,0.65,8.56,1.69,11.28,3.32c6.62,3.95-0.24,82.86-0.24,82.86v0.13
					c1.5,0,3.01-0.09,4.5-0.38c7.91-1.53,14.48-8.45,22.28-10.76c6.71-1.98,13.59-0.38,20.11,2.7c0.33-3.71,0.75-9.04,1.2-15.94
					C1098.5,844.91,1100.07,811.05,1099.92,765.31z M1087.4,814.01h-29.01c0,0-6.39-31.1,14.51-31.1
					C1093.79,782.91,1087.4,814.01,1087.4,814.01z"/>
			</g>
			<g>
				<path class="st36" d="M1072.9,782.91c20.89,0,14.51,31.1,14.51,31.1h-29.02C1058.39,814.01,1051.99,782.91,1072.9,782.91z"/>
			</g>
			<g>
				<path class="st36" d="M1038,803.28c5.34,0.65,8.56,1.69,11.28,3.32c6.62,3.95-0.24,82.86-0.24,82.86v0.13
					c-4.24-0.03-8.51-0.79-12.7-0.03c-5.27,0.95-10.12,4.53-13.48,9.55c0.84-2.51,21.88-66.72-25.84-66.72
					c-42.54,0-25.53,54.79-24.79,57.11c-2.83,0.11-5.65,0.14-8.44-0.3c-6.75-1.07-12.69-4.75-18.91-7.66
					c-0.7-7.96-6.13-71.25,0.08-74.94c2.73-1.63,5.96-2.67,11.3-3.32c7.64-0.93,19.64-1.09,40.76-1.09h0.21
					C1018.37,802.19,1030.37,802.35,1038,803.28z"/>
			</g>
			<g>
				<path class="st36" d="M1019.08,907.66c0.05,0.84,0.28,1.71,0.64,2.47h-14.61c0.45-0.78,0.73-1.67,0.79-2.52
					c-2.92-9.3-11.45-16.63-21.1-18.06c-4.14-0.63-8.36-0.24-12.56-0.05c-0.74-2.32-17.75-57.11,24.79-57.11
					c47.72,0,26.68,64.21,25.84,66.72c0,0.01-0.01,0.03-0.01,0.03C1021.17,901.66,1019.87,904.55,1019.08,907.66z"/>
			</g>
			<g>
				<path class="st36" d="M1021.35,691.96l-0.8,12.18c-20.26-4.26-39.37-2.14-50.9,0.06l-0.81-12.24c0,0,1.63-0.46,4.68-1.02
					l0.92,7.03h5.12L980,690c1.77-0.2,3.72-0.38,5.87-0.51c0.38,2.32,1.23,7.34,1.23,7.34h2.63l0.68-7.56
					c1.02-0.04,2.07-0.06,3.15-0.06c0.49-0.01,0.98-0.01,1.48-0.01h0.13c1.62,0,3.16,0.03,4.64,0.08l0.68,7.56h2.63
					c0,0,0.85-5.02,1.23-7.34c2.14,0.14,4.1,0.31,5.87,0.53l0.45,7.96h5.1l0.93-7.03C1019.73,691.49,1021.35,691.96,1021.35,691.96z
					"/>
			</g>
			<g>
				<path class="st36" d="M898.91,887.39c0.75-0.4,1.5-0.82,2.26-1.22c10.9-5.83,23.39-10.63,35.4-7.72c2.88,0.7,5.63,1.82,8.33,3.1
					c6.22,2.91,12.16,6.6,18.91,7.66c2.78,0.44,5.6,0.41,8.44,0.3c4.2-0.19,8.43-0.58,12.56,0.05c9.65,1.43,18.18,8.75,21.1,18.06
					c-0.06,0.85-0.34,1.74-0.79,2.52c-0.43,0.79-1.03,1.48-1.76,1.98c-2.6,1.79-5.98,1.81-9.13,1.74
					c-47.69-0.83-95.38-1.64-143.07-2.47c-4.73-0.09-10.16-0.5-12.97-4.31c-2.75-3.71-1.53-9.29,1.66-12.65
					c3.17-3.36,7.79-4.94,12.29-5.94c4.51-1.02,9.18-1.62,13.38-3.55c6.11-2.8,10.62-8.1,15.69-12.5c4.21-3.67,9.44-6.9,14.88-7.11
					C897.5,880.93,898.91,887.39,898.91,887.39z"/>
			</g>
			<g>
				<path class="st36" d="M1036.95,773.18c-1.13-0.19-2.5-0.39-4.11-0.61l-1.52,8.81h-8.45l-0.75-9.99
					c-2.92-0.26-6.16-0.49-9.69-0.66c-0.63,2.88-2.06,9.22-2.06,9.22h-4.35l-1.12-9.49c-2.45-0.06-5-0.1-7.66-0.1h-0.21
					c-2.67,0-5.23,0.04-7.67,0.1l-1.1,9.49h-4.36c0,0-1.43-6.33-2.06-9.22c-3.54,0.18-6.77,0.4-9.69,0.66l-0.74,9.99h-8.45
					l-0.63-3.62c0.49-1.92,0.89-3.74,1.2-5.47c2.43-13.32,0.24-21.45-1.4-25.28c-0.68-1.54-2.01-2.68-3.62-3.13l1.29-19.44
					c0,0-1.17-0.33-3.39-0.79l1.53-12.53c0.33-2.61,2.21-4.76,4.76-5.4c1.82-0.45,4.16-0.99,6.96-1.53
					c11.52-2.21,30.63-4.33,50.9-0.06c2.11,0.45,4.24,0.97,6.37,1.55c2.45,0.68,4.25,2.75,4.61,5.25l2.36,16.31
					c-0.75,0.56-1.37,1.32-1.74,2.21c-1.94,4.51-4.66,15.03,0.39,33c0.54,1.93,2.45,3.15,4.41,2.85
					C1036.95,765.31,1036.65,767.55,1036.95,773.18z"/>
			</g>
			<g>
				<path class="st36" d="M963.52,772.29c-0.31,1.73-0.71,3.55-1.2,5.47l-0.89-5.19c-5.05,0.69-7.75,1.27-7.75,1.27l0.75,8.61
					c-6.09-0.84-16.24-1.98-28.61-2.43c-14.6,0.53-26.08,2.03-31.49,2.85c-0.38,0.06-0.76,0.06-1.13,0.01
					c-1.53-0.21-2.85-1.3-3.29-2.86c-5.05-17.97-2.34-28.49-0.4-33c0.71-1.64,2.18-2.83,3.94-3.22c0.04-0.01,0.08-0.01,0.13-0.02
					c5.13-1.12,17.28-3.37,32.24-3.49c15.08,0.11,27.31,2.41,32.36,3.51c0.11,0.03,0.21,0.05,0.31,0.09
					c1.62,0.45,2.95,1.59,3.62,3.13C963.76,750.84,965.95,758.98,963.52,772.29z"/>
			</g>
			<g>
				<path class="st36" d="M1040.57,773.84l-2.57,29.44c-7.64-0.93-19.64-1.09-40.76-1.09h-0.21c-21.13,0-33.13,0.16-40.76,1.09
					l-1.83-20.83l-0.75-8.61c0,0,2.7-0.58,7.75-1.27l0.89,5.19l0.63,3.62h8.45l0.74-9.99c2.92-0.26,6.16-0.49,9.69-0.66
					c0.63,2.88,2.06,9.22,2.06,9.22h4.36l1.1-9.49c2.45-0.06,5-0.1,7.67-0.1h0.21c2.66,0,5.22,0.04,7.66,0.1l1.12,9.49h4.35
					c0,0,1.43-6.33,2.06-9.22c3.54,0.18,6.77,0.4,9.69,0.66l0.75,9.99h8.45l1.52-8.81c1.62,0.23,2.98,0.43,4.11,0.61
					C1039.33,773.57,1040.57,773.84,1040.57,773.84z"/>
			</g>
			<g>
				<path class="st36" d="M959.78,724.45l-1.29,19.44c-0.1-0.04-0.2-0.06-0.31-0.09c-5.05-1.1-17.28-3.4-32.36-3.51
					c-14.96,0.11-27.11,2.37-32.24,3.49l-1.28-19.32c0,0,2.09-0.59,6.01-1.3l1.18,9.04h6.57l0.58-10.23
					c2.27-0.26,4.79-0.5,7.54-0.68c0.49,2.97,1.59,9.42,1.59,9.42h3.39l0.85-9.71c1.91-0.06,3.89-0.1,5.96-0.1h0.16
					c2.07,0,4.05,0.04,5.96,0.1l0.87,9.71h3.39c0,0,1.1-6.44,1.59-9.42c2.76,0.18,5.27,0.41,7.54,0.68l0.58,10.23h6.57l1.18-9.04
					c0.99,0.19,1.87,0.35,2.62,0.51C958.62,724.12,959.78,724.45,959.78,724.45z"/>
			</g>
			<g>
				<path class="st36" d="M944.96,806.6c2.73-1.63,5.96-2.67,11.3-3.32l-1.83-20.83c-6.09-0.84-16.24-1.98-28.61-2.43
					c-14.6,0.53-26.08,2.03-31.49,2.85c-0.38,0.06-0.76,0.06-1.13,0.01c-0.1,39.64,1.4,66.08,2.88,82.44
					c1.42,15.61,2.82,22.07,2.82,22.07c0.75-0.4,1.5-0.82,2.26-1.22c10.9-5.83,23.38-10.63,35.4-7.72c2.88,0.7,5.63,1.82,8.33,3.1
					C944.19,873.58,938.76,810.3,944.96,806.6z M936.8,834.39h-29.01c0,0-6.38-31.1,14.51-31.1
					C943.19,803.29,936.8,834.39,936.8,834.39z"/>
			</g>
			<g>
				<path class="st36" d="M922.29,803.29c20.9,0,14.51,31.1,14.51,31.1h-29.01C907.78,834.39,901.4,803.29,922.29,803.29z"/>
			</g>
			<g>
				<path class="st15" d="M1027.38,914.57c-2.13,0-4.66-0.24-6.67-1.93c-0.67-0.57-1.23-1.34-1.63-2.23
					c-0.4-0.84-0.64-1.78-0.7-2.71c0-0.07,0-0.14,0.02-0.21c0.8-3.13,2.09-6.06,3.85-8.7c0.01-0.02,0.02-0.04,0.04-0.06
					c3.54-5.3,8.62-8.89,13.93-9.85c2.9-0.53,5.86-0.35,8.72-0.17c1.35,0.08,2.75,0.17,4.11,0.18c1.69,0,3.08-0.12,4.37-0.36
					c4.12-0.8,7.99-3.18,11.74-5.48c3.33-2.05,6.77-4.16,10.48-5.26c5.88-1.74,12.34-0.98,19.7,2.32c0.28-3.31,0.69-8.36,1.12-14.94
					c0.01-0.19,0.1-0.36,0.24-0.48c0.14-0.12,0.33-0.19,0.51-0.16c7.77,0.68,20.95,3.72,24.43,7.44c1.1,1.16,2.18,2.41,3.23,3.61
					c2.89,3.32,5.87,6.76,9.45,8.76c2.53,1.42,5.37,2.12,8.11,2.8c0.9,0.22,1.79,0.44,2.68,0.69c3.32,0.9,7.51,2.42,10.43,6.19
					c2.63,3.4,3.87,9.36,1.39,13.44c-2.68,4.46-8.21,4.58-11.18,4.65l-117.09,2.47C1028.25,914.56,1027.82,914.57,1027.38,914.57z
					 M1019.78,907.73c0.06,0.71,0.26,1.45,0.57,2.11c0.32,0.71,0.75,1.31,1.26,1.75c1.87,1.57,4.27,1.65,7.01,1.58l117.09-2.47
					c3.74-0.08,7.92-0.47,10.03-3.98c2.17-3.57,1.04-8.84-1.3-11.87c-2.67-3.44-6.59-4.85-9.7-5.7c-0.88-0.24-1.76-0.46-2.65-0.68
					c-2.83-0.7-5.76-1.42-8.46-2.94c-3.78-2.12-6.85-5.65-9.82-9.06c-1.04-1.19-2.11-2.43-3.19-3.57
					c-2.77-2.96-14.34-6.09-22.84-6.94c-0.46,6.92-0.88,12.09-1.16,15.24c-0.02,0.23-0.15,0.43-0.35,0.54
					c-0.2,0.11-0.44,0.12-0.64,0.03c-7.42-3.5-13.84-4.37-19.62-2.66c-3.53,1.04-6.89,3.11-10.14,5.11
					c-3.85,2.37-7.84,4.82-12.21,5.66c-1.37,0.27-2.84,0.39-4.63,0.39c-1.41-0.01-2.82-0.1-4.2-0.18c-2.78-0.17-5.64-0.35-8.38,0.15
					c-4.93,0.89-9.67,4.25-13,9.22c-0.01,0.02-0.02,0.04-0.03,0.06v0C1021.77,902.01,1020.55,904.77,1019.78,907.73z"/>
			</g>
			<g>
				<path class="st37" d="M1036.35,766.05c-2.06,0-3.91-1.37-4.48-3.4c-5.08-18.05-2.4-28.71-0.36-33.46
					c0.41-0.97,1.09-1.83,1.96-2.49c0.7-0.55,1.55-0.94,2.45-1.14l0.31-0.07c0,0,0,0,0.01,0c5.82-1.24,17.73-3.34,32.19-3.45
					c14.59,0.11,26.44,2.21,32.2,3.45l0.35,0.08c1.95,0.43,3.59,1.78,4.39,3.62c2.04,4.75,4.71,15.4-0.37,33.47
					c-0.63,2.26-2.86,3.69-5.19,3.34c-5.56-0.84-17.02-2.32-31.41-2.84c-14.3,0.52-25.79,2-31.36,2.84
					C1036.82,766.03,1036.58,766.05,1036.35,766.05z M1036.53,726.84l-0.3,0.07c-0.72,0.16-1.38,0.46-1.92,0.89
					c-0.69,0.51-1.21,1.18-1.53,1.93c-1.97,4.58-4.54,14.91,0.42,32.54c0.44,1.59,2,2.59,3.64,2.35c5.6-0.84,17.15-2.33,31.57-2.85
					c14.5,0.52,26.03,2.01,31.61,2.85c1.64,0.25,3.2-0.76,3.64-2.35c4.97-17.66,2.4-27.97,0.43-32.54
					c-0.62-1.42-1.91-2.48-3.44-2.82l-0.33-0.08c-5.71-1.23-17.45-3.31-31.9-3.42C1054.11,723.53,1042.3,725.61,1036.53,726.84z"/>
			</g>
			<g>
				<path class="st15" d="M1036.38,726.86c-0.15,0-0.3-0.05-0.42-0.14c-0.16-0.12-0.26-0.31-0.27-0.51l-1.69-25.5
					c-0.02-0.33,0.19-0.63,0.5-0.72c0.09-0.02,2.17-0.61,6.07-1.32c0.19-0.03,0.38,0.01,0.53,0.12c0.15,0.11,0.26,0.28,0.28,0.47
					l1.11,8.42h5.29l0.54-9.58c0.02-0.34,0.28-0.61,0.61-0.65c2.55-0.3,5.02-0.52,7.57-0.68c0.34-0.03,0.67,0.23,0.73,0.58
					c0.4,2.43,1.21,7.2,1.49,8.85h2.16l0.81-9.08c0.03-0.35,0.32-0.62,0.67-0.63c2.07-0.07,4.03-0.1,5.98-0.1h0.16
					c1.95,0,3.91,0.03,5.98,0.1c0.35,0.01,0.64,0.28,0.67,0.63l0.81,9.08h2.16c0.28-1.65,1.09-6.42,1.49-8.85
					c0.06-0.35,0.37-0.61,0.73-0.58c2.52,0.16,5.07,0.39,7.57,0.68c0.34,0.04,0.59,0.31,0.61,0.65l0.54,9.58h5.29l1.1-8.42
					c0.02-0.19,0.13-0.36,0.28-0.47c0.16-0.11,0.35-0.16,0.53-0.12c3.9,0.71,5.98,1.29,6.07,1.32c0.32,0.09,0.53,0.39,0.5,0.72
					l-1.69,25.5c-0.01,0.2-0.11,0.39-0.28,0.51c-0.16,0.12-0.36,0.17-0.56,0.12c-5.71-1.23-17.45-3.31-31.91-3.42
					c-14.32,0.11-26.14,2.19-31.9,3.42C1036.48,726.85,1036.43,726.86,1036.38,726.86z M1035.42,701.19l1.6,24.13
					c6.06-1.25,17.57-3.18,31.4-3.29c13.96,0.11,25.4,2.03,31.41,3.28l1.6-24.13c-0.77-0.2-2.36-0.58-4.68-1.01l-1.08,8.3
					c-0.05,0.35-0.34,0.6-0.69,0.6h-6.56c-0.37,0-0.67-0.29-0.69-0.66l-0.54-9.65c-2.08-0.23-4.19-0.42-6.29-0.57
					c-0.53,3.16-1.49,8.81-1.49,8.81c-0.06,0.33-0.35,0.58-0.69,0.58h-3.39c-0.36,0-0.66-0.27-0.69-0.63l-0.81-9.1
					c-1.83-0.05-3.58-0.08-5.32-0.08h-0.16c-1.74,0-3.49,0.03-5.32,0.08l-0.81,9.1c-0.03,0.36-0.33,0.63-0.69,0.63h-3.39
					c-0.34,0-0.63-0.24-0.69-0.58c0,0-0.96-5.65-1.49-8.81c-2.11,0.14-4.18,0.33-6.29,0.57l-0.54,9.65
					c-0.02,0.37-0.32,0.66-0.69,0.66h-6.56c-0.35,0-0.64-0.26-0.69-0.6l-1.09-8.3C1037.79,700.61,1036.2,700.99,1035.42,701.19z"/>
			</g>
			<g>
				<path class="st38" d="M1099.92,765.31c-5.4-0.81-16.88-2.32-31.49-2.85c-14.6,0.53-26.07,2.03-31.48,2.85c0,0-0.3,2.24,0,7.87
					c2.38,0.39,3.62,0.65,3.62,0.65l-2.57,29.44c5.34,0.65,8.56,1.69,11.28,3.32c6.62,3.95-0.24,82.86-0.24,82.86v0.13
					c1.5,0,3.01-0.09,4.5-0.38c7.91-1.53,14.48-8.45,22.28-10.76c6.71-1.98,13.59-0.38,20.11,2.7c0.33-3.71,0.75-9.04,1.2-15.94
					C1098.5,844.91,1100.07,811.05,1099.92,765.31z M1087.4,814.01h-29.01c0,0-6.39-31.1,14.51-31.1
					C1093.79,782.91,1087.4,814.01,1087.4,814.01z"/>
			</g>
			<g>
				<path class="st39" d="M1087.4,814.71h-29.01c-0.33,0-0.61-0.23-0.68-0.55c-0.15-0.73-3.6-18.03,3.63-26.9
					c2.72-3.34,6.61-5.03,11.56-5.03c4.94,0,8.83,1.69,11.55,5.03c7.23,8.87,3.79,26.17,3.64,26.9
					C1088.02,814.47,1087.73,814.71,1087.4,814.71z M1087.4,814.01h0.01H1087.4z M1058.97,813.32h27.86
					c0.53-3.03,2.67-17.68-3.46-25.19c-2.45-3-5.97-4.52-10.47-4.52c-4.51,0-8.03,1.52-10.48,4.52
					C1056.29,795.64,1058.44,810.29,1058.97,813.32z"/>
			</g>
			<g>
				<path class="st39" d="M1022.87,899.81c-0.1,0-0.21-0.02-0.31-0.07c-0.31-0.15-0.46-0.51-0.35-0.84
					c0.5-1.51,12.2-37.08-0.88-55.24c-5.04-7.01-13.22-10.56-24.31-10.56c-10.19,0-17.72,3.23-22.37,9.59
					c-11.44,15.66-2.16,45.36-1.76,46.62c0.07,0.21,0.03,0.43-0.09,0.61c-0.12,0.18-0.33,0.29-0.54,0.3
					c-2.74,0.11-5.68,0.15-8.57-0.31c-5.29-0.84-10.13-3.27-14.81-5.61c-1.42-0.72-2.85-1.43-4.29-2.1
					c-0.22-0.11-0.38-0.32-0.4-0.57c-1.48-16.8-5.83-71.88,0.41-75.6c2.96-1.77,6.42-2.79,11.57-3.42c7.63-0.93,19.74-1.1,40.85-1.1
					h0.21c21.11,0,33.22,0.17,40.85,1.1v0c5.15,0.63,8.61,1.65,11.56,3.42c6.8,4.05,0.8,75.39,0.1,83.51
					c-0.03,0.36-0.33,0.76-0.69,0.76c0,0,0,0,0,0c-1.4-0.01-2.82-0.1-4.19-0.18c-2.78-0.17-5.64-0.35-8.38,0.15
					c-4.94,0.9-9.69,4.27-13.03,9.26C1023.31,899.7,1023.09,899.81,1022.87,899.81z M997.02,831.7c11.56,0,20.12,3.75,25.44,11.14
					c11.17,15.52,4.92,43.02,2.15,52.89c3.28-3.65,7.37-6.09,11.61-6.86c2.9-0.53,5.86-0.35,8.72-0.17
					c1.14,0.07,2.31,0.14,3.46,0.17c2.62-30.38,5.05-78.98,0.53-81.68c-2.77-1.66-6.07-2.63-11.01-3.23
					c-7.56-0.92-19.63-1.09-40.68-1.09h-0.21c-21.05,0-33.12,0.17-40.68,1.09c-4.94,0.6-8.24,1.57-11.02,3.23
					c-4.11,2.45-2.85,38.81,0.23,73.89c1.33,0.63,2.65,1.29,3.96,1.95c4.59,2.3,9.33,4.68,14.4,5.48c2.47,0.39,5,0.4,7.4,0.32
					c-1.55-5.28-8.66-32.09,2.23-46.99C978.46,835.12,986.36,831.7,997.02,831.7z"/>
			</g>
			<g>
				<path class="st15" d="M1019.72,910.83h-14.61c-0.25,0-0.48-0.13-0.6-0.35c-0.12-0.22-0.12-0.48,0-0.7
					c0.37-0.64,0.61-1.38,0.69-2.09c-2.9-9.06-11.12-16.06-20.5-17.45c-3.39-0.51-6.93-0.33-10.35-0.15
					c-0.7,0.04-1.39,0.07-2.08,0.1c-0.34,0.03-0.6-0.18-0.69-0.48c-0.41-1.28-9.89-31.64,1.96-47.86
					c4.93-6.74,12.83-10.16,23.49-10.16c11.56,0,20.12,3.75,25.44,11.14c13.48,18.74,1.58,54.96,1.06,56.5l0,0
					c-0.04,0.11-0.1,0.22-0.18,0.3c-1.57,2.39-2.8,5.14-3.57,8.1c0.06,0.71,0.26,1.45,0.57,2.11c0.1,0.22,0.09,0.47-0.04,0.67
					S1019.96,910.83,1019.72,910.83z M1006.2,909.44h12.5c-0.18-0.57-0.28-1.15-0.32-1.73c0-0.07,0-0.14,0.02-0.21
					c0.79-3.12,2.08-6.04,3.83-8.67c0.77-2.33,12.01-37.23-0.9-55.17c-5.04-7.01-13.22-10.56-24.31-10.56
					c-10.19,0-17.72,3.23-22.37,9.59c-10.77,14.74-3.18,41.92-1.92,46.11c0.51-0.02,1.02-0.05,1.54-0.08
					c3.49-0.18,7.1-0.37,10.63,0.16c9.94,1.47,18.64,8.92,21.66,18.53c0.03,0.08,0.04,0.17,0.03,0.26
					C1006.55,908.25,1006.42,908.86,1006.2,909.44z"/>
			</g>
			<g>
				<path class="st15" d="M969.65,704.89c-0.15,0-0.3-0.05-0.42-0.15c-0.16-0.12-0.26-0.3-0.27-0.5L968.14,692
					c-0.02-0.33,0.19-0.62,0.5-0.71c0.07-0.02,1.7-0.48,4.74-1.03c0.19-0.03,0.38,0.01,0.53,0.12c0.15,0.11,0.25,0.28,0.28,0.47
					l0.84,6.43h3.85l0.42-7.32c0.02-0.34,0.28-0.61,0.61-0.65c1.84-0.21,3.83-0.38,5.9-0.52c0.35-0.03,0.67,0.23,0.73,0.58
					c0.3,1.84,0.89,5.37,1.13,6.75h1.41l0.62-6.93c0.03-0.35,0.32-0.62,0.67-0.63c1.02-0.04,2.09-0.06,3.17-0.06
					c0.48-0.01,0.97-0.01,1.48-0.01c1.75,0,3.3,0.03,4.79,0.08c0.35,0.01,0.64,0.28,0.67,0.63l0.62,6.93h1.41
					c0.23-1.39,0.83-4.91,1.13-6.75c0.06-0.35,0.38-0.6,0.73-0.58c2.16,0.14,4.14,0.32,5.91,0.53c0.34,0.04,0.59,0.31,0.61,0.65
					l0.41,7.31h3.84l0.85-6.43c0.03-0.19,0.13-0.36,0.28-0.47c0.15-0.11,0.35-0.16,0.53-0.12c3.05,0.55,4.67,1.01,4.73,1.03
					c0.31,0.09,0.52,0.39,0.5,0.71l-0.8,12.18c-0.01,0.2-0.11,0.39-0.27,0.51c-0.16,0.12-0.36,0.17-0.56,0.13
					c-19.81-4.17-38.46-2.26-50.62,0.07C969.74,704.89,969.7,704.89,969.65,704.89z M969.57,692.48l0.72,10.88
					c12.13-2.25,30.29-3.99,49.61-0.08l0.71-10.81c-0.61-0.15-1.74-0.42-3.34-0.72l-0.83,6.31c-0.05,0.35-0.34,0.6-0.69,0.6h-5.1
					c-0.37,0-0.67-0.29-0.69-0.66l-0.42-7.38c-1.41-0.16-2.96-0.3-4.62-0.41c-0.41,2.49-1.13,6.72-1.13,6.72
					c-0.06,0.33-0.35,0.58-0.69,0.58h-2.63c-0.36,0-0.66-0.27-0.69-0.63l-0.62-6.95c-1.28-0.04-2.62-0.06-4-0.06
					c-0.01,0-0.01,0-0.02,0c-0.61,0-1.09,0-1.57,0.01c-0.87,0-1.71,0.02-2.53,0.04l-0.62,6.95c-0.03,0.36-0.33,0.63-0.69,0.63h-2.63
					c-0.34,0-0.63-0.24-0.69-0.58c0,0-0.72-4.23-1.13-6.72c-1.61,0.11-3.16,0.25-4.62,0.41l-0.42,7.39
					c-0.02,0.37-0.33,0.66-0.69,0.66h-5.12c-0.35,0-0.64-0.26-0.69-0.61l-0.82-6.31C971.32,692.06,970.18,692.33,969.57,692.48z"/>
			</g>
			<g>
				<path class="st15" d="M995.75,914.57c-0.54,0-1.05-0.01-1.54-0.02l-143.07-2.47c-4.97-0.09-10.52-0.53-13.51-4.6
					c-3.05-4.13-1.53-10.13,1.71-13.54c3.53-3.73,8.61-5.25,12.64-6.14c1.08-0.24,2.16-0.46,3.25-0.68
					c3.37-0.68,6.86-1.38,9.99-2.82c4.4-2.02,8.06-5.46,11.59-8.79c1.27-1.2,2.59-2.44,3.93-3.6c5.32-4.64,10.47-7.09,15.31-7.28
					c0.37-0.02,0.69,0.26,0.72,0.63c1.1,12.16,2.21,18.8,2.63,21.07l1.43-0.77c9.1-4.87,22.72-10.97,35.89-7.79
					c2.57,0.62,5.26,1.62,8.46,3.14c1.45,0.68,2.88,1.4,4.32,2.12c4.59,2.3,9.33,4.68,14.4,5.48c2.78,0.44,5.63,0.4,8.3,0.29
					c0.69-0.03,1.38-0.07,2.07-0.1c3.49-0.18,7.1-0.37,10.63,0.16c9.94,1.47,18.64,8.92,21.66,18.53c0.03,0.08,0.04,0.17,0.03,0.26
					c-0.07,0.96-0.38,1.96-0.88,2.82c-0.47,0.88-1.16,1.65-1.96,2.2C1001.36,914.34,998.32,914.57,995.75,914.57z M895.46,866.05
					c-4.33,0.37-8.97,2.69-13.8,6.9c-1.32,1.14-2.62,2.38-3.89,3.57c-3.62,3.41-7.36,6.93-11.97,9.04
					c-3.27,1.51-6.84,2.22-10.29,2.92c-1.08,0.22-2.15,0.43-3.22,0.68c-3.84,0.86-8.67,2.28-11.94,5.74c-2.85,3-4.22,8.22-1.6,11.76
					c2.62,3.56,7.79,3.95,12.42,4.03l143.07,2.47c3.39,0.07,6.39-0.01,8.72-1.62c0.63-0.43,1.16-1.03,1.54-1.74
					c0.38-0.66,0.63-1.4,0.7-2.11c-2.9-9.06-11.12-16.06-20.5-17.45c-3.39-0.51-6.93-0.33-10.35-0.15c-0.7,0.04-1.39,0.07-2.08,0.1
					c-2.74,0.11-5.68,0.15-8.58-0.31c-5.29-0.84-10.13-3.27-14.81-5.61c-1.42-0.72-2.85-1.43-4.29-2.1
					c-3.12-1.48-5.72-2.45-8.2-3.05c-12.71-3.08-26,2.9-34.91,7.66l-2.26,1.22c-0.19,0.1-0.42,0.11-0.62,0.02
					c-0.2-0.09-0.34-0.27-0.39-0.48C898.21,887.47,896.84,881.05,895.46,866.05z"/>
			</g>
			<g>
				<path class="st15" d="M1031.32,782.08h-8.45c-0.36,0-0.66-0.28-0.69-0.64l-0.71-9.41c-2.65-0.23-5.5-0.43-8.49-0.58
					c-0.67,3.07-1.93,8.65-1.93,8.65c-0.07,0.32-0.35,0.54-0.68,0.54h-4.35c-0.35,0-0.65-0.26-0.69-0.61l-1.04-8.89
					c-2.37-0.06-4.74-0.09-7.04-0.09h-0.21c-2.31,0-4.68,0.03-7.05,0.09l-1.03,8.89c-0.04,0.35-0.34,0.61-0.69,0.61h-4.36
					c-0.33,0-0.61-0.23-0.68-0.54c0,0-1.26-5.57-1.93-8.65c-2.99,0.15-5.84,0.35-8.49,0.58l-0.7,9.41
					c-0.03,0.36-0.33,0.64-0.69,0.64h-8.45c-0.34,0-0.63-0.24-0.68-0.58l-0.63-3.62c-0.02-0.1-0.01-0.2,0.01-0.29
					c0.49-1.91,0.89-3.73,1.19-5.42c2.42-13.26,0.19-21.28-1.36-24.88c-0.59-1.34-1.74-2.34-3.17-2.74
					c-0.32-0.09-0.53-0.39-0.51-0.72l1.25-18.86c-0.54-0.14-1.49-0.36-2.8-0.64c-0.35-0.07-0.59-0.41-0.55-0.76l1.53-12.53
					c0.37-2.93,2.44-5.28,5.29-5.99c2.27-0.56,4.62-1.08,7-1.54c12.29-2.35,31.14-4.27,51.17-0.06c2.22,0.47,4.37,1,6.41,1.57
					c2.7,0.75,4.71,3.03,5.12,5.82l2.36,16.31c0.04,0.25-0.07,0.5-0.27,0.65c-0.68,0.51-1.2,1.17-1.52,1.92
					c-1.97,4.58-4.54,14.91,0.42,32.54c0.44,1.59,2,2.59,3.64,2.35c0.21-0.03,0.43,0.04,0.59,0.19c0.16,0.15,0.23,0.37,0.2,0.59
					c0,0.02-0.29,2.28,0,7.75c0.01,0.21-0.07,0.41-0.23,0.55c-0.16,0.14-0.37,0.2-0.58,0.17c-0.97-0.16-2.11-0.33-3.43-0.52
					l-1.4,8.15C1031.95,781.84,1031.66,782.08,1031.32,782.08z M1023.51,780.69h7.22l1.42-8.24c0.06-0.37,0.41-0.62,0.78-0.57
					c1.24,0.17,2.33,0.33,3.28,0.48c-0.15-3.28-0.09-5.29-0.02-6.31c-1.99-0.07-3.77-1.42-4.32-3.4
					c-5.08-18.05-2.4-28.71-0.36-33.46c0.36-0.85,0.92-1.61,1.64-2.22l-2.3-15.92c-0.32-2.24-1.94-4.08-4.11-4.68
					c-2.01-0.56-4.14-1.08-6.33-1.55c-19.8-4.17-38.46-2.26-50.62,0.07c-2.35,0.45-4.68,0.97-6.92,1.52
					c-2.28,0.57-3.95,2.46-4.24,4.82l-1.45,11.89c1.81,0.39,2.76,0.66,2.81,0.67c0.32,0.09,0.53,0.39,0.51,0.71l-1.26,18.9
					c1.58,0.6,2.85,1.79,3.53,3.35c1.61,3.75,3.94,12.07,1.45,25.68c-0.3,1.68-0.7,3.48-1.18,5.37l0.5,2.9h7.22l0.69-9.35
					c0.02-0.34,0.29-0.61,0.63-0.64c3-0.27,6.27-0.5,9.72-0.67c0.32,0,0.64,0.21,0.71,0.55c0.51,2.37,1.57,7.08,1.93,8.67h3.19
					l1.03-8.88c0.04-0.34,0.33-0.61,0.67-0.61c2.59-0.07,5.18-0.1,7.69-0.1h0.21c2.51,0,5.09,0.03,7.68,0.1
					c0.35,0.01,0.63,0.27,0.67,0.61l1.04,8.88h3.18c0.36-1.59,1.42-6.3,1.93-8.67c0.07-0.33,0.38-0.56,0.71-0.55
					c3.45,0.17,6.72,0.4,9.72,0.67c0.34,0.03,0.61,0.3,0.63,0.64L1023.51,780.69z"/>
			</g>
			<g>
				<path class="st37" d="M893.73,783.61c-0.21,0-0.42-0.01-0.63-0.04c-1.84-0.26-3.35-1.57-3.86-3.36
					c-5.08-18.07-2.41-28.72-0.37-33.47c0.8-1.83,2.45-3.19,4.43-3.63c5.92-1.29,17.82-3.42,32.51-3.53
					c14.74,0.11,26.7,2.26,32.52,3.53c0.15,0.03,0.28,0.07,0.41,0.12c1.77,0.49,3.26,1.78,4.01,3.51
					c1.61,3.75,3.94,12.07,1.45,25.68l0,0c-0.31,1.72-0.72,3.58-1.22,5.51c-0.08,0.32-0.37,0.55-0.7,0.52
					c-0.33-0.01-0.6-0.25-0.66-0.58l-0.78-4.53c-3.25,0.46-5.44,0.85-6.43,1.05l0.7,7.99c0.02,0.21-0.06,0.42-0.21,0.56
					c-0.15,0.15-0.36,0.22-0.57,0.18c-6.23-0.86-16.25-1.98-28.54-2.43c-14.34,0.52-25.8,2-31.36,2.84
					C894.21,783.59,893.97,783.61,893.73,783.61z M925.81,740.98c-14.55,0.11-26.35,2.22-32.08,3.47c-1.66,0.36-2.95,1.42-3.57,2.85
					c-1.97,4.57-4.53,14.88,0.43,32.54c0.35,1.25,1.42,2.18,2.71,2.36c0.31,0.04,0.62,0.04,0.92-0.01
					c5.59-0.84,17.12-2.33,31.57-2.86c11.85,0.43,21.56,1.48,27.87,2.32l-0.68-7.75c-0.03-0.35,0.2-0.67,0.55-0.74
					c0.03-0.01,2.78-0.59,7.8-1.28c0.37-0.05,0.71,0.2,0.78,0.57l0.31,1.82c0.15-0.72,0.29-1.42,0.41-2.1c0,0,0,0,0,0
					c2.42-13.26,0.19-21.28-1.36-24.88c-0.59-1.34-1.74-2.34-3.17-2.74c-0.13-0.05-0.2-0.06-0.28-0.08
					C952.27,743.21,940.42,741.09,925.81,740.98z"/>
			</g>
			<g>
				<path class="st40" d="M1038,803.97c-0.03,0-0.06,0-0.08,0c-7.56-0.92-19.63-1.09-40.68-1.09h-0.21
					c-21.05,0-33.12,0.17-40.68,1.09c-0.19,0.02-0.37-0.03-0.52-0.15c-0.15-0.12-0.24-0.29-0.25-0.48l-2.58-29.44
					c-0.03-0.35,0.2-0.67,0.55-0.74c0.03-0.01,2.78-0.59,7.8-1.28c0.37-0.05,0.71,0.2,0.78,0.57l1.42,8.24h7.22l0.69-9.35
					c0.02-0.34,0.29-0.61,0.63-0.64c3-0.27,6.27-0.5,9.72-0.67c0.34,0,0.64,0.21,0.71,0.55c0.51,2.37,1.57,7.08,1.93,8.67h3.19
					l1.03-8.88c0.04-0.34,0.33-0.61,0.67-0.61c2.59-0.07,5.18-0.1,7.69-0.1h0.21c2.51,0,5.09,0.03,7.68,0.1
					c0.35,0.01,0.63,0.27,0.67,0.61l1.04,8.88h3.18c0.36-1.59,1.42-6.3,1.93-8.67c0.07-0.33,0.38-0.56,0.71-0.55
					c3.45,0.17,6.72,0.4,9.72,0.67c0.34,0.03,0.61,0.3,0.63,0.64l0.7,9.35h7.22l1.42-8.24c0.06-0.37,0.41-0.62,0.78-0.57
					c1.62,0.23,3,0.43,4.13,0.62c2.4,0.39,3.65,0.66,3.65,0.66c0.34,0.07,0.58,0.39,0.55,0.74l-2.57,29.44
					c-0.02,0.19-0.11,0.36-0.25,0.48C1038.31,803.92,1038.16,803.97,1038,803.97z M954.42,774.4l2.47,28.11
					c7.67-0.85,19.67-1.01,40.13-1.01h0.21c20.46,0,32.47,0.16,40.13,1.01l2.45-28.11c-0.58-0.11-1.59-0.3-2.99-0.53
					c-0.97-0.16-2.11-0.33-3.43-0.52l-1.4,8.15c-0.06,0.33-0.35,0.58-0.69,0.58h-8.45c-0.36,0-0.66-0.28-0.69-0.64l-0.71-9.41
					c-2.65-0.23-5.5-0.43-8.49-0.58c-0.67,3.07-1.93,8.65-1.93,8.65c-0.07,0.32-0.35,0.54-0.68,0.54h-4.35
					c-0.35,0-0.65-0.26-0.69-0.61l-1.04-8.89c-2.37-0.06-4.74-0.09-7.04-0.09h-0.21c-2.31,0-4.68,0.03-7.05,0.09l-1.03,8.89
					c-0.04,0.35-0.34,0.61-0.69,0.61h-4.36c-0.33,0-0.61-0.23-0.68-0.54c0,0-1.26-5.57-1.93-8.65c-2.99,0.15-5.84,0.35-8.49,0.58
					l-0.7,9.41c-0.03,0.36-0.33,0.64-0.69,0.64h-8.45c-0.34,0-0.63-0.24-0.68-0.58l-1.4-8.15
					C957.6,773.81,955.41,774.2,954.42,774.4z"/>
			</g>
			<g>
				<path class="st37" d="M958.49,744.58c-0.08,0-0.17-0.01-0.25-0.04c-0.07-0.03-0.14-0.04-0.22-0.06
					c-5.76-1.26-17.61-3.38-32.22-3.49c-14.55,0.11-26.35,2.22-32.08,3.47c-0.2,0.04-0.4,0-0.57-0.12
					c-0.16-0.12-0.26-0.31-0.28-0.51l-1.28-19.32c-0.02-0.33,0.19-0.63,0.51-0.71c0.09-0.02,2.17-0.61,6.07-1.32
					c0.19-0.03,0.38,0.01,0.53,0.12c0.15,0.11,0.26,0.28,0.28,0.47l1.1,8.44h5.3l0.54-9.58c0.02-0.34,0.28-0.61,0.61-0.65
					c2.5-0.29,5.05-0.52,7.57-0.68c0.36-0.01,0.67,0.23,0.73,0.58c0.4,2.43,1.21,7.19,1.49,8.83h2.16l0.8-9.07
					c0.03-0.35,0.32-0.62,0.67-0.63c2.05-0.07,4-0.1,5.98-0.1h0.16c1.97,0,3.93,0.03,5.98,0.1c0.35,0.01,0.64,0.28,0.67,0.63
					l0.81,9.07h2.16c0.28-1.65,1.09-6.4,1.49-8.83c0.06-0.35,0.38-0.59,0.73-0.58c2.55,0.16,5.02,0.38,7.57,0.68
					c0.34,0.04,0.59,0.31,0.61,0.65l0.54,9.58h5.3l1.1-8.44c0.02-0.19,0.13-0.36,0.28-0.47c0.16-0.11,0.35-0.15,0.54-0.12l0.4,0.08
					c0.83,0.16,1.58,0.3,2.24,0.44c2.21,0.46,3.38,0.79,3.43,0.8c0.32,0.09,0.53,0.39,0.51,0.71l-1.29,19.44
					c-0.02,0.22-0.13,0.42-0.32,0.54C958.75,744.54,958.62,744.58,958.49,744.58z M925.81,739.59c14.36,0.11,26.07,2.15,32.04,3.42
					l1.2-18.04c-0.54-0.14-1.49-0.36-2.8-0.64c-0.56-0.12-1.19-0.24-1.88-0.37l-1.08,8.31c-0.04,0.35-0.34,0.61-0.69,0.61h-6.57
					c-0.37,0-0.67-0.29-0.69-0.66l-0.54-9.65c-2.11-0.24-4.18-0.42-6.29-0.57c-0.53,3.16-1.49,8.8-1.49,8.8
					c-0.06,0.33-0.35,0.58-0.68,0.58h-3.39c-0.36,0-0.66-0.27-0.69-0.63l-0.81-9.09c-1.81-0.05-3.56-0.08-5.32-0.08h-0.16
					c-1.76,0-3.51,0.03-5.32,0.08l-0.8,9.09c-0.03,0.36-0.33,0.63-0.69,0.63h-3.39c-0.34,0-0.63-0.24-0.68-0.58
					c0,0-0.96-5.64-1.49-8.8c-2.1,0.14-4.21,0.33-6.29,0.57l-0.54,9.65c-0.02,0.37-0.32,0.66-0.69,0.66h-6.57
					c-0.35,0-0.64-0.26-0.69-0.61l-1.08-8.31c-2.31,0.44-3.91,0.82-4.68,1.01l1.19,17.95C900.26,741.65,911.76,739.69,925.81,739.59
					z"/>
			</g>
			<g>
				<path class="st38" d="M944.96,806.6c2.73-1.63,5.96-2.67,11.3-3.32l-1.83-20.83c-6.09-0.84-16.24-1.98-28.61-2.43
					c-14.6,0.53-26.08,2.03-31.49,2.85c-0.38,0.06-0.76,0.06-1.13,0.01c-0.1,39.64,1.4,66.08,2.88,82.44
					c1.42,15.61,2.82,22.07,2.82,22.07c0.75-0.4,1.5-0.82,2.26-1.22c10.9-5.83,23.38-10.63,35.4-7.72c2.88,0.7,5.63,1.82,8.33,3.1
					C944.19,873.58,938.76,810.3,944.96,806.6z M936.8,834.39h-29.01c0,0-6.38-31.1,14.51-31.1
					C943.19,803.29,936.8,834.39,936.8,834.39z"/>
			</g>
			<g>
				<path class="st39" d="M936.8,835.08h-29.01c-0.33,0-0.61-0.23-0.68-0.55c-0.15-0.73-3.6-18.03,3.64-26.9
					c2.72-3.34,6.61-5.03,11.55-5.03c4.95,0,8.83,1.69,11.56,5.03c7.23,8.87,3.78,26.17,3.63,26.9
					C937.41,834.85,937.13,835.08,936.8,835.08z M936.8,834.39h0.01H936.8z M908.36,833.69h27.86c0.53-3.03,2.67-17.68-3.45-25.19
					c-2.45-3-5.97-4.52-10.48-4.52c-4.5,0-8.03,1.52-10.47,4.52C905.7,816.01,907.84,830.66,908.36,833.69z"/>
			</g>
			<g>
				<path class="st41" d="M850.38,904.63c-0.11,0-0.21-0.02-0.32-0.08c-0.34-0.17-0.48-0.59-0.3-0.94
					c2.01-3.93,6.29-6.73,11.75-7.69c3.85-0.68,7.8-0.43,11.62-0.19c0.81,0.05,1.62,0.1,2.42,0.14c4.48,0.23,9.2,0.19,13.36-1.67
					c4.02-1.79,7.25-5.23,10.1-8.26c0.26-0.28,0.7-0.29,0.98-0.03c0.28,0.26,0.29,0.7,0.03,0.98c-2.94,3.13-6.28,6.67-10.55,8.58
					c-4.43,1.98-9.35,2.03-14,1.79c-0.81-0.04-1.63-0.09-2.44-0.14c-3.74-0.23-7.6-0.48-11.29,0.17c-4.95,0.87-8.97,3.47-10.75,6.95
					C850.87,904.5,850.63,904.63,850.38,904.63z"/>
			</g>
			<g>
				<path class="st15" d="M951.95,893.97c-0.16,0-0.32-0.05-0.45-0.16c-5.54-4.68-12.58-7.49-19.82-7.92
					c-0.38-0.02-0.68-0.35-0.65-0.73c0.02-0.38,0.35-0.68,0.73-0.65c7.54,0.44,14.87,3.37,20.64,8.24c0.29,0.25,0.33,0.69,0.08,0.98
					C952.34,893.88,952.14,893.97,951.95,893.97z"/>
			</g>
			<g>
				<path class="st15" d="M959.5,749.36c-0.06,0-0.11-0.01-0.17-0.02c-21.78-5.39-44.86-5.63-66.75-0.71
					c-0.38,0.08-0.75-0.15-0.83-0.53c-0.08-0.37,0.15-0.75,0.53-0.83c22.1-4.97,45.4-4.72,67.38,0.72c0.37,0.09,0.6,0.47,0.51,0.84
					C960.09,749.15,959.81,749.36,959.5,749.36z"/>
			</g>
			<g>
				<path class="st15" d="M1102.25,733.63c-0.06,0-0.11-0.01-0.17-0.02c-21.23-5.31-43.81-5.91-65.29-1.75
					c-0.37,0.07-0.74-0.17-0.81-0.55c-0.07-0.38,0.17-0.74,0.55-0.81c21.68-4.2,44.47-3.59,65.89,1.76c0.37,0.09,0.6,0.47,0.51,0.84
					C1102.84,733.42,1102.56,733.63,1102.25,733.63z"/>
			</g>
			<g>
				<path class="st42" d="M1075.9,817.95c-6.47,0-6.35,10.03,0.11,10.03C1082.48,827.98,1082.36,817.95,1075.9,817.95z"/>
			</g>
			<g>
				<path class="st42" d="M1077.44,844.51c-6.47,0-6.35,10.03,0.11,10.03C1084.02,854.54,1083.9,844.51,1077.44,844.51z"/>
			</g>
			<g>
				<path class="st42" d="M1008.52,739.01c-6.47,0-6.35,10.03,0.11,10.03C1015.1,749.05,1014.98,739.01,1008.52,739.01z"/>
			</g>
			<g>
				<path class="st42" d="M911.11,859.91c-6.47,0-6.35,10.03,0.11,10.03C917.68,869.94,917.57,859.91,911.11,859.91z"/>
			</g>
			<g>
				<path class="st42" d="M913.05,790.23c-0.21-0.64-0.57-1.2-1.08-1.66c-0.36-0.27-0.72-0.54-1.08-0.8
					c-0.77-0.42-1.6-0.63-2.48-0.62c-0.42,0.06-0.85,0.12-1.27,0.18c-0.87,0.24-1.62,0.69-2.26,1.33l-0.39,0.39
					c-0.5,0.48-0.85,1.04-1.04,1.68c-0.29,0.59-0.42,1.21-0.39,1.88c-0.02,0.67,0.13,1.29,0.43,1.87c0.21,0.64,0.57,1.2,1.08,1.66
					c0.36,0.27,0.72,0.54,1.08,0.8c0.77,0.42,1.6,0.63,2.48,0.62c0.42-0.06,0.85-0.12,1.27-0.18c0.87-0.24,1.62-0.69,2.26-1.33
					l0.39-0.38c0.5-0.48,0.85-1.04,1.04-1.68c0.29-0.59,0.42-1.21,0.39-1.88C913.5,791.44,913.36,790.81,913.05,790.23z"/>
			</g>
			<g>
				<path class="st42" d="M1071.31,863.19c-3.23,0-3.18,5.02,0.06,5.02C1074.6,868.21,1074.54,863.19,1071.31,863.19z"/>
			</g>
			<g>
				<path class="st42" d="M1066.69,847.41c-3.23,0-3.18,5.02,0.06,5.02C1069.98,852.42,1069.92,847.41,1066.69,847.41z"/>
			</g>
			<g>
				<path class="st42" d="M1061.68,862.42c-3.23,0-3.18,5.02,0.06,5.02C1064.97,867.44,1064.91,862.42,1061.68,862.42z"/>
			</g>
			<g>
				<path class="st42" d="M1077.08,770.4c-3.23,0-3.18,5.02,0.06,5.02C1080.37,775.42,1080.31,770.4,1077.08,770.4z"/>
			</g>
			<g>
				<path class="st42" d="M1061.68,769.24c-3.23,0-3.18,5.02,0.06,5.02C1064.97,774.26,1064.91,769.24,1061.68,769.24z"/>
			</g>
			<g>
				<path class="st42" d="M1012.4,756.92c-3.23,0-3.18,5.02,0.06,5.02C1015.69,761.94,1015.63,756.92,1012.4,756.92z"/>
			</g>
			<g>
				<path class="st42" d="M1022.02,737.67c-3.23,0-3.18,5.02,0.06,5.02C1025.31,742.69,1025.25,737.67,1022.02,737.67z"/>
			</g>
			<g>
				<path class="st42" d="M1003.16,726.12c-3.23,0-3.18,5.02,0.06,5.02C1006.45,731.14,1006.39,726.12,1003.16,726.12z"/>
			</g>
			<g>
				<path class="st42" d="M990.85,756.16c-0.1-0.32-0.28-0.6-0.54-0.83l-0.54-0.4c-0.39-0.21-0.8-0.32-1.24-0.31
					c-0.21,0.03-0.42,0.06-0.64,0.09c-0.44,0.12-0.81,0.34-1.13,0.67l-0.39,0.39c-0.25,0.24-0.42,0.52-0.52,0.84
					c-0.15,0.29-0.21,0.61-0.19,0.94c-0.01,0.33,0.06,0.65,0.21,0.93c0.1,0.32,0.28,0.6,0.54,0.83l0.54,0.4
					c0.39,0.21,0.8,0.32,1.24,0.31c0.21-0.03,0.42-0.06,0.64-0.09c0.44-0.12,0.81-0.34,1.13-0.67l0.38-0.39
					c0.25-0.24,0.42-0.52,0.52-0.84c0.14-0.29,0.21-0.61,0.19-0.94C991.07,756.76,991,756.45,990.85,756.16z"/>
			</g>
			<g>
				<path class="st42" d="M971.97,727.28c-3.23,0-3.18,5.02,0.06,5.02C975.26,732.29,975.2,727.28,971.97,727.28z"/>
			</g>
			<g>
				<path class="st42" d="M983.13,726.12c-3.23,0-3.18,5.02,0.06,5.02C986.42,731.14,986.37,726.12,983.13,726.12z"/>
			</g>
			<g>
				<path class="st42" d="M984.3,736.91c-0.1-0.32-0.28-0.6-0.54-0.83c-0.18-0.13-0.36-0.27-0.54-0.4c-0.39-0.21-0.8-0.32-1.24-0.31
					c-0.21,0.03-0.42,0.06-0.64,0.09c-0.44,0.12-0.81,0.34-1.13,0.67l-0.39,0.39c-0.25,0.24-0.42,0.52-0.52,0.84
					c-0.15,0.29-0.21,0.61-0.19,0.94c-0.01,0.33,0.06,0.65,0.21,0.93c0.1,0.32,0.28,0.6,0.54,0.83l0.54,0.4
					c0.39,0.21,0.8,0.32,1.24,0.31c0.21-0.03,0.42-0.06,0.64-0.09c0.44-0.12,0.81-0.34,1.13-0.67l0.38-0.39
					c0.25-0.24,0.42-0.52,0.52-0.84c0.15-0.29,0.21-0.61,0.19-0.94C984.52,737.51,984.45,737.2,984.3,736.91z"/>
			</g>
			<g>
				<path class="st42" d="M918.45,791.96c-3.23,0-3.18,5.01,0.06,5.01C921.74,796.98,921.68,791.96,918.45,791.96z"/>
			</g>
			<g>
				<path class="st42" d="M927.69,786.19c-3.23,0-3.18,5.02,0.06,5.02C930.98,791.2,930.92,786.19,927.69,786.19z"/>
			</g>
			<g>
				<path class="st42" d="M932.31,793.12c-3.23,0-3.18,5.02,0.06,5.02C935.6,798.13,935.54,793.12,932.31,793.12z"/>
			</g>
			<g>
				<path class="st42" d="M919.22,853.95c-3.23,0-3.18,5.02,0.06,5.02C922.51,858.97,922.45,853.95,919.22,853.95z"/>
			</g>
			<g>
				<path class="st42" d="M927.31,865.12c-3.23,0-3.17,5.02,0.06,5.02C930.59,870.13,930.54,865.12,927.31,865.12z"/>
			</g>
			<g>
				<path class="st42" d="M930,854.72c-3.23,0-3.18,5.01,0.06,5.01C933.29,859.74,933.23,854.72,930,854.72z"/>
			</g>
			<g>
				<path class="st41" d="M1145.7,906.34c-0.3,0-0.57-0.19-0.66-0.49c-0.93-2.93-3.55-5.47-7.02-6.78
					c-3.4-1.29-7.12-1.38-10.31-1.28c-0.96,0.03-1.91,0.07-2.87,0.12c-2.6,0.12-5.28,0.25-7.93,0.01c-4.29-0.39-7.75-1.7-10.27-3.9
					c-1.76-1.53-3.03-3.49-4.27-5.38c-0.33-0.51-0.66-1.02-1-1.52c-1.36-1.99-3.26-4.39-5.92-5.31c-0.36-0.12-0.55-0.52-0.43-0.88
					c0.13-0.36,0.52-0.55,0.88-0.43c3.05,1.05,5.13,3.67,6.61,5.84c0.35,0.51,0.68,1.02,1.02,1.54c1.18,1.81,2.41,3.69,4.02,5.1
					c2.29,2,5.48,3.2,9.48,3.56c2.56,0.23,5.19,0.11,7.75-0.01c0.96-0.05,1.93-0.09,2.89-0.12c3.33-0.09,7.22-0.01,10.84,1.37
					c3.86,1.47,6.8,4.33,7.85,7.66c0.12,0.37-0.09,0.76-0.45,0.87C1145.84,906.33,1145.77,906.34,1145.7,906.34z"/>
			</g>
			<g>
				<path class="st43" d="M1051.22,660.6c0,0-28.76-14.36-57.42,7.71l-2.73-41.57C991.06,626.74,1032.57,636.62,1051.22,660.6z"/>
			</g>
			<g>
				<path class="st15" d="M995.16,689.88c-0.36,0-0.67-0.28-0.69-0.65l-1.37-20.86c0-0.02,0-0.03,0-0.05l-2.72-41.55
					c-0.01-0.22,0.08-0.43,0.25-0.58c0.17-0.14,0.39-0.2,0.61-0.15c0.42,0.1,41.96,10.23,60.54,34.12c0.2,0.26,0.19,0.62-0.01,0.87
					c-0.21,0.25-0.56,0.33-0.85,0.18c-0.28-0.14-28.52-13.81-56.4,7.41l1.34,20.51c0.02,0.38-0.26,0.71-0.65,0.74
					C995.19,689.88,995.17,689.88,995.16,689.88z M991.82,627.64l2.58,39.33c23.37-17.28,46.85-10.92,54.53-8.07
					C1031.54,638.81,997.81,629.22,991.82,627.64z"/>
			</g>
			<g>
				<path class="st42" d="M918.18,901.97c-3.31,0-3.25,5.13,0.06,5.13C921.55,907.1,921.49,901.97,918.18,901.97z"/>
			</g>
			<g>
				<path class="st42" d="M972.98,905.02c-3.31,0-3.25,5.13,0.06,5.13C976.35,910.15,976.29,905.02,972.98,905.02z"/>
			</g>
			<g>
				<path class="st42" d="M1047.19,900.07c-3.31,0-3.25,5.13,0.06,5.13C1050.56,905.2,1050.5,900.07,1047.19,900.07z"/>
			</g>
			<g>
				<path class="st42" d="M1081.82,888.65c-3.31,0-3.25,5.13,0.06,5.13C1085.19,893.78,1085.13,888.65,1081.82,888.65z"/>
			</g>
			<g>
				<path class="st42" d="M1100.09,902.35c-3.31,0-3.25,5.13,0.06,5.13C1103.46,907.48,1103.4,902.35,1100.09,902.35z"/>
			</g>
			<g>
				<path class="st42" d="M909.81,889.79c-3.31,0-3.25,5.13,0.06,5.13C913.18,894.93,913.12,889.79,909.81,889.79z"/>
			</g>
			<g>
				<path class="st42" d="M877.85,887.89c-3.31,0-3.25,5.13,0.06,5.13C881.21,893.02,881.15,887.89,877.85,887.89z"/>
			</g>
			<g>
				<path class="st42" d="M934.52,894.46c-6.62,0-6.5,10.27,0.12,10.27C941.25,904.72,941.13,894.46,934.52,894.46z"/>
			</g>
			<g>
				<path class="st42" d="M894.94,899.02c-6.62,0-6.5,10.27,0.12,10.27C901.68,909.29,901.56,899.02,894.94,899.02z"/>
			</g>
			<g>
				<path class="st42" d="M1070.76,895.98c-6.62,0-6.5,10.27,0.12,10.27C1077.49,906.25,1077.37,895.98,1070.76,895.98z"/>
			</g>
			<g>
				<path class="st42" d="M1124.8,884.18c-6.62,0-6.5,10.27,0.12,10.27C1131.53,894.45,1131.41,884.18,1124.8,884.18z"/>
			</g>
		</g>
		<g>
			<path class="st44" d="M1957.96,573.75c-3.83,0-25.35,80.35-25.35,80.35l25.35,21.05l25.35-21.05
				C1983.31,654.11,1961.79,573.75,1957.96,573.75z"/>
			<path class="st44" d="M1932.61,592.48c-2.89,0-19.15,60.69-19.15,60.69l19.15,15.9l19.15-15.9
				C1951.76,653.17,1935.5,592.48,1932.61,592.48z"/>
			<path class="st44" d="M2000,599.07c-3.17,11.34-5.41,19.71-5.41,19.71l5.41,4.49V599.07z"/>
			<path class="st45" d="M2000,547.09c-0.67-1.28-1.22-1.98-1.61-1.98c-4.68,0-30.99,98.23-30.99,98.23l30.99,25.73l1.61-1.34
				V547.09z"/>
		</g>
	</g>
</g>
</svg>
