<?xml version="1.0" encoding="utf-8"?>
<!-- Generator: Adobe Illustrator 24.3.0, SVG Export Plug-In . SVG Version: 6.00 Build 0)  -->
<svg version="1.1" id="Layer_1" xmlns="http://www.w3.org/2000/svg" xmlns:xlink="http://www.w3.org/1999/xlink" x="0px" y="0px"
	 viewBox="0 0 2000 1000" style="enable-background:new 0 0 2000 1000;" xml:space="preserve">
<style type="text/css">
	.st0{clip-path:url(#SVGID_2_);fill:url(#SVGID_3_);}
	.st1{clip-path:url(#SVGID_2_);fill:url(#SVGID_4_);}
	.st2{clip-path:url(#SVGID_2_);fill:url(#SVGID_5_);}
	.st3{opacity:0.7;clip-path:url(#SVGID_2_);}
	.st4{fill:#FFFFFF;}
	.st5{clip-path:url(#SVGID_2_);}
	.st6{fill:#837F7E;}
	.st7{fill:#260404;}
	.st8{fill:#F7A12F;stroke:#1C1C1C;stroke-width:1.1661;stroke-miterlimit:10;}
	.st9{fill:#FFA943;}
	.st10{fill:#EF9529;}
	.st11{fill:#FBB03B;stroke:#1C1C1C;stroke-width:1.1661;stroke-miterlimit:10;}
	.st12{fill:#E58E1C;}
	.st13{fill:#A55804;}
	.st14{fill:#7F4205;}
	.st15{fill:#FBB03B;}
	.st16{fill:#934A02;}
	.st17{fill:#14272B;}
	.st18{fill:#214148;}
</style>
<g>
	<defs>
		<rect id="SVGID_1_" width="2000" height="1000"/>
	</defs>
	<clipPath id="SVGID_2_">
		<use xlink:href="#SVGID_1_"  style="overflow:visible;"/>
	</clipPath>
	<linearGradient id="SVGID_3_" gradientUnits="userSpaceOnUse" x1="-4093.9617" y1="475.4376" x2="20565.168" y2="578.0984">
		<stop  offset="0" style="stop-color:#DFFFDB"/>
		<stop  offset="7.735043e-02" style="stop-color:#C8F4E1"/>
		<stop  offset="0.2389" style="stop-color:#8DD7F0"/>
		<stop  offset="0.2574" style="stop-color:#86D4F2"/>
		<stop  offset="0.2647" style="stop-color:#8DD3F0"/>
		<stop  offset="0.2968" style="stop-color:#A9CEE7"/>
		<stop  offset="0.3251" style="stop-color:#B9CBE2"/>
		<stop  offset="0.3466" style="stop-color:#BFCAE0"/>
		<stop  offset="0.3523" style="stop-color:#ACB9D1"/>
		<stop  offset="0.3645" style="stop-color:#899BB6"/>
		<stop  offset="0.3779" style="stop-color:#6C819F"/>
		<stop  offset="0.3927" style="stop-color:#546C8C"/>
		<stop  offset="0.4094" style="stop-color:#415C7D"/>
		<stop  offset="0.429" style="stop-color:#345173"/>
		<stop  offset="0.4543" style="stop-color:#2C4A6D"/>
		<stop  offset="0.506" style="stop-color:#2A486B"/>
		<stop  offset="0.6679" style="stop-color:#2C437B"/>
		<stop  offset="0.7493" style="stop-color:#2D4085"/>
		<stop  offset="0.7624" style="stop-color:#324588"/>
		<stop  offset="0.7777" style="stop-color:#405291"/>
		<stop  offset="0.7941" style="stop-color:#57689F"/>
		<stop  offset="0.8111" style="stop-color:#7887B4"/>
		<stop  offset="0.8286" style="stop-color:#A1AECE"/>
		<stop  offset="0.8395" style="stop-color:#BFCAE0"/>
		<stop  offset="0.9333" style="stop-color:#DFFFDB"/>
	</linearGradient>
	<polygon class="st0" points="0,-8 0,980.5 0,980.5 0,1001.3 2000.5,1001.3 2000.5,-8 	"/>
	<linearGradient id="SVGID_4_" gradientUnits="userSpaceOnUse" x1="-4239.5771" y1="690.4883" x2="8490.6357" y2="754.8287">
		<stop  offset="0" style="stop-color:#688468"/>
		<stop  offset="0.3883" style="stop-color:#89A589"/>
		<stop  offset="0.635" style="stop-color:#89A589"/>
		<stop  offset="0.8399" style="stop-color:#C5E4C2"/>
		<stop  offset="0.9972" style="stop-color:#BFCAE0"/>
	</linearGradient>
	<path class="st1" d="M1924.3,653.6c-72.1,4.7-150.9,4.1-242.9-10.8c-58.7-9.5-109.9-18.1-154.7-25.1c-11-1.7-22-2.7-33.1-3
		c-58.4-1.6-117.8-3.3-177.4-4.9c-17.8-0.5-35.2,4.8-49.7,15.1c-62.8,44.8-304.9,31.8-429.8-3.4c-124.9-35.2-238.1-29.2-379.1,0
		c-108,22.4-162.2,14-330.1-7.6v0C75.1,620.8,34.5,630.3,0,638.6v138.7l125.5-19.1v0L1767,738.7c-5.8,2.6-9.4,3.7-9.4,2.9
		c1,49.2-182.4,22.6-129.9,96.3l372.8-56.6V642.7C1972.8,648.6,1948.6,652.9,1924.3,653.6z"/>
	<linearGradient id="SVGID_5_" gradientUnits="userSpaceOnUse" x1="-4181.3784" y1="780.1392" x2="20607.168" y2="1128.2522">
		<stop  offset="2.508229e-02" style="stop-color:#5A8E54"/>
		<stop  offset="0.1075" style="stop-color:#FFF0CD"/>
		<stop  offset="0.1956" style="stop-color:#D8BB8D"/>
		<stop  offset="0.2265" style="stop-color:#D1B68C"/>
		<stop  offset="0.2727" style="stop-color:#BCA988"/>
		<stop  offset="0.3287" style="stop-color:#9A9281"/>
		<stop  offset="0.3922" style="stop-color:#6C7378"/>
		<stop  offset="0.4613" style="stop-color:#314C6C"/>
		<stop  offset="0.4686" style="stop-color:#2A486B"/>
		<stop  offset="0.8047" style="stop-color:#2A486B"/>
		<stop  offset="0.8192" style="stop-color:#445D77"/>
		<stop  offset="0.8502" style="stop-color:#889396"/>
		<stop  offset="0.8951" style="stop-color:#F4E8C8"/>
		<stop  offset="0.8994" style="stop-color:#FFF0CD"/>
		<stop  offset="0.9088" style="stop-color:#E4E0B9"/>
		<stop  offset="0.9274" style="stop-color:#B3C395"/>
		<stop  offset="0.9451" style="stop-color:#8CAC79"/>
		<stop  offset="0.9613" style="stop-color:#719B65"/>
		<stop  offset="0.9755" style="stop-color:#609258"/>
		<stop  offset="0.9862" style="stop-color:#5A8E54"/>
	</linearGradient>
	<path class="st2" d="M1210.6,724.6c-41.2,10.7-975.1-53.2-1016.3-42.5c-24.5,6.3-50.2,12.8-79,13.9c-2,0.1-4,0.1-6.1,0.1
		c-30.9,4.2-68.2,7.4-92.4,8.2c-2.8,0.1-8.5,0.5-16.8,1.2v275H0v19.5h2000.5V708.7L1210.6,724.6z"/>
	<g class="st3">
		<path class="st4" d="M2000.5,153c-12.2,0.6-24.5,1.8-35.9,2.9c-23.4,2.4-51.1,4.7-73.1,1.7c-8.5-1.2-14.9-3-22.4-4.5
			c-18.2-3.6-43.3-5.2-66.5-4.1c-49.6,2.2-84.6,15.1-135,15.3c-10.8,0-21.8-0.5-32.4,0c-17.6,0.8-31.9,4.7-32.8,9v7.1h398.2V153z"/>
	</g>
	<g class="st5">
		<path class="st6" d="M260.9,355.6c-1.9-0.1-2.9,1.5-3.4,3.1c1.9-1.5,4.9-1.2,7-0.1C263.7,357.2,262.6,355.7,260.9,355.6z"/>
		<path class="st6" d="M268.1,354.7c-1.1,0.9-1.9,2.2-2.4,3.6c1.5-2,4.3-2.7,6.7-2.2C271.5,354.4,270.1,353,268.1,354.7z"/>
		<path class="st7" d="M269.4,352.7c-2.2,0.4-3.7,3-4.4,5.1c-0.9-1.8-2.1-3.4-4.3-3.3c-2.8,0.1-4.2,2.9-4.6,5.3
			c-0.1,0.6,0.8,0.9,1,0.3c0-0.1,0-0.1,0.1-0.2c1.2-0.5,2.2-1.1,3.6-1.2c1.6-0.1,3,0.4,4.3,1.4c0.4,0.3,0.8-0.1,0.7-0.5c0,0,0,0,0,0
			c2.1-2.1,4.6-3.2,7.5-2.1c0.4,0.4,1.2,0,1-0.6C273.3,355,271.9,352.3,269.4,352.7z M257.4,358.7c0.6-1.6,1.5-3.2,3.4-3.1
			c1.7,0,2.8,1.5,3.6,3C262.3,357.5,259.4,357.3,257.4,358.7z M265.7,358.3c0.6-1.3,1.4-2.6,2.4-3.6c1.9-1.7,3.4-0.3,4.3,1.4
			C270,355.5,267.2,356.2,265.7,358.3z"/>
	</g>
	<g class="st5">
		<g>
			<g>
				<g>
					<path class="st8" d="M900.6,601.1L813,806.9l-89.3,69.9h-115c3.5-4,12.5-14.7,24.3-29.3c21.6-26.9,52.1-67.1,73.2-103.8
						c22.3-38.9,37.5-67,47.8-86.9c17.6-34,21-44.5,21-44.5s11.9-4.2,47.8-33.7C875.7,535,920.5,471,920.5,471l0.9,12.4l4.2,58.8
						L900.6,601.1L900.6,601.1z"/>
					<path class="st9" d="M754.1,656.7c42.4-29.2,80.5-64.4,114.5-103.1c19.3-22,37.4-45.3,52.9-70.2l-0.9-12.4
						c0,0-44.8,64-97.7,107.5c-35.8,29.5-47.8,33.7-47.8,33.7S771.6,622.7,754.1,656.7z"/>
					<path class="st10" d="M723.8,876.8h-115c3.5-4,12.5-14.7,24.3-29.3c0.4-0.1,0.9-0.1,1.3-0.2c15.6-2.7,30.4-8.8,44.7-15.4
						c15.4-7.2,30.5-15.1,44.7-24.5c24.2-15.9,45.8-35.5,65.9-56.3c13-13.3,25.4-27.2,37.3-41.4c21-25.2,40.2-51.8,57.6-79.5
						c4.2-6.7,9.4-18.5,16-28.9L813,806.9L723.8,876.8z"/>
					<path class="st11" d="M722.7,876.8c7.5-11.7,51-80.3,88.6-149c16.4-29.9,31.6-59.8,42.2-85.1c21.8-51.7,42.9-106.8,55.4-140.3
						c7.1-18.9,11.4-30.9,11.6-31.4c0,0,0,0,0,0s39,92.9,76.9,175.9c35.9,78.6,120.5,213,131.2,229.9H722.7z"/>
					<path class="st12" d="M889.6,877.1l-84.7-48.4c0,0,28.1-25.5,54.3-77.6c35-69.5,62.7-174.5,62.7-174.5L899.4,877L889.6,877.1z"
						/>
					<path class="st12" d="M889.3,876.8l32.7-300.4c-5-9.4,41.6,104.3,75.3,175.2c29.9,63,53.3,95.4,53.3,95.4l-66,29.9L889.3,876.8
						z"/>
					<polygon class="st13" points="889.3,876.8 984.6,876.8 921.9,576.4 					"/>
					<path class="st14" d="M889.3,876.8H956c-11.1-104.6-34.1-300.4-34.1-300.4L889.3,876.8z"/>
					<polygon class="st15" points="979.8,853.8 891.8,853.8 889.3,876.8 984.6,876.8 					"/>
				</g>
				<g>
					<g>
						<path class="st16" d="M571.6,887.2c0.2,0,0.3-0.1,0.4-0.2L776,612.5c0.2-0.2,0.1-0.5-0.1-0.7c-0.2-0.2-0.5-0.1-0.7,0.1
							L571.2,886.4c-0.2,0.2-0.1,0.5,0.1,0.7C571.4,887.2,571.5,887.2,571.6,887.2z"/>
					</g>
					<g>
						<path class="st16" d="M682.9,903.6c0.2,0,0.4-0.1,0.4-0.3L920.6,472l292.6,419.7c0.2,0.2,0.5,0.3,0.7,0.1
							c0.2-0.2,0.3-0.5,0.1-0.7L920.9,470.7c-0.1-0.1-0.3-0.2-0.4-0.2c-0.2,0-0.3,0.1-0.4,0.3L682.4,902.8c-0.1,0.2,0,0.6,0.2,0.7
							C682.7,903.6,682.8,903.6,682.9,903.6z"/>
					</g>
					<g>
						<path class="st16" d="M1213.6,899.9c0.9,0,1.7-0.7,1.8-1.7l0.5-10.7c0-1-0.7-1.8-1.7-1.9c-1,0-1.8,0.7-1.9,1.7l-0.5,10.7
							C1211.8,899,1212.6,899.8,1213.6,899.9C1213.6,899.9,1213.6,899.9,1213.6,899.9z"/>
					</g>
					<g>
						<path class="st16" d="M682.9,912c0.1,0,0.1,0,0.2,0c1-0.1,1.7-1,1.6-1.9l-1-10.3c-0.1-1-1-1.7-1.9-1.6c-1,0.1-1.7,1-1.6,1.9
							l1,10.3C681.2,911.3,682,912,682.9,912z"/>
					</g>
					<g>
						<path class="st16" d="M572.2,893.7c0,0,0.1,0,0.1,0c1-0.1,1.7-0.9,1.7-1.9l-0.6-9.4c-0.1-1-0.9-1.7-1.9-1.7
							c-1,0.1-1.7,0.9-1.7,1.9l0.6,9.4C570.5,893,571.3,893.7,572.2,893.7z"/>
					</g>
				</g>
			</g>
		</g>
	</g>
	<g class="st5">
		<path class="st17" d="M1524.9,570c-2.6,0-17.3,54.9-17.3,54.9l17.3,14.4l17.3-14.4C1542.3,625,1527.6,570,1524.9,570z"/>
		<path class="st17" d="M1507.6,582.8c-2,0-13.1,41.5-13.1,41.5l13.1,10.9l13.1-10.9C1520.7,624.3,1509.6,582.8,1507.6,582.8z"/>
		<path class="st17" d="M1623.5,535c-3.6,0-24,76-24,76l24,19.9l24-19.9C1647.5,611,1627.2,535,1623.5,535z"/>
		<path class="st17" d="M1567.3,545.9c-2.6,0-17.3,54.9-17.3,54.9l17.3,14.4l17.3-14.4C1584.7,600.8,1569.9,545.9,1567.3,545.9z"/>
		<path class="st18" d="M1591,504.8c-4.9,0-32.6,103.3-32.6,103.3l32.6,27.1l32.6-27.1C1623.5,608.1,1595.9,504.8,1591,504.8z"/>
		<path class="st18" d="M1552.6,550.4c-3.2,0-21.2,67.2-21.2,67.2l21.2,17.6l21.2-17.6C1573.8,617.6,1555.8,550.4,1552.6,550.4z"/>
		<g>
			<g>
				<path class="st17" d="M1590.6,538.7c0,27,0,54.1,0,81.1c0,7.6,0,15.3,0,22.9c0,0.9,1.3,0.9,1.3,0c0-27,0-54.1,0-81.1
					c0-7.6,0-15.3,0-22.9C1591.9,537.8,1590.6,537.8,1590.6,538.7L1590.6,538.7z"/>
			</g>
		</g>
		<g>
			<g>
				<path class="st17" d="M1591.8,618.1c7.3-7.7,14.6-15.4,21.9-23c0.6-0.6-0.3-1.6-0.9-0.9c-7.3,7.7-14.6,15.4-21.9,23
					C1590.2,617.8,1591.2,618.8,1591.8,618.1L1591.8,618.1z"/>
			</g>
		</g>
		<g>
			<g>
				<path class="st17" d="M1591.6,598.7c-7-6.7-12.1-15.1-14.9-24.4c-0.2-0.8-1.5-0.5-1.3,0.4c2.8,9.5,8.1,18.1,15.2,25
					C1591.3,600.3,1592.3,599.3,1591.6,598.7L1591.6,598.7z"/>
			</g>
		</g>
		<g>
			<g>
				<path class="st17" d="M1592.7,573.1c1.6-1.9,2.8-4.3,3.9-6.5c1.2-2.2,2.3-4.6,3.6-6.8c0.4-0.7-0.7-1.4-1.2-0.7
					c-1.2,2.1-2.3,4.4-3.5,6.6c-1.1,2.1-2.2,4.5-3.8,6.4C1591.2,572.8,1592.1,573.8,1592.7,573.1L1592.7,573.1z"/>
			</g>
		</g>
		<g>
			<g>
				<path class="st17" d="M1590.9,622.8c-8.5-3.5-13.5-11.8-19.7-18c-0.6-0.6-1.6,0.3-0.9,0.9c6.5,6.4,11.5,14.8,20.3,18.3
					C1591.3,624.4,1591.7,623.1,1590.9,622.8L1590.9,622.8z"/>
			</g>
		</g>
		<g>
			<g>
				<path class="st17" d="M1580.7,613.9c-0.9-4-1.9-8-3.1-11.9c-0.2-0.8-1.5-0.5-1.3,0.4c1.2,3.9,2.2,7.9,3.1,11.9
					C1579.6,615.1,1580.9,614.7,1580.7,613.9L1580.7,613.9z"/>
			</g>
		</g>
		<g>
			<g>
				<path class="st17" d="M1552.2,574.3c0,19.4,0,38.9,0,58.3c0,5.5,0,11,0,16.4c0,0.9,1.3,0.9,1.3,0c0-19.4,0-38.9,0-58.3
					c0-5.5,0-11,0-16.4C1553.5,573.4,1552.2,573.4,1552.2,574.3L1552.2,574.3z"/>
			</g>
		</g>
		<g>
			<g>
				<path class="st17" d="M1553.6,624.1c-3.6-6.5-7-13.1-10.2-19.7c-0.4-0.8-1.5-0.1-1.2,0.7c3.2,6.7,6.7,13.2,10.2,19.7
					C1552.9,625.5,1554,624.8,1553.6,624.1L1553.6,624.1z"/>
			</g>
		</g>
		<g>
			<g>
				<path class="st17" d="M1553.9,598c2-3.1,3.8-6.3,5.6-9.6c0.4-0.8-0.7-1.4-1.2-0.7c-1.8,3.2-3.7,6.4-5.6,9.6
					C1552.3,598.1,1553.4,598.8,1553.9,598L1553.9,598z"/>
			</g>
		</g>
		<g>
			<g>
				<path class="st17" d="M1553.2,585.9c-0.9-1.4-1.8-2.8-2.8-4.2c-0.2-0.3-0.6-0.4-0.9-0.2c-0.3,0.2-0.4,0.6-0.2,0.9
					c0.9,1.4,1.8,2.8,2.8,4.2c0.2,0.3,0.6,0.4,0.9,0.2C1553.2,586.6,1553.4,586.2,1553.2,585.9L1553.2,585.9z"/>
			</g>
		</g>
		<g>
			<g>
				<path class="st17" d="M1553.3,620.6c3.1-2.7,6-5.6,8.7-8.6c0.6-0.6-0.4-1.6-0.9-0.9c-2.7,3-5.6,5.9-8.7,8.6
					C1551.7,620.3,1552.7,621.2,1553.3,620.6L1553.3,620.6z"/>
			</g>
		</g>
	</g>
	<g class="st5">
		<path class="st17" d="M101.8,505.6c-5.3,0-35.1,111.1-35.1,111.1l35.1,29.1l35.1-29.1C136.9,616.8,107.1,505.6,101.8,505.6z"/>
		<path class="st17" d="M19.6,521.6C17,521.6,6.7,557,0,580.8v25.9L19.6,623l25.3-21C44.9,601.9,23.4,521.6,19.6,521.6z"/>
		<path class="st18" d="M54.1,461.6c-7.2,0-47.7,151.1-47.7,151.1l47.7,39.6l47.7-39.6C101.8,612.6,61.3,461.6,54.1,461.6z"/>
		<path class="st18" d="M0,531v119.5l29-24.1C29,626.5,7.7,546.9,0,531z"/>
		<g>
			<g>
				<path class="st17" d="M61.8,620c8.5-8.9,16.9-17.8,25.4-26.6c0.6-0.6-0.3-1.6-0.9-0.9c-8.5,8.9-16.9,17.8-25.4,26.6
					C60.3,619.7,61.2,620.7,61.8,620L61.8,620z"/>
			</g>
		</g>
		<g>
			<g>
				<path class="st17" d="M61.9,552.1c1.8-3.4,3.5-6.9,5.4-10.2c0.4-0.7-0.7-1.4-1.2-0.7c-1.9,3.3-3.6,6.8-5.4,10.2
					C60.4,552.1,61.5,552.8,61.9,552.1L61.9,552.1z"/>
			</g>
		</g>
	</g>
</g>
</svg>
