<?xml version="1.0" encoding="utf-8"?>
<!-- Generator: Adobe Illustrator 24.3.0, SVG Export Plug-In . SVG Version: 6.00 Build 0)  -->
<svg version="1.1" id="Layer_1" xmlns="http://www.w3.org/2000/svg" xmlns:xlink="http://www.w3.org/1999/xlink" x="0px" y="0px"
	 viewBox="0 0 16 16" style="enable-background:new 0 0 16 16;" xml:space="preserve">
<style type="text/css">
	.st0{fill:#767676;}
	.st1{fill:#EA0A4D;}
</style>
<g>

		<rect id="sq00_9_" x="1.2" y="9" transform="matrix(0.7071 -0.7071 0.7071 0.7071 -6.635 5.1195)" class="st0" width="3.2" height="3.2">
	</rect>

		<rect id="sq01_8_" x="3.8" y="6.4" transform="matrix(0.7071 -0.7071 0.7071 0.7071 -4.0661 6.1835)" class="st0" width="3.2" height="3.2">
	</rect>

		<rect id="sq11_8_" x="6.4" y="9" transform="matrix(0.7071 -0.7071 0.7071 0.7071 -5.1302 8.7524)" class="st0" width="3.2" height="3.2">
	</rect>

		<rect id="sq12_11_" x="9" y="6.4" transform="matrix(0.7071 -0.7071 0.7071 0.7071 -2.5613 9.8165)" class="st1" width="3.2" height="3.2">
	</rect>

		<rect id="sq13_10_" x="11.5" y="3.8" transform="matrix(0.7071 -0.7071 0.7071 0.7071 7.567803e-03 10.8805)" class="st1" width="3.2" height="3.2">
	</rect>

		<rect id="sq22_10_" x="11.5" y="9" transform="matrix(0.7071 -0.7071 0.7071 0.7071 -3.6254 12.3853)" class="st1" width="3.2" height="3.2">
	</rect>
</g>
</svg>
