<?xml version="1.0" encoding="utf-8"?>
<!-- Generator: Adobe Illustrator 24.3.0, SVG Export Plug-In . SVG Version: 6.00 Build 0)  -->
<svg version="1.1" id="Layer_1" xmlns="http://www.w3.org/2000/svg" xmlns:xlink="http://www.w3.org/1999/xlink" x="0px"
	y="0px" viewBox="0 0 150.9 34.3" style="enable-background:new 0 0 150.9 34.3;" xml:space="preserve">
	<style type="text/css">
		.st0 {
			fill: #206CB5;
		}
	</style>
	<g id="Group_1">
		<path id="Path_1" class="st0" d="M82.7,0.7h8l8.8,14.2l8.8-14.2h8v33.6H109V12.3l-9.5,14.3h-0.2l-9.4-14.2v21.8h-7.2L82.7,0.7
		L82.7,0.7z" />
		<path id="Path_2" class="st0" d="M124.4,0.7h13.7c8,0,12.9,4.8,12.9,11.6v0.1c0,7.8-6,11.8-13.6,11.8h-5.6v10.1h-7.4L124.4,0.7
		L124.4,0.7z M137.6,17.6c3.7,0,5.9-2.2,5.9-5.1v-0.1c0-3.3-2.3-5.1-6-5.1h-5.7v10.3L137.6,17.6L137.6,17.6z" />
	</g>
	<g id="Shape_1_1_">
		<g id="Shape_1">
			<g id="Group_2">
				<path id="Path_3" class="st0" d="M7.7,27.4V0.5H0v33.8h24.2v-7H7.7z" />
			</g>
		</g>
	</g>
	<g id="Shape_2_1_">
		<g id="Shape_2">
			<g id="Group_3">
				<path id="Path_4" class="st0" d="M48.2,0.2h-7L26.9,34.3h7.7l10.1-25l10.3,25h7.7L48.2,0.2z" />
			</g>
		</g>
	</g>
	<g id="Shape_3_1_">
		<g id="Shape_3">
			<g id="Group_4">
				<path id="Path_5" class="st0" d="M65.9,0h-6.6l-4.6,10.1l3.8,8.6l3.8-9.4l10.3,25h7.9L65.9,0z" />
			</g>
		</g>
	</g>
</svg>