<?xml version="1.0" encoding="utf-8"?>
<svg version="1.1" id="Layer_1" xmlns="http://www.w3.org/2000/svg" xmlns:xlink="http://www.w3.org/1999/xlink" x="0px"
	y="0px" viewBox="0 0 524 144" style="enable-background:new 0 0 524 144;" xml:space="preserve">
	<style type="text/css">
		.st0 {
			fill: #4075FF;
		}

		.st1 {
			fill: #404C52;
		}
	</style>
	<path class="st0" d="M136.7,33.1L136.7,33.1c-0.1-0.1-0.2-0.1-0.3-0.2L112,14.1c-1.3-1-3.2-1.1-4.7-0.3L72.2,34.9
	c-0.8,0.4-1.4,1.2-1.7,2.1L59.7,64.5c0,0-0.3,1-0.3,1.5c0,2.3,1.9,4.2,4.2,4.2c1.6,0,3-1,3.7-2.3c0.1-0.1,10.5-26.4,10.5-26.4
	l31.4-18.8l23.4,17.8c4.5,3.9,7.3,9.8,7.3,16.3c0,9.9-6.6,18.3-15.6,20.7c-4.4,1.2-8.1,1.1-8.1,1.1h-10.4l8.7-21.9
	c0.8-2-0.7-4.2-2.8-4.2H99.5c-1.3,0-2.3,0.7-2.8,1.9l-9.6,24.2H26.5c-2.3,0-4.2,1.9-4.2,4.2c0,2.3,1.9,4.2,4.2,4.2h18.3
	c2.3,0,4.2,1.9,4.2,4.2c0,2.3-1.9,4.2-4.2,4.2H19.9c-2.3,0-4.2,1.9-4.2,4.2c0,2.3,1.8,4.3,4.1,4.3h18.9c1.9,0.1,3.6,2,3.6,4.1
	c0,2.3-1.9,4.2-4.2,4.2H13.3c-2.3,0-4.2,1.9-4.2,4.2c0,2.3,1.9,4.2,4.2,4.2h29c1.7,5.4,5.7,9.9,11.3,12.2c2.4,0.9,4.8,1.3,7.1,1.3
	c7.7,0,15.1-4.7,18.1-12.3L92.5,87h20.3c0,0,6.5,0.2,10.2-0.4c14.1-2,25-14.5,25-29.5C148.1,47.1,143.6,38.5,136.7,33.1z
	 M77.9,101.4c-0.1,0.2-6.6,16.8-6.6,16.8c-1.6,4.3-5.9,7.1-10.5,7.1c-1.4,0-2.7-0.3-4.1-0.7c-2.7-1.1-4.9-3.2-6.1-6
	c-1.2-2.8-1.2-5.7-0.1-8.5l1.9-4.8L56.9,94c1.6-4.1,5.6-6.9,10-7.1h16.8L77.9,101.4z" />
	<path class="st1" d="M223.2,62.3c-13.4,0-21.7,12.2-21.7,23.6c0,9.6,7.1,16.3,17.1,16.3c10.5,0,21.7-8.2,21.7-23.5
	C240.3,68.9,233.4,62.3,223.2,62.3z M219.2,93.8c-4.3,0-6.9-2.9-6.9-7.8c0-3.4,1-7.2,2.5-10c1.3-2.4,3.9-5.2,7.9-5.2
	c4.4,0,6.8,2.8,6.8,7.7C229.5,84.6,226.2,93.8,219.2,93.8z" />
	<path class="st1" d="M276.8,64.1c-1.6-1-3.5-1.5-5.8-1.5c-5.1,0-9.4,3.7-11.4,7.2l-0.8,1.5l1.3-6.5c0.1-0.5,0.1-1-0.1-1.2
	c-0.1-0.2-0.5-0.4-1-0.4H251c-0.9,0-1.4,0.4-1.6,1.3l-6.7,35.2c-0.1,0.5-0.1,1,0.1,1.2c0.1,0.2,0.5,0.4,1,0.4h8.1
	c0.8,0,1.4-0.4,1.6-1.3l2.8-15.1c0.4-1.9,0.9-4.3,1.6-6.5c1.1-3.4,4.5-6.8,8-6.8c1.4,0,2.7,0.4,3.9,1.2c0.9,0.5,1.6,0.4,2.2-0.2
	L277,66C277.5,65.3,277.5,64.6,276.8,64.1z" />
	<path class="st1" d="M308,63.9c-2.6-1-5.3-1.6-8.2-1.6c-13.6,0-23,9.9-23,24.2c0,9.4,6.5,15.7,16,15.7c3.6,0,6-0.5,9.3-2.2
	c0.6-0.3,1-0.9,1.3-1.6l1-5.4c0.1-0.6,0.1-1-0.2-1.2c-0.3-0.2-0.8-0.1-1.4,0.1c-2.6,1.1-5.6,1.8-7.8,1.8c-4.9,0-7.3-2.5-7.3-7.8
	c0-7.2,3.6-14.9,11.7-14.9c2.2,0,4.5,0.5,6.7,1.5c0.5,0.1,1,0.1,1.3,0c0.3-0.1,0.4-0.4,0.5-1l1.1-5.7
	C309.1,64.9,308.8,64.3,308,63.9z" />
	<path class="st1" d="M341,62.5c-4.6,0-9.4,2.5-12.5,6.7l-0.7,1l4.6-23.7c0.1-0.5,0.1-1-0.1-1.2c-0.1-0.2-0.5-0.4-1-0.4h-8.1
	c-0.8,0-1.4,0.4-1.6,1.3l-10.2,53.5c-0.1,0.5-0.1,1,0.1,1.2c0.1,0.2,0.5,0.4,1,0.4h8.1c0.8,0,1.4-0.4,1.6-1.3l3.7-19.5
	c0.4-2.7,1.3-4.6,2.7-6c2.2-2.2,4.6-3.6,6.6-3.6c3.1,0,4.8,1.6,4.8,4.6c0,1-0.1,2.5-0.5,4.6l-3.7,19.6c-0.1,0.5-0.1,1,0.1,1.2
	c0.1,0.2,0.5,0.4,1,0.4h8c0.9,0,1.4-0.4,1.6-1.3l4-21.3c0.4-2.2,1-5.2,1-7.1C351.4,66,347.5,62.5,341,62.5z" />
	<path class="st1" d="M443.5,64.6c-4.3-1-11.1-2-16.8-2c-15.7,0-22.8,13.1-22.8,25.4c0,8.4,5.2,14.2,12.6,14.2
	c4.4,0,8.2-2.2,11.1-6.3l0.7-1l-1,5.1c-0.1,0.5-0.1,0.9,0.1,1.2c0.2,0.3,0.6,0.4,1.1,0.4h7.9c0.9,0,1.3-0.4,1.6-1.3l6.4-33.7
	C444.6,65.3,444.3,64.8,443.5,64.6z M432.2,72.6L430,84.6c-0.4,2.4-1.3,4.3-2.5,5.7c-1.6,2-4.1,3.4-6.3,3.4c-3.9,0-6-2.5-6-7.2
	c0-6.3,3-15.5,11.4-15.5c2.4,0,4.5,0.7,5.5,1.3l0.1,0.1V72.6z" />
	<path class="st1" d="M476.3,64c-3.1-1-7.2-1.6-10.1-1.6c-5,0-16.6,1.2-16.6,12.5c0,4.8,3.7,8.2,7.2,9.8l3.8,1.6
	c1.9,0.9,3.3,1.8,3.3,3.4c0,2.8-2.1,4.5-5.6,4.5c-3.2,0-7.1-0.9-10.4-2.3c-0.3-0.1-0.6-0.2-0.8-0.2c-0.1,0-0.3,0-0.4,0.1
	c-0.4,0.2-0.5,0.7-0.6,1l-1.1,5.4c-0.1,0.8,0.1,1.5,0.7,1.8c3.4,1.5,8.4,2.2,11.7,2.2c5.3,0,17.8-1.3,17.8-13.1
	c0-3.9-2.6-7.1-7.6-9.5l-3.6-1.7c-2.2-1-3-1.9-3-3.3c0-2.9,2.7-4.2,5.2-4.2c2.5,0,5.4,0.5,8.3,1.5c0.4,0.2,0.8,0.3,1.1,0.1
	c0.4-0.1,0.6-0.5,0.7-1l1-5.1C477.3,64.8,477,64.3,476.3,64z" />
	<path class="st1" d="M510.5,64c-3.1-1-7.2-1.6-10.1-1.6c-5,0-16.6,1.2-16.6,12.5c0,4.8,3.7,8.2,7.2,9.8l3.8,1.6
	c1.9,0.9,3.3,1.8,3.3,3.4c0,2.8-2.1,4.5-5.6,4.5c-3.2,0-7.1-0.9-10.4-2.3c-0.3-0.1-0.6-0.2-0.8-0.2c-0.1,0-0.3,0-0.4,0.1
	c-0.4,0.2-0.5,0.7-0.6,1l-1.1,5.4c-0.1,0.8,0.1,1.5,0.7,1.8c3.4,1.5,8.4,2.2,11.7,2.2c5.3,0,17.8-1.3,17.8-13.1
	c0-3.9-2.6-7.1-7.6-9.5l-3.6-1.7c-2.2-1-3-1.9-3-3.3c0-2.9,2.7-4.2,5.2-4.2c2.5,0,5.4,0.5,8.3,1.5c0.4,0.2,0.8,0.3,1.1,0.1
	c0.4-0.1,0.6-0.5,0.7-1l1-5.1C511.5,64.8,511.2,64.3,510.5,64z" />
	<path class="st1" d="M399.7,54.3c-2.6-1.9-4.4-2.8-8.1-3h-19.8c-1.6,0-2.4,0-3,2.3l-9.1,47.1c-0.1,0.5-0.1,1,0.1,1.2
	c0.1,0.2,0.5,0.4,1,0.4h8.5c0.9,0,1.3-0.4,1.6-1.3l3.3-17.5h7.8c4.8,0,9.7-1.2,12.9-3.2c5.6-3.4,8.8-9.3,8.8-16.4
	C403.9,60,402.1,56.2,399.7,54.3z M388.4,73.5c-1.5,1-3.6,1.6-6.4,1.6h-6.1l3-15h0.2c0.6,0,1.7,0,2.8-0.1c1.3,0,2.6-0.1,3.4-0.1
	c4.2,0,6.6,2,6.6,5.6C391.9,68.9,390.5,72.1,388.4,73.5z" />
	<path class="st1" d="M196.7,54.3c-2.6-1.9-4.4-2.8-8.1-3h-19.7c-1.6,0-2.4,0-3,2.3l-9.1,47.1c-0.1,0.5-0.1,1,0.1,1.2
	c0.1,0.2,0.5,0.4,1,0.4h8.5c0.9,0,1.4-0.4,1.6-1.3l3.3-17.5h7.7c4.8,0,9.7-1.2,12.9-3.2c5.6-3.4,8.8-9.3,8.8-16.4
	C200.9,60,199.2,56.2,196.7,54.3z M185.4,73.5c-1.5,1-3.6,1.6-6.4,1.6H173l3-15h0.2c0.6,0,1.7,0,2.8-0.1c1.3,0,2.6-0.1,3.4-0.1
	c4.2,0,6.6,2,6.6,5.6C188.9,68.9,187.5,72.1,185.4,73.5z" />
</svg>